<?xml version="1.0" encoding="utf-8"?>
<!-- Generator: Adobe Illustrator 17.1.0, SVG Export Plug-In . SVG Version: 6.00 Build 0)  -->
<!DOCTYPE svg PUBLIC "-//W3C//DTD SVG 1.1//EN" "http://www.w3.org/Graphics/SVG/1.1/DTD/svg11.dtd">
<svg version="1.1" id="Layer_1" xmlns="http://www.w3.org/2000/svg" xmlns:xlink="http://www.w3.org/1999/xlink" x="0px" y="0px"
	 viewBox="0 0 612 792" enable-background="new 0 0 612 792" xml:space="preserve">
<g>
	
		<linearGradient id="SVGID_1_" gradientUnits="userSpaceOnUse" x1="5.4381" y1="685.4382" x2="98.9524" y2="778.9523" gradientTransform="matrix(4.6259 0 0 4.6259 0 -2953.8093)">
		<stop  offset="0" style="stop-color:#FF0054"/>
		<stop  offset="1" style="stop-color:#484852"/>
	</linearGradient>
	<path fill="url(#SVGID_1_)" d="M86,183c-14.3,14.8-26.8,31-37.9,48.1c-4.2,6-7.9,12.5-11.1,19c-9.3,16.7-16.2,33.8-22.2,51.3
		c12.5-17.6,24.1-35.6,34.7-54.1C62,226,75.9,205.2,86,183z"/>
	
		<linearGradient id="SVGID_2_" gradientUnits="userSpaceOnUse" x1="-7.8369" y1="698.7131" x2="85.6774" y2="792.2275" gradientTransform="matrix(4.6259 0 0 4.6259 0 -2953.8093)">
		<stop  offset="0" style="stop-color:#FF0054"/>
		<stop  offset="1" style="stop-color:#484852"/>
	</linearGradient>
	<path fill="url(#SVGID_2_)" d="M74,297.7C52.3,331,28.2,362.5,0,389.8c0,1.9,0,4.2,0,6c0,3.7,0,7.4,0.5,11.1
		c31.9-29.6,58.7-64.8,81.9-101.8C79.1,303.3,76.3,300.5,74,297.7z"/>
	
		<linearGradient id="SVGID_3_" gradientUnits="userSpaceOnUse" x1="21.1631" y1="669.7131" x2="114.6775" y2="763.2274" gradientTransform="matrix(4.6259 0 0 4.6259 0 -2953.8093)">
		<stop  offset="0" style="stop-color:#FF0054"/>
		<stop  offset="1" style="stop-color:#484852"/>
	</linearGradient>
	<path fill="url(#SVGID_3_)" d="M146.6,187.6c6.5-19.4,9.7-39.8,12.5-60.6c-2.3,1.4-4.2,2.3-6.5,3.7c-9.7,36.1-24.5,70.8-42.1,104.5
		H124C133.2,220,141.1,204.3,146.6,187.6z"/>
	
		<linearGradient id="SVGID_4_" gradientUnits="userSpaceOnUse" x1="-15.3265" y1="694.5235" x2="98.3703" y2="808.2202" gradientTransform="matrix(4.6259 0 0 4.6259 0 -2953.8093)">
		<stop  offset="0" style="stop-color:#FF0054"/>
		<stop  offset="1" style="stop-color:#484852"/>
	</linearGradient>
	<path fill="url(#SVGID_4_)" d="M9.3,459.6c0.9,5.1,2.3,10.2,3.7,15.3c31.9-25,87.9-82.8,122.1-124l-6.9-25
		C94.4,372.6,46.7,430,9.3,459.6z"/>
	
		<linearGradient id="SVGID_5_" gradientUnits="userSpaceOnUse" x1="24.9909" y1="658.9409" x2="156.0022" y2="789.9521" gradientTransform="matrix(4.6259 0 0 4.6259 0 -2953.8093)">
		<stop  offset="0" style="stop-color:#FF0054"/>
		<stop  offset="1" style="stop-color:#484852"/>
	</linearGradient>
	<path fill="url(#SVGID_5_)" d="M182.3,260.2c10.2-24.1,19.4-46.7,21.7-53.2c11.6-33.8,14.3-69.9,19-105c-1.4,0.5-2.3,0.5-3.7,0.9
		c-7.4,45.3-26.4,99-48.1,146.6C175.3,252.4,179,256.1,182.3,260.2z"/>
	
		<linearGradient id="SVGID_6_" gradientUnits="userSpaceOnUse" x1="-13.4579" y1="705.842" x2="77.8213" y2="797.1213" gradientTransform="matrix(4.6259 0 0 4.6259 0 -2953.8093)">
		<stop  offset="0" style="stop-color:#FF0054"/>
		<stop  offset="1" style="stop-color:#484852"/>
	</linearGradient>
	<path fill="url(#SVGID_6_)" d="M29.1,506.3c-2.3,1.9-4.2,3.2-6.5,4.6c2.8,6.9,6,13.4,9.3,19.9c3.7-2.3,6.9-5.1,10.6-7.9
		c19-14.3,73.6-68,111.5-106.9l-5.6-19.4C109.6,434.6,50.9,490.1,29.1,506.3z"/>
	
		<linearGradient id="SVGID_7_" gradientUnits="userSpaceOnUse" x1="22.1598" y1="646.8599" x2="194.6358" y2="819.3357" gradientTransform="matrix(4.6259 0 0 4.6259 0 -2953.8093)">
		<stop  offset="0" style="stop-color:#FF0054"/>
		<stop  offset="1" style="stop-color:#484852"/>
	</linearGradient>
	<path fill="url(#SVGID_7_)" d="M278.9,104.8c0.5-4.6,1.4-9.3,1.9-13.9c-3.7,0.5-6.9,0.5-10.6,0.9c-0.5,3.7-0.9,7.4-1.4,11.6
		c0.5,21.7-23.6,105-50.9,176.2h19C262.7,205.6,275.7,128.9,278.9,104.8z"/>
	
		<linearGradient id="SVGID_8_" gradientUnits="userSpaceOnUse" x1="-23.2223" y1="702.4776" x2="83.8134" y2="809.5134" gradientTransform="matrix(4.6259 0 0 4.6259 0 -2953.8093)">
		<stop  offset="0" style="stop-color:#FF0054"/>
		<stop  offset="1" style="stop-color:#484852"/>
	</linearGradient>
	<path fill="url(#SVGID_8_)" d="M164.2,453.1c-43,42.6-90.2,84.7-103.6,94.4c-4.6,3.7-9.3,6.9-14.3,10.2c4.2,6.5,8.3,13,13,19
		c5.1-3.7,10.2-7.4,15.3-11.1c12-9.3,55.5-44.9,97.6-86c-0.5-0.9-0.5-1.9-0.9-2.8L164.2,453.1z"/>
	
		<linearGradient id="SVGID_9_" gradientUnits="userSpaceOnUse" x1="20.1856" y1="633.1356" x2="208.6859" y2="821.636" gradientTransform="matrix(4.6259 0 0 4.6259 0 -2953.8093)">
		<stop  offset="0" style="stop-color:#FF0054"/>
		<stop  offset="1" style="stop-color:#484852"/>
	</linearGradient>
	<path fill="url(#SVGID_9_)" d="M331.7,111.7c0.9-6.9,1.9-13.9,2.3-20.8c-3.7-0.5-7.4-0.9-11.1-0.9c-0.9,6.5-1.9,13.4-2.8,19.9
		c-7.9,53.2-26.8,115.6-47.2,169.3h20.4C312.7,221.4,328.4,155.7,331.7,111.7z"/>
	
		<linearGradient id="SVGID_10_" gradientUnits="userSpaceOnUse" x1="21.2048" y1="623.4048" x2="201.6467" y2="803.8467" gradientTransform="matrix(4.6259 0 0 4.6259 0 -2953.8093)">
		<stop  offset="0" style="stop-color:#FF0054"/>
		<stop  offset="1" style="stop-color:#484852"/>
	</linearGradient>
	<path fill="url(#SVGID_10_)" d="M384.4,118.7c0.9-6,1.4-12,2.3-18.5c-3.7-0.9-7.9-1.9-11.6-2.8c-0.9,6.5-1.9,13-2.8,19.4
		c-1.4,18.5-22.2,95.3-43,162.8h15.3C363.1,213,381.6,138.1,384.4,118.7z"/>
	
		<linearGradient id="SVGID_11_" gradientUnits="userSpaceOnUse" x1="-21.4583" y1="708.0624" x2="75.1641" y2="804.6848" gradientTransform="matrix(4.6259 0 0 4.6259 0 -2953.8093)">
		<stop  offset="0" style="stop-color:#FF0054"/>
		<stop  offset="1" style="stop-color:#484852"/>
	</linearGradient>
	<path fill="url(#SVGID_11_)" d="M184.1,503.6c-41.6,41.2-81.4,77.3-92.1,85.1c-4.6,3.7-9.7,6.9-14.3,10.6c5.6,6,11.1,12,17.1,17.6
		c4.2-2.8,7.9-6,12-8.8c10.6-7.9,50.4-45.8,92.1-89.3C193.4,514.7,188.3,509.6,184.1,503.6z"/>
	
		<linearGradient id="SVGID_12_" gradientUnits="userSpaceOnUse" x1="-49.966" y1="684.484" x2="86.323" y2="820.773" gradientTransform="matrix(4.6259 0 0 4.6259 0 -2953.8093)">
		<stop  offset="0" style="stop-color:#FF0054"/>
		<stop  offset="1" style="stop-color:#484852"/>
	</linearGradient>
	<path fill="url(#SVGID_12_)" d="M123.5,630.3c-2.3,1.9-5.1,3.7-7.4,5.6c6.9,5.6,14.3,10.6,21.7,15.7c0.5-0.5,0.9-0.5,1.4-0.9
		c9.3-6.9,33.8-32.4,62.4-64.3c-4.2-7.4-6.9-16.2-7.9-25C161.4,595.1,133.2,622.9,123.5,630.3z"/>
	
		<linearGradient id="SVGID_13_" gradientUnits="userSpaceOnUse" x1="26.3047" y1="619.8047" x2="184.9802" y2="778.4801" gradientTransform="matrix(4.6259 0 0 4.6259 0 -2953.8093)">
		<stop  offset="0" style="stop-color:#FF0054"/>
		<stop  offset="1" style="stop-color:#484852"/>
	</linearGradient>
	<path fill="url(#SVGID_13_)" d="M437.1,125.6c0.5-2.3,0.5-4.2,0.9-6.5c-4.2-1.9-8.3-3.7-12.5-5.6c-0.5,3.2-0.9,6.9-1.4,10.2
		c-3.2,24.1-20.4,84.2-46.7,155.9h23.6C423.3,216.3,440.4,149.7,437.1,125.6z"/>
	
		<linearGradient id="SVGID_14_" gradientUnits="userSpaceOnUse" x1="24.9865" y1="610.8365" x2="182.4108" y2="768.2609" gradientTransform="matrix(4.6259 0 0 4.6259 0 -2953.8093)">
		<stop  offset="0" style="stop-color:#FF0054"/>
		<stop  offset="1" style="stop-color:#484852"/>
	</linearGradient>
	<path fill="url(#SVGID_14_)" d="M487.6,149.2c-4.2-3.2-8.8-6-13-9.3c-3.2,20.4-23.6,78.6-45.8,139.7h20.8
		C469.1,222.3,485.3,168.6,487.6,149.2z"/>
	
		<linearGradient id="SVGID_15_" gradientUnits="userSpaceOnUse" x1="-46.8323" y1="685.5677" x2="81.8803" y2="814.2803" gradientTransform="matrix(4.6259 0 0 4.6259 0 -2953.8093)">
		<stop  offset="0" style="stop-color:#FF0054"/>
		<stop  offset="1" style="stop-color:#484852"/>
	</linearGradient>
	<path fill="url(#SVGID_15_)" d="M162.4,665.9c8.8,4.6,17.6,8.8,26.8,12.5c10.2-8.3,33.8-32.4,61.5-62.9
		c-10.2-0.5-19.4-3.2-27.3-7.9C195.2,636.3,172.1,658.5,162.4,665.9z"/>
	
		<linearGradient id="SVGID_16_" gradientUnits="userSpaceOnUse" x1="-24.3823" y1="663.1177" x2="104.3303" y2="791.8303" gradientTransform="matrix(4.6259 0 0 4.6259 0 -2953.8093)">
		<stop  offset="0" style="stop-color:#FF0054"/>
		<stop  offset="1" style="stop-color:#484852"/>
	</linearGradient>
	<path fill="url(#SVGID_16_)" d="M311.3,546.6c2.8-3.2,5.6-6.5,7.9-9.7h-10.6C309.9,540.1,310.4,543.3,311.3,546.6z"/>
	
		<linearGradient id="SVGID_17_" gradientUnits="userSpaceOnUse" x1="28.8274" y1="608.9775" x2="172.5541" y2="752.7041" gradientTransform="matrix(4.6259 0 0 4.6259 0 -2953.8093)">
		<stop  offset="0" style="stop-color:#FF0054"/>
		<stop  offset="1" style="stop-color:#484852"/>
	</linearGradient>
	<path fill="url(#SVGID_17_)" d="M501.4,294.9c3.7,5.1,6,10.6,6.9,16.7c13-38.4,20.8-78.6,26.8-118.9c-4.6-5.1-9.3-10.2-13.9-14.8
		c-3.2,18.5-16.2,59.2-32.8,105.9C493.6,286.6,498.2,290.3,501.4,294.9z"/>
	
		<linearGradient id="SVGID_18_" gradientUnits="userSpaceOnUse" x1="-57.1847" y1="657.7153" x2="91.6437" y2="806.5438" gradientTransform="matrix(4.6259 0 0 4.6259 0 -2953.8093)">
		<stop  offset="0" style="stop-color:#FF0054"/>
		<stop  offset="1" style="stop-color:#484852"/>
	</linearGradient>
	<path fill="url(#SVGID_18_)" d="M217.4,688.6c10.6,3.2,21.3,6,32.4,7.9c16.2-14.3,56.9-55.5,97.1-99.9c-7.4-7.9-12.5-18-14.8-29.1
		C286.3,619.7,235.9,673.8,217.4,688.6z"/>
	
		<linearGradient id="SVGID_19_" gradientUnits="userSpaceOnUse" x1="-30.7208" y1="624.929" x2="116.3385" y2="771.9885" gradientTransform="matrix(4.6259 0 0 4.6259 0 -2953.8093)">
		<stop  offset="0" style="stop-color:#FF0054"/>
		<stop  offset="1" style="stop-color:#484852"/>
	</linearGradient>
	<path fill="url(#SVGID_19_)" d="M462.1,531.3c-6.9,9.3-13.9-9.7-12.5-25c-3.7,4.6-7.4,9.7-12,15.3c6,8.3,10.2,18.5,11.6,29.1
		C453.8,544.3,458,537.8,462.1,531.3z"/>
	
		<linearGradient id="SVGID_20_" gradientUnits="userSpaceOnUse" x1="-56.3958" y1="650.6041" x2="90.6635" y2="797.6635" gradientTransform="matrix(4.6259 0 0 4.6259 0 -2953.8093)">
		<stop  offset="0" style="stop-color:#FF0054"/>
		<stop  offset="1" style="stop-color:#484852"/>
	</linearGradient>
	<path fill="url(#SVGID_20_)" d="M390,616c-8.8,0-16.7-1.9-24.1-5.1c-30.5,37-61.1,71.7-82.3,90.2c7.4,0.5,14.8,0.9,22.7,0.9
		c5.1,0,10.2,0,15.3-0.5c25-25.4,52.3-55,77.7-86.5C396.4,615.5,393.2,616,390,616z"/>
	
		<linearGradient id="SVGID_21_" gradientUnits="userSpaceOnUse" x1="29.6236" y1="639.6238" x2="140.0706" y2="750.0706" gradientTransform="matrix(4.6259 0 0 4.6259 0 -2953.8093)">
		<stop  offset="0" style="stop-color:#FF0054"/>
		<stop  offset="1" style="stop-color:#484852"/>
	</linearGradient>
	<path fill="url(#SVGID_21_)" d="M468.6,521.1c-2.3,3.2-4.6,6.9-6.5,10.2l0,0c11.1-15.3,36.5-63.8,36.5-63.8
		c24.5-43.5,44.4-91.6,60.1-138.3c8.3-24.1,14.3-48.6,19.4-73.6c-4.2-8.3-9.3-16.7-14.3-25c-14.8,65.2-74.5,206.8-114.7,275.7l0,0
		c1.4-1.9,2.8-3.7,4.2-5.6C471.4,490.1,455.2,536.4,468.6,521.1z"/>
	
		<linearGradient id="SVGID_22_" gradientUnits="userSpaceOnUse" x1="-28.47" y1="622.6782" x2="118.5893" y2="769.7377" gradientTransform="matrix(4.6259 0 0 4.6259 0 -2953.8093)">
		<stop  offset="0" style="stop-color:#FF0054"/>
		<stop  offset="1" style="stop-color:#484852"/>
	</linearGradient>
	<path fill="url(#SVGID_22_)" d="M462.1,531.3c2.3-3.7,4.6-6.9,6.5-10.2c-13.4,15.7,2.8-31-15.3-20.4c-1.4,1.9-2.8,3.7-4.2,5.6
		C448.2,521.6,455.2,540.6,462.1,531.3z"/>
	
		<linearGradient id="SVGID_23_" gradientUnits="userSpaceOnUse" x1="9.0496" y1="660.1979" x2="119.4965" y2="770.6447" gradientTransform="matrix(4.6259 0 0 4.6259 0 -2953.8093)">
		<stop  offset="0" style="stop-color:#FF0054"/>
		<stop  offset="1" style="stop-color:#484852"/>
	</linearGradient>
	<path fill="url(#SVGID_23_)" d="M462.1,531.3c2.3-3.7,4.6-6.9,6.5-10.2c-13.4,15.7,2.8-31-15.3-20.4c-1.4,1.9-2.8,3.7-4.2,5.6
		C448.2,521.6,455.2,540.6,462.1,531.3z"/>
	
		<linearGradient id="SVGID_24_" gradientUnits="userSpaceOnUse" x1="24.1881" y1="666.6882" x2="117.7025" y2="760.2025" gradientTransform="matrix(4.6259 0 0 4.6259 0 -2953.8093)">
		<stop  offset="0" style="stop-color:#FF0054"/>
		<stop  offset="1" style="stop-color:#484852"/>
	</linearGradient>
	<path fill="url(#SVGID_24_)" d="M608.8,347.7c-2.3-14.3-5.6-28.7-9.7-42.6c-21.3,73.1-50,143.9-88.8,209.1
		C470,581.3,421,641.9,365.4,696c15.3-2.8,29.6-6.9,43.9-12c42.6-50.4,80-105,113.3-161.9C555.1,466.1,587.5,409.2,608.8,347.7z"/>
	
		<linearGradient id="SVGID_25_" gradientUnits="userSpaceOnUse" x1="26.9131" y1="663.9632" x2="120.4274" y2="757.4774" gradientTransform="matrix(4.6259 0 0 4.6259 0 -2953.8093)">
		<stop  offset="0" style="stop-color:#FF0054"/>
		<stop  offset="1" style="stop-color:#484852"/>
	</linearGradient>
	<path fill="url(#SVGID_25_)" d="M555.1,540.6c-22.2,37.5-47.6,73.6-74.9,107.3c25-17.6,47.6-38.4,66.6-62.4
		c17.6-21.7,31.9-46.3,42.6-72.6c11.1-26.4,18-54.1,21.3-83.7C594.4,467.9,575.9,504.9,555.1,540.6z"/>
	
		<linearGradient id="SVGID_26_" gradientUnits="userSpaceOnUse" x1="-37.1347" y1="637.6652" x2="111.6938" y2="786.4938" gradientTransform="matrix(4.6259 0 0 4.6259 0 -2953.8093)">
		<stop  offset="0" style="stop-color:#FF0054"/>
		<stop  offset="1" style="stop-color:#484852"/>
	</linearGradient>
	<path fill="url(#SVGID_26_)" d="M377,556.7c0,1.4,0.5,3.2,0.9,4.6c5.1-6,9.7-11.6,14.3-17.1c-0.9,0-1.4,0-2.3,0
		C383,543.8,377,549.3,377,556.7z"/>
</g>
<g>
	
		<linearGradient id="SVGID_27_" gradientUnits="userSpaceOnUse" x1="19.2" y1="727.85" x2="105.135" y2="727.85" gradientTransform="matrix(4.6259 0 0 -4.6259 0 3753.6733)">
		<stop  offset="0" style="stop-color:#FF0054"/>
		<stop  offset="1" style="stop-color:#484852"/>
	</linearGradient>
	<path fill="url(#SVGID_27_)" d="M482.9,308.8c-2.8-3.7-7.4-6-12-6H177.2l-2.8-10.2c-5.6-19.9-24.1-33.8-44.9-33.8h-25.4
		c-8.3,0-15.3,6.9-15.3,15.3c0,8.3,6.9,15.3,15.3,15.3h25.4c7.4,0,13.9,5.1,15.7,12l48.6,170.2c7.4,25.4,30.5,43,56.9,43h153.6
		c8.3,0,15.3-6.9,15.3-15.3c0-8.3-6.9-15.3-15.3-15.3h-154c-13,0-24.1-8.8-27.8-20.8l-37-129.5h265.1l-27.8,94.4H254l-21.3-76.8
		c-2.3-7.9-10.6-13-18.5-10.6c-7.9,2.3-13,10.6-10.6,18.5l24.1,87.9c1.9,6.5,7.9,11.1,14.8,11.1h192c6.9,0,12.5-4.6,14.3-11.1
		l37-124.9C487.1,317.6,486.2,312.5,482.9,308.8z"/>
	
		<linearGradient id="SVGID_28_" gradientUnits="userSpaceOnUse" x1="76.539" y1="691.1" x2="92.1567" y2="691.1" gradientTransform="matrix(4.6259 0 0 -4.6259 0 3753.6733)">
		<stop  offset="0" style="stop-color:#FF0054"/>
		<stop  offset="1" style="stop-color:#484852"/>
	</linearGradient>
	<path fill="url(#SVGID_28_)" d="M390,520.7c-19.9,0-36.1,16.2-36.1,36.1s16.2,36.1,36.1,36.1c19.9,0,36.1-16.2,36.1-36.1
		C426.5,536.9,410.3,520.7,390,520.7z M390,562.3c-3.2,0-5.6-2.8-5.6-5.6c0-3.2,2.8-5.6,5.6-5.6c2.8,0,5.6,2.8,5.6,5.6
		C396,560,393.2,562.3,390,562.3z"/>
	
		<linearGradient id="SVGID_29_" gradientUnits="userSpaceOnUse" x1="46.8346" y1="691.1" x2="62.4523" y2="691.1" gradientTransform="matrix(4.6259 0 0 -4.6259 0 3753.6733)">
		<stop  offset="0" style="stop-color:#FF0054"/>
		<stop  offset="1" style="stop-color:#484852"/>
	</linearGradient>
	<path fill="url(#SVGID_29_)" d="M252.6,520.7c-19.9,0-36.1,16.2-36.1,36.1s16.2,36.1,36.1,36.1s36.1-16.2,36.1-36.1
		C289.1,536.9,272.5,520.7,252.6,520.7z M252.6,562.3c-3.2,0-5.6-2.8-5.6-5.6c0-3.2,2.8-5.6,5.6-5.6c3.2,0,5.6,2.8,5.6,5.6
		C258.6,560,255.8,562.3,252.6,562.3z"/>
</g>
</svg>
