<?xml version="1.0" encoding="utf-8"?>
<!-- Generator: Adobe Illustrator 17.1.0, SVG Export Plug-In . SVG Version: 6.00 Build 0)  -->
<!DOCTYPE svg PUBLIC "-//W3C//DTD SVG 1.1//EN" "http://www.w3.org/Graphics/SVG/1.1/DTD/svg11.dtd">
<svg version="1.1" id="Layer_4" xmlns="http://www.w3.org/2000/svg" xmlns:xlink="http://www.w3.org/1999/xlink" x="0px" y="0px"
	 viewBox="0 0 612 792" enable-background="new 0 0 612 792" xml:space="preserve">
<g>
	
		<linearGradient id="SVGID_1_" gradientUnits="userSpaceOnUse" x1="5.4381" y1="685.4382" x2="98.9524" y2="778.9523" gradientTransform="matrix(4.6259 0 0 4.6259 0 -2953.8093)">
		<stop  offset="0" style="stop-color:#FF0054"/>
		<stop  offset="1" style="stop-color:#484852"/>
	</linearGradient>
	<path fill="url(#SVGID_1_)" d="M86,183c-14.3,14.8-26.8,31-37.9,48.1c-4.2,6-7.9,12.5-11.1,19c-9.3,16.7-16.2,33.8-22.2,51.3
		c12.5-17.6,24.1-35.6,34.7-54.1C62,226,75.9,205.2,86,183z"/>
	
		<linearGradient id="SVGID_2_" gradientUnits="userSpaceOnUse" x1="5.9632" y1="684.9131" x2="99.4773" y2="778.4274" gradientTransform="matrix(4.6259 0 0 4.6259 0 -2953.8093)">
		<stop  offset="0" style="stop-color:#FF0054"/>
		<stop  offset="1" style="stop-color:#484852"/>
	</linearGradient>
	<path fill="url(#SVGID_2_)" d="M99.9,276.4c16.7-29.1,36.1-57.4,47.2-88.8c6.5-19.4,9.7-39.8,12.5-60.6c-2.3,1.4-4.2,2.3-6.5,3.7
		c-13.4,49.5-36.1,96.2-62,140.2c-25.9,43-55.5,84.2-91.1,118.9c0,1.9,0,4.2,0,6c0,3.7,0,7.4,0.5,11.1
		C40.2,369.4,72.2,324.1,99.9,276.4z"/>
	
		<linearGradient id="SVGID_3_" gradientUnits="userSpaceOnUse" x1="-20.5265" y1="699.7235" x2="93.1704" y2="813.4202" gradientTransform="matrix(4.6259 0 0 4.6259 0 -2953.8093)">
		<stop  offset="0" style="stop-color:#FF0054"/>
		<stop  offset="1" style="stop-color:#484852"/>
	</linearGradient>
	<path fill="url(#SVGID_3_)" d="M9.3,459.6c0.9,5.1,2.3,10.2,3.7,15.3c19.4-14.8,46.7-41.6,73.6-69.4v-25
		C60.6,411,32.8,441.1,9.3,459.6z"/>
	
		<linearGradient id="SVGID_4_" gradientUnits="userSpaceOnUse" x1="24.2159" y1="659.7159" x2="155.2272" y2="790.7272" gradientTransform="matrix(4.6259 0 0 4.6259 0 -2953.8093)">
		<stop  offset="0" style="stop-color:#FF0054"/>
		<stop  offset="1" style="stop-color:#484852"/>
	</linearGradient>
	<path fill="url(#SVGID_4_)" d="M204,206.6c11.6-33.8,14.3-69.9,19-105c-1.4,0.5-2.3,0.5-3.7,0.9c-7.9,49-29.1,107.3-52.7,157.3
		h16.2C192.9,235.7,201.7,213.5,204,206.6z"/>
	
		<linearGradient id="SVGID_5_" gradientUnits="userSpaceOnUse" x1="-20.0329" y1="712.417" x2="71.2463" y2="803.6964" gradientTransform="matrix(4.6259 0 0 4.6259 0 -2953.8093)">
		<stop  offset="0" style="stop-color:#FF0054"/>
		<stop  offset="1" style="stop-color:#484852"/>
	</linearGradient>
	<path fill="url(#SVGID_5_)" d="M86,456.4c-23.6,22.2-45.3,41.6-56.9,50c-2.3,1.9-4.2,3.2-6.5,4.6c2.8,6.9,6,13.4,9.3,19.9
		c3.7-2.3,6.9-5.1,10.6-7.9c8.8-6.9,25-21.7,43.9-39.8c0-0.9,0-1.4,0-2.3v-24.5H86z"/>
	
		<linearGradient id="SVGID_6_" gradientUnits="userSpaceOnUse" x1="23.6348" y1="645.3849" x2="196.1108" y2="817.8607" gradientTransform="matrix(4.6259 0 0 4.6259 0 -2953.8093)">
		<stop  offset="0" style="stop-color:#FF0054"/>
		<stop  offset="1" style="stop-color:#484852"/>
	</linearGradient>
	<path fill="url(#SVGID_6_)" d="M278.9,104.8c0.5-4.6,1.4-9.3,1.9-13.9c-3.7,0.5-6.9,0.5-10.6,0.9c-0.5,3.7-0.9,7.4-1.4,11.6
		c0.5,19.9-19.4,90.2-43.5,156.4h18C265.1,192.2,275.7,126.5,278.9,104.8z"/>
	
		<linearGradient id="SVGID_7_" gradientUnits="userSpaceOnUse" x1="-30.0723" y1="709.3276" x2="76.9634" y2="816.3634" gradientTransform="matrix(4.6259 0 0 4.6259 0 -2953.8093)">
		<stop  offset="0" style="stop-color:#FF0054"/>
		<stop  offset="1" style="stop-color:#484852"/>
	</linearGradient>
	<path fill="url(#SVGID_7_)" d="M97.6,516c-17.1,15.7-31,27.3-37,31.9c-4.6,3.7-9.3,6.9-14.3,10.2c4.2,6.5,8.3,13,13,19
		c5.1-3.7,10.2-7.4,15.3-11.1c6.5-5.1,22.2-17.6,41.6-34.7C108.7,527.6,102.7,522.1,97.6,516z"/>
	
		<linearGradient id="SVGID_8_" gradientUnits="userSpaceOnUse" x1="21.6606" y1="631.6605" x2="210.1609" y2="820.1611" gradientTransform="matrix(4.6259 0 0 4.6259 0 -2953.8093)">
		<stop  offset="0" style="stop-color:#FF0054"/>
		<stop  offset="1" style="stop-color:#484852"/>
	</linearGradient>
	<path fill="url(#SVGID_8_)" d="M331.7,111.7c0.9-6.9,1.9-13.9,2.3-20.8c-3.7-0.5-7.4-0.9-11.1-0.9c-0.9,6.5-1.9,13.4-2.8,19.9
		c-6.9,46.7-22.7,100.8-39.8,149.4h19.4C315.9,207,328.9,150.6,331.7,111.7z"/>
	
		<linearGradient id="SVGID_9_" gradientUnits="userSpaceOnUse" x1="22.6048" y1="622.0048" x2="203.0467" y2="802.4467" gradientTransform="matrix(4.6259 0 0 4.6259 0 -2953.8093)">
		<stop  offset="0" style="stop-color:#FF0054"/>
		<stop  offset="1" style="stop-color:#484852"/>
	</linearGradient>
	<path fill="url(#SVGID_9_)" d="M384.4,118.7c0.9-6,1.4-12,2.3-18.5c-3.7-0.9-7.9-1.9-11.6-2.8c-0.9,6.5-1.9,13-2.8,19.4
		c-0.9,16.7-18.5,81-37,142.9h14.8C366.4,198.7,382.1,136.3,384.4,118.7z"/>
	
		<linearGradient id="SVGID_10_" gradientUnits="userSpaceOnUse" x1="-23.5833" y1="710.1875" x2="73.0391" y2="806.8098" gradientTransform="matrix(4.6259 0 0 4.6259 0 -2953.8093)">
		<stop  offset="0" style="stop-color:#FF0054"/>
		<stop  offset="1" style="stop-color:#484852"/>
	</linearGradient>
	<path fill="url(#SVGID_10_)" d="M92.1,589.1c-4.6,3.7-9.7,6.9-14.3,10.6c5.6,6,11.1,12,17.1,17.6c4.2-2.8,7.9-6,12-8.8
		c8.8-6.9,38.9-35.2,73.6-69.9h-31.9C121.7,563.7,99.5,583.6,92.1,589.1z"/>
	
		<linearGradient id="SVGID_11_" gradientUnits="userSpaceOnUse" x1="-46.0159" y1="680.5341" x2="90.273" y2="816.8231" gradientTransform="matrix(4.6259 0 0 4.6259 0 -2953.8093)">
		<stop  offset="0" style="stop-color:#FF0054"/>
		<stop  offset="1" style="stop-color:#484852"/>
	</linearGradient>
	<path fill="url(#SVGID_11_)" d="M123.5,630.3c-2.3,1.9-5.1,3.7-7.4,5.6c6.9,5.6,14.3,10.6,21.7,15.7c0.5-0.5,0.9-0.5,1.4-0.9
		c13.4-10.2,59.2-59.7,104.5-112.4h-28.2C173.9,582.7,135.1,621.5,123.5,630.3z"/>
	
		<linearGradient id="SVGID_12_" gradientUnits="userSpaceOnUse" x1="27.7547" y1="618.3547" x2="186.4303" y2="777.0302" gradientTransform="matrix(4.6259 0 0 4.6259 0 -2953.8093)">
		<stop  offset="0" style="stop-color:#FF0054"/>
		<stop  offset="1" style="stop-color:#484852"/>
	</linearGradient>
	<path fill="url(#SVGID_12_)" d="M437.1,125.6c0.5-2.3,0.5-4.2,0.9-6.5c-4.2-1.9-8.3-3.7-12.5-5.6c-0.5,3.2-0.9,6.9-1.4,10.2
		c-3.2,21.7-17.1,73.1-39.8,136h23.1C426.5,202.9,439.9,146.9,437.1,125.6z"/>
	
		<linearGradient id="SVGID_13_" gradientUnits="userSpaceOnUse" x1="26.5366" y1="609.2865" x2="183.9608" y2="766.7108" gradientTransform="matrix(4.6259 0 0 4.6259 0 -2953.8093)">
		<stop  offset="0" style="stop-color:#FF0054"/>
		<stop  offset="1" style="stop-color:#484852"/>
	</linearGradient>
	<path fill="url(#SVGID_13_)" d="M456.6,259.8c16.2-49.5,29.1-93.4,31.5-110.6c-4.2-3.2-8.8-6-13-9.3c-2.8,18-19.4,66.6-38.4,119.3
		h19C455.6,259.8,456.1,259.8,456.6,259.8z"/>
	
		<linearGradient id="SVGID_14_" gradientUnits="userSpaceOnUse" x1="-38.9574" y1="677.6926" x2="89.7553" y2="806.4053" gradientTransform="matrix(4.6259 0 0 4.6259 0 -2953.8093)">
		<stop  offset="0" style="stop-color:#FF0054"/>
		<stop  offset="1" style="stop-color:#484852"/>
	</linearGradient>
	<path fill="url(#SVGID_14_)" d="M162.4,665.9c8.8,4.6,17.6,8.8,26.8,12.5c18-14.3,79.6-81,129.5-140.6h-29.6
		C237.8,594.2,179.5,653,162.4,665.9z"/>
	
		<linearGradient id="SVGID_15_" gradientUnits="userSpaceOnUse" x1="29.2774" y1="608.5275" x2="173.0041" y2="752.2541" gradientTransform="matrix(4.6259 0 0 4.6259 0 -2953.8093)">
		<stop  offset="0" style="stop-color:#FF0054"/>
		<stop  offset="1" style="stop-color:#484852"/>
	</linearGradient>
	<path fill="url(#SVGID_15_)" d="M510.7,305.6c12-36.5,19-74.5,24.5-112.9c-4.6-5.1-9.3-10.2-13.9-14.8
		c-3.2,17.1-14.3,53.2-29.1,95.8C501.4,281.5,507.9,292.6,510.7,305.6z"/>
	
		<linearGradient id="SVGID_16_" gradientUnits="userSpaceOnUse" x1="-52.0847" y1="652.6152" x2="96.7437" y2="801.4438" gradientTransform="matrix(4.6259 0 0 4.6259 0 -2953.8093)">
		<stop  offset="0" style="stop-color:#FF0054"/>
		<stop  offset="1" style="stop-color:#484852"/>
	</linearGradient>
	<path fill="url(#SVGID_16_)" d="M217.4,688.6c10.6,3.2,21.3,6,32.4,7.9c23.1-20.8,98.1-96.7,147.1-158.7h-39.3
		C306.2,597.9,239.6,671,217.4,688.6z"/>
	
		<linearGradient id="SVGID_17_" gradientUnits="userSpaceOnUse" x1="-49.0459" y1="643.254" x2="98.0136" y2="790.3135" gradientTransform="matrix(4.6259 0 0 4.6259 0 -2953.8093)">
		<stop  offset="0" style="stop-color:#FF0054"/>
		<stop  offset="1" style="stop-color:#484852"/>
	</linearGradient>
	<path fill="url(#SVGID_17_)" d="M455.2,538.2h-30.5c-43,54.6-105.5,132.3-140.6,162.8c7.4,0.5,14.8,0.9,22.7,0.9
		c5.1,0,10.2,0,15.3-0.5c45.3-46.3,98.1-107.3,136-163.3C456.6,538.2,456.1,538.2,455.2,538.2z"/>
	
		<linearGradient id="SVGID_18_" gradientUnits="userSpaceOnUse" x1="37.0987" y1="632.1487" x2="147.5456" y2="742.5956" gradientTransform="matrix(4.6259 0 0 4.6259 0 -2953.8093)">
		<stop  offset="0" style="stop-color:#FF0054"/>
		<stop  offset="1" style="stop-color:#484852"/>
	</linearGradient>
	<path fill="url(#SVGID_18_)" d="M558.8,328.7c8.3-24.1,14.3-48.6,19.4-73.6c-4.2-8.3-9.3-16.7-14.3-25
		c-7.9,34.7-28.7,91.6-52.3,147.6V443C530.1,406.4,545.9,367.1,558.8,328.7z"/>
	
		<linearGradient id="SVGID_19_" gradientUnits="userSpaceOnUse" x1="24.1881" y1="666.6882" x2="117.7025" y2="760.2025" gradientTransform="matrix(4.6259 0 0 4.6259 0 -2953.8093)">
		<stop  offset="0" style="stop-color:#FF0054"/>
		<stop  offset="1" style="stop-color:#484852"/>
	</linearGradient>
	<path fill="url(#SVGID_19_)" d="M608.8,347.7c-2.3-14.3-5.6-28.7-9.7-42.6c-21.3,73.1-50,143.9-88.8,209.1
		C470,581.3,421,641.9,365.4,696c15.3-2.8,29.6-6.9,43.9-12c42.6-50.4,80-105,113.3-161.9C555.1,466.1,587.5,409.2,608.8,347.7z"/>
	
		<linearGradient id="SVGID_20_" gradientUnits="userSpaceOnUse" x1="26.9131" y1="663.9632" x2="120.4274" y2="757.4774" gradientTransform="matrix(4.6259 0 0 4.6259 0 -2953.8093)">
		<stop  offset="0" style="stop-color:#FF0054"/>
		<stop  offset="1" style="stop-color:#484852"/>
	</linearGradient>
	<path fill="url(#SVGID_20_)" d="M555.1,540.6c-22.2,37.5-47.6,73.6-74.9,107.3c25-17.6,47.6-38.4,66.6-62.4
		c17.6-21.7,31.9-46.3,42.6-72.6c11.1-26.4,18-54.1,21.3-83.7C594.4,467.9,575.9,504.9,555.1,540.6z"/>
</g>
<g>
	
		<linearGradient id="SVGID_21_" gradientUnits="userSpaceOnUse" x1="23.7" y1="725.2" x2="105.6834" y2="725.2" gradientTransform="matrix(4.6259 0 0 -4.6259 0 3753.6733)">
		<stop  offset="0" style="stop-color:#FF0054"/>
		<stop  offset="1" style="stop-color:#484852"/>
	</linearGradient>
	<path fill="url(#SVGID_21_)" d="M455.2,282.9H142.9c-18.5,0-33.3,14.8-33.3,33.3v165.6c0,18.5,14.8,33.3,33.3,33.3h312.2
		c18.5,0,33.3-14.8,33.3-33.3V316.2C488.5,297.7,473.7,282.9,455.2,282.9z M455.2,492H142.9c-5.6,0-10.2-4.6-10.2-10.2v-43.9h229.4
		c5.1,0,9.3-4.2,9.3-9.3l0,0c0-5.1-4.2-9.3-9.3-9.3H132.3V316.2c0-5.6,4.6-10.2,10.2-10.2h312.2c5.6,0,10.2,4.6,10.2,10.2v102.7
		h-55.5c-5.1,0-9.3,4.2-9.3,9.3l0,0c0,5.1,4.2,9.3,9.3,9.3h56v43.9C465.4,487.4,460.7,492,455.2,492z"/>
	
		<linearGradient id="SVGID_22_" gradientUnits="userSpaceOnUse" x1="31.9517" y1="711.1" x2="50.4517" y2="711.1" gradientTransform="matrix(4.6259 0 0 -4.6259 0 3753.6733)">
		<stop  offset="0" style="stop-color:#FF0054"/>
		<stop  offset="1" style="stop-color:#484852"/>
	</linearGradient>
	<path fill="url(#SVGID_22_)" d="M223.9,455h-66.6c-5.1,0-9.3,4.2-9.3,9.3l0,0c0,5.1,4.2,9.3,9.3,9.3h67.1c5.1,0,9.3-4.2,9.3-9.3
		l0,0C233.1,459.1,229,455,223.9,455z"/>
	
		<linearGradient id="SVGID_23_" gradientUnits="userSpaceOnUse" x1="56.3533" y1="711.1" x2="74.8533" y2="711.1" gradientTransform="matrix(4.6259 0 0 -4.6259 0 3753.6733)">
		<stop  offset="0" style="stop-color:#FF0054"/>
		<stop  offset="1" style="stop-color:#484852"/>
	</linearGradient>
	<path fill="url(#SVGID_23_)" d="M336.8,455h-66.6c-5.1,0-9.3,4.2-9.3,9.3l0,0c0,5.1,4.2,9.3,9.3,9.3h67.1c5.1,0,9.3-4.2,9.3-9.3
		l0,0C346,459.1,341.9,455,336.8,455z"/>
	
		<linearGradient id="SVGID_24_" gradientUnits="userSpaceOnUse" x1="79.7283" y1="711.1" x2="98.2283" y2="711.1" gradientTransform="matrix(4.6259 0 0 -4.6259 0 3753.6733)">
		<stop  offset="0" style="stop-color:#FF0054"/>
		<stop  offset="1" style="stop-color:#484852"/>
	</linearGradient>
	<path fill="url(#SVGID_24_)" d="M445,455h-67.1c-5.1,0-9.3,4.2-9.3,9.3l0,0c0,5.1,4.2,9.3,9.3,9.3H445c5.1,0,9.3-4.2,9.3-9.3l0,0
		C454.3,459.1,450.1,455,445,455z"/>
	
		<linearGradient id="SVGID_25_" gradientUnits="userSpaceOnUse" x1="77.3" y1="736.2" x2="95.8" y2="736.2" gradientTransform="matrix(4.6259 0 0 -4.6259 0 3753.6733)">
		<stop  offset="0" style="stop-color:#FF0054"/>
		<stop  offset="1" style="stop-color:#484852"/>
	</linearGradient>
	<path fill="url(#SVGID_25_)" d="M443.2,361.1v-25.9c0-4.2-3.7-7.9-7.9-7.9h-69.9c-4.2,0-7.9,3.7-7.9,7.9v25.9
		c0,4.2,3.7,7.9,7.9,7.9h69.9C439.5,368.9,443.2,365.2,443.2,361.1z"/>
</g>
</svg>
