<?xml version="1.0" encoding="utf-8"?>
<!-- Generator: Adobe Illustrator 17.1.0, SVG Export Plug-In . SVG Version: 6.00 Build 0)  -->
<!DOCTYPE svg PUBLIC "-//W3C//DTD SVG 1.1//EN" "http://www.w3.org/Graphics/SVG/1.1/DTD/svg11.dtd">
<svg version="1.1" id="Layer_1" xmlns="http://www.w3.org/2000/svg" xmlns:xlink="http://www.w3.org/1999/xlink" x="0px" y="0px"
	 viewBox="0 0 612 792" enable-background="new 0 0 612 792" xml:space="preserve">
<g id="Layer_31">
	<g>
		
			<linearGradient id="SVGID_1_" gradientUnits="userSpaceOnUse" x1="20.1967" y1="676.4467" x2="114.6219" y2="770.8719" gradientTransform="matrix(4.6259 0 0 4.6259 0 -2953.8093)">
			<stop  offset="0" style="stop-color:#FF0054"/>
			<stop  offset="1" style="stop-color:#484852"/>
		</linearGradient>
		<path fill="url(#SVGID_1_)" d="M558.3,550.3c-8.3,2.8-14.8,11.1-22.2,15.3c-15.3,8.8-32.4,17.6-43,31.5
			c-10.6,14.3-19,31.5-23.6,48.6c-0.9,3.2-1.4,6.5-1.9,9.7c6.5-4.2,12.5-8.3,19-12.5c-0.5-1.9-0.9-3.7,0-5.6
			c1.4-3.7,7.4-5.6,9.3-9.3c1.9-3.7-0.5-9.3,1.4-13c0.9-1.4,9.7-6,10.6-7.4c9.7-13,21.3-23.1,35.2-31.5c6.9-4.2,12-12,19.9-14.8h0.5
			c2.8-4.6,5.6-8.8,8.3-13.4C566.7,548.9,562.5,548.9,558.3,550.3z"/>
		
			<linearGradient id="SVGID_2_" gradientUnits="userSpaceOnUse" x1="20.1468" y1="676.4966" x2="114.572" y2="770.9219" gradientTransform="matrix(4.6259 0 0 4.6259 0 -2953.8093)">
			<stop  offset="0" style="stop-color:#FF0054"/>
			<stop  offset="1" style="stop-color:#484852"/>
		</linearGradient>
		<path fill="url(#SVGID_2_)" d="M543.1,507.3c-11.1,3.7-20.4,13.4-30.5,19.4c-20.4,12-42.1,24.5-56.4,43.5
			c-14.3,19-25.4,41.6-31,64.8c-3.7,14.3-3.7,29.6-2.3,44.4c3.7-1.4,7.4-3.2,11.1-5.1c1.9-12,5.1-23.6,8.3-35.2
			c1.4-5.1-1.4-12,0.5-17.1c1.9-5.1,8.8-8.3,11.1-13.4s0.9-12,3.7-16.7c1.9-3.2,11.1-8.3,13.4-11.1c13.4-17.6,29.6-31.9,48.6-43
			c9.7-5.6,17.6-14.8,28.2-18.5c10.2-3.7,22.2-1.9,33.3-3.2c2.3-0.5,5.1-0.9,7.4-0.9c1.9-4.2,3.7-8.8,5.1-13.4
			c-5.1,0.5-9.7,1.4-14.8,1.9C567.1,504.9,554.2,503.1,543.1,507.3z"/>
		
			<linearGradient id="SVGID_3_" gradientUnits="userSpaceOnUse" x1="35.7718" y1="660.8718" x2="130.197" y2="755.2969" gradientTransform="matrix(4.6259 0 0 4.6259 0 -2953.8093)">
			<stop  offset="0" style="stop-color:#FF0054"/>
			<stop  offset="1" style="stop-color:#484852"/>
		</linearGradient>
		<path fill="url(#SVGID_3_)" d="M495.9,498c12-6.9,23.1-17.6,36.1-22.2c13.4-4.6,28.2-3.2,42.1-5.6c9.7-1.4,19.9-2.8,29.6-3.7
			c0.9-4.2,1.9-8.3,2.8-12.5c-11.6,0.5-22.7,1.9-34.2,3.7c-14.8,1.9-30.5,0.9-44.4,5.6c-13.9,5.1-25.9,15.7-38.4,23.1
			c-3.2,1.9-6.5,3.7-9.3,5.6v16.2C485.3,504.9,490.3,501.2,495.9,498z"/>
		
			<linearGradient id="SVGID_4_" gradientUnits="userSpaceOnUse" x1="5.4468" y1="691.1968" x2="99.872" y2="785.6219" gradientTransform="matrix(4.6259 0 0 4.6259 0 -2953.8093)">
			<stop  offset="0" style="stop-color:#FF0054"/>
			<stop  offset="1" style="stop-color:#484852"/>
		</linearGradient>
		<path fill="url(#SVGID_4_)" d="M381.2,623.4c-6,22.7-5.1,46.7-2.3,70.3c2.3-0.5,5.1-1.4,7.4-1.9c0.5-21.7,5.6-43,11.1-64.3
			c1.9-6.9-0.5-14.8,1.9-21.7c2.8-6.5,9.7-11.1,13-17.6s2.3-14.8,6-20.8c2.3-4.2,10.2-8.8,14.3-13h-21.3
			C397.4,575.7,387.2,599.3,381.2,623.4z"/>
		
			<linearGradient id="SVGID_5_" gradientUnits="userSpaceOnUse" x1="-3.9782" y1="700.6216" x2="90.447" y2="795.0469" gradientTransform="matrix(4.6259 0 0 4.6259 0 -2953.8093)">
			<stop  offset="0" style="stop-color:#FF0054"/>
			<stop  offset="1" style="stop-color:#484852"/>
		</linearGradient>
		<path fill="url(#SVGID_5_)" d="M339.5,601.6c-0.9,3.2-1.9,6.9-2.8,10.2c-7.4,29.1-6.5,59.2-3.2,89.3c1.9,0,4.2-0.5,6-0.5
			c-0.9-28.7,5.6-56.9,12.5-84.7c1.4-6,0.9-12.5,1.9-18.5c-0.9,1.4-1.4,2.8-2.3,4.6C349.3,609.9,337.2,609,339.5,601.6z"/>
		
			<linearGradient id="SVGID_6_" gradientUnits="userSpaceOnUse" x1="-12.3514" y1="673.5485" x2="102.357" y2="788.257" gradientTransform="matrix(4.6259 0 0 4.6259 0 -2953.8093)">
			<stop  offset="0" style="stop-color:#FF0054"/>
			<stop  offset="1" style="stop-color:#484852"/>
		</linearGradient>
		<path fill="url(#SVGID_6_)" d="M339.5,601.6c5.1-4.2,11.1-8.8,17.1-13.4c-0.5,0.5-0.5,1.4-0.9,1.9c-0.9,2.3-1.4,5.1-1.4,7.4
			c8.3-15.7,16.7-30.1,24.5-42.6h-20.4C351.1,568.8,344.6,584.5,339.5,601.6z"/>
		
			<linearGradient id="SVGID_7_" gradientUnits="userSpaceOnUse" x1="23.7485" y1="637.4486" x2="138.457" y2="752.157" gradientTransform="matrix(4.6259 0 0 4.6259 0 -2953.8093)">
			<stop  offset="0" style="stop-color:#FF0054"/>
			<stop  offset="1" style="stop-color:#484852"/>
		</linearGradient>
		<path fill="url(#SVGID_7_)" d="M517.2,432.3c16.2-5.6,33.8-5.1,50.9-7.4c14.3-1.9,28.7-3.7,43-4.2c0.5-4.2,0.5-8.3,0.9-12.5
			c-15.3,0.5-30.5,2.3-45.8,4.2c-17.6,2.3-36.5,1.9-53.2,7.9c-8.8,2.8-16.7,7.4-24.1,12.5c0,0-3.2,1.4-8.8,4.2v17.1
			C492.2,445.7,503.8,436.9,517.2,432.3z"/>
		
			<linearGradient id="SVGID_8_" gradientUnits="userSpaceOnUse" x1="2.1586" y1="694.4848" x2="96.5838" y2="788.9102" gradientTransform="matrix(4.6259 0 0 4.6259 0 -2953.8093)">
			<stop  offset="0" style="stop-color:#FF0054"/>
			<stop  offset="1" style="stop-color:#484852"/>
		</linearGradient>
		<path fill="url(#SVGID_8_)" d="M356.7,588.2c-6,5.1-11.6,9.3-17.1,13.4c-2.8,7.4,9.7,8.3,12,0.5c0.9-1.4,1.4-2.8,2.3-4.6
			c0.5-2.8,0.5-5.1,1.4-7.4C356.2,589.1,356.7,588.7,356.7,588.2z"/>
		
			<linearGradient id="SVGID_9_" gradientUnits="userSpaceOnUse" x1="-15.5647" y1="676.7617" x2="99.1438" y2="791.4702" gradientTransform="matrix(4.6259 0 0 4.6259 0 -2953.8093)">
			<stop  offset="0" style="stop-color:#FF0054"/>
			<stop  offset="1" style="stop-color:#484852"/>
		</linearGradient>
		<path fill="url(#SVGID_9_)" d="M356.7,588.2c-6,5.1-11.6,9.3-17.1,13.4c-2.8,7.4,9.7,8.3,12,0.5c0.9-1.4,1.4-2.8,2.3-4.6
			c0.5-2.8,0.5-5.1,1.4-7.4C356.2,589.1,356.7,588.7,356.7,588.2z"/>
		
			<linearGradient id="SVGID_10_" gradientUnits="userSpaceOnUse" x1="-29.5731" y1="679.4046" x2="93.3403" y2="802.3181" gradientTransform="matrix(4.6259 0 0 4.6259 0 -2953.8093)">
			<stop  offset="0" style="stop-color:#FF0054"/>
			<stop  offset="1" style="stop-color:#484852"/>
		</linearGradient>
		<path fill="url(#SVGID_10_)" d="M289.6,615.5L289.6,615.5C289.6,615.5,289.6,615,289.6,615.5C289.6,615,289.6,615.5,289.6,615.5z"
			/>
		
			<linearGradient id="SVGID_11_" gradientUnits="userSpaceOnUse" x1="-23.8342" y1="673.6657" x2="99.0792" y2="796.5792" gradientTransform="matrix(4.6259 0 0 4.6259 0 -2953.8093)">
			<stop  offset="0" style="stop-color:#FF0054"/>
			<stop  offset="1" style="stop-color:#484852"/>
		</linearGradient>
		<path fill="url(#SVGID_11_)" d="M289.6,614.6c5.6,4.2,10.2,7.4,13,9.3v0.5c9.3-25.9,19.9-49,31.5-69.9h-25.9
			C300.2,573.4,293.7,593.3,289.6,614.6z"/>
		
			<linearGradient id="SVGID_12_" gradientUnits="userSpaceOnUse" x1="23.4408" y1="626.3907" x2="146.3542" y2="749.3043" gradientTransform="matrix(4.6259 0 0 4.6259 0 -2953.8093)">
			<stop  offset="0" style="stop-color:#FF0054"/>
			<stop  offset="1" style="stop-color:#484852"/>
		</linearGradient>
		<path fill="url(#SVGID_12_)" d="M502.4,388.8c19-6.5,39.8-6.5,59.7-9.3c16.7-2.3,33.3-4.2,50-4.6c-0.5-4.2-0.5-8.8-0.9-13
			c-16.7,0.5-33.8,2.3-50.4,4.6c-20.8,2.8-42.6,3.2-62,9.7c-0.5,0-6.9,2.8-18,8.3v15.7C493.1,393,501.4,389.3,502.4,388.8z"/>
		
			<linearGradient id="SVGID_13_" gradientUnits="userSpaceOnUse" x1="-10.7283" y1="707.3716" x2="83.6969" y2="801.797" gradientTransform="matrix(4.6259 0 0 4.6259 0 -2953.8093)">
			<stop  offset="0" style="stop-color:#FF0054"/>
			<stop  offset="1" style="stop-color:#484852"/>
		</linearGradient>
		<path fill="url(#SVGID_13_)" d="M289.6,615.5c-5.1,28.2-4.6,57.4-1.4,86.5c1.9,0,3.7,0,5.6,0.5c-0.5-25.9,3.2-51.8,9.3-77.3l0,0
			L289.6,615.5z"/>
		
			<linearGradient id="SVGID_14_" gradientUnits="userSpaceOnUse" x1="-6.097" y1="702.7404" x2="88.3282" y2="797.1657" gradientTransform="matrix(4.6259 0 0 4.6259 0 -2953.8093)">
			<stop  offset="0" style="stop-color:#FF0054"/>
			<stop  offset="1" style="stop-color:#484852"/>
		</linearGradient>
		<path fill="url(#SVGID_14_)" d="M289.6,614.6C289.6,615,289.6,615,289.6,614.6C289.6,615,289.6,615,289.6,614.6L289.6,614.6z"/>
		
			<linearGradient id="SVGID_15_" gradientUnits="userSpaceOnUse" x1="-29.3092" y1="679.1407" x2="93.6042" y2="802.0542" gradientTransform="matrix(4.6259 0 0 4.6259 0 -2953.8093)">
			<stop  offset="0" style="stop-color:#FF0054"/>
			<stop  offset="1" style="stop-color:#484852"/>
		</linearGradient>
		<path fill="url(#SVGID_15_)" d="M289.6,614.6C289.6,615,289.6,615,289.6,614.6c0,0.5,0,0.5,0,0.5l13,9.3l0,0v-0.5
			C299.8,622,295.6,619.2,289.6,614.6z"/>
		
			<linearGradient id="SVGID_16_" gradientUnits="userSpaceOnUse" x1="-5.9033" y1="702.5467" x2="88.5219" y2="796.972" gradientTransform="matrix(4.6259 0 0 4.6259 0 -2953.8093)">
			<stop  offset="0" style="stop-color:#FF0054"/>
			<stop  offset="1" style="stop-color:#484852"/>
		</linearGradient>
		<path fill="url(#SVGID_16_)" d="M289.6,614.6C289.6,615,289.6,615,289.6,614.6c0,0.5,0,0.5,0,0.5l13,9.3l0,0v-0.5
			C299.8,622,295.6,619.2,289.6,614.6z"/>
		
			<linearGradient id="SVGID_17_" gradientUnits="userSpaceOnUse" x1="-30.5913" y1="673.6086" x2="99.0295" y2="803.2296" gradientTransform="matrix(4.6259 0 0 4.6259 0 -2953.8093)">
			<stop  offset="0" style="stop-color:#FF0054"/>
			<stop  offset="1" style="stop-color:#484852"/>
		</linearGradient>
		<path fill="url(#SVGID_17_)" d="M249.8,583.6c4.2,3.7,8.3,6.9,12.5,10.2c6-13.9,12-26.8,19-38.9h-20.8
			C256.7,564.1,253,573.9,249.8,583.6z"/>
		
			<linearGradient id="SVGID_18_" gradientUnits="userSpaceOnUse" x1="53.9" y1="765.1" x2="53.9" y2="765.1" gradientTransform="matrix(4.6259 0 0 4.6259 0 -2953.8093)">
			<stop  offset="0" style="stop-color:#FF0054"/>
			<stop  offset="1" style="stop-color:#484852"/>
		</linearGradient>
		<path fill="url(#SVGID_18_)" d="M249.3,585.4L249.3,585.4L249.3,585.4L249.3,585.4z"/>
		
			<linearGradient id="SVGID_19_" gradientUnits="userSpaceOnUse" x1="24.6337" y1="618.3835" x2="154.2546" y2="748.0046" gradientTransform="matrix(4.6259 0 0 4.6259 0 -2953.8093)">
			<stop  offset="0" style="stop-color:#FF0054"/>
			<stop  offset="1" style="stop-color:#484852"/>
		</linearGradient>
		<path fill="url(#SVGID_19_)" d="M498.7,342.1c18.5-4.6,37.9-5.6,56.9-8.3c16.2-2.3,32.8-4.2,49.5-4.6c-0.9-4.2-1.9-8.8-3.2-13
			c-16.2,0.9-32.4,2.3-48.1,4.6c-18,2.3-37,3.7-55,7.9c-0.5,0-7.4,3.2-18.5,8.8v13.9C491.3,345.3,498.2,342.1,498.7,342.1z"/>
		
			<linearGradient id="SVGID_20_" gradientUnits="userSpaceOnUse" x1="-7.1533" y1="703.7967" x2="87.2719" y2="798.222" gradientTransform="matrix(4.6259 0 0 4.6259 0 -2953.8093)">
			<stop  offset="0" style="stop-color:#FF0054"/>
			<stop  offset="1" style="stop-color:#484852"/>
		</linearGradient>
		<path fill="url(#SVGID_20_)" d="M249.8,583.6c0,0.5-0.5,0.9-0.5,1.9C249.8,585,249.8,584,249.8,583.6L249.8,583.6z"/>
		
			<linearGradient id="SVGID_21_" gradientUnits="userSpaceOnUse" x1="-13.4283" y1="710.0717" x2="80.9969" y2="804.4969" gradientTransform="matrix(4.6259 0 0 4.6259 0 -2953.8093)">
			<stop  offset="0" style="stop-color:#FF0054"/>
			<stop  offset="1" style="stop-color:#484852"/>
		</linearGradient>
		<path fill="url(#SVGID_21_)" d="M248.4,588.7c-8.8,34.7-9.7,70.8-6.9,106.9c1.9,0.5,3.2,0.9,5.1,0.9c0-34.7,6.5-69.4,15.3-102.7
			l-13-8.3C249.3,586.4,248.9,587.7,248.4,588.7z"/>
		
			<linearGradient id="SVGID_22_" gradientUnits="userSpaceOnUse" x1="-33.8414" y1="676.8586" x2="95.7795" y2="806.4796" gradientTransform="matrix(4.6259 0 0 4.6259 0 -2953.8093)">
			<stop  offset="0" style="stop-color:#FF0054"/>
			<stop  offset="1" style="stop-color:#484852"/>
		</linearGradient>
		<path fill="url(#SVGID_22_)" d="M249.3,585.4L249.3,585.4l13,8.3c-4.2-3.2-8.3-6.5-12.5-10.2C249.8,584,249.8,585,249.3,585.4z"/>
		
			<linearGradient id="SVGID_23_" gradientUnits="userSpaceOnUse" x1="-7.0283" y1="703.6717" x2="87.3969" y2="798.097" gradientTransform="matrix(4.6259 0 0 4.6259 0 -2953.8093)">
			<stop  offset="0" style="stop-color:#FF0054"/>
			<stop  offset="1" style="stop-color:#484852"/>
		</linearGradient>
		<path fill="url(#SVGID_23_)" d="M249.3,585.4L249.3,585.4l13,8.3c-4.2-3.2-8.3-6.5-12.5-10.2C249.8,584,249.8,585,249.3,585.4z"/>
		
			<linearGradient id="SVGID_24_" gradientUnits="userSpaceOnUse" x1="-47.9149" y1="663.285" x2="105.0371" y2="816.2372" gradientTransform="matrix(4.6259 0 0 4.6259 0 -2953.8093)">
			<stop  offset="0" style="stop-color:#FF0054"/>
			<stop  offset="1" style="stop-color:#484852"/>
		</linearGradient>
		<path fill="url(#SVGID_24_)" d="M221.6,558.6c0,1.4-0.5,2.3-0.5,3.7c0.9-2.3,1.9-5.1,2.8-7.4h-6.5
			C218.8,556.3,220.2,557.7,221.6,558.6z"/>
		
			<linearGradient id="SVGID_25_" gradientUnits="userSpaceOnUse" x1="15.0101" y1="600.36" x2="167.9621" y2="753.3122" gradientTransform="matrix(4.6259 0 0 4.6259 0 -2953.8093)">
			<stop  offset="0" style="stop-color:#FF0054"/>
			<stop  offset="1" style="stop-color:#484852"/>
		</linearGradient>
		<path fill="url(#SVGID_25_)" d="M498.7,295.4c16.2-5.6,33.8-4.6,50.4-6.9c13.9-1.9,27.8-3.2,42.1-4.2c-1.9-4.2-3.7-8.8-5.6-13
			c-13,0.9-25.9,2.3-38.4,4.2c-16.2,2.3-32.8,1.9-48.6,6.5c-6,1.9-12,4.2-18.5,6.5v13.9C486.2,299.6,492.2,297.2,498.7,295.4z"/>
		
			<linearGradient id="SVGID_26_" gradientUnits="userSpaceOnUse" x1="-15.6782" y1="712.3218" x2="78.747" y2="806.7469" gradientTransform="matrix(4.6259 0 0 4.6259 0 -2953.8093)">
			<stop  offset="0" style="stop-color:#FF0054"/>
			<stop  offset="1" style="stop-color:#484852"/>
		</linearGradient>
		<path fill="url(#SVGID_26_)" d="M213.7,554.9h-2.8c-2.3,7.4-4.6,14.8-6.5,22.2c-8.8,34.2-10.6,69.4-9.3,104.5
			c1.9,0.9,3.7,1.4,5.6,2.3c1.4-34.7,7.9-69.4,17.1-103.2c1.4-6,2.3-12,3.2-18.5l0,0L213.7,554.9z"/>
		
			<linearGradient id="SVGID_27_" gradientUnits="userSpaceOnUse" x1="-48.2399" y1="663.61" x2="104.7121" y2="816.5622" gradientTransform="matrix(4.6259 0 0 4.6259 0 -2953.8093)">
			<stop  offset="0" style="stop-color:#FF0054"/>
			<stop  offset="1" style="stop-color:#484852"/>
		</linearGradient>
		<path fill="url(#SVGID_27_)" d="M217.4,554.9h-3.7l7.4,7.4l0,0c0-1.4,0.5-2.3,0.5-3.7C220.2,557.7,218.8,556.3,217.4,554.9z"/>
		
			<linearGradient id="SVGID_28_" gradientUnits="userSpaceOnUse" x1="-7.6033" y1="704.2468" x2="86.822" y2="798.6719" gradientTransform="matrix(4.6259 0 0 4.6259 0 -2953.8093)">
			<stop  offset="0" style="stop-color:#FF0054"/>
			<stop  offset="1" style="stop-color:#484852"/>
		</linearGradient>
		<path fill="url(#SVGID_28_)" d="M217.4,554.9h-3.7l7.4,7.4l0,0c0-1.4,0.5-2.3,0.5-3.7C220.2,557.7,218.8,556.3,217.4,554.9z"/>
		
			<linearGradient id="SVGID_29_" gradientUnits="userSpaceOnUse" x1="-19.0033" y1="715.6467" x2="75.422" y2="810.072" gradientTransform="matrix(4.6259 0 0 4.6259 0 -2953.8093)">
			<stop  offset="0" style="stop-color:#FF0054"/>
			<stop  offset="1" style="stop-color:#484852"/>
		</linearGradient>
		<path fill="url(#SVGID_29_)" d="M160.1,565.5c-7.9,30.5-11.1,62-11.1,93.4c2.3,1.4,4.2,2.8,6.5,3.7c2.8-31.5,9.3-63.4,17.1-93.9
			c1.4-4.6,1.9-9.3,2.8-14.3h-12.5C161.9,558.6,161,561.8,160.1,565.5z"/>
		
			<linearGradient id="SVGID_30_" gradientUnits="userSpaceOnUse" x1="21.4588" y1="599.7089" x2="176.8707" y2="755.1207" gradientTransform="matrix(4.6259 0 0 4.6259 0 -2953.8093)">
			<stop  offset="0" style="stop-color:#FF0054"/>
			<stop  offset="1" style="stop-color:#484852"/>
		</linearGradient>
		<path fill="url(#SVGID_30_)" d="M498.7,248.7c14.3-3.2,29.6-3.7,43.9-6c8.8-1.4,17.6-2.3,26.8-3.2c-2.8-4.2-5.1-8.3-7.9-12.5
			c-6.9,0.9-13.9,1.4-20.4,2.8c-19.9,2.8-40.7,2.8-60.1,8.8c-3.7,0.9-6.9,2.3-10.6,3.2c3.2,3.7,5.6,7.9,6.9,12.5
			C484.3,252.4,491.3,250.5,498.7,248.7z"/>
		
			<linearGradient id="SVGID_31_" gradientUnits="userSpaceOnUse" x1="-21.6282" y1="718.2717" x2="72.797" y2="812.697" gradientTransform="matrix(4.6259 0 0 4.6259 0 -2953.8093)">
			<stop  offset="0" style="stop-color:#FF0054"/>
			<stop  offset="1" style="stop-color:#484852"/>
		</linearGradient>
		<path fill="url(#SVGID_31_)" d="M124.4,540.6c-1.4,5.1-2.8,9.7-4.2,14.8c-6,24.1-11.1,48.1-14.3,72.6c1.9,1.9,4.2,3.2,6,5.1
			c3.7-25.4,8.8-50.9,15.7-75.9c0.9-3.7,1.9-7.4,2.8-11.1C128.6,544.7,126.7,542.9,124.4,540.6z"/>
		
			<linearGradient id="SVGID_32_" gradientUnits="userSpaceOnUse" x1="39.304" y1="623.154" x2="166.2568" y2="750.1069" gradientTransform="matrix(4.6259 0 0 4.6259 0 -2953.8093)">
			<stop  offset="0" style="stop-color:#FF0054"/>
			<stop  offset="1" style="stop-color:#484852"/>
		</linearGradient>
		<path fill="url(#SVGID_32_)" d="M443.2,219.5c30.1-10.2,60.1-22.2,91.6-26.8c-2.3-2.8-4.6-5.1-6.9-7.9
			c-30.5,4.2-61.5,7.4-90.7,17.6c-3.7,1.4-21.7,8.8-48.1,23.6h38.4C436.7,222.3,442.2,220,443.2,219.5z"/>
		
			<linearGradient id="SVGID_33_" gradientUnits="userSpaceOnUse" x1="38.3685" y1="631.6184" x2="162.8048" y2="756.0548" gradientTransform="matrix(4.6259 0 0 4.6259 0 -2953.8093)">
			<stop  offset="0" style="stop-color:#FF0054"/>
			<stop  offset="1" style="stop-color:#484852"/>
		</linearGradient>
		<path fill="url(#SVGID_33_)" d="M429.7,180.7c22.7-7.9,45.8-16.7,68.9-22.7c-4.2-3.2-8.8-6.9-13-10.2
			c-21.3,3.2-42.1,7.4-62.4,14.3c-9.3,3.2-63.8,27.3-118.9,63.8h31C382.1,199.2,422.8,183,429.7,180.7z"/>
		
			<linearGradient id="SVGID_34_" gradientUnits="userSpaceOnUse" x1="-17.0033" y1="713.6467" x2="77.4219" y2="808.072" gradientTransform="matrix(4.6259 0 0 4.6259 0 -2953.8093)">
			<stop  offset="0" style="stop-color:#FF0054"/>
			<stop  offset="1" style="stop-color:#484852"/>
		</linearGradient>
		<path fill="url(#SVGID_34_)" d="M79.6,544.7c-3.7,14.8-6.9,30.1-10.2,45.3c2.3,2.3,4.2,5.1,6.5,7.4c3.2-17.1,7.4-34.2,11.6-50.9
			c7.9-28.7,14.3-57.8,25.9-85.1v-17.6C99.5,476.7,88.4,510.5,79.6,544.7z"/>
		
			<linearGradient id="SVGID_35_" gradientUnits="userSpaceOnUse" x1="-11.4783" y1="708.1218" x2="82.947" y2="802.5469" gradientTransform="matrix(4.6259 0 0 4.6259 0 -2953.8093)">
			<stop  offset="0" style="stop-color:#FF0054"/>
			<stop  offset="1" style="stop-color:#484852"/>
		</linearGradient>
		<path fill="url(#SVGID_35_)" d="M38.4,534.5c-0.5,2.3-0.9,4.6-1.9,6.9c1.9,3.7,4.2,7.4,6.5,11.1c1.4-5.1,2.8-10.6,4.2-15.7
			c9.7-36.5,18.5-73.6,35.2-107.3c8.8-17.6,19.4-34.2,31-50.4v-25.4C78.2,408.7,54.1,470.7,38.4,534.5z"/>
		
			<linearGradient id="SVGID_36_" gradientUnits="userSpaceOnUse" x1="41.4839" y1="644.1339" x2="151.2491" y2="753.8993" gradientTransform="matrix(4.6259 0 0 4.6259 0 -2953.8093)">
			<stop  offset="0" style="stop-color:#FF0054"/>
			<stop  offset="1" style="stop-color:#484852"/>
		</linearGradient>
		<path fill="url(#SVGID_36_)" d="M311.3,183.9c32.4-19,68.9-30.1,104.5-42.1c13-4.6,25.9-8.8,38.9-13.4c-7.9-4.2-16.2-8.3-24.5-12
			c-6.9,1.9-13.9,4.2-20.8,6.5c-36.5,13-69.4,33.8-102.7,53.2c-9.3,5.6-19,11.6-28.2,17.6c0,0-18.5,11.6-45.8,33.3h14.8
			C284,197.8,310.9,183.9,311.3,183.9z"/>
		
			<linearGradient id="SVGID_37_" gradientUnits="userSpaceOnUse" x1="41.41" y1="654.76" x2="136.7231" y2="750.0732" gradientTransform="matrix(4.6259 0 0 4.6259 0 -2953.8093)">
			<stop  offset="0" style="stop-color:#FF0054"/>
			<stop  offset="1" style="stop-color:#484852"/>
		</linearGradient>
		<path fill="url(#SVGID_37_)" d="M290,148.3c33.8-19.9,70.8-31.9,107.8-44.4c-11.1-3.7-22.7-6.5-34.2-8.3
			c-27.3,13-52.7,28.2-78.6,43.9c-31.5,18.5-80,52.7-119.3,87H191C228.5,192.2,269.2,160.3,290,148.3z"/>
		
			<linearGradient id="SVGID_38_" gradientUnits="userSpaceOnUse" x1="-5.8033" y1="702.4468" x2="88.6219" y2="796.8719" gradientTransform="matrix(4.6259 0 0 4.6259 0 -2953.8093)">
			<stop  offset="0" style="stop-color:#FF0054"/>
			<stop  offset="1" style="stop-color:#484852"/>
		</linearGradient>
		<path fill="url(#SVGID_38_)" d="M98.5,300c-39.8,52.7-68,113.3-87.9,176.2c1.4,5.6,3.2,10.6,4.6,16.2
			c7.9-27.8,16.7-55.5,29.1-81.4c18-36.1,43.5-68.5,68-100.4c0.5-0.5,0.5-0.9,0.9-1.4V281C108.2,287.5,103.2,293.5,98.5,300z"/>
		
			<linearGradient id="SVGID_39_" gradientUnits="userSpaceOnUse" x1="19.1717" y1="677.4717" x2="113.5969" y2="771.897" gradientTransform="matrix(4.6259 0 0 4.6259 0 -2953.8093)">
			<stop  offset="0" style="stop-color:#FF0054"/>
			<stop  offset="1" style="stop-color:#484852"/>
		</linearGradient>
		<path fill="url(#SVGID_39_)" d="M268.8,112.2c14.8-8.3,30.1-15.7,45.8-22.2c-2.8,0-5.6,0-8.3,0c-7.9,0-15.7,0.5-23.1,0.9
			c-6.5,3.7-13,7.9-19.9,11.6c-75.9,44.9-145.7,101.8-198.4,172.1c-25.9,34.2-47.2,71.2-64.3,110.1C0,388.4,0,392.1,0,396.2
			c0,3.7,0,7.4,0,11.1c2.3-4.6,4.2-9.7,6.5-14.3c19-38.9,46.3-73.1,72.2-107.3C131.8,217.2,194.3,155.7,268.8,112.2z"/>
		
			<linearGradient id="SVGID_40_" gradientUnits="userSpaceOnUse" x1="18.1967" y1="678.4467" x2="112.622" y2="772.8719" gradientTransform="matrix(4.6259 0 0 4.6259 0 -2953.8093)">
			<stop  offset="0" style="stop-color:#FF0054"/>
			<stop  offset="1" style="stop-color:#484852"/>
		</linearGradient>
		<path fill="url(#SVGID_40_)" d="M196.6,110.4c-27.3,10.6-52.3,24.5-74.9,41.6c-20.4,15.7-38.9,33.3-55,53.7
			c-22.7,28.2-40.2,61.1-51.8,96.2c10.2-13.9,20.8-27.8,31-41.2C89.3,204.3,139.2,152,196.6,110.4z"/>
	</g>
	<g>
		
			<linearGradient id="SVGID_41_" gradientUnits="userSpaceOnUse" x1="29.524" y1="726.95" x2="98.724" y2="726.95" gradientTransform="matrix(4.6259 0 0 -4.6259 0 3753.6733)">
			<stop  offset="0" style="stop-color:#FF0054"/>
			<stop  offset="1" style="stop-color:#484852"/>
		</linearGradient>
		<path fill="url(#SVGID_41_)" d="M436.7,249.6h-95.3h-85.6h-99c-11.1,0-19.9,8.8-19.9,19.9v242.9c0,11.1,8.8,19.9,19.9,19.9h280.3
			c11.1,0,19.9-8.8,19.9-19.9V269C457,258.4,447.8,249.6,436.7,249.6z M319.6,271.3v74.5h-42.1v-74.5H319.6z M435.3,510H158.2V271.3
			h97.6v81c0,8.3,6.9,15.3,15.3,15.3h55c8.3,0,15.3-6.9,15.3-15.3v-81h93.4V510H435.3z"/>
		
			<linearGradient id="SVGID_42_" gradientUnits="userSpaceOnUse" x1="84.5803" y1="716.15" x2="90.5673" y2="716.15" gradientTransform="matrix(4.6259 0 0 -4.6259 0 3753.6733)">
			<stop  offset="0" style="stop-color:#FF0054"/>
			<stop  offset="1" style="stop-color:#484852"/>
		</linearGradient>
		<path fill="url(#SVGID_42_)" d="M393.7,433.2c1.9,0.9,4.2,0,5.1-2.3l2.8-6.5v54.1c0,2.3,1.9,3.7,3.7,3.7c2.3,0,3.7-1.9,3.7-3.7
			V424l2.8,6.9c0.9,1.9,2.8,2.8,5.1,2.3c1.9-0.9,2.8-2.8,2.3-5.1l-13-28.7l0,0l0,0l0,0l0,0l0,0l0,0c-1.9,0-3.7,1.4-3.7,3.2
			l-9.7,25.4C390.9,430,391.8,432.3,393.7,433.2z"/>
		
			<linearGradient id="SVGID_43_" gradientUnits="userSpaceOnUse" x1="78.018" y1="716.05" x2="84.0046" y2="716.05" gradientTransform="matrix(4.6259 0 0 -4.6259 0 3753.6733)">
			<stop  offset="0" style="stop-color:#FF0054"/>
			<stop  offset="1" style="stop-color:#484852"/>
		</linearGradient>
		<path fill="url(#SVGID_43_)" d="M363.1,433.2c1.9,0.9,4.2,0,5.1-2.3l2.8-6.5v54.1c0,2.3,1.9,3.7,3.7,3.7c2.3,0,3.7-1.9,3.7-3.7
			l2.8-47.2c0.9,1.9,2.8,2.8,5.1,2.3c1.9-0.9,2.8-2.8,2.3-5.1l-9.7-25.9l0,0c-0.5-0.9-0.9-1.9-2.3-2.3h-0.5l0,0l0,0l0,0l0,0
			c-0.5,0-0.5,0-0.9,0c-1.9,0-3.7,1.4-3.7,3.2l-9.7,25.4C360.4,430,361.3,432.3,363.1,433.2z"/>
		
			<linearGradient id="SVGID_44_" gradientUnits="userSpaceOnUse" x1="78.0146" y1="704.5" x2="90.5688" y2="704.5" gradientTransform="matrix(4.6259 0 0 -4.6259 0 3753.6733)">
			<stop  offset="0" style="stop-color:#FF0054"/>
			<stop  offset="1" style="stop-color:#484852"/>
		</linearGradient>
		<path fill="url(#SVGID_44_)" d="M414.9,491.1h-50.4c-2.3,0-3.7,1.9-3.7,3.7c0,2.3,1.9,3.7,3.7,3.7h50.4c2.3,0,3.7-1.9,3.7-3.7
			C419.1,492.9,417.3,491.1,414.9,491.1z"/>
	</g>
</g>
</svg>
