<?xml version="1.0" encoding="utf-8"?>
<!-- Generator: Adobe Illustrator 17.1.0, SVG Export Plug-In . SVG Version: 6.00 Build 0)  -->
<!DOCTYPE svg PUBLIC "-//W3C//DTD SVG 1.1//EN" "http://www.w3.org/Graphics/SVG/1.1/DTD/svg11.dtd">
<svg version="1.1" id="Layer_1" xmlns="http://www.w3.org/2000/svg" xmlns:xlink="http://www.w3.org/1999/xlink" x="0px" y="0px"
	 viewBox="0 0 612 792" enable-background="new 0 0 612 792" xml:space="preserve">
<g id="_x31__copy_2">
	<g>
		<g>
			<path fill="none" d="M370.5,360.1h3.2l-2.8-5.6c0,0,0,0.5-0.5,0.5V360.1z"/>
			
				<linearGradient id="SVGID_1_" gradientUnits="userSpaceOnUse" x1="5.4381" y1="685.4382" x2="98.9524" y2="778.9523" gradientTransform="matrix(4.6259 0 0 4.6259 0 -2953.8093)">
				<stop  offset="0" style="stop-color:#FF0054"/>
				<stop  offset="1" style="stop-color:#484852"/>
			</linearGradient>
			<path fill="url(#SVGID_1_)" d="M86,183c-14.3,14.8-26.8,31-37.9,48.1c-4.2,6-7.9,12.5-11.1,19c-9.3,16.7-16.2,33.8-22.2,51.3
				c12.5-17.6,24.1-35.6,34.7-54.1C62,226,75.9,205.2,86,183z"/>
			
				<linearGradient id="SVGID_2_" gradientUnits="userSpaceOnUse" x1="5.9632" y1="684.9131" x2="99.4773" y2="778.4274" gradientTransform="matrix(4.6259 0 0 4.6259 0 -2953.8093)">
				<stop  offset="0" style="stop-color:#FF0054"/>
				<stop  offset="1" style="stop-color:#484852"/>
			</linearGradient>
			<path fill="url(#SVGID_2_)" d="M99.9,276.4c16.7-29.1,36.1-57.4,47.2-88.8c6.5-19.4,9.7-39.8,12.5-60.6c-2.3,1.4-4.2,2.3-6.5,3.7
				c-13.4,49.5-36.1,96.2-62,140.2c-25.9,43-55.5,84.2-91.1,118.9c0,1.9,0,4.2,0,6c0,3.7,0,7.4,0.5,11.1
				C40.2,369.4,72.2,324.1,99.9,276.4z"/>
			
				<linearGradient id="SVGID_3_" gradientUnits="userSpaceOnUse" x1="-19.5515" y1="698.7485" x2="94.1454" y2="812.4453" gradientTransform="matrix(4.6259 0 0 4.6259 0 -2953.8093)">
				<stop  offset="0" style="stop-color:#FF0054"/>
				<stop  offset="1" style="stop-color:#484852"/>
			</linearGradient>
			<path fill="url(#SVGID_3_)" d="M9.3,459.6c0.9,5.1,2.3,10.2,3.7,15.3c20.8-16.7,52.3-47.2,81.4-78.2v-26.4
				C66.1,405,35.2,438.8,9.3,459.6z"/>
			
				<linearGradient id="SVGID_4_" gradientUnits="userSpaceOnUse" x1="23.3658" y1="660.5659" x2="154.3773" y2="791.5771" gradientTransform="matrix(4.6259 0 0 4.6259 0 -2953.8093)">
				<stop  offset="0" style="stop-color:#FF0054"/>
				<stop  offset="1" style="stop-color:#484852"/>
			</linearGradient>
			<path fill="url(#SVGID_4_)" d="M204,206.6c11.6-33.8,14.3-69.9,19-105c-1.4,0.5-2.3,0.5-3.7,0.9c-8.3,52.3-32.4,115.6-58.3,167.5
				h17.1C189.7,242.7,201.7,214.4,204,206.6z"/>
			
				<linearGradient id="SVGID_5_" gradientUnits="userSpaceOnUse" x1="-19.8579" y1="712.242" x2="71.4213" y2="803.5214" gradientTransform="matrix(4.6259 0 0 4.6259 0 -2953.8093)">
				<stop  offset="0" style="stop-color:#FF0054"/>
				<stop  offset="1" style="stop-color:#484852"/>
			</linearGradient>
			<path fill="url(#SVGID_5_)" d="M87.9,455c-24.5,22.2-46.7,42.6-58.7,51.3c-2.3,1.9-4.2,3.2-6.5,4.6c2.8,6.9,6,13.4,9.3,19.9
				c3.7-2.3,6.9-5.1,10.6-7.9c9.3-7.4,27.3-24.1,48.1-43.5c-1.4-4.6-2.3-9.7-2.3-15.3V455H87.9z"/>
			
				<linearGradient id="SVGID_6_" gradientUnits="userSpaceOnUse" x1="22.8598" y1="646.1599" x2="195.3359" y2="818.6357" gradientTransform="matrix(4.6259 0 0 4.6259 0 -2953.8093)">
				<stop  offset="0" style="stop-color:#FF0054"/>
				<stop  offset="1" style="stop-color:#484852"/>
			</linearGradient>
			<path fill="url(#SVGID_6_)" d="M278.9,104.8c0.5-4.6,1.4-9.3,1.9-13.9c-3.7,0.5-6.9,0.5-10.6,0.9c-0.5,3.7-0.9,7.4-1.4,11.6
				c0.5,20.8-21.7,98.1-47.2,167h18.5C264.1,199.2,275.7,127.5,278.9,104.8z"/>
			
				<linearGradient id="SVGID_7_" gradientUnits="userSpaceOnUse" x1="-28.2474" y1="707.5026" x2="78.7884" y2="814.5385" gradientTransform="matrix(4.6259 0 0 4.6259 0 -2953.8093)">
				<stop  offset="0" style="stop-color:#FF0054"/>
				<stop  offset="1" style="stop-color:#484852"/>
			</linearGradient>
			<path fill="url(#SVGID_7_)" d="M60.6,547.5c-4.6,3.7-9.3,6.9-14.3,10.2c4.2,6.5,8.3,13,13,19c5.1-3.7,10.2-7.4,15.3-11.1
				c8.3-6.5,31.5-25.4,59.2-50c-9.3-0.9-17.6-4.6-25-10.2C86.5,526.2,68,542.4,60.6,547.5z"/>
			
				<linearGradient id="SVGID_8_" gradientUnits="userSpaceOnUse" x1="20.8856" y1="632.4355" x2="209.3859" y2="820.936" gradientTransform="matrix(4.6259 0 0 4.6259 0 -2953.8093)">
				<stop  offset="0" style="stop-color:#FF0054"/>
				<stop  offset="1" style="stop-color:#484852"/>
			</linearGradient>
			<path fill="url(#SVGID_8_)" d="M331.7,111.7c0.9-6.9,1.9-13.9,2.3-20.8c-3.7-0.5-7.4-0.9-11.1-0.9c-0.9,6.5-1.9,13.4-2.8,19.9
				c-7.4,50-24.5,108.7-43.5,160.1h19.9C314.1,214.4,328.4,153.4,331.7,111.7z"/>
			
				<linearGradient id="SVGID_9_" gradientUnits="userSpaceOnUse" x1="21.8798" y1="622.7298" x2="202.3217" y2="803.1717" gradientTransform="matrix(4.6259 0 0 4.6259 0 -2953.8093)">
				<stop  offset="0" style="stop-color:#FF0054"/>
				<stop  offset="1" style="stop-color:#484852"/>
			</linearGradient>
			<path fill="url(#SVGID_9_)" d="M384.4,118.7c0.9-6,1.4-12,2.3-18.5c-3.7-0.9-7.9-1.9-11.6-2.8c-0.9,6.5-1.9,13-2.8,19.4
				c-1.4,17.6-20.4,88.4-40.2,153.1h14.8C364.5,206.1,381.6,137.2,384.4,118.7z"/>
			
				<linearGradient id="SVGID_10_" gradientUnits="userSpaceOnUse" x1="-23.9333" y1="710.5374" x2="72.6891" y2="807.1597" gradientTransform="matrix(4.6259 0 0 4.6259 0 -2953.8093)">
				<stop  offset="0" style="stop-color:#FF0054"/>
				<stop  offset="1" style="stop-color:#484852"/>
			</linearGradient>
			<path fill="url(#SVGID_10_)" d="M158.2,529c-31.5,30.1-57.8,54.1-66.1,60.1c-4.6,3.7-9.7,6.9-14.3,10.6c5.6,6,11.1,12,17.1,17.6
				c4.2-2.8,7.9-6,12-8.8c8.8-6.5,37-33.3,70.3-66.6c-6.5-2.8-12.5-6.5-18-11.6C158.7,529.5,158.7,529,158.2,529z"/>
			
				<linearGradient id="SVGID_11_" gradientUnits="userSpaceOnUse" x1="-43.841" y1="678.359" x2="92.448" y2="814.648" gradientTransform="matrix(4.6259 0 0 4.6259 0 -2953.8093)">
				<stop  offset="0" style="stop-color:#FF0054"/>
				<stop  offset="1" style="stop-color:#484852"/>
			</linearGradient>
			<path fill="url(#SVGID_11_)" d="M237.3,529.5c-7.9,7.9-17.6,13-28.2,15.3c-38.9,41.6-74.5,77.3-85.6,85.6
				c-2.3,1.9-5.1,3.7-7.4,5.6c6.9,5.6,14.3,10.6,21.7,15.7c0.5-0.5,0.9-0.5,1.4-0.9c15.3-12,72.6-74,123-134.1h-14.8
				C244.7,521.1,241.5,525.3,237.3,529.5z"/>
			
				<linearGradient id="SVGID_12_" gradientUnits="userSpaceOnUse" x1="27.0047" y1="619.1047" x2="185.6802" y2="777.7802" gradientTransform="matrix(4.6259 0 0 4.6259 0 -2953.8093)">
				<stop  offset="0" style="stop-color:#FF0054"/>
				<stop  offset="1" style="stop-color:#484852"/>
			</linearGradient>
			<path fill="url(#SVGID_12_)" d="M403.4,271.8c20.8-61.1,37-123.5,33.8-146.2c0.5-2.3,0.5-4.2,0.9-6.5c-4.2-1.9-8.3-3.7-12.5-5.6
				c-0.5,3.2-0.9,6.9-1.4,10.2c-3.2,23.1-19,78.6-43.5,146.2h9.7C395,269.9,399.2,270.9,403.4,271.8z"/>
			
				<linearGradient id="SVGID_13_" gradientUnits="userSpaceOnUse" x1="5.4547" y1="640.6548" x2="164.1302" y2="799.3302" gradientTransform="matrix(4.6259 0 0 4.6259 0 -2953.8093)">
				<stop  offset="0" style="stop-color:#FF0054"/>
				<stop  offset="1" style="stop-color:#484852"/>
			</linearGradient>
			<path fill="url(#SVGID_13_)" d="M370.5,355.5c0,0,0-0.5,0.5-0.5l-0.5-0.5V355.5z"/>
			
				<linearGradient id="SVGID_14_" gradientUnits="userSpaceOnUse" x1="24.1616" y1="611.6614" x2="181.5857" y2="769.0859" gradientTransform="matrix(4.6259 0 0 4.6259 0 -2953.8093)">
				<stop  offset="0" style="stop-color:#FF0054"/>
				<stop  offset="1" style="stop-color:#484852"/>
			</linearGradient>
			<path fill="url(#SVGID_14_)" d="M436.7,299.1l3.7,7.4c23.6-67.1,43.9-134.6,47.2-157.3c-4.2-3.2-8.8-6-13-9.3
				c-3.2,20.8-25,82.3-48.1,145.3C430.7,289.4,434.4,294,436.7,299.1z"/>
			
				<linearGradient id="SVGID_15_" gradientUnits="userSpaceOnUse" x1="-36.8323" y1="675.5677" x2="91.8803" y2="804.2803" gradientTransform="matrix(4.6259 0 0 4.6259 0 -2953.8093)">
				<stop  offset="0" style="stop-color:#FF0054"/>
				<stop  offset="1" style="stop-color:#484852"/>
			</linearGradient>
			<path fill="url(#SVGID_15_)" d="M162.4,665.9c8.8,4.6,17.6,8.8,26.8,12.5c19.9-16.2,95.8-98.1,147.1-162.4h-27.8
				C253.5,578,181.3,651.1,162.4,665.9z"/>
			
				<linearGradient id="SVGID_16_" gradientUnits="userSpaceOnUse" x1="23.9025" y1="613.9024" x2="167.6291" y2="757.6292" gradientTransform="matrix(4.6259 0 0 4.6259 0 -2953.8093)">
				<stop  offset="0" style="stop-color:#FF0054"/>
				<stop  offset="1" style="stop-color:#484852"/>
			</linearGradient>
			<path fill="url(#SVGID_16_)" d="M471.4,363.9c5.1,0.9,10.2,2.3,15.3,5.1c11.6-28.7,20.8-52.3,22.2-56.9
				c13-38.4,20.8-78.6,26.8-118.9c-4.6-5.1-9.3-10.2-13.9-14.8c-5.1,27.3-31,103.2-58.3,173.9l5.6,11.1L471.4,363.9z"/>
			
				<linearGradient id="SVGID_17_" gradientUnits="userSpaceOnUse" x1="-52.2098" y1="652.7402" x2="96.6187" y2="801.5687" gradientTransform="matrix(4.6259 0 0 4.6259 0 -2953.8093)">
				<stop  offset="0" style="stop-color:#FF0054"/>
				<stop  offset="1" style="stop-color:#484852"/>
			</linearGradient>
			<path fill="url(#SVGID_17_)" d="M390.9,537.8l-8.3-8.3c-3.2-3.2-6-6.9-8.3-10.6c-51.8,62-131.8,150.3-156.4,170.2
				c10.6,3.2,21.3,6,32.4,7.9c23.1-20.8,97.1-95.8,146.2-157.3c-0.9-0.5-2.3-0.9-3.2-1.9H390.9L390.9,537.8z"/>
			
				<linearGradient id="SVGID_18_" gradientUnits="userSpaceOnUse" x1="-48.4708" y1="642.679" x2="98.5885" y2="789.7385" gradientTransform="matrix(4.6259 0 0 4.6259 0 -2953.8093)">
				<stop  offset="0" style="stop-color:#FF0054"/>
				<stop  offset="1" style="stop-color:#484852"/>
			</linearGradient>
			<path fill="url(#SVGID_18_)" d="M456.6,533.2c-9.7,7.9-22.2,12.5-35.2,12.5c-0.9,0-1.9,0-3.2,0
				c-42.6,53.7-101.3,126.3-134.6,155.4c7.4,0.5,14.8,0.9,22.7,0.9c5.1,0,10.2,0,15.3-0.5c47.2-48.1,102.2-112.4,140.6-170.2
				C460.3,534.1,458.4,534.1,456.6,533.2z"/>
			
				<linearGradient id="SVGID_19_" gradientUnits="userSpaceOnUse" x1="9.2486" y1="659.9988" x2="119.6956" y2="770.4456" gradientTransform="matrix(4.6259 0 0 4.6259 0 -2953.8093)">
				<stop  offset="0" style="stop-color:#FF0054"/>
				<stop  offset="1" style="stop-color:#484852"/>
			</linearGradient>
			<path fill="url(#SVGID_19_)" d="M465.8,523.9c0.9-0.5,1.9-1.4,3.2-2.8c-2.3,3.2-4.6,6.9-6.5,10.2l0,0c2.8-3.7,6-8.8,9.7-14.8
				h-0.9C469.1,518.8,467.7,521.6,465.8,523.9z"/>
			
				<linearGradient id="SVGID_20_" gradientUnits="userSpaceOnUse" x1="38.2486" y1="630.9988" x2="148.6956" y2="741.4456" gradientTransform="matrix(4.6259 0 0 4.6259 0 -2953.8093)">
				<stop  offset="0" style="stop-color:#FF0054"/>
				<stop  offset="1" style="stop-color:#484852"/>
			</linearGradient>
			<path fill="url(#SVGID_20_)" d="M514.9,420.3c1.9,2.3,3.2,5.1,4.2,8.3c15.3-32.4,28.7-66.1,39.8-99.5
				c8.3-24.1,14.3-48.6,19.4-73.6c-4.2-8.3-9.3-16.7-14.3-25c-8.3,37-31,98.5-56.9,157.3c4.6,7.9,7.4,17.1,7.4,26.4v6H514.9z"/>
			
				<linearGradient id="SVGID_21_" gradientUnits="userSpaceOnUse" x1="-29.0958" y1="623.3041" x2="117.9635" y2="770.3636" gradientTransform="matrix(4.6259 0 0 4.6259 0 -2953.8093)">
				<stop  offset="0" style="stop-color:#FF0054"/>
				<stop  offset="1" style="stop-color:#484852"/>
			</linearGradient>
			<path fill="url(#SVGID_21_)" d="M465.8,523.9c-1.4,1.9-2.8,3.7-4.6,5.6c-1.4,1.4-2.8,2.8-4.2,3.7c1.9,0.9,3.7,0.5,5.6-1.9
				c2.3-3.7,4.6-6.9,6.5-10.2C467.7,522.5,466.3,523.4,465.8,523.9z"/>
			
				<linearGradient id="SVGID_22_" gradientUnits="userSpaceOnUse" x1="8.4237" y1="660.8238" x2="118.8706" y2="771.2706" gradientTransform="matrix(4.6259 0 0 4.6259 0 -2953.8093)">
				<stop  offset="0" style="stop-color:#FF0054"/>
				<stop  offset="1" style="stop-color:#484852"/>
			</linearGradient>
			<path fill="url(#SVGID_22_)" d="M465.8,523.9c-1.4,1.9-2.8,3.7-4.6,5.6c-1.4,1.4-2.8,2.8-4.2,3.7c1.9,0.9,3.7,0.5,5.6-1.9
				c2.3-3.7,4.6-6.9,6.5-10.2C467.7,522.5,466.3,523.4,465.8,523.9z"/>
			
				<linearGradient id="SVGID_23_" gradientUnits="userSpaceOnUse" x1="24.1881" y1="666.6882" x2="117.7025" y2="760.2025" gradientTransform="matrix(4.6259 0 0 4.6259 0 -2953.8093)">
				<stop  offset="0" style="stop-color:#FF0054"/>
				<stop  offset="1" style="stop-color:#484852"/>
			</linearGradient>
			<path fill="url(#SVGID_23_)" d="M608.8,347.7c-2.3-14.3-5.6-28.7-9.7-42.6c-21.3,73.1-50,143.9-88.8,209.1
				C470,581.3,421,641.9,365.4,696c15.3-2.8,29.6-6.9,43.9-12c42.6-50.4,80-105,113.3-161.9C555.1,466.1,587.5,409.2,608.8,347.7z"
				/>
			
				<linearGradient id="SVGID_24_" gradientUnits="userSpaceOnUse" x1="26.9131" y1="663.9632" x2="120.4274" y2="757.4774" gradientTransform="matrix(4.6259 0 0 4.6259 0 -2953.8093)">
				<stop  offset="0" style="stop-color:#FF0054"/>
				<stop  offset="1" style="stop-color:#484852"/>
			</linearGradient>
			<path fill="url(#SVGID_24_)" d="M555.1,540.6c-22.2,37.5-47.6,73.6-74.9,107.3c25-17.6,47.6-38.4,66.6-62.4
				c17.6-21.7,31.9-46.3,42.6-72.6c11.1-26.4,18-54.1,21.3-83.7C594.4,467.9,575.9,504.9,555.1,540.6z"/>
		</g>
		<g>
			
				<linearGradient id="SVGID_25_" gradientUnits="userSpaceOnUse" x1="71.2329" y1="734.3" x2="94.0009" y2="734.3" gradientTransform="matrix(4.6259 0 0 -4.6259 0 3753.6733)">
				<stop  offset="0" style="stop-color:#FF0054"/>
				<stop  offset="1" style="stop-color:#484852"/>
			</linearGradient>
			<path fill="url(#SVGID_25_)" d="M400.6,323.1c-1.4-3.2-4.2-6-6.9-7.9c-2.8-1.9-6.5-2.8-10.2-2.8h-45.3c-5.1,0-8.8,4.2-8.8,8.8
				v71.2c0,5.1,4.2,8.8,8.8,8.8h87.4l0,0c1.4,0,2.8-0.5,4.2-0.9c4.2-2.3,6-7.4,3.7-12L400.6,323.1z M347.4,383.3v-53.2h36.5
				c0,0,0.5,0.5,0.5,0.9l26.8,52.3H347.4z"/>
			
				<linearGradient id="SVGID_26_" gradientUnits="userSpaceOnUse" x1="24" y1="726.4" x2="107.6001" y2="726.4" gradientTransform="matrix(4.6259 0 0 -4.6259 0 3753.6733)">
				<stop  offset="0" style="stop-color:#FF0054"/>
				<stop  offset="1" style="stop-color:#484852"/>
			</linearGradient>
			<path fill="url(#SVGID_26_)" d="M491.7,430.5v-16.2c0-6.9-2.3-13.4-6.9-18.5c-4.2-5.1-10.6-8.3-17.1-9.7l-14.3-1.9l-37-74.5
				c-2.3-5.1-6-9.3-10.6-12s-9.7-4.6-15.3-4.6H145.7c-6.9,0-13.4,2.3-18.5,6.9h-0.9l-1.4,2.3c-5.1,5.1-7.9,12-7.9,19.4v109.2
				c-3.7,0.9-6,4.6-6,8.3v25.4c0,7.4,2.8,14.8,8.3,19.9c5.6,5.6,12.5,8.3,19.9,8.3h10.6c4.6,0,8.3-3.2,8.8-7.9
				c0.9-9.7,5.6-18.5,13-24.5c7.4-6.5,16.7-9.7,25.9-9.7c9.7,0,19,3.7,25.9,9.7c6.9,6.5,11.6,15.3,13,24.5c0.5,4.6,4.2,8.3,8.8,8.3
				h128.1c4.6,0,8.3-3.2,8.8-7.9c0.9-9.7,5.6-18.5,13-24.5c7.4-6.5,16.7-9.7,25.9-9.7c9.7,0,19,3.7,25.9,9.7
				c6.9,6.5,11.6,15.3,13,24.5c0.5,4.6,4.2,8.3,8.8,8.3h9.7c5.1,0,9.7-1.9,13-5.6c3.7-3.7,5.6-8.3,5.6-13.4v-35.6
				C497.7,435.1,495,431.9,491.7,430.5z M479.7,474.4c0,0.5,0,0.5-0.5,0.5h-0.5h-2.3c-2.8-10.6-8.8-20.8-17.1-28.2
				c-10.6-9.3-24.1-14.3-37.9-14.3c-13.9,0-27.3,5.1-37.9,14.3c-8.3,7.4-14.3,17.1-17.1,28.2H253c-2.8-10.6-8.8-20.4-17.1-28.2
				c-10.6-9.3-24.1-14.3-37.9-14.3s-27.3,5.1-37.9,14.3c-8.3,7.4-14.3,17.1-17.1,28.2h-3.2c-2.8,0-5.6-0.9-7.4-3.2
				c-1.9-1.9-3.2-4.6-3.2-7.4v-17.1c3.7-0.9,6.5-4.6,6.5-8.3v-117c0-2.8,0.9-5.6,3.2-7.4c1.9-1.9,4.6-3.2,7.4-3.2h244.7
				c1.9,0,3.7,0.5,5.6,1.4c1.9,0.9,3.2,2.8,4.2,5.1l39.3,78.6c1.4,2.8,3.7,4.2,6.5,4.6l18.5,2.8c2.3,0.5,4.6,1.9,6.5,3.7
				c1.4,1.9,2.3,4.2,2.3,6.9v24.5c0,4.2,2.8,7.4,6,8.3L479.7,474.4L479.7,474.4z"/>
			
				<linearGradient id="SVGID_27_" gradientUnits="userSpaceOnUse" x1="35.7795" y1="705.45" x2="49.8348" y2="705.45" gradientTransform="matrix(4.6259 0 0 -4.6259 0 3753.6733)">
				<stop  offset="0" style="stop-color:#FF0054"/>
				<stop  offset="1" style="stop-color:#484852"/>
			</linearGradient>
			<path fill="url(#SVGID_27_)" d="M220.7,467c-6-6-14.3-9.3-22.7-9.3s-16.2,3.2-22.2,8.8l-4.6,5.6c-3.7,5.6-5.6,11.6-5.6,18.5
				c0,8.8,3.2,16.7,9.7,23.1c6,6,14.3,9.3,22.7,9.3c8.8,0,16.7-3.2,23.1-9.7c6-6,9.7-14.3,9.7-23.1C230.4,481.3,227.1,473,220.7,467
				L220.7,467z M202.6,494.8c-2.3,2.3-6.5,2.3-9.3,0v-0.5c-0.9-1.4-1.9-2.8-1.9-4.2c0-1.9,0.5-3.2,1.9-4.6c2.3-2.3,6.5-2.3,9.3,0
				c1.4,1.4,1.9,2.8,1.9,4.6C204.5,491.5,204,493.4,202.6,494.8z"/>
			
				<linearGradient id="SVGID_28_" gradientUnits="userSpaceOnUse" x1="29.6583" y1="725" x2="55.571" y2="725" gradientTransform="matrix(4.6259 0 0 -4.6259 0 3753.6733)">
				<stop  offset="0" style="stop-color:#FF0054"/>
				<stop  offset="1" style="stop-color:#484852"/>
			</linearGradient>
			<path fill="url(#SVGID_28_)" d="M247.9,391.1H146.2c-5.1,0-8.8,4.2-8.8,8.8c0,5.1,4.2,8.8,8.8,8.8h101.8c5.1,0,8.8-4.2,8.8-8.8
				C257.2,395.3,253,391.1,247.9,391.1z"/>
			
				<linearGradient id="SVGID_29_" gradientUnits="userSpaceOnUse" x1="84.1" y1="705.45" x2="98.1564" y2="705.45" gradientTransform="matrix(4.6259 0 0 -4.6259 0 3753.6733)">
				<stop  offset="0" style="stop-color:#FF0054"/>
				<stop  offset="1" style="stop-color:#484852"/>
			</linearGradient>
			<path fill="url(#SVGID_29_)" d="M444.5,467c-6-6-14.3-9.3-22.7-9.3c-8.8,0-16.7,3.2-23.1,9.7c-6,6-9.7,14.3-9.7,23.1
				s3.2,16.7,9.7,23.1l1.4,1.4l0,0c6,5.1,13.4,7.9,21.3,7.9c8.8,0,16.7-3.2,23.1-9.7c6-6,9.7-14.3,9.7-23.1S450.6,473,444.5,467
				L444.5,467z M426,494.8c-2.3,2.3-6.5,2.3-9.3,0c-1.4-1.4-1.9-2.8-1.9-4.6s0.5-3.2,1.9-4.6l0,0c2.3-2.3,6.5-2.3,8.8,0
				c1.4,1.4,1.9,2.8,1.9,4.6S427.4,493.4,426,494.8z"/>
		</g>
	</g>
</g>
</svg>
