<?xml version="1.0" encoding="utf-8"?>
<!-- Generator: Adobe Illustrator 17.1.0, SVG Export Plug-In . SVG Version: 6.00 Build 0)  -->
<!DOCTYPE svg PUBLIC "-//W3C//DTD SVG 1.1//EN" "http://www.w3.org/Graphics/SVG/1.1/DTD/svg11.dtd">
<svg version="1.1" id="Layer_1" xmlns="http://www.w3.org/2000/svg" xmlns:xlink="http://www.w3.org/1999/xlink" x="0px" y="0px"
	 viewBox="0 0 612 792" enable-background="new 0 0 612 792" xml:space="preserve">
<g id="основа_2_copy_4">
	<g id="_x31_">
		<g>
			<g>
				<path fill="none" d="M115.6,243.1h2.3h2.3h2.3h2.3h1.9v-14.3c-4.2,4.6-8.8,9.7-13,14.3H115.6z"/>
				<path fill="none" d="M77.3,288h18v-23.1c-5.6,6.9-11.1,13.9-16.2,20.8C78.6,286.6,78.2,287.5,77.3,288z"/>
				
					<linearGradient id="SVGID_1_" gradientUnits="userSpaceOnUse" x1="20.0467" y1="676.5967" x2="114.472" y2="771.022" gradientTransform="matrix(4.6259 0 0 4.6259 0 -2953.8093)">
					<stop  offset="0" style="stop-color:#FF0054"/>
					<stop  offset="1" style="stop-color:#484852"/>
				</linearGradient>
				<path fill="url(#SVGID_1_)" d="M524.6,572.5c-12,6.9-23.6,14.3-31.9,25.4c-10.6,14.3-19,31.5-23.6,48.6
					c-0.9,3.2-1.4,6.5-1.9,9.7c6.5-4.2,12.5-8.3,19-12.5c-0.5-1.9-0.9-3.7,0-5.6c1.4-3.7,7.4-5.6,9.3-9.3c1.9-3.7-0.5-9.3,1.4-13
					c0.9-1.4,9.7-6,10.6-7.4c9.7-13,21.3-23.1,35.2-31.5c6.9-4.2,12-12,19.9-14.8h0.5c2.8-4.6,5.6-8.8,8.3-13.4c-4.6,0-8.8,0-13,1.4
					c-8.3,2.8-14.8,11.1-22.2,15.3c-0.9,0.5-1.4,0.9-2.3,1.4v5.1h-9.3V572.5z"/>
				
					<linearGradient id="SVGID_2_" gradientUnits="userSpaceOnUse" x1="10.0967" y1="686.5466" x2="104.5219" y2="780.972" gradientTransform="matrix(4.6259 0 0 4.6259 0 -2953.8093)">
					<stop  offset="0" style="stop-color:#FF0054"/>
					<stop  offset="1" style="stop-color:#484852"/>
				</linearGradient>
				<path fill="url(#SVGID_2_)" d="M425.1,634.9c-3.7,14.3-3.7,29.6-2.3,44.4c3.7-1.4,7.4-3.2,11.1-5.1c1.9-12,5.1-23.6,8.3-35.2
					c1.4-5.1-1.4-12,0.5-17.1c1.9-5.1,8.8-8.3,11.1-13.4c2.3-5.1,0.9-12,3.7-16.7c1.9-3.2,11.1-8.3,13.4-11.1s4.6-6,6.9-8.8h-23.1
					C441.3,591,430.7,612.7,425.1,634.9z"/>
				
					<linearGradient id="SVGID_3_" gradientUnits="userSpaceOnUse" x1="34.3218" y1="662.3217" x2="128.747" y2="756.747" gradientTransform="matrix(4.6259 0 0 4.6259 0 -2953.8093)">
					<stop  offset="0" style="stop-color:#FF0054"/>
					<stop  offset="1" style="stop-color:#484852"/>
				</linearGradient>
				<path fill="url(#SVGID_3_)" d="M547.2,519.3c10.2-3.7,22.2-1.9,33.3-3.2c2.3-0.5,5.1-0.9,7.4-0.9c1.9-4.2,3.7-8.8,5.1-13.4
					c-5.1,0.5-9.7,1.4-14.8,1.9c-11.6,1.4-24.5-0.5-35.6,3.2c-3.2,0.9-6.5,2.8-9.3,4.6v15.7C538,524.4,542.6,521.1,547.2,519.3z"/>
				
					<linearGradient id="SVGID_4_" gradientUnits="userSpaceOnUse" x1="40.3968" y1="656.2468" x2="134.8219" y2="750.6719" gradientTransform="matrix(4.6259 0 0 4.6259 0 -2953.8093)">
					<stop  offset="0" style="stop-color:#FF0054"/>
					<stop  offset="1" style="stop-color:#484852"/>
				</linearGradient>
				<path fill="url(#SVGID_4_)" d="M574.5,470.7c9.7-1.4,19.9-2.8,29.6-3.7c0.9-4.2,1.9-8.3,2.8-12.5c-11.6,0.5-22.7,1.9-34.2,3.7
					c-13,1.9-26.4,0.9-38.9,4.2v13.9C546.8,471.6,561.1,472.6,574.5,470.7z"/>
				
					<linearGradient id="SVGID_5_" gradientUnits="userSpaceOnUse" x1="3.6218" y1="693.0217" x2="98.047" y2="787.447" gradientTransform="matrix(4.6259 0 0 4.6259 0 -2953.8093)">
					<stop  offset="0" style="stop-color:#FF0054"/>
					<stop  offset="1" style="stop-color:#484852"/>
				</linearGradient>
				<path fill="url(#SVGID_5_)" d="M381.2,623.4c-6,22.7-5.1,46.7-2.3,70.3c2.3-0.5,5.1-1.4,7.4-1.9c0.5-21.7,5.6-43,11.1-64.3
					c1.9-6.9-0.5-14.8,1.9-21.7c2.8-6.5,9.7-11.1,13-17.6c2.3-4.6,2.3-11.1,4.2-16.2h-15.3C392.3,588.7,385.3,605.8,381.2,623.4z"/>
				
					<linearGradient id="SVGID_6_" gradientUnits="userSpaceOnUse" x1="-3.9782" y1="700.6216" x2="90.447" y2="795.0469" gradientTransform="matrix(4.6259 0 0 4.6259 0 -2953.8093)">
					<stop  offset="0" style="stop-color:#FF0054"/>
					<stop  offset="1" style="stop-color:#484852"/>
				</linearGradient>
				<path fill="url(#SVGID_6_)" d="M339.5,601.6c-0.9,3.2-1.9,6.9-2.8,10.2c-7.4,29.1-6.5,59.2-3.2,89.3c1.9,0,4.2-0.5,6-0.5
					c-0.9-28.7,5.6-56.9,12.5-84.7c1.4-6,0.9-12.5,1.9-18.5c-0.9,1.4-1.4,2.8-2.3,4.6C349.3,609.9,337.2,609,339.5,601.6z"/>
				
					<linearGradient id="SVGID_7_" gradientUnits="userSpaceOnUse" x1="-13.8765" y1="675.0736" x2="100.832" y2="789.782" gradientTransform="matrix(4.6259 0 0 4.6259 0 -2953.8093)">
					<stop  offset="0" style="stop-color:#FF0054"/>
					<stop  offset="1" style="stop-color:#484852"/>
				</linearGradient>
				<path fill="url(#SVGID_7_)" d="M339.5,601.6c5.1-4.2,11.1-8.8,17.1-13.4c-0.5,0.5-0.5,1.4-0.9,1.9c-0.9,2.3-1.4,5.1-1.4,7.4
					c4.6-8.8,9.3-17.1,13.9-25h-18C346.5,581.7,342.8,591.4,339.5,601.6z"/>
				
					<linearGradient id="SVGID_8_" gradientUnits="userSpaceOnUse" x1="28.0235" y1="633.1736" x2="142.732" y2="747.882" gradientTransform="matrix(4.6259 0 0 4.6259 0 -2953.8093)">
					<stop  offset="0" style="stop-color:#FF0054"/>
					<stop  offset="1" style="stop-color:#484852"/>
				</linearGradient>
				<path fill="url(#SVGID_8_)" d="M568.1,424.9c14.3-1.9,28.7-3.7,43-4.2c0.5-4.2,0.5-8.3,0.9-12.5c-15.3,0.5-30.5,2.3-45.8,4.2
					c-10.6,1.4-21.7,1.9-32.4,3.2v13C544.9,427.2,557,426.8,568.1,424.9z"/>
				
					<linearGradient id="SVGID_9_" gradientUnits="userSpaceOnUse" x1="2.1586" y1="694.4848" x2="96.5838" y2="788.9102" gradientTransform="matrix(4.6259 0 0 4.6259 0 -2953.8093)">
					<stop  offset="0" style="stop-color:#FF0054"/>
					<stop  offset="1" style="stop-color:#484852"/>
				</linearGradient>
				<path fill="url(#SVGID_9_)" d="M356.7,588.2c-6,5.1-11.6,9.3-17.1,13.4c-2.8,7.4,9.7,8.3,12,0.5c0.9-1.4,1.4-2.8,2.3-4.6
					c0.5-2.8,0.5-5.1,1.4-7.4C356.2,589.1,356.7,588.7,356.7,588.2z"/>
				
					<linearGradient id="SVGID_10_" gradientUnits="userSpaceOnUse" x1="-15.5647" y1="676.7617" x2="99.1438" y2="791.4702" gradientTransform="matrix(4.6259 0 0 4.6259 0 -2953.8093)">
					<stop  offset="0" style="stop-color:#FF0054"/>
					<stop  offset="1" style="stop-color:#484852"/>
				</linearGradient>
				<path fill="url(#SVGID_10_)" d="M356.7,588.2c-6,5.1-11.6,9.3-17.1,13.4c-2.8,7.4,9.7,8.3,12,0.5c0.9-1.4,1.4-2.8,2.3-4.6
					c0.5-2.8,0.5-5.1,1.4-7.4C356.2,589.1,356.7,588.7,356.7,588.2z"/>
				
					<linearGradient id="SVGID_11_" gradientUnits="userSpaceOnUse" x1="27.2658" y1="622.5657" x2="150.1792" y2="745.4792" gradientTransform="matrix(4.6259 0 0 4.6259 0 -2953.8093)">
					<stop  offset="0" style="stop-color:#FF0054"/>
					<stop  offset="1" style="stop-color:#484852"/>
				</linearGradient>
				<path fill="url(#SVGID_11_)" d="M561.6,379.6c16.7-2.3,33.3-4.2,50-4.6c-0.5-4.2-0.5-8.8-0.9-13c-16.7,0.5-33.8,2.3-50.4,4.6
					c-8.8,1.4-17.6,1.9-26.4,2.8v13C543.1,381.4,552.3,381,561.6,379.6z"/>
				
					<linearGradient id="SVGID_12_" gradientUnits="userSpaceOnUse" x1="-25.2842" y1="675.1157" x2="97.6292" y2="798.0292" gradientTransform="matrix(4.6259 0 0 4.6259 0 -2953.8093)">
					<stop  offset="0" style="stop-color:#FF0054"/>
					<stop  offset="1" style="stop-color:#484852"/>
				</linearGradient>
				<path fill="url(#SVGID_12_)" d="M289.6,614.6c5.6,4.2,10.2,7.4,13,9.3v0.5c6.5-19,14.3-36.1,22.2-52.3h-23.6
					C296.5,585.9,292.4,599.8,289.6,614.6z"/>
				
					<linearGradient id="SVGID_13_" gradientUnits="userSpaceOnUse" x1="-29.5731" y1="679.4046" x2="93.3403" y2="802.3181" gradientTransform="matrix(4.6259 0 0 4.6259 0 -2953.8093)">
					<stop  offset="0" style="stop-color:#FF0054"/>
					<stop  offset="1" style="stop-color:#484852"/>
				</linearGradient>
				<path fill="url(#SVGID_13_)" d="M289.6,615.5L289.6,615.5C289.6,615.5,289.6,615,289.6,615.5C289.6,615,289.6,615.5,289.6,615.5
					z"/>
				
					<linearGradient id="SVGID_14_" gradientUnits="userSpaceOnUse" x1="-10.7283" y1="707.3716" x2="83.6969" y2="801.797" gradientTransform="matrix(4.6259 0 0 4.6259 0 -2953.8093)">
					<stop  offset="0" style="stop-color:#FF0054"/>
					<stop  offset="1" style="stop-color:#484852"/>
				</linearGradient>
				<path fill="url(#SVGID_14_)" d="M289.6,615.5c-5.1,28.2-4.6,57.4-1.4,86.5c1.9,0,3.7,0,5.6,0.5c-0.5-25.9,3.2-51.8,9.3-77.3l0,0
					L289.6,615.5z"/>
				
					<linearGradient id="SVGID_15_" gradientUnits="userSpaceOnUse" x1="-6.097" y1="702.7404" x2="88.3282" y2="797.1657" gradientTransform="matrix(4.6259 0 0 4.6259 0 -2953.8093)">
					<stop  offset="0" style="stop-color:#FF0054"/>
					<stop  offset="1" style="stop-color:#484852"/>
				</linearGradient>
				<path fill="url(#SVGID_15_)" d="M289.6,614.6C289.6,615,289.6,615,289.6,614.6C289.6,615,289.6,615,289.6,614.6L289.6,614.6z"/>
				
					<linearGradient id="SVGID_16_" gradientUnits="userSpaceOnUse" x1="-29.3092" y1="679.1407" x2="93.6042" y2="802.0542" gradientTransform="matrix(4.6259 0 0 4.6259 0 -2953.8093)">
					<stop  offset="0" style="stop-color:#FF0054"/>
					<stop  offset="1" style="stop-color:#484852"/>
				</linearGradient>
				<path fill="url(#SVGID_16_)" d="M289.6,614.6C289.6,615,289.6,615,289.6,614.6c0,0.5,0,0.5,0,0.5l13,9.3l0,0v-0.5
					C299.8,622,295.6,619.2,289.6,614.6z"/>
				
					<linearGradient id="SVGID_17_" gradientUnits="userSpaceOnUse" x1="-5.9033" y1="702.5467" x2="88.5219" y2="796.972" gradientTransform="matrix(4.6259 0 0 4.6259 0 -2953.8093)">
					<stop  offset="0" style="stop-color:#FF0054"/>
					<stop  offset="1" style="stop-color:#484852"/>
				</linearGradient>
				<path fill="url(#SVGID_17_)" d="M289.6,614.6C289.6,615,289.6,615,289.6,614.6c0,0.5,0,0.5,0,0.5l13,9.3l0,0v-0.5
					C299.8,622,295.6,619.2,289.6,614.6z"/>
				
					<linearGradient id="SVGID_18_" gradientUnits="userSpaceOnUse" x1="-32.0163" y1="675.0335" x2="97.6046" y2="804.6546" gradientTransform="matrix(4.6259 0 0 4.6259 0 -2953.8093)">
					<stop  offset="0" style="stop-color:#FF0054"/>
					<stop  offset="1" style="stop-color:#484852"/>
				</linearGradient>
				<path fill="url(#SVGID_18_)" d="M249.8,583.6c4.2,3.7,8.3,6.9,12.5,10.2c3.2-7.4,6.5-14.3,9.7-21.7h-18.5
					C252.6,576.2,251.2,579.9,249.8,583.6z"/>
				
					<linearGradient id="SVGID_19_" gradientUnits="userSpaceOnUse" x1="28.3087" y1="614.7086" x2="157.9296" y2="744.3296" gradientTransform="matrix(4.6259 0 0 4.6259 0 -2953.8093)">
					<stop  offset="0" style="stop-color:#FF0054"/>
					<stop  offset="1" style="stop-color:#484852"/>
				</linearGradient>
				<path fill="url(#SVGID_19_)" d="M555.6,334.2c16.2-2.3,32.8-4.2,49.5-4.6c-0.9-4.2-1.9-8.8-3.2-13c-16.2,0.9-32.4,2.3-48.1,4.6
					c-6.5,0.9-13.4,1.9-19.9,2.3v13C540.8,335.6,548.2,335.2,555.6,334.2z"/>
				
					<linearGradient id="SVGID_20_" gradientUnits="userSpaceOnUse" x1="53.9" y1="765.1" x2="53.9" y2="765.1" gradientTransform="matrix(4.6259 0 0 4.6259 0 -2953.8093)">
					<stop  offset="0" style="stop-color:#FF0054"/>
					<stop  offset="1" style="stop-color:#484852"/>
				</linearGradient>
				<path fill="url(#SVGID_20_)" d="M249.3,585.4L249.3,585.4L249.3,585.4L249.3,585.4z"/>
				
					<linearGradient id="SVGID_21_" gradientUnits="userSpaceOnUse" x1="-13.4283" y1="710.0717" x2="80.9969" y2="804.4969" gradientTransform="matrix(4.6259 0 0 4.6259 0 -2953.8093)">
					<stop  offset="0" style="stop-color:#FF0054"/>
					<stop  offset="1" style="stop-color:#484852"/>
				</linearGradient>
				<path fill="url(#SVGID_21_)" d="M248.4,588.7c-8.8,34.7-9.7,70.8-6.9,106.9c1.9,0.5,3.2,0.9,5.1,0.9c0-34.7,6.5-69.4,15.3-102.7
					l-13-8.3C249.3,586.4,248.9,587.7,248.4,588.7z"/>
				
					<linearGradient id="SVGID_22_" gradientUnits="userSpaceOnUse" x1="-7.1533" y1="703.7967" x2="87.2719" y2="798.222" gradientTransform="matrix(4.6259 0 0 4.6259 0 -2953.8093)">
					<stop  offset="0" style="stop-color:#FF0054"/>
					<stop  offset="1" style="stop-color:#484852"/>
				</linearGradient>
				<path fill="url(#SVGID_22_)" d="M249.8,583.6c0,0.5-0.5,0.9-0.5,1.9C249.8,585,249.8,584,249.8,583.6L249.8,583.6z"/>
				
					<linearGradient id="SVGID_23_" gradientUnits="userSpaceOnUse" x1="-33.8414" y1="676.8586" x2="95.7795" y2="806.4796" gradientTransform="matrix(4.6259 0 0 4.6259 0 -2953.8093)">
					<stop  offset="0" style="stop-color:#FF0054"/>
					<stop  offset="1" style="stop-color:#484852"/>
				</linearGradient>
				<path fill="url(#SVGID_23_)" d="M249.3,585.4L249.3,585.4l13,8.3c-4.2-3.2-8.3-6.5-12.5-10.2C249.8,584,249.8,585,249.3,585.4z"
					/>
				
					<linearGradient id="SVGID_24_" gradientUnits="userSpaceOnUse" x1="-7.0283" y1="703.6717" x2="87.3969" y2="798.097" gradientTransform="matrix(4.6259 0 0 4.6259 0 -2953.8093)">
					<stop  offset="0" style="stop-color:#FF0054"/>
					<stop  offset="1" style="stop-color:#484852"/>
				</linearGradient>
				<path fill="url(#SVGID_24_)" d="M249.3,585.4L249.3,585.4l13,8.3c-4.2-3.2-8.3-6.5-12.5-10.2C249.8,584,249.8,585,249.3,585.4z"
					/>
				
					<linearGradient id="SVGID_25_" gradientUnits="userSpaceOnUse" x1="17.4352" y1="597.935" x2="170.3871" y2="750.8872" gradientTransform="matrix(4.6259 0 0 4.6259 0 -2953.8093)">
					<stop  offset="0" style="stop-color:#FF0054"/>
					<stop  offset="1" style="stop-color:#484852"/>
				</linearGradient>
				<path fill="url(#SVGID_25_)" d="M533.8,288v1.9c5.1-0.5,10.2-0.9,15.3-1.4c13.9-1.9,27.8-3.2,42.1-4.2c-1.9-4.2-3.7-8.8-5.6-13
					c-13,0.9-25.9,2.3-38.4,4.2c-12,1.9-24.5,1.9-36.5,3.7v8.8H533.8L533.8,288z"/>
				
					<linearGradient id="SVGID_26_" gradientUnits="userSpaceOnUse" x1="-16.3032" y1="712.9468" x2="78.122" y2="807.3719" gradientTransform="matrix(4.6259 0 0 4.6259 0 -2953.8093)">
					<stop  offset="0" style="stop-color:#FF0054"/>
					<stop  offset="1" style="stop-color:#484852"/>
				</linearGradient>
				<path fill="url(#SVGID_26_)" d="M204.5,577.1c-8.8,34.2-10.6,69.4-9.3,104.5c1.9,0.9,3.7,1.4,5.6,2.3
					c1.4-34.7,7.9-69.4,17.1-103.2c0.9-2.8,1.4-5.6,1.9-8.3h-13.9C205.4,573.9,204.9,575.7,204.5,577.1z"/>
				
					<linearGradient id="SVGID_27_" gradientUnits="userSpaceOnUse" x1="-20.1033" y1="716.7468" x2="74.3219" y2="811.1719" gradientTransform="matrix(4.6259 0 0 4.6259 0 -2953.8093)">
					<stop  offset="0" style="stop-color:#FF0054"/>
					<stop  offset="1" style="stop-color:#484852"/>
				</linearGradient>
				<path fill="url(#SVGID_27_)" d="M149.4,659c2.3,1.4,4.2,2.8,6.5,3.7c2.8-30.5,8.8-61.1,16.2-90.7h-13.4
					C152.2,600.7,149.4,629.8,149.4,659z"/>
				
					<linearGradient id="SVGID_28_" gradientUnits="userSpaceOnUse" x1="22.2838" y1="598.884" x2="177.6957" y2="754.2957" gradientTransform="matrix(4.6259 0 0 4.6259 0 -2953.8093)">
					<stop  offset="0" style="stop-color:#FF0054"/>
					<stop  offset="1" style="stop-color:#484852"/>
				</linearGradient>
				<path fill="url(#SVGID_28_)" d="M481.1,243.1h2.3h2.3h2.3h2.3h2.3h2.3h2.3h2.3h2.3h2.3h2.3h2.3h2.3v3.2
					c10.6-1.4,21.7-2.3,32.4-3.7c8.8-1.4,17.6-2.3,26.8-3.2c-2.8-4.2-5.1-8.3-7.9-12.5c-6.9,0.9-13.9,1.4-20.4,2.8
					c-19.9,2.8-40.7,2.8-60.1,8.8c-0.5,0-0.9,0.5-1.4,0.5v4.2H481.1z"/>
				
					<linearGradient id="SVGID_29_" gradientUnits="userSpaceOnUse" x1="-23.3283" y1="719.9717" x2="71.0969" y2="814.397" gradientTransform="matrix(4.6259 0 0 4.6259 0 -2953.8093)">
					<stop  offset="0" style="stop-color:#FF0054"/>
					<stop  offset="1" style="stop-color:#484852"/>
				</linearGradient>
				<path fill="url(#SVGID_29_)" d="M106.4,628c1.9,1.9,4.2,3.2,6,5.1c2.8-20.4,6.9-40.7,12-61.1h-7.9
					C112.4,590.5,108.7,609.5,106.4,628z"/>
				
					<linearGradient id="SVGID_30_" gradientUnits="userSpaceOnUse" x1="40.2291" y1="622.229" x2="167.1819" y2="749.1819" gradientTransform="matrix(4.6259 0 0 4.6259 0 -2953.8093)">
					<stop  offset="0" style="stop-color:#FF0054"/>
					<stop  offset="1" style="stop-color:#484852"/>
				</linearGradient>
				<path fill="url(#SVGID_30_)" d="M443.2,219.5c30.1-10.2,60.1-22.2,91.6-26.8c-2.3-2.8-4.6-5.1-6.9-7.9
					c-30.5,4.2-61.5,7.4-90.7,17.6c-3.2,0.9-16.7,6.5-37,17.6h41.6C442.7,220,443.2,220,443.2,219.5z"/>
				
					<linearGradient id="SVGID_31_" gradientUnits="userSpaceOnUse" x1="39.2435" y1="630.7434" x2="163.6798" y2="755.1798" gradientTransform="matrix(4.6259 0 0 4.6259 0 -2953.8093)">
					<stop  offset="0" style="stop-color:#FF0054"/>
					<stop  offset="1" style="stop-color:#484852"/>
				</linearGradient>
				<path fill="url(#SVGID_31_)" d="M429.7,180.7c22.7-7.9,45.8-16.7,68.9-22.7c-4.2-3.2-8.8-6.9-13-10.2
					c-21.3,3.2-42.1,7.4-62.4,14.3c-8.8,3.2-57.4,24.5-109.2,57.4h32.4C388.1,196.9,423.3,183,429.7,180.7z"/>
				
					<linearGradient id="SVGID_32_" gradientUnits="userSpaceOnUse" x1="-25.7033" y1="722.3467" x2="68.7219" y2="816.772" gradientTransform="matrix(4.6259 0 0 4.6259 0 -2953.8093)">
					<stop  offset="0" style="stop-color:#FF0054"/>
					<stop  offset="1" style="stop-color:#484852"/>
				</linearGradient>
				<path fill="url(#SVGID_32_)" d="M69.4,590.5c2.3,2.3,4.2,5.1,6.5,7.4c1.9-8.8,3.2-17.1,5.6-25.4h-8.3
					C71.7,578.5,70.8,584.5,69.4,590.5z"/>
				
					<linearGradient id="SVGID_33_" gradientUnits="userSpaceOnUse" x1="-17.9283" y1="714.5718" x2="76.4969" y2="808.9969" gradientTransform="matrix(4.6259 0 0 4.6259 0 -2953.8093)">
					<stop  offset="0" style="stop-color:#FF0054"/>
					<stop  offset="1" style="stop-color:#484852"/>
				</linearGradient>
				<path fill="url(#SVGID_33_)" d="M38.4,534.5c-0.5,2.3-0.9,4.6-1.9,6.9c1.9,3.7,4.2,7.4,6.5,11.1c1.4-5.1,2.8-10.6,4.2-15.7
					c7.4-28.2,14.8-57.4,25.4-84.7v-19.9C58.3,465.2,47.2,499.4,38.4,534.5z"/>
				
					<linearGradient id="SVGID_34_" gradientUnits="userSpaceOnUse" x1="42.2589" y1="643.3589" x2="152.0242" y2="753.1243" gradientTransform="matrix(4.6259 0 0 4.6259 0 -2953.8093)">
					<stop  offset="0" style="stop-color:#FF0054"/>
					<stop  offset="1" style="stop-color:#484852"/>
				</linearGradient>
				<path fill="url(#SVGID_34_)" d="M311.3,183.9c32.4-19,68.9-30.1,104.5-42.1c13-4.6,25.9-8.8,38.9-13.4
					c-7.9-4.2-16.2-8.3-24.5-12c-6.9,1.9-13.9,4.2-20.8,6.5c-36.5,13-69.4,33.8-102.7,53.2c-9.3,5.6-19,11.6-28.2,17.6
					c0,0-15.3,9.3-37.9,26.8h14.8C287.7,195.9,310.9,183.9,311.3,183.9z"/>
				
					<linearGradient id="SVGID_35_" gradientUnits="userSpaceOnUse" x1="42.1349" y1="654.035" x2="137.4482" y2="749.3481" gradientTransform="matrix(4.6259 0 0 4.6259 0 -2953.8093)">
					<stop  offset="0" style="stop-color:#FF0054"/>
					<stop  offset="1" style="stop-color:#484852"/>
				</linearGradient>
				<path fill="url(#SVGID_35_)" d="M290,148.3c33.8-19.9,70.8-31.9,107.8-44.4c-11.1-3.7-22.7-6.5-34.2-8.3
					c-27.3,13-52.7,28.2-78.6,43.9c-29.6,17.6-74.5,48.6-111.9,81h25.4C233.1,188.5,270.6,159.4,290,148.3z"/>
				
					<linearGradient id="SVGID_36_" gradientUnits="userSpaceOnUse" x1="-11.1533" y1="707.7968" x2="83.2719" y2="802.2219" gradientTransform="matrix(4.6259 0 0 4.6259 0 -2953.8093)">
					<stop  offset="0" style="stop-color:#FF0054"/>
					<stop  offset="1" style="stop-color:#484852"/>
				</linearGradient>
				<path fill="url(#SVGID_36_)" d="M10.6,476.3c1.4,5.6,3.2,10.6,4.6,16.2c7.9-27.8,16.7-55.5,29.1-81.4
					c7.9-16.2,17.6-31.5,27.8-46.3v-25.9C46.3,381.9,25.9,428.1,10.6,476.3z"/>
				
					<linearGradient id="SVGID_37_" gradientUnits="userSpaceOnUse" x1="19.1717" y1="677.4717" x2="113.5969" y2="771.897" gradientTransform="matrix(4.6259 0 0 4.6259 0 -2953.8093)">
					<stop  offset="0" style="stop-color:#FF0054"/>
					<stop  offset="1" style="stop-color:#484852"/>
				</linearGradient>
				<path fill="url(#SVGID_37_)" d="M77.3,288c0.5-0.9,1.4-1.4,1.9-2.3c5.1-6.9,10.6-13.9,16.2-20.8v-21.7h2.3h2.3h2.3h2.3h2.3h2.3
					h2.3h2.3h0.5c4.2-4.6,8.3-9.7,13-14.3V220h8.3c39.8-42.1,84.2-79.1,134.1-107.8c13.9-8.3,29.1-15.7,44.9-22.2
					c-2.8,0-5.6,0-8.3,0c-7.9,0-15.7,0.5-23.1,0.9c-6.5,3.7-13,7.9-19.9,11.6c-75.9,44.9-145.7,101.8-198.4,172.1
					c-25.9,34.2-47.2,71.2-64.3,110.1C0,388.4,0,392.1,0,396.2c0,3.7,0,7.4,0,11.1c2.3-4.6,4.2-9.7,6.5-14.3
					c17.6-35.2,41.6-67.1,65.7-98.5V288H77.3z"/>
				
					<linearGradient id="SVGID_38_" gradientUnits="userSpaceOnUse" x1="18.1967" y1="678.4467" x2="112.622" y2="772.8719" gradientTransform="matrix(4.6259 0 0 4.6259 0 -2953.8093)">
					<stop  offset="0" style="stop-color:#FF0054"/>
					<stop  offset="1" style="stop-color:#484852"/>
				</linearGradient>
				<path fill="url(#SVGID_38_)" d="M196.6,110.4c-27.3,10.6-52.3,24.5-74.9,41.6c-20.4,15.7-38.9,33.3-55,53.7
					c-22.7,28.2-40.2,61.1-51.8,96.2c10.2-13.9,20.8-27.8,31-41.2C89.3,204.3,139.2,152,196.6,110.4z"/>
			</g>
			
				<linearGradient id="SVGID_39_" gradientUnits="userSpaceOnUse" x1="20.6" y1="725.85" x2="110.4" y2="725.85" gradientTransform="matrix(4.6259 0 0 -4.6259 0 3753.6733)">
				<stop  offset="0" style="stop-color:#FF0054"/>
				<stop  offset="1" style="stop-color:#484852"/>
			</linearGradient>
			<path fill="url(#SVGID_39_)" d="M484.8,311.1v-33.3h-28.7v-34.7H149.9v34.7h-28.7v33.3H95.3v237.8h415.4V311.1H484.8z
				 M172.1,265.3h261.8v12.5H172.1V265.3z M161.9,440.6c-2.3,0-4.6-1.9-4.6-4.6c0-2.3,1.9-4.6,4.6-4.6c2.3,0,4.6,1.9,4.6,4.6
				C166.1,438.3,164.2,440.6,161.9,440.6z M303,517.9c-48.6,0-87.4-39.3-87.4-87.4c0-48.6,39.3-87.4,87.4-87.4
				c48.6,0,87.4,39.3,87.4,87.4S351.6,517.9,303,517.9z M444.1,440.6c-2.3,0-4.6-1.9-4.6-4.6c0-2.3,1.9-4.6,4.6-4.6
				c2.3,0,4.6,1.9,4.6,4.6C448.7,438.3,446.9,440.6,444.1,440.6z M462.6,311.1H143.4V300h319.2V311.1z"/>
			<g>
				
					<linearGradient id="SVGID_40_" gradientUnits="userSpaceOnUse" x1="57.2464" y1="717.9" x2="75.766" y2="717.9" gradientTransform="matrix(4.6259 0 0 -4.6259 0 3753.6733)">
					<stop  offset="0" style="stop-color:#FF0054"/>
					<stop  offset="1" style="stop-color:#484852"/>
				</linearGradient>
				<path fill="url(#SVGID_40_)" d="M350.6,452.7h-66.1c-0.5,1.9-0.9,3.7-0.9,6c0,6,1.9,10.6,5.6,14.8c4.2,4.6,10.2,6.9,17.6,6.9
					c7.4,0,13-2.3,17.1-6.9c3.7-3.7,5.6-8.3,6.5-14.3l13.9,2.8c-0.9,9.3-4.6,16.7-11.6,22.2c-6.9,5.6-15.3,8.3-25.9,8.3
					c-5.1,0-10.6-0.9-15.7-2.8c-5.1-1.9-9.3-4.6-12.5-7.9c-6-6.5-9.3-14.3-9.3-24.1c0-1.9,0-3.2,0.5-5.1h-5.1v-13h9.7
					c3.2-4.6,7.9-8.3,13.9-10.6c1.4-0.5,6.5-2.3,15.7-4.6h-39.3v-13h61.5c0.9-2.3,1.4-4.6,1.4-7.9c0-4.6-1.4-8.8-4.6-12.5
					c-3.7-4.2-9.3-6-16.7-6c-6.9,0-11.6,1.9-15.3,5.6c-2.8,2.8-4.2,6.9-5.1,12.5l-14.3-2.3c1.4-8.8,5.1-15.7,11.1-20.8
					c5.6-4.6,13-6.9,22.2-6.9c11.6,0,20.4,2.3,25.9,7.4c6.9,6,10.6,14.3,10.6,24.1c0,2.3,0,4.6-0.5,6.5h9.3v13h-15.7
					c-1.9,2.3-4.2,4.2-6.9,5.6c-4.2,2.3-12.5,5.1-25.9,8.8c-1.4,0.5-2.8,0.9-4.2,1.4h52.3v13H350.6z"/>
			</g>
		</g>
	</g>
	<g id="Layer_2" display="none">
		<g display="inline">
			<path fill="none" d="M432.1,454.1"/>
			
				<linearGradient id="SVGID_41_" gradientUnits="userSpaceOnUse" x1="20.1967" y1="676.4467" x2="114.6219" y2="770.8719" gradientTransform="matrix(4.6259 0 0 4.6259 0 -2953.8093)">
				<stop  offset="0" style="stop-color:#FF0054"/>
				<stop  offset="1" style="stop-color:#484852"/>
			</linearGradient>
			<path fill="url(#SVGID_41_)" d="M558.3,550.3c-8.3,2.8-14.8,11.1-22.2,15.3c-15.3,8.8-32.4,17.6-43,31.5
				c-10.6,14.3-19,31.5-23.6,48.6c-0.9,3.2-1.4,6.5-1.9,9.7c6.5-4.2,12.5-8.3,19-12.5c-0.5-1.9-0.9-3.7,0-5.6
				c1.4-3.7,7.4-5.6,9.3-9.3c1.9-3.7-0.5-9.3,1.4-13c0.9-1.4,9.7-6,10.6-7.4c9.7-13,21.3-23.1,35.2-31.5c6.9-4.2,12-12,19.9-14.8
				h0.5c2.8-4.6,5.6-8.8,8.3-13.4C566.7,548.9,562.5,548.9,558.3,550.3z"/>
			
				<linearGradient id="SVGID_42_" gradientUnits="userSpaceOnUse" x1="20.1468" y1="676.4966" x2="114.572" y2="770.9219" gradientTransform="matrix(4.6259 0 0 4.6259 0 -2953.8093)">
				<stop  offset="0" style="stop-color:#FF0054"/>
				<stop  offset="1" style="stop-color:#484852"/>
			</linearGradient>
			<path fill="url(#SVGID_42_)" d="M543.1,507.3c-11.1,3.7-20.4,13.4-30.5,19.4c-20.4,12-42.1,24.5-56.4,43.5
				c-14.3,19-25.4,41.6-31,64.8c-3.7,14.3-3.7,29.6-2.3,44.4c3.7-1.4,7.4-3.2,11.1-5.1c1.9-12,5.1-23.6,8.3-35.2
				c1.4-5.1-1.4-12,0.5-17.1c1.9-5.1,8.8-8.3,11.1-13.4s0.9-12,3.7-16.7c1.9-3.2,11.1-8.3,13.4-11.1c13.4-17.6,29.6-31.9,48.6-43
				c9.7-5.6,17.6-14.8,28.2-18.5c10.2-3.7,22.2-1.9,33.3-3.2c2.3-0.5,5.1-0.9,7.4-0.9c1.9-4.2,3.7-8.8,5.1-13.4
				c-5.1,0.5-9.7,1.4-14.8,1.9C567.1,504.9,554.2,503.1,543.1,507.3z"/>
			
				<linearGradient id="SVGID_43_" gradientUnits="userSpaceOnUse" x1="0.9967" y1="695.6467" x2="95.422" y2="790.072" gradientTransform="matrix(4.6259 0 0 4.6259 0 -2953.8093)">
				<stop  offset="0" style="stop-color:#FF0054"/>
				<stop  offset="1" style="stop-color:#484852"/>
			</linearGradient>
			<path fill="url(#SVGID_43_)" d="M381.2,623.4c-6,22.7-5.1,46.7-2.3,70.3c2.3-0.5,5.1-1.4,7.4-1.9c0.5-21.7,5.6-43,11.1-64.3
				c1.9-6.9-0.5-14.8,1.9-21.7c0-0.5,0.5-0.9,0.9-1.4c-5.1,2.3-10.2,4.6-15.7,6.9C383.5,615,382.1,619.2,381.2,623.4z"/>
			
				<linearGradient id="SVGID_44_" gradientUnits="userSpaceOnUse" x1="38.5217" y1="658.1218" x2="132.9469" y2="752.5469" gradientTransform="matrix(4.6259 0 0 4.6259 0 -2953.8093)">
				<stop  offset="0" style="stop-color:#FF0054"/>
				<stop  offset="1" style="stop-color:#484852"/>
			</linearGradient>
			<path fill="url(#SVGID_44_)" d="M532.4,475.8c13.4-4.6,28.2-3.2,42.1-5.6c9.7-1.4,19.9-2.8,29.6-3.7c0.9-4.2,1.9-8.3,2.8-12.5
				c-11.6,0.5-22.7,1.9-34.2,3.7c-14.8,1.9-30.5,0.9-44.4,5.6c-3.7,1.4-6.9,2.8-10.2,4.6c-2.3,6.9-4.6,13.4-7.4,20.4
				C517.6,483.7,524.6,478.6,532.4,475.8z"/>
			
				<linearGradient id="SVGID_45_" gradientUnits="userSpaceOnUse" x1="-5.4033" y1="702.0466" x2="89.0219" y2="796.4719" gradientTransform="matrix(4.6259 0 0 4.6259 0 -2953.8093)">
				<stop  offset="0" style="stop-color:#FF0054"/>
				<stop  offset="1" style="stop-color:#484852"/>
			</linearGradient>
			<path fill="url(#SVGID_45_)" d="M334,701.1c1.9,0,4.2-0.5,6-0.5c-0.5-26.4,4.6-53.2,11.1-79.1c-5.6,1.4-11.1,2.3-17.1,3.2
				C329.8,649.7,330.7,675.6,334,701.1z"/>
			
				<linearGradient id="SVGID_46_" gradientUnits="userSpaceOnUse" x1="27.5235" y1="633.6735" x2="142.232" y2="748.3821" gradientTransform="matrix(4.6259 0 0 4.6259 0 -2953.8093)">
				<stop  offset="0" style="stop-color:#FF0054"/>
				<stop  offset="1" style="stop-color:#484852"/>
			</linearGradient>
			<path fill="url(#SVGID_46_)" d="M526,430c13.9-3.2,28.2-3.2,42.1-5.1c14.3-1.9,28.7-3.7,43-4.2c0.5-4.2,0.5-8.3,0.9-12.5
				c-15.3,0.5-30.5,2.3-45.8,4.2c-13.4,1.9-27.3,1.9-40.7,4.6C526,421.2,526.4,425.8,526,430z"/>
			
				<linearGradient id="SVGID_47_" gradientUnits="userSpaceOnUse" x1="28.0158" y1="621.8158" x2="150.9292" y2="744.7292" gradientTransform="matrix(4.6259 0 0 4.6259 0 -2953.8093)">
				<stop  offset="0" style="stop-color:#FF0054"/>
				<stop  offset="1" style="stop-color:#484852"/>
			</linearGradient>
			<path fill="url(#SVGID_47_)" d="M546.8,381.4c5.1-0.5,10.2-0.9,14.8-1.9c16.7-2.3,33.3-4.2,50-4.6c-0.5-4.2-0.5-8.8-0.9-13
				c-16.7,0.5-33.8,2.3-50.4,4.6c-4.2,0.5-8.8,0.9-13.4,1.4c0,2.3,0.5,4.6,0.5,6.5C547.2,376.8,547.2,379.1,546.8,381.4z"/>
			
				<linearGradient id="SVGID_48_" gradientUnits="userSpaceOnUse" x1="-10.8033" y1="707.4467" x2="83.622" y2="801.872" gradientTransform="matrix(4.6259 0 0 4.6259 0 -2953.8093)">
				<stop  offset="0" style="stop-color:#FF0054"/>
				<stop  offset="1" style="stop-color:#484852"/>
			</linearGradient>
			<path fill="url(#SVGID_48_)" d="M288.2,701.5c1.9,0,3.7,0,5.6,0.5c-0.5-25,3.2-50.4,8.8-75.4c-4.6,0-9.7,0-14.3-0.5
				C284.5,651.1,285.4,676.6,288.2,701.5z"/>
			
				<linearGradient id="SVGID_49_" gradientUnits="userSpaceOnUse" x1="28.8087" y1="614.2086" x2="158.4296" y2="743.8296" gradientTransform="matrix(4.6259 0 0 4.6259 0 -2953.8093)">
				<stop  offset="0" style="stop-color:#FF0054"/>
				<stop  offset="1" style="stop-color:#484852"/>
			</linearGradient>
			<path fill="url(#SVGID_49_)" d="M555.6,334.2c16.2-2.3,32.8-4.2,49.5-4.6c-0.9-4.2-1.9-8.8-3.2-13c-16.2,0.9-32.4,2.3-48.1,4.6
				c-4.6,0.5-9.7,1.4-14.3,1.9c1.4,4.2,2.3,8.3,3.2,13C546.8,335.2,550.9,334.7,555.6,334.2z"/>
			
				<linearGradient id="SVGID_50_" gradientUnits="userSpaceOnUse" x1="-15.2283" y1="711.8716" x2="79.1969" y2="806.2969" gradientTransform="matrix(4.6259 0 0 4.6259 0 -2953.8093)">
				<stop  offset="0" style="stop-color:#FF0054"/>
				<stop  offset="1" style="stop-color:#484852"/>
			</linearGradient>
			<path fill="url(#SVGID_50_)" d="M241.9,695.5c1.9,0.5,3.2,0.9,5.1,0.9c0-25,3.7-50,8.8-74.9c-4.2-0.9-8.8-1.9-13-3.2
				C239.6,644.2,239.6,669.6,241.9,695.5z"/>
			
				<linearGradient id="SVGID_51_" gradientUnits="userSpaceOnUse" x1="18.2101" y1="597.16" x2="171.1621" y2="750.1122" gradientTransform="matrix(4.6259 0 0 4.6259 0 -2953.8093)">
				<stop  offset="0" style="stop-color:#FF0054"/>
				<stop  offset="1" style="stop-color:#484852"/>
			</linearGradient>
			<path fill="url(#SVGID_51_)" d="M549.1,288.4c13.9-1.9,27.8-3.2,42.1-4.2c-1.9-4.2-3.7-8.8-5.6-13c-13,0.9-25.9,2.3-38.4,4.2
				c-8.3,1.4-17.1,1.9-25.9,2.3c2.3,4.2,4.2,8.3,6,12.5C534.7,289.8,542.1,289.4,549.1,288.4z"/>
			
				<linearGradient id="SVGID_52_" gradientUnits="userSpaceOnUse" x1="-18.6533" y1="715.2968" x2="75.7719" y2="809.7219" gradientTransform="matrix(4.6259 0 0 4.6259 0 -2953.8093)">
				<stop  offset="0" style="stop-color:#FF0054"/>
				<stop  offset="1" style="stop-color:#484852"/>
			</linearGradient>
			<path fill="url(#SVGID_52_)" d="M195.2,681.6c1.9,0.9,3.7,1.4,5.6,2.3c0.9-25.4,5.1-51.3,10.6-76.3c-4.2-1.9-8.3-3.7-12-6
				C195.2,628,193.8,654.8,195.2,681.6z"/>
			
				<linearGradient id="SVGID_53_" gradientUnits="userSpaceOnUse" x1="-20.8032" y1="717.4468" x2="73.622" y2="811.8719" gradientTransform="matrix(4.6259 0 0 4.6259 0 -2953.8093)">
				<stop  offset="0" style="stop-color:#FF0054"/>
				<stop  offset="1" style="stop-color:#484852"/>
			</linearGradient>
			<path fill="url(#SVGID_53_)" d="M149.4,659c2.3,1.4,4.2,2.8,6.5,3.7c2.3-26.8,7.4-53.7,13.9-80c-3.7-2.8-7.4-6-11.1-8.8
				C151.7,602.1,149.4,630.3,149.4,659z"/>
			
				<linearGradient id="SVGID_54_" gradientUnits="userSpaceOnUse" x1="23.1089" y1="598.0589" x2="178.5207" y2="753.4707" gradientTransform="matrix(4.6259 0 0 4.6259 0 -2953.8093)">
				<stop  offset="0" style="stop-color:#FF0054"/>
				<stop  offset="1" style="stop-color:#484852"/>
			</linearGradient>
			<path fill="url(#SVGID_54_)" d="M542.6,243.1c8.8-1.4,17.6-2.3,26.8-3.2c-2.8-4.2-5.1-8.3-7.9-12.5c-6.9,0.9-13.9,1.4-20.4,2.8
				c-16.2,2.3-32.8,2.8-48.6,6c3.7,4.2,6.9,8.3,10.2,12.5C515.8,245.4,529.2,245,542.6,243.1z"/>
			
				<linearGradient id="SVGID_55_" gradientUnits="userSpaceOnUse" x1="-21.5282" y1="718.1718" x2="72.897" y2="812.5969" gradientTransform="matrix(4.6259 0 0 4.6259 0 -2953.8093)">
				<stop  offset="0" style="stop-color:#FF0054"/>
				<stop  offset="1" style="stop-color:#484852"/>
			</linearGradient>
			<path fill="url(#SVGID_55_)" d="M120.7,555.4c-6,24.1-11.1,48.1-14.3,72.6c1.9,1.9,4.2,3.2,6,5.1c3.7-25.4,8.8-50.9,15.7-75.9
				c0.9-3.7,1.9-6.9,2.8-10.6c-1.9-2.3-4.2-5.1-6-7.4C123.5,544.7,122.1,549.8,120.7,555.4z"/>
			
				<linearGradient id="SVGID_56_" gradientUnits="userSpaceOnUse" x1="44.1291" y1="618.329" x2="171.0818" y2="745.2819" gradientTransform="matrix(4.6259 0 0 4.6259 0 -2953.8093)">
				<stop  offset="0" style="stop-color:#FF0054"/>
				<stop  offset="1" style="stop-color:#484852"/>
			</linearGradient>
			<path fill="url(#SVGID_56_)" d="M535.2,192.7c-2.3-2.8-4.6-5.1-6.9-7.9c-25.9,3.7-52.7,6.5-77.7,13.9c6,3.7,11.6,8.3,16.7,12.5
				C489.4,203.3,511.6,195.9,535.2,192.7z"/>
			
				<linearGradient id="SVGID_57_" gradientUnits="userSpaceOnUse" x1="46.3435" y1="623.6434" x2="170.7798" y2="748.0798" gradientTransform="matrix(4.6259 0 0 4.6259 0 -2953.8093)">
				<stop  offset="0" style="stop-color:#FF0054"/>
				<stop  offset="1" style="stop-color:#484852"/>
			</linearGradient>
			<path fill="url(#SVGID_57_)" d="M429.7,180.7c22.7-7.9,45.8-16.7,68.9-22.7c-4.2-3.2-8.8-6.9-13-10.2
				c-21.3,3.2-42.1,7.4-62.4,14.3c-3.2,0.9-12,4.6-24.5,10.6c8.3,2.8,16.2,6,24.1,9.7C426,182.1,428.4,181.1,429.7,180.7z"/>
			
				<linearGradient id="SVGID_58_" gradientUnits="userSpaceOnUse" x1="-20.4033" y1="717.0467" x2="74.0219" y2="811.472" gradientTransform="matrix(4.6259 0 0 4.6259 0 -2953.8093)">
				<stop  offset="0" style="stop-color:#FF0054"/>
				<stop  offset="1" style="stop-color:#484852"/>
			</linearGradient>
			<path fill="url(#SVGID_58_)" d="M79.6,544.7c-3.7,14.8-6.9,30.1-10.2,45.3c2.3,2.3,4.2,5.1,6.5,7.4c3.2-17.1,7.4-34.2,11.6-50.9
				c4.2-15.7,8.3-31.5,13-47.2c-1.4-3.2-3.2-6.5-4.6-10.2C89.7,508.2,84.2,526.2,79.6,544.7z"/>
			
				<linearGradient id="SVGID_59_" gradientUnits="userSpaceOnUse" x1="-16.8532" y1="713.4968" x2="77.572" y2="807.9219" gradientTransform="matrix(4.6259 0 0 4.6259 0 -2953.8093)">
				<stop  offset="0" style="stop-color:#FF0054"/>
				<stop  offset="1" style="stop-color:#484852"/>
			</linearGradient>
			<path fill="url(#SVGID_59_)" d="M38.4,534.5c-0.5,2.3-0.9,4.6-1.9,6.9c1.9,3.7,4.2,7.4,6.5,11.1c1.4-5.1,2.8-10.6,4.2-15.7
				c9.3-34.7,18-70.3,33.3-102.7c-0.9-5.1-1.4-10.6-1.9-15.7C61.5,455.4,48.1,494.8,38.4,534.5z"/>
			
				<linearGradient id="SVGID_60_" gradientUnits="userSpaceOnUse" x1="37.6339" y1="647.9839" x2="147.3992" y2="757.7492" gradientTransform="matrix(4.6259 0 0 4.6259 0 -2953.8093)">
				<stop  offset="0" style="stop-color:#FF0054"/>
				<stop  offset="1" style="stop-color:#484852"/>
			</linearGradient>
			<path fill="url(#SVGID_60_)" d="M312.2,172.3c-1.9,0.9-3.7,2.3-5.6,3.2c-2.3,1.4-4.2,2.8-6.5,3.7c1.9,0.5,3.2,0.9,5.1,1.9
				C307.2,177.9,309.5,175.1,312.2,172.3z"/>
			
				<linearGradient id="SVGID_61_" gradientUnits="userSpaceOnUse" x1="50.0339" y1="635.5839" x2="159.7992" y2="745.3493" gradientTransform="matrix(4.6259 0 0 4.6259 0 -2953.8093)">
				<stop  offset="0" style="stop-color:#FF0054"/>
				<stop  offset="1" style="stop-color:#484852"/>
			</linearGradient>
			<path fill="url(#SVGID_61_)" d="M341.4,161.7c4.6,0.5,8.8,0.9,13.4,1.4c19.9-7.9,40.7-14.8,61.1-21.7c13-4.6,25.9-8.8,38.9-13.4
				c-7.9-4.2-16.2-8.3-24.5-12c-6.9,1.9-13.9,4.2-20.8,6.5c-29.1,10.2-56,25.4-82.3,41.2C331.7,162.2,336.3,161.2,341.4,161.7z"/>
			
				<linearGradient id="SVGID_62_" gradientUnits="userSpaceOnUse" x1="43.41" y1="652.7599" x2="138.7232" y2="748.0732" gradientTransform="matrix(4.6259 0 0 4.6259 0 -2953.8093)">
				<stop  offset="0" style="stop-color:#FF0054"/>
				<stop  offset="1" style="stop-color:#484852"/>
			</linearGradient>
			<path fill="url(#SVGID_62_)" d="M290,148.3c33.8-19.9,70.8-31.9,107.8-44.4c-11.1-3.7-22.7-6.5-34.2-8.3
				c-27.3,13-52.7,28.2-78.6,43.9c-26.4,15.7-64.3,42.1-99,70.3c16.2-9.7,33.8-18,52.7-23.6C259,169.1,278,155.2,290,148.3z"/>
			
				<linearGradient id="SVGID_63_" gradientUnits="userSpaceOnUse" x1="-6.2783" y1="702.9218" x2="88.147" y2="797.3469" gradientTransform="matrix(4.6259 0 0 4.6259 0 -2953.8093)">
				<stop  offset="0" style="stop-color:#FF0054"/>
				<stop  offset="1" style="stop-color:#484852"/>
			</linearGradient>
			<path fill="url(#SVGID_63_)" d="M98.5,300c-39.8,52.7-68,113.3-87.9,176.2c1.4,5.6,3.2,10.6,4.6,16.2
				c7.9-27.8,16.7-55.5,29.1-81.4c11.1-22.2,25-42.6,39.3-62.9c5.6-22.2,13.9-43,25.4-62.4C105.9,290.8,102.2,295.4,98.5,300z"/>
			
				<linearGradient id="SVGID_64_" gradientUnits="userSpaceOnUse" x1="19.1717" y1="677.4717" x2="113.5969" y2="771.897" gradientTransform="matrix(4.6259 0 0 4.6259 0 -2953.8093)">
				<stop  offset="0" style="stop-color:#FF0054"/>
				<stop  offset="1" style="stop-color:#484852"/>
			</linearGradient>
			<path fill="url(#SVGID_64_)" d="M268.8,112.2c14.8-8.3,30.1-15.7,45.8-22.2c-2.8,0-5.6,0-8.3,0c-7.9,0-15.7,0.5-23.1,0.9
				c-6.5,3.7-13,7.9-19.9,11.6c-75.9,44.9-145.7,101.8-198.4,172.1c-25.9,34.2-47.2,71.2-64.3,110.1C0,388.4,0,392.1,0,396.2
				c0,3.7,0,7.4,0,11.1c2.3-4.6,4.2-9.7,6.5-14.3c19-38.9,46.3-73.1,72.2-107.3C131.8,217.2,194.3,155.7,268.8,112.2z"/>
			
				<linearGradient id="SVGID_65_" gradientUnits="userSpaceOnUse" x1="18.1967" y1="678.4467" x2="112.622" y2="772.8719" gradientTransform="matrix(4.6259 0 0 4.6259 0 -2953.8093)">
				<stop  offset="0" style="stop-color:#FF0054"/>
				<stop  offset="1" style="stop-color:#484852"/>
			</linearGradient>
			<path fill="url(#SVGID_65_)" d="M196.6,110.4c-27.3,10.6-52.3,24.5-74.9,41.6c-20.4,15.7-38.9,33.3-55,53.7
				c-22.7,28.2-40.2,61.1-51.8,96.2c10.2-13.9,20.8-27.8,31-41.2C89.3,204.3,139.2,152,196.6,110.4z"/>
		</g>
		<g id="Layer_2_copy" display="inline">
			<g>
				<g>
					<g>
						
							<linearGradient id="SVGID_66_" gradientUnits="userSpaceOnUse" x1="23.3" y1="724.55" x2="107.277" y2="724.55" gradientTransform="matrix(4.6259 0 0 -4.6259 0 3753.6733)">
							<stop  offset="0" style="stop-color:#FF0054"/>
							<stop  offset="1" style="stop-color:#484852"/>
						</linearGradient>
						<path fill="url(#SVGID_66_)" d="M303,596.5c-107.8,0-195.2-87.4-195.2-195.2c0-99.5,74.5-182.7,173.5-193.8c0.9,0,1.9,0,3.2,0
							c6.9,0,13.4,2.3,18.5,6.9c6,5.1,9.3,13,9.3,20.8v162.8h156.4c7.9,0,15.7,3.7,20.8,9.7c5.1,6,7.9,14.3,6.5,22.2
							C482,524.8,399.2,596.5,303,596.5z M284.5,233.4c-86,9.7-150.8,81.9-150.8,168.4c0,93.4,75.9,169.3,169.3,169.3
							c83.3,0,155.4-62.4,167.5-144.8c0-0.5,0-1.4-0.5-1.4c-0.5-0.5-0.9-0.9-1.4-0.9H286.3V235.3c0-0.5-0.5-0.9-0.5-1.4
							C285.4,233.4,285,233.4,284.5,233.4z"/>
					</g>
					<g>
						
							<linearGradient id="SVGID_67_" gradientUnits="userSpaceOnUse" x1="71.4" y1="749.15" x2="111.742" y2="749.15" gradientTransform="matrix(4.6259 0 0 -4.6259 0 3753.6733)">
							<stop  offset="0" style="stop-color:#FF0054"/>
							<stop  offset="1" style="stop-color:#484852"/>
						</linearGradient>
						<path fill="url(#SVGID_67_)" d="M339.1,191.8c-2.3,0-4.6,0.5-6,2.3c-1.9,1.4-2.8,3.7-2.8,6v184.6h178.6c2.3,0,4.2-0.9,6-2.3
							c1.4-1.4,2.3-3.7,2.3-6C513.9,277.3,437.6,198.2,339.1,191.8L339.1,191.8z"/>
					</g>
				</g>
			</g>
		</g>
	</g>
</g>
</svg>
