<?xml version="1.0" encoding="utf-8"?>
<!-- Generator: Adobe Illustrator 17.1.0, SVG Export Plug-In . SVG Version: 6.00 Build 0)  -->
<!DOCTYPE svg PUBLIC "-//W3C//DTD SVG 1.1//EN" "http://www.w3.org/Graphics/SVG/1.1/DTD/svg11.dtd">
<svg version="1.1" id="Layer_1" xmlns="http://www.w3.org/2000/svg" xmlns:xlink="http://www.w3.org/1999/xlink" x="0px" y="0px"
	 viewBox="0 0 612 792" enable-background="new 0 0 612 792" xml:space="preserve">
<g id="Layer_5_copy_2">
	<g>
		<path fill="none" d="M166.5,484.6V461h-15.7c4.6,8.3,9.7,17.1,15.7,26.4C166.5,486.4,166.5,485.5,166.5,484.6z"/>
		
			<linearGradient id="SVGID_1_" gradientUnits="userSpaceOnUse" x1="63.9684" y1="636.053" x2="154.0991" y2="726.1837" gradientTransform="matrix(4.6259 0 0 4.6259 0 -2953.8093)">
			<stop  offset="0" style="stop-color:#FF0054"/>
			<stop  offset="1" style="stop-color:#484852"/>
		</linearGradient>
		<path fill="url(#SVGID_1_)" d="M606,328.2c-0.9-4.2-1.9-8.3-3.2-12.5c-18.5-14.3-35.6-30.5-50-49.5
			c-22.2-30.5-35.6-66.1-45.3-102.7c-5.1-4.2-10.2-8.8-15.3-12.5c11.6,43,26.4,86,53.7,121.2C562.5,294,583.3,312,606,328.2z"/>
		
			<linearGradient id="SVGID_2_" gradientUnits="userSpaceOnUse" x1="52.8036" y1="647.2645" x2="142.9315" y2="737.3925" gradientTransform="matrix(4.6259 0 0 4.6259 0 -2953.8093)">
			<stop  offset="0" style="stop-color:#FF0054"/>
			<stop  offset="1" style="stop-color:#484852"/>
		</linearGradient>
		<path fill="url(#SVGID_2_)" d="M498.7,307.9c30.5,39.8,71.7,69.9,114.7,95.3c0-2.3,0-4.6,0-7.4c0-0.9,0-1.9,0-2.8
			c-40.2-25-78.6-54.1-106.4-92.1c-6-8.3-11.6-16.7-16.7-25.4v20.8C493.1,300.5,495.9,304.2,498.7,307.9z"/>
		
			<linearGradient id="SVGID_3_" gradientUnits="userSpaceOnUse" x1="60.1091" y1="639.959" x2="150.237" y2="730.087" gradientTransform="matrix(4.6259 0 0 4.6259 0 -2953.8093)">
			<stop  offset="0" style="stop-color:#FF0054"/>
			<stop  offset="1" style="stop-color:#484852"/>
		</linearGradient>
		<path fill="url(#SVGID_3_)" d="M446.9,159.9c-3.7-13.9-6.5-27.8-9.3-41.6c-5.1-2.3-9.7-4.6-14.8-6.5c3.2,17.1,6.9,34.2,11.6,51.3
			c6.5,23.6,13.4,47.2,22.7,70.3c5.1,0.5,10.2,1.4,14.3,3.7C461.2,212.1,453.3,185.8,446.9,159.9z"/>
		
			<linearGradient id="SVGID_4_" gradientUnits="userSpaceOnUse" x1="54.5847" y1="645.5347" x2="144.7123" y2="735.6623" gradientTransform="matrix(4.6259 0 0 4.6259 0 -2953.8093)">
			<stop  offset="0" style="stop-color:#FF0054"/>
			<stop  offset="1" style="stop-color:#484852"/>
		</linearGradient>
		<path fill="url(#SVGID_4_)" d="M390.9,174.2c-6.5-25.4-12-51.3-15.3-77.7c-5.1-0.9-10.2-1.9-15.3-2.8c3.7,28.2,9.7,56.4,17.1,84.2
			c5.1,18.5,10.2,37,16.7,55h14.3C401.5,213.5,395.5,194.1,390.9,174.2z"/>
		
			<linearGradient id="SVGID_5_" gradientUnits="userSpaceOnUse" x1="44.5347" y1="655.5847" x2="134.6623" y2="745.7123" gradientTransform="matrix(4.6259 0 0 4.6259 0 -2953.8093)">
			<stop  offset="0" style="stop-color:#FF0054"/>
			<stop  offset="1" style="stop-color:#484852"/>
		</linearGradient>
		<path fill="url(#SVGID_5_)" d="M591.2,459.1c4.6,2.8,9.7,5.6,14.3,8.8c0.9-3.2,1.4-6.5,2.3-10.2c-3.7-2.3-7.9-4.6-11.6-6.9
			c-37.9-22.7-74.5-48.6-105.5-80v15.7C520.9,415.2,555.6,438.3,591.2,459.1z"/>
		
			<linearGradient id="SVGID_6_" gradientUnits="userSpaceOnUse" x1="34.6855" y1="638.1855" x2="233.0642" y2="836.5644" gradientTransform="matrix(4.6259 0 0 4.6259 0 -2953.8093)">
			<stop  offset="0" style="stop-color:#FF0054"/>
			<stop  offset="1" style="stop-color:#484852"/>
		</linearGradient>
		<path fill="url(#SVGID_6_)" d="M337.7,200.1c-0.9-3.7-1.9-7.4-2.8-11.1c-8.3-32.8-14.8-66.1-18-99.5c-2.3,0-5.1,0-7.4,0
			c-2.8,0-5.6,0-8.3,0c3.7,34.7,10.6,69.4,19.4,103.2c0.5,1.4,3.7,17.6,9.3,40.2h17.1C341.4,214.4,337.7,201,337.7,200.1z"/>
		
			<linearGradient id="SVGID_7_" gradientUnits="userSpaceOnUse" x1="-29.279" y1="598.571" x2="126.9301" y2="754.7801" gradientTransform="matrix(4.6259 0 0 4.6259 0 -2953.8093)">
			<stop  offset="0" style="stop-color:#FF0054"/>
			<stop  offset="1" style="stop-color:#484852"/>
		</linearGradient>
		<path fill="url(#SVGID_7_)" d="M476.9,453.6c27.3,20.4,55,40.2,84.2,56.9c8.3,4.6,16.2,9.7,24.5,14.8c1.4-3.2,3.2-6.9,4.6-10.6
			c-7.9-4.6-15.7-8.8-23.6-13.4c-28.2-17.1-55.5-36.5-81-57.4C483.4,447.6,480.6,450.8,476.9,453.6z"/>
		
			<linearGradient id="SVGID_8_" gradientUnits="userSpaceOnUse" x1="31.1778" y1="647.8778" x2="285.8157" y2="902.5157" gradientTransform="matrix(4.6259 0 0 4.6259 0 -2953.8093)">
			<stop  offset="0" style="stop-color:#FF0054"/>
			<stop  offset="1" style="stop-color:#484852"/>
		</linearGradient>
		<path fill="url(#SVGID_8_)" d="M278.5,203.8c-0.5-1.9-0.9-3.7-1.4-5.6c-8.8-34.2-15.3-69.4-18.5-104.5c-5.6,0.9-11.1,1.9-16.2,3.2
			c3.7,36.1,10.6,71.7,19.9,106.9c0.5,1.4,0.9,2.8,0.9,4.2c2.3,8.3,4.6,16.7,6.9,25h15.7C281.7,220.4,278.9,210.3,278.5,203.8z"/>
		
			<linearGradient id="SVGID_9_" gradientUnits="userSpaceOnUse" x1="-165.2247" y1="480.9753" x2="114.1962" y2="760.3962" gradientTransform="matrix(4.6259 0 0 4.6259 0 -2953.8093)">
			<stop  offset="0" style="stop-color:#FF0054"/>
			<stop  offset="1" style="stop-color:#484852"/>
		</linearGradient>
		<path fill="url(#SVGID_9_)" d="M490.3,536.9c13.9,7.4,26.8,17.1,40.7,25.4c8.3,4.6,16.2,9.7,24.5,14.8c2.3-3.2,4.6-6.9,6.9-10.2
			c-8.8-4.6-17.1-9.7-25.4-14.8c-15.3-9.3-30.5-19-45.3-29.1c-1.4-0.9-5.6-1.4-11.1-5.6c-12-7.9-23.1-16.2-33.8-24.5
			c-1.4,4.6-3.2,9.7-5.6,14.8C456.6,517,472.3,527.1,490.3,536.9z"/>
		
			<linearGradient id="SVGID_10_" gradientUnits="userSpaceOnUse" x1="-169.2998" y1="485.0503" x2="110.1211" y2="764.4711" gradientTransform="matrix(4.6259 0 0 4.6259 0 -2953.8093)">
			<stop  offset="0" style="stop-color:#FF0054"/>
			<stop  offset="1" style="stop-color:#484852"/>
		</linearGradient>
		<path fill="url(#SVGID_10_)" d="M381.2,456.4v-4.2c-0.9,0.5-1.4,1.4-2.3,1.9C379.8,454.5,380.2,455.4,381.2,456.4z"/>
		
			<linearGradient id="SVGID_11_" gradientUnits="userSpaceOnUse" x1="-105.7709" y1="558.5791" x2="105.4417" y2="769.7917" gradientTransform="matrix(4.6259 0 0 4.6259 0 -2953.8093)">
			<stop  offset="0" style="stop-color:#FF0054"/>
			<stop  offset="1" style="stop-color:#484852"/>
		</linearGradient>
		<path fill="url(#SVGID_11_)" d="M501.4,613.2c4.6,2.8,9.7,5.6,14.3,8.3c1.9-1.9,3.7-3.7,5.6-5.6c-5.6-3.2-11.1-6-16.7-9.3
			c-13.4-7.9-49-34.2-86.5-68.9c-4.6,3.7-9.3,6.9-14.8,9.7C446.4,582.2,484.3,603.5,501.4,613.2z"/>
		
			<linearGradient id="SVGID_12_" gradientUnits="userSpaceOnUse" x1="31.881" y1="663.0311" x2="269.2191" y2="900.3691" gradientTransform="matrix(4.6259 0 0 4.6259 0 -2953.8093)">
			<stop  offset="0" style="stop-color:#FF0054"/>
			<stop  offset="1" style="stop-color:#484852"/>
		</linearGradient>
		<path fill="url(#SVGID_12_)" d="M216.5,220c-9.3-36.1-13.9-73.6-15.3-111c-5.6,1.9-10.6,4.2-16.2,6.5
			c4.6,36.1,11.6,71.7,20.8,106.9c0.9,3.2,1.9,6.9,2.8,10.2h11.6C218.8,228.8,217.9,224.6,216.5,220z"/>
		
			<linearGradient id="SVGID_13_" gradientUnits="userSpaceOnUse" x1="-64.9798" y1="615.6703" x2="99.125" y2="779.775" gradientTransform="matrix(4.6259 0 0 4.6259 0 -2953.8093)">
			<stop  offset="0" style="stop-color:#FF0054"/>
			<stop  offset="1" style="stop-color:#484852"/>
		</linearGradient>
		<path fill="url(#SVGID_13_)" d="M469.1,657.6c2.8-1.9,5.1-3.2,7.9-5.1c-30.5-18.5-57.8-40.7-84.7-64.3c-0.9,4.6-2.8,9.3-5.1,13
			C413.6,621.5,440.8,640.5,469.1,657.6z"/>
		
			<linearGradient id="SVGID_14_" gradientUnits="userSpaceOnUse" x1="27.7995" y1="673.3495" x2="165.4194" y2="810.9695" gradientTransform="matrix(4.6259 0 0 4.6259 0 -2953.8093)">
			<stop  offset="0" style="stop-color:#FF0054"/>
			<stop  offset="1" style="stop-color:#484852"/>
		</linearGradient>
		<path fill="url(#SVGID_14_)" d="M149.9,134.4c-5.1,3.2-10.2,6.5-15.3,10.2c4.6,29.6,10.6,59.2,18,88.4h13
			C157.3,200.6,152.2,167.7,149.9,134.4z"/>
		
			<linearGradient id="SVGID_15_" gradientUnits="userSpaceOnUse" x1="19.5352" y1="681.7852" x2="136.9196" y2="799.1696" gradientTransform="matrix(4.6259 0 0 4.6259 0 -2953.8093)">
			<stop  offset="0" style="stop-color:#FF0054"/>
			<stop  offset="1" style="stop-color:#484852"/>
		</linearGradient>
		<path fill="url(#SVGID_15_)" d="M112.9,237.6c-5.1-21.7-9.3-43.5-12-65.2c-4.6,4.6-9.3,9.3-13.9,13.9c4.2,20.8,8.8,41.6,13.9,62.4
			C104.1,244,108.2,240.3,112.9,237.6z"/>
		
			<linearGradient id="SVGID_16_" gradientUnits="userSpaceOnUse" x1="-49.879" y1="649.0226" x2="91.8846" y2="790.7863" gradientTransform="matrix(4.6259 0 0 4.6259 0 -2953.8093)">
			<stop  offset="0" style="stop-color:#FF0054"/>
			<stop  offset="1" style="stop-color:#484852"/>
		</linearGradient>
		<path fill="url(#SVGID_16_)" d="M328.9,602.1c-11.6-11.6-23.1-23.6-33.8-36.1c-0.5-0.5-7.9-7.9-19-20.4v31.5
			c40.7,41.2,86.5,77.3,135.5,108.7c4.2-1.4,7.9-2.8,12-4.6c-30.1-20.8-58.3-43.9-84.7-69.9C334.4,609,331.2,605.8,328.9,602.1z"/>
		
			<linearGradient id="SVGID_17_" gradientUnits="userSpaceOnUse" x1="5.4075" y1="695.1075" x2="95.6466" y2="785.3467" gradientTransform="matrix(4.6259 0 0 4.6259 0 -2953.8093)">
			<stop  offset="0" style="stop-color:#FF0054"/>
			<stop  offset="1" style="stop-color:#484852"/>
		</linearGradient>
		<path fill="url(#SVGID_17_)" d="M64.3,260.7c-3.2-11.6-5.6-23.6-7.9-35.6c-4.2,6.5-8.3,13-12,19.4c1.4,6.5,3.2,13.4,5.1,19.9
			c12,46.3,26.8,91.6,45.8,135.5v-48.6C82.8,321.8,72.2,291.7,64.3,260.7z"/>
		
			<linearGradient id="SVGID_18_" gradientUnits="userSpaceOnUse" x1="-5.1675" y1="705.6825" x2="85.0716" y2="795.9217" gradientTransform="matrix(4.6259 0 0 4.6259 0 -2953.8093)">
			<stop  offset="0" style="stop-color:#FF0054"/>
			<stop  offset="1" style="stop-color:#484852"/>
		</linearGradient>
		<path fill="url(#SVGID_18_)" d="M130,461c-2.3,0-4.2,0-6-0.5c3.2,5.6,6,11.6,9.3,17.1c0-6.5,1.4-12,3.2-16.7H130z"/>
		
			<linearGradient id="SVGID_19_" gradientUnits="userSpaceOnUse" x1="-44.0971" y1="672.3558" x2="85.1028" y2="801.5557" gradientTransform="matrix(4.6259 0 0 4.6259 0 -2953.8093)">
			<stop  offset="0" style="stop-color:#FF0054"/>
			<stop  offset="1" style="stop-color:#484852"/>
		</linearGradient>
		<path fill="url(#SVGID_19_)" d="M237.3,617.3c35.2,35.6,71.2,66.1,101.8,84.7c6.5-0.5,13-1.4,19.4-2.8
			c-26.4-17.6-61.5-50.9-96.2-89.3c-6,4.6-13.4,7.4-21.3,7.4C239.6,617.3,238.2,617.3,237.3,617.3z"/>
		
			<linearGradient id="SVGID_20_" gradientUnits="userSpaceOnUse" x1="-42.2206" y1="670.4793" x2="86.9793" y2="799.6793" gradientTransform="matrix(4.6259 0 0 4.6259 0 -2953.8093)">
			<stop  offset="0" style="stop-color:#FF0054"/>
			<stop  offset="1" style="stop-color:#484852"/>
		</linearGradient>
		<path fill="url(#SVGID_20_)" d="M205.4,550.3c-23.6-12-37.9-34.7-38.9-62.9c-6-9.3-11.1-18-15.7-26.4h-11.1
			c-1.9,6-3.2,12.5-4.6,19c-0.5-0.9-0.9-1.9-1.4-2.8l0,0c18,35.6,43.5,71.7,72.2,104.5v-0.5v-31H205.4z"/>
		
			<linearGradient id="SVGID_21_" gradientUnits="userSpaceOnUse" x1="-5.0425" y1="705.5575" x2="85.1966" y2="795.7966" gradientTransform="matrix(4.6259 0 0 4.6259 0 -2953.8093)">
			<stop  offset="0" style="stop-color:#FF0054"/>
			<stop  offset="1" style="stop-color:#484852"/>
		</linearGradient>
		<path fill="url(#SVGID_21_)" d="M139.7,461h-2.8c-1.9,4.6-3.2,10.2-3.2,16.7c0.5,0.9,0.9,1.9,1.4,2.8
			C136,473.5,137.9,467.5,139.7,461z"/>
		
			<linearGradient id="SVGID_22_" gradientUnits="userSpaceOnUse" x1="-41.1707" y1="669.4294" x2="88.0292" y2="798.6292" gradientTransform="matrix(4.6259 0 0 4.6259 0 -2953.8093)">
			<stop  offset="0" style="stop-color:#FF0054"/>
			<stop  offset="1" style="stop-color:#484852"/>
		</linearGradient>
		<path fill="url(#SVGID_22_)" d="M139.7,461h-2.8c-1.9,4.6-3.2,10.2-3.2,16.7c0.5,0.9,0.9,1.9,1.4,2.8
			C136,473.5,137.9,467.5,139.7,461z"/>
		
			<linearGradient id="SVGID_23_" gradientUnits="userSpaceOnUse" x1="-8.5934" y1="709.1915" x2="81.5369" y2="799.3218" gradientTransform="matrix(4.6259 0 0 4.6259 0 -2953.8093)">
			<stop  offset="0" style="stop-color:#FF0054"/>
			<stop  offset="1" style="stop-color:#484852"/>
		</linearGradient>
		<path fill="url(#SVGID_23_)" d="M160.1,567.4C99.5,486,49,395.8,19.9,298.6c-3.2,10.2-6,20.4-8.3,30.5
			c28.7,91.1,69.4,179,126.7,254.4c31.5,41.2,67.1,78.6,106.4,112.4c11.6,2.3,23.1,4.2,35.2,5.6
			C235.9,661.3,196.1,615.5,160.1,567.4z"/>
		
			<linearGradient id="SVGID_24_" gradientUnits="userSpaceOnUse" x1="-18.7859" y1="719.472" x2="71.3421" y2="809.5999" gradientTransform="matrix(4.6259 0 0 4.6259 0 -2953.8093)">
			<stop  offset="0" style="stop-color:#FF0054"/>
			<stop  offset="1" style="stop-color:#484852"/>
		</linearGradient>
		<path fill="url(#SVGID_24_)" d="M4.6,407.8c0.9,31.5,6.9,62,17.1,90.2c19.9,39.3,43,77.3,69.4,112.4c25,25.9,54.6,47.6,87.4,63.4
			c-21.3-24.1-41.2-48.6-60.1-74C74,540.1,34.7,475.8,4.6,407.8z"/>
	</g>
	<g id="Layer_5_copy">
		<g>
			<g>
				
					<linearGradient id="SVGID_25_" gradientUnits="userSpaceOnUse" x1="25.5" y1="719.5" x2="101.0095" y2="719.5" gradientTransform="matrix(4.6259 0 0 -4.6259 0 3753.6733)">
					<stop  offset="0" style="stop-color:#FF0054"/>
					<stop  offset="1" style="stop-color:#484852"/>
				</linearGradient>
				<path fill="url(#SVGID_25_)" d="M455.6,256.1H130c-6.5,0-12,5.6-12,12v157.7c0,6.5,5.6,12,12,12h59.7v46.7
					c0,30.5,20.4,45.3,38.9,49.5v48.1c0,6.5,5.6,12,12,12c6.5,0,12-5.6,12-12v-58.7c0-6.5-5.1-12-12-12c-4.6,0-27.3-1.9-27.3-26.8
					v-46.7h99.9c-4.2,6.9-6.9,16.2-6.9,26.8c0,6.5,5.6,12,12,12s12-5.6,12-12c0-25.4,22.7-26.8,26.8-26.8l0,0c6.5,0,12-5.6,12-12
					l0,0v-58.3c0-7.9,6.5-13.9,13.9-13.9h6.5c7.9,0,13.9,6.5,13.9,13.9v97.6c0,0,0,12-6,24.1c-7.4,15.3-20.8,22.7-40.7,22.7
					c-6.5,0-12,5.6-12,12v58.7c0,6.5,5.6,12,12,12s12-5.6,12-12V535c28.2-3.7,42.6-20.8,50-35.2c8.3-17.1,8.8-33.8,8.8-34.7v-26.8
					h26.8c6.5,0,12-5.6,12-12V268.1C467.7,261.6,462.1,256.1,455.6,256.1L455.6,256.1z M390.4,329.2h-6.5
					c-20.8,0-37.9,17.1-37.9,37.9v46.7H169.8L142,386.1v-78.6l27.8-27.8h246.1l27.8,27.8v78.6l-15.3,15.3v-33.8
					C428.4,346.3,411.2,329.2,390.4,329.2L390.4,329.2z"/>
			</g>
			
				<linearGradient id="SVGID_26_" gradientUnits="userSpaceOnUse" x1="52.2569" y1="736.5" x2="74.3328" y2="736.5" gradientTransform="matrix(4.6259 0 0 -4.6259 0 3753.6733)">
				<stop  offset="0" style="stop-color:#FF0054"/>
				<stop  offset="1" style="stop-color:#484852"/>
			</linearGradient>
			<path fill="url(#SVGID_26_)" d="M292.8,295.9c-28.2,0-50.9,23.1-50.9,50.9s23.1,50.9,50.9,50.9c28.2,0,50.9-23.1,50.9-50.9
				S321,295.9,292.8,295.9L292.8,295.9z M292.8,374c-14.8,0-26.8-12-26.8-26.8c0-14.8,12-26.8,26.8-26.8s26.8,12,26.8,26.8
				C319.6,362,307.6,374,292.8,374L292.8,374z"/>
			
				<linearGradient id="SVGID_27_" gradientUnits="userSpaceOnUse" x1="33.2599" y1="736.4" x2="46.8932" y2="736.4" gradientTransform="matrix(4.6259 0 0 -4.6259 0 3753.6733)">
				<stop  offset="0" style="stop-color:#FF0054"/>
				<stop  offset="1" style="stop-color:#484852"/>
			</linearGradient>
			<path fill="url(#SVGID_27_)" d="M204.9,335.2h-38.9c-6.5,0-12,5.6-12,12s5.6,12,12,12h38.9c6.5,0,12-5.6,12-12
				C217,340.3,211.4,335.2,204.9,335.2L204.9,335.2z"/>
		</g>
	</g>
</g>
</svg>
