<?xml version="1.0" encoding="utf-8"?>
<!-- Generator: Adobe Illustrator 17.1.0, SVG Export Plug-In . SVG Version: 6.00 Build 0)  -->
<!DOCTYPE svg PUBLIC "-//W3C//DTD SVG 1.1//EN" "http://www.w3.org/Graphics/SVG/1.1/DTD/svg11.dtd">
<svg version="1.1" xmlns="http://www.w3.org/2000/svg" xmlns:xlink="http://www.w3.org/1999/xlink" x="0px" y="0px"
	 viewBox="0 0 132.3 132.3" enable-background="new 0 0 132.3 132.3" xml:space="preserve">
<g id="_x31__1_" display="none">
	<g id="_x31__2_" display="inline">
		
			<linearGradient id="SVGID_1_" gradientUnits="userSpaceOnUse" x1="20.0648" y1="115.4214" x2="114.49" y2="20.996" gradientTransform="matrix(1 0 0 -1 0 134)">
			<stop  offset="0" style="stop-color:#FF0054"/>
			<stop  offset="1" style="stop-color:#484852"/>
		</linearGradient>
		<path fill="url(#SVGID_1_)" d="M120.7,99.5c-1.8,0.6-3.2,2.4-4.8,3.3c-3.3,1.9-7,3.8-9.3,6.8c-2.3,3.1-4.1,6.8-5.1,10.5
			c-0.2,0.7-0.3,1.4-0.4,2.1c1.4-0.9,2.7-1.8,4.1-2.7c-0.1-0.4-0.2-0.8,0-1.2c0.3-0.8,1.6-1.2,2-2c0.4-0.8-0.1-2,0.3-2.8
			c0.2-0.3,2.1-1.3,2.3-1.6c2.1-2.8,4.6-5,7.6-6.8c1.5-0.9,2.6-2.6,4.3-3.2c0,0,0.1,0,0.1,0c0.6-1,1.2-1.9,1.8-2.9
			C122.5,99.2,121.6,99.2,120.7,99.5z"/>
		
			<linearGradient id="SVGID_2_" gradientUnits="userSpaceOnUse" x1="20.1645" y1="115.5211" x2="114.5897" y2="21.0958" gradientTransform="matrix(1 0 0 -1 0 134)">
			<stop  offset="0" style="stop-color:#FF0054"/>
			<stop  offset="1" style="stop-color:#484852"/>
		</linearGradient>
		<path fill="url(#SVGID_2_)" d="M117.4,90.2c-2.4,0.8-4.4,2.9-6.6,4.2c-4.4,2.6-9.1,5.3-12.2,9.4c-3.1,4.1-5.5,9-6.7,14
			c-0.8,3.1-0.8,6.4-0.5,9.6c0.8-0.3,1.6-0.7,2.4-1.1c0.4-2.6,1.1-5.1,1.8-7.6c0.3-1.1-0.3-2.6,0.1-3.7c0.4-1.1,1.9-1.8,2.4-2.9
			c0.5-1.1,0.2-2.6,0.8-3.6c0.4-0.7,2.4-1.8,2.9-2.4c2.9-3.8,6.4-6.9,10.5-9.3c2.1-1.2,3.8-3.2,6.1-4c2.2-0.8,4.8-0.4,7.2-0.7
			c0.5-0.1,1.1-0.2,1.7-0.2c0.4-0.9,0.8-1.9,1.1-2.9c-1.1,0.1-2.1,0.3-3.2,0.4C122.6,89.7,119.8,89.3,117.4,90.2z"/>
		
			<linearGradient id="SVGID_3_" gradientUnits="userSpaceOnUse" x1="20.27" y1="115.6265" x2="114.6952" y2="21.2013" gradientTransform="matrix(1 0 0 -1 0 134)">
			<stop  offset="0" style="stop-color:#FF0054"/>
			<stop  offset="1" style="stop-color:#484852"/>
		</linearGradient>
		<path fill="url(#SVGID_3_)" d="M114.1,80.8c-3,1.1-5.6,3.4-8.3,5c-5.6,3.3-11.2,6.9-15,12c-3.9,5.1-6.8,11.3-8.4,17.5
			c-1.3,4.9-1.1,10.1-0.5,15.2c0.5-0.1,1.1-0.3,1.6-0.4c0.1-4.7,1.2-9.3,2.4-13.9c0.4-1.5-0.1-3.2,0.4-4.7c0.6-1.4,2.1-2.4,2.8-3.8
			c0.7-1.4,0.5-3.2,1.3-4.5c0.6-1,2.7-2.3,3.4-3.2c3.7-4.8,8.2-8.8,13.4-11.9c2.6-1.5,5-3.8,7.8-4.8c2.9-1,6.1-0.7,9.1-1.2
			c2.1-0.3,4.3-0.6,6.4-0.8c0.2-0.9,0.4-1.8,0.6-2.7c-2.5,0.1-4.9,0.4-7.4,0.8C120.6,80,117.2,79.7,114.1,80.8z"/>
		
			<linearGradient id="SVGID_4_" gradientUnits="userSpaceOnUse" x1="-3.2935" y1="92.0631" x2="91.1317" y2="-2.3622" gradientTransform="matrix(1 0 0 -1 0 134)">
			<stop  offset="0" style="stop-color:#FF0054"/>
			<stop  offset="1" style="stop-color:#484852"/>
		</linearGradient>
		<path fill="url(#SVGID_4_)" d="M72.8,112.8c-1.6,6.3-1.4,12.8-0.7,19.3c0.4,0,0.9-0.1,1.3-0.1c-0.2-6.2,1.2-12.3,2.7-18.3
			c0.5-1.8,0.1-3.9,0.7-5.6c0.1-0.1,0.1-0.3,0.2-0.4c-1.3,1.1-2.5,2-3.7,2.9C73.2,111.3,73,112.1,72.8,112.8z"/>
		
			<linearGradient id="SVGID_5_" gradientUnits="userSpaceOnUse" x1="7.9845" y1="138.7874" x2="122.693" y2="24.0789" gradientTransform="matrix(1 0 0 -1 0 134)">
			<stop  offset="0" style="stop-color:#FF0054"/>
			<stop  offset="1" style="stop-color:#484852"/>
		</linearGradient>
		<path fill="url(#SVGID_5_)" d="M122.4,69.7c-3.8,0.5-7.9,0.4-11.5,1.7c-1.9,0.6-3.6,1.6-5.2,2.7c-0.3,0.2-24.2,9.3-32.2,36.6
			c-0.6,1.6,2.1,1.8,2.6,0.1C90.4,83,103.2,79,103.5,78.8c2.7-1.7,5.3-3.7,8.3-4.7c3.5-1.2,7.3-1.1,11-1.6c3.1-0.4,6.2-0.8,9.3-0.9
			c0.1-0.9,0.1-1.8,0.2-2.7C129,68.9,125.7,69.2,122.4,69.7z"/>
		
			<linearGradient id="SVGID_6_" gradientUnits="userSpaceOnUse" x1="1.4465" y1="143.615" x2="124.3599" y2="20.7015" gradientTransform="matrix(1 0 0 -1 0 134)">
			<stop  offset="0" style="stop-color:#FF0054"/>
			<stop  offset="1" style="stop-color:#484852"/>
		</linearGradient>
		<path fill="url(#SVGID_6_)" d="M107.6,62c-0.5,0.2-38.6,16.1-45,51.6l2.8,2c13.1-37.2,42.3-50.7,43.1-51c4.1-1.4,8.6-1.4,12.9-2
			c3.6-0.5,7.2-0.9,10.8-1c-0.1-0.9-0.1-1.9-0.2-2.8c-3.6,0.1-7.3,0.5-10.9,1C116.6,60.4,111.9,60.5,107.6,62z"/>
		
			<linearGradient id="SVGID_7_" gradientUnits="userSpaceOnUse" x1="-10.6718" y1="84.6848" x2="83.7534" y2="-9.7405" gradientTransform="matrix(1 0 0 -1 0 134)">
			<stop  offset="0" style="stop-color:#FF0054"/>
			<stop  offset="1" style="stop-color:#484852"/>
		</linearGradient>
		<path fill="url(#SVGID_7_)" d="M62.6,113.4c-1.1,6.2-1,12.5-0.3,18.8c0.4,0,0.8,0,1.2,0.1c-0.1-5.6,0.7-11.3,2-16.8
			C64.8,115,63.9,114.4,62.6,113.4z"/>
		
			<linearGradient id="SVGID_8_" gradientUnits="userSpaceOnUse" x1="-0.5011" y1="148.4817" x2="129.1198" y2="18.8606" gradientTransform="matrix(1 0 0 -1 0 134)">
			<stop  offset="0" style="stop-color:#FF0054"/>
			<stop  offset="1" style="stop-color:#484852"/>
		</linearGradient>
		<path fill="url(#SVGID_8_)" d="M53.9,107.1l2.8,1.8c16.9-39.4,50.5-54.3,51.1-54.4c4-1,8.2-1.2,12.3-1.8c3.5-0.5,7.1-0.9,10.7-1
			c-0.2-0.9-0.4-1.9-0.7-2.8c-3.5,0.2-7,0.5-10.4,1c-3.9,0.5-8,0.8-11.9,1.7C107.3,51.7,64.8,70.7,53.9,107.1z"/>
		
			<linearGradient id="SVGID_9_" gradientUnits="userSpaceOnUse" x1="-13.3785" y1="81.9781" x2="81.0467" y2="-12.4472" gradientTransform="matrix(1 0 0 -1 0 134)">
			<stop  offset="0" style="stop-color:#FF0054"/>
			<stop  offset="1" style="stop-color:#484852"/>
		</linearGradient>
		<path fill="url(#SVGID_9_)" d="M53.7,107.8c-1.9,7.5-2.1,15.3-1.5,23.1c0.4,0.1,0.7,0.2,1.1,0.2c0-7.5,1.4-15,3.3-22.2
			c-0.9-0.7-1.8-1.4-2.7-2.2C53.9,107.1,53.8,107.4,53.7,107.8z"/>
		
			<linearGradient id="SVGID_10_" gradientUnits="userSpaceOnUse" x1="-13.0411" y1="163.5888" x2="139.9109" y2="10.6366" gradientTransform="matrix(1 0 0 -1 0 134)">
			<stop  offset="0" style="stop-color:#FF0054"/>
			<stop  offset="1" style="stop-color:#484852"/>
		</linearGradient>
		<path fill="url(#SVGID_10_)" d="M45.7,100l2.1,2.2c7.9-22.8,29.9-47.6,60-57.7c3.5-1.2,7.3-1,10.9-1.5c3-0.4,6-0.7,9.1-0.9
			c-0.4-0.9-0.8-1.9-1.2-2.8c-2.8,0.2-5.6,0.5-8.3,0.9c-3.5,0.5-7.1,0.4-10.5,1.4C88.4,47.3,55.3,70.7,45.7,100z"/>
		
			<linearGradient id="SVGID_11_" gradientUnits="userSpaceOnUse" x1="-15.4583" y1="79.8982" x2="78.9669" y2="-14.527" gradientTransform="matrix(1 0 0 -1 0 134)">
			<stop  offset="0" style="stop-color:#FF0054"/>
			<stop  offset="1" style="stop-color:#484852"/>
		</linearGradient>
		<path fill="url(#SVGID_11_)" d="M44.2,105.3c-1.9,7.4-2.3,15-2,22.6c0.4,0.2,0.8,0.3,1.2,0.5c0.3-7.5,1.7-15,3.7-22.3
			c0.4-1.5,0.6-3.1,0.8-4.7c-0.7-0.6-1.3-1.2-2-1.9C45.3,101.4,44.7,103.4,44.2,105.3z"/>
		
			<linearGradient id="SVGID_12_" gradientUnits="userSpaceOnUse" x1="-16.6808" y1="78.6757" x2="77.7444" y2="-15.7495" gradientTransform="matrix(1 0 0 -1 0 134)">
			<stop  offset="0" style="stop-color:#FF0054"/>
			<stop  offset="1" style="stop-color:#484852"/>
		</linearGradient>
		<path fill="url(#SVGID_12_)" d="M34.6,102.8c-1.7,6.6-2.4,13.4-2.4,20.2c0.5,0.3,0.9,0.6,1.4,0.8c0.6-6.8,2-13.7,3.7-20.3
			c0.8-3.1,0.8-6.4,1.9-9.4c0.1-0.3,0.3-0.7,0.4-1c-0.5-0.6-1-1.1-1.5-1.7C36.8,95.2,35.6,99,34.6,102.8z"/>
		
			<linearGradient id="SVGID_13_" gradientUnits="userSpaceOnUse" x1="-8.8506" y1="161.9815" x2="146.5612" y2="6.5698" gradientTransform="matrix(1 0 0 -1 0 134)">
			<stop  offset="0" style="stop-color:#FF0054"/>
			<stop  offset="1" style="stop-color:#484852"/>
		</linearGradient>
		<path fill="url(#SVGID_13_)" d="M39.7,93.2c0.5-0.1,30.3-50.6,68.1-58.9c3.1-0.7,6.4-0.8,9.5-1.3c1.9-0.3,3.8-0.5,5.8-0.7
			c-0.6-0.9-1.1-1.8-1.7-2.7c-1.5,0.2-3,0.3-4.4,0.6c-4.3,0.6-8.8,0.6-13,1.9C56.7,46.8,39.2,91.3,38.3,91.5L39.7,93.2z"/>
		
			<linearGradient id="SVGID_14_" gradientUnits="userSpaceOnUse" x1="-16.809" y1="78.5475" x2="77.6162" y2="-15.8777" gradientTransform="matrix(1 0 0 -1 0 134)">
			<stop  offset="0" style="stop-color:#FF0054"/>
			<stop  offset="1" style="stop-color:#484852"/>
		</linearGradient>
		<path fill="url(#SVGID_14_)" d="M31.8,83c-2.3,5.7-4.2,11.7-5.7,17.6c-1.3,5.2-2.4,10.4-3.1,15.7c0.4,0.4,0.9,0.7,1.3,1.1
			c0.8-5.5,1.9-11,3.4-16.4c1.5-5.6,2.8-11.3,5-16.7C32.4,83.9,32.1,83.4,31.8,83z"/>
		
			<linearGradient id="SVGID_15_" gradientUnits="userSpaceOnUse" x1="12.7086" y1="142.2505" x2="139.6613" y2="15.2976" gradientTransform="matrix(1 0 0 -1 0 134)">
			<stop  offset="0" style="stop-color:#FF0054"/>
			<stop  offset="1" style="stop-color:#484852"/>
		</linearGradient>
		<path fill="url(#SVGID_15_)" d="M31.8,83l0.9,1.3c23-40.8,61.8-55.8,63.2-56.3c6.5-2.2,13-4.8,19.8-5.8c-0.5-0.6-1-1.1-1.5-1.7
			c-6.6,0.9-13.3,1.6-19.6,3.8C92,25.3,54.6,40.8,31.8,83z"/>
		
			<linearGradient id="SVGID_16_" gradientUnits="userSpaceOnUse" x1="17.5114" y1="139.5246" x2="141.9477" y2="15.0881" gradientTransform="matrix(1 0 0 -1 0 134)">
			<stop  offset="0" style="stop-color:#FF0054"/>
			<stop  offset="1" style="stop-color:#484852"/>
		</linearGradient>
		<path fill="url(#SVGID_16_)" d="M26.6,72l0.8,2.5c1.2-2,12.7-19.5,28.2-33c14.8-12.9,34.9-21,37.2-21.8c4.9-1.7,9.9-3.6,14.9-4.9
			c-0.9-0.7-1.9-1.5-2.8-2.2c-4.6,0.7-9.1,1.6-13.5,3.1c-2.7,1-24.2,10.6-38.9,23.8C37.6,53.1,26.8,71.6,26.6,72z"/>
		
			<linearGradient id="SVGID_17_" gradientUnits="userSpaceOnUse" x1="-15.291" y1="80.0656" x2="79.1342" y2="-14.3597" gradientTransform="matrix(1 0 0 -1 0 134)">
			<stop  offset="0" style="stop-color:#FF0054"/>
			<stop  offset="1" style="stop-color:#484852"/>
		</linearGradient>
		<path fill="url(#SVGID_17_)" d="M27.5,74.4c-0.3-0.9-0.5-1.7-0.8-2.6c-4.2,8.4-7.2,17.4-9.5,26.5c-0.8,3.2-1.5,6.5-2.2,9.8
			c0.5,0.6,0.9,1.1,1.4,1.6c0.7-3.7,1.6-7.4,2.5-11c2-7.3,3.7-14.8,7-21.6C26.4,76.2,26.9,75.3,27.5,74.4z"/>
		
			<linearGradient id="SVGID_18_" gradientUnits="userSpaceOnUse" x1="-10.4722" y1="84.8843" x2="83.9529" y2="-9.541" gradientTransform="matrix(1 0 0 -1 0 134)">
			<stop  offset="0" style="stop-color:#FF0054"/>
			<stop  offset="1" style="stop-color:#484852"/>
		</linearGradient>
		<path fill="url(#SVGID_18_)" d="M26.1,60.3v-5.7C17.6,67.1,12,81.4,8.3,96.1c-0.1,0.5-0.2,1-0.4,1.5c0.4,0.8,0.9,1.6,1.4,2.4
			c0.3-1.1,0.6-2.3,0.9-3.4c2.1-7.9,4-15.9,7.6-23.2C20.1,68.7,23,64.4,26.1,60.3z"/>
		
			<linearGradient id="SVGID_19_" gradientUnits="userSpaceOnUse" x1="27.724" y1="134.1062" x2="137.4893" y2="24.3409" gradientTransform="matrix(1 0 0 -1 0 134)">
			<stop  offset="0" style="stop-color:#FF0054"/>
			<stop  offset="1" style="stop-color:#484852"/>
		</linearGradient>
		<path fill="url(#SVGID_19_)" d="M60.2,22.3c0,0-19.1,11.7-34.1,32.3c-1.2,1.6-1,5.6,0,5.7c16.4-27.3,41-39.9,41.2-40
			c7-4.1,14.9-6.5,22.6-9.1c2.8-1,5.6-1.9,8.4-2.9c-1.7-0.9-3.5-1.8-5.3-2.6c-1.5,0.4-3,0.9-4.5,1.4c-7.9,2.8-15,7.3-22.2,11.5
			C64.2,19.7,62.2,21,60.2,22.3z"/>
		
			<linearGradient id="SVGID_20_" gradientUnits="userSpaceOnUse" x1="34.9877" y1="130.8178" x2="130.3009" y2="35.5046" gradientTransform="matrix(1 0 0 -1 0 134)">
			<stop  offset="0" style="stop-color:#FF0054"/>
			<stop  offset="1" style="stop-color:#484852"/>
		</linearGradient>
		<path fill="url(#SVGID_20_)" d="M25.3,40.4l0.8,5c6.6-9.5,28.6-28.2,36.6-32.9C70,8.3,78,5.7,86,3c-2.4-0.8-4.9-1.4-7.4-1.8
			c-5.9,2.8-11.4,6.2-17,9.5C51.3,16.7,32.7,30.3,25.3,40.4z"/>
		
			<linearGradient id="SVGID_21_" gradientUnits="userSpaceOnUse" x1="-4.9415" y1="90.415" x2="89.4837" y2="-4.0102" gradientTransform="matrix(1 0 0 -1 0 134)">
			<stop  offset="0" style="stop-color:#FF0054"/>
			<stop  offset="1" style="stop-color:#484852"/>
		</linearGradient>
		<path fill="url(#SVGID_21_)" d="M24.3,47.7c0.6-0.8,1.2-1.5,1.8-2.3v-6c-1.7,1.9-3.3,3.9-4.8,5.9c-8.6,11.4-14.7,24.5-19,38.1
			c0.3,1.2,0.7,2.3,1,3.5C5,81,6.9,75,9.6,69.4C13.5,61.6,19,54.7,24.3,47.7z"/>
		
			<linearGradient id="SVGID_22_" gradientUnits="userSpaceOnUse" x1="19.1747" y1="114.5313" x2="113.5999" y2="20.106" gradientTransform="matrix(1 0 0 -1 0 134)">
			<stop  offset="0" style="stop-color:#FF0054"/>
			<stop  offset="1" style="stop-color:#484852"/>
		</linearGradient>
		<path fill="url(#SVGID_22_)" d="M58.1,4.8C61.3,3,64.6,1.4,68,0c-0.6,0-1.2,0-1.8,0c-1.7,0-3.4,0.1-5,0.2
			c-1.4,0.8-2.8,1.7-4.3,2.5c-16.4,9.7-31.5,22-42.9,37.2C8.4,47.3,3.8,55.3,0.1,63.7C0,64.5,0,65.3,0,66.2c0,0.8,0,1.6,0,2.4
			c0.5-1,0.9-2.1,1.4-3.1c4.1-8.4,10-15.8,15.6-23.2C28.5,27.5,42,14.2,58.1,4.8z"/>
		
			<linearGradient id="SVGID_23_" gradientUnits="userSpaceOnUse" x1="18.1794" y1="113.536" x2="112.6048" y2="19.1108" gradientTransform="matrix(1 0 0 -1 0 134)">
			<stop  offset="0" style="stop-color:#FF0054"/>
			<stop  offset="1" style="stop-color:#484852"/>
		</linearGradient>
		<path fill="url(#SVGID_23_)" d="M42.5,4.4c-5.9,2.3-11.3,5.3-16.2,9c-4.4,3.4-8.4,7.2-11.9,11.6C9.5,31.1,5.7,38.2,3.2,45.8
			c2.2-3,4.5-6,6.7-8.9C19.3,24.7,30.1,13.4,42.5,4.4z"/>
		
			<linearGradient id="SVGID_24_" gradientUnits="userSpaceOnUse" x1="23.3143" y1="118.6708" x2="117.7395" y2="24.2456" gradientTransform="matrix(1 0 0 -1 0 134)">
			<stop  offset="0" style="stop-color:#FF0054"/>
			<stop  offset="1" style="stop-color:#484852"/>
		</linearGradient>
		<path display="none" fill="url(#SVGID_24_)" d="M99.4,66.8V39.4l-33.3-12l-33.3,12v27.4c0,12.3,19,30.4,33.3,40.8
			C80.4,97.3,99.4,79.2,99.4,66.8z M66.2,97.6c-6-4.8-11.6-10-16-14.9c-8.6-9.7-9.3-14.5-9.3-15.8V45l25.3-9.1L91.4,45v21.8
			c0,1.3-0.7,6.1-9.3,15.8C77.8,87.6,72.1,92.8,66.2,97.6z"/>
	</g>
</g>
<g id="_x32_" display="none">
	<g id="основа_2_copy_2" display="inline">
	</g>
	<g display="inline">
		
			<linearGradient id="SVGID_25_" gradientUnits="userSpaceOnUse" x1="5.4249" y1="106.5486" x2="98.9392" y2="13.0344" gradientTransform="matrix(1 0 0 -1 0 134)">
			<stop  offset="0" style="stop-color:#FF0054"/>
			<stop  offset="1" style="stop-color:#484852"/>
		</linearGradient>
		<path fill="url(#SVGID_25_)" d="M18.6,20.1c-3.1,3.2-5.8,6.7-8.2,10.4c-0.9,1.3-1.7,2.7-2.4,4.1C6,38.2,4.5,41.9,3.2,45.7
			C5.9,41.9,8.4,38,10.7,34C13.4,29.4,16.4,24.9,18.6,20.1z"/>
		
			<linearGradient id="SVGID_26_" gradientUnits="userSpaceOnUse" x1="5.9251" y1="107.0488" x2="99.4393" y2="13.5345" gradientTransform="matrix(1 0 0 -1 0 134)">
			<stop  offset="0" style="stop-color:#FF0054"/>
			<stop  offset="1" style="stop-color:#484852"/>
		</linearGradient>
		<path fill="url(#SVGID_26_)" d="M21.6,40.3c3.6-6.3,7.8-12.4,10.2-19.2c1.4-4.2,2.1-8.6,2.7-13.1c-0.5,0.3-0.9,0.5-1.4,0.8
			c-2.9,10.7-7.8,20.8-13.4,30.3C14.1,48.4,7.7,57.3,0,64.8c0,0.4,0,0.9,0,1.3c0,0.8,0,1.6,0.1,2.4C8.7,60.4,15.6,50.6,21.6,40.3z"
			/>
		
			<linearGradient id="SVGID_27_" gradientUnits="userSpaceOnUse" x1="-12.5427" y1="100.2603" x2="101.1541" y2="-13.4364" gradientTransform="matrix(1 0 0 -1 0 134)">
			<stop  offset="0" style="stop-color:#FF0054"/>
			<stop  offset="1" style="stop-color:#484852"/>
		</linearGradient>
		<path fill="url(#SVGID_27_)" d="M33,51.4c0.6-3-2-4.3-0.8-7C25.3,55.1,11.9,72,2,79.9c0.2,1.1,0.5,2.2,0.8,3.3
			C11.1,76.6,26.8,60,33,51.4z"/>
		
			<linearGradient id="SVGID_28_" gradientUnits="userSpaceOnUse" x1="19.1239" y1="127.1922" x2="150.1352" y2="-3.8191" gradientTransform="matrix(1 0 0 -1 0 134)">
			<stop  offset="0" style="stop-color:#FF0054"/>
			<stop  offset="1" style="stop-color:#484852"/>
		</linearGradient>
		<path fill="url(#SVGID_28_)" d="M33,51.4c1.6-3.1,10-22.9,11.2-26.2c2.5-7.3,3.1-15.1,4.1-22.7c-0.3,0.1-0.5,0.1-0.8,0.2
			c-2.2,13.7-9.3,30.9-16.1,43C30,51.7,30.4,53.4,33,51.4z"/>
		
			<linearGradient id="SVGID_29_" gradientUnits="userSpaceOnUse" x1="-10.3554" y1="89.2604" x2="80.9238" y2="-2.0189" gradientTransform="matrix(1 0 0 -1 0 134)">
			<stop  offset="0" style="stop-color:#FF0054"/>
			<stop  offset="1" style="stop-color:#484852"/>
		</linearGradient>
		<path fill="url(#SVGID_29_)" d="M40.8,62.7c-0.3-1.3-2.2-1-2.4-2.4c-5.5,5.5-25.8,25-32.1,29.7c-0.5,0.4-0.9,0.7-1.4,1
			c0.6,1.5,1.3,2.9,2,4.3c0.8-0.5,1.5-1.1,2.3-1.7C14.9,89.3,36,68.1,40.8,62.7z"/>
		
			<linearGradient id="SVGID_30_" gradientUnits="userSpaceOnUse" x1="14.3422" y1="137.3225" x2="186.8182" y2="-35.1534" gradientTransform="matrix(1 0 0 -1 0 134)">
			<stop  offset="0" style="stop-color:#FF0054"/>
			<stop  offset="1" style="stop-color:#484852"/>
		</linearGradient>
		<path fill="url(#SVGID_30_)" d="M60.3,3.2c0.1-1,0.3-2,0.4-3c-0.8,0.1-1.5,0.1-2.3,0.2c-0.1,0.8-0.2,1.6-0.3,2.5
			c0.2,7.1-11.9,44.5-19.7,57.5c-1,3.4,0.2,3.7,1.5,3.4C53.4,45.5,59.2,11.1,60.3,3.2z"/>
		
			<linearGradient id="SVGID_31_" gradientUnits="userSpaceOnUse" x1="-13.7994" y1="98.9453" x2="93.2363" y2="-8.0905" gradientTransform="matrix(1 0 0 -1 0 134)">
			<stop  offset="0" style="stop-color:#FF0054"/>
			<stop  offset="1" style="stop-color:#484852"/>
		</linearGradient>
		<path fill="url(#SVGID_31_)" d="M55.3,60.7c-0.7-1.2-3.3,0.1-3.9-1.1c-3.2,8.4-33.2,35.6-38.3,39.4c-1,0.8-2,1.5-3.1,2.2
			c0.9,1.4,1.8,2.8,2.8,4.1c1.1-0.8,2.2-1.6,3.3-2.4C21.1,99.1,50.5,74.8,55.3,60.7z"/>
		
			<linearGradient id="SVGID_32_" gradientUnits="userSpaceOnUse" x1="10.9153" y1="149.5942" x2="199.4156" y2="-38.9063" gradientTransform="matrix(1 0 0 -1 0 134)">
			<stop  offset="0" style="stop-color:#FF0054"/>
			<stop  offset="1" style="stop-color:#484852"/>
		</linearGradient>
		<path fill="url(#SVGID_32_)" d="M52.6,66.1c6.3-7.4,17.7-43.2,19.1-61.5c0.2-1.5,0.4-3,0.5-4.5C71.4,0.1,70.6,0,69.8,0
			c-0.2,1.4-0.4,2.9-0.6,4.3c-3.3,21.8-15.1,51.2-21,60.3c0.4,0,3,0.6,3.4,0.6C48.9,67.1,48.2,71.3,52.6,66.1z"/>
		
			<linearGradient id="SVGID_33_" gradientUnits="userSpaceOnUse" x1="13.7248" y1="161.1152" x2="194.1667" y2="-19.3267" gradientTransform="matrix(1 0 0 -1 0 134)">
			<stop  offset="0" style="stop-color:#FF0054"/>
			<stop  offset="1" style="stop-color:#484852"/>
		</linearGradient>
		<path fill="url(#SVGID_33_)" d="M83.1,6.2c0.2-1.3,0.3-2.6,0.5-4c-0.8-0.2-1.7-0.4-2.5-0.6c-0.2,1.4-0.4,2.8-0.6,4.2
			c-0.5,6.6-12.7,48-17.1,57.3c1.2,0.3,2.6,0.3,3.7,0.7C70.8,56.1,82.1,13.4,83.1,6.2z"/>
		
			<linearGradient id="SVGID_34_" gradientUnits="userSpaceOnUse" x1="-7.9847" y1="97.4112" x2="88.6377" y2="0.7889" gradientTransform="matrix(1 0 0 -1 0 134)">
			<stop  offset="0" style="stop-color:#FF0054"/>
			<stop  offset="1" style="stop-color:#484852"/>
		</linearGradient>
		<path fill="url(#SVGID_34_)" d="M63.7,62.2c-2.8,8.1-38.8,42-43.7,45.7c-1,0.8-2.1,1.5-3.1,2.3c1.2,1.3,2.4,2.6,3.7,3.8
			c0.9-0.6,1.7-1.3,2.6-1.9c5.1-3.9,41.8-40.1,44.2-49C66.2,62,64.6,63.3,63.7,62.2z"/>
		
			<linearGradient id="SVGID_35_" gradientUnits="userSpaceOnUse" x1="-33.1813" y1="124.3006" x2="103.1077" y2="-11.9884" gradientTransform="matrix(1 0 0 -1 0 134)">
			<stop  offset="0" style="stop-color:#FF0054"/>
			<stop  offset="1" style="stop-color:#484852"/>
		</linearGradient>
		<path fill="url(#SVGID_35_)" d="M74.5,67.4c-1.4-0.7-2.2-0.4-3.5-1.3c-3.4,9.4-38.7,46.5-44.2,50.6c-0.5,0.4-1.1,0.8-1.6,1.2
			c1.5,1.2,3.1,2.3,4.7,3.4c0.1-0.1,0.2-0.1,0.3-0.2C36.1,116.5,71.5,76.5,74.5,67.4z"/>
		
			<linearGradient id="SVGID_36_" gradientUnits="userSpaceOnUse" x1="16.7861" y1="162.6767" x2="175.4616" y2="4.0013" gradientTransform="matrix(1 0 0 -1 0 134)">
			<stop  offset="0" style="stop-color:#FF0054"/>
			<stop  offset="1" style="stop-color:#484852"/>
		</linearGradient>
		<path fill="url(#SVGID_36_)" d="M94.5,7.7c0.1-0.5,0.1-0.9,0.2-1.4c-0.9-0.4-1.8-0.8-2.7-1.2c-0.1,0.7-0.2,1.5-0.3,2.2
			c-1.2,8-9.2,34.6-21.4,60.5c1.2,0.7,3.1-1.1,4.2-0.3C82.5,56.8,95.8,17.1,94.5,7.7z"/>
		
			<linearGradient id="SVGID_37_" gradientUnits="userSpaceOnUse" x1="12.37" y1="168.547" x2="169.7942" y2="11.1227" gradientTransform="matrix(1 0 0 -1 0 134)">
			<stop  offset="0" style="stop-color:#FF0054"/>
			<stop  offset="1" style="stop-color:#484852"/>
		</linearGradient>
		<path fill="url(#SVGID_37_)" d="M105.4,12.8c-0.9-0.7-1.9-1.3-2.8-2c-1.5,9.4-20,56.3-22.7,65.4c1.1,1.2,0.4,2.7,1.4,3.9
			C87,72.9,104.1,22.7,105.4,12.8z"/>
		
			<linearGradient id="SVGID_38_" gradientUnits="userSpaceOnUse" x1="-30.4079" y1="122.8568" x2="98.3048" y2="-5.8559" gradientTransform="matrix(1 0 0 -1 0 134)">
			<stop  offset="0" style="stop-color:#FF0054"/>
			<stop  offset="1" style="stop-color:#484852"/>
		</linearGradient>
		<path fill="url(#SVGID_38_)" d="M83.3,76.9c-1.8-0.3-1.2-1.6-2.9-2.1c-4.7,9.3-38.8,44.8-45.3,49.7c1.9,1,3.8,1.9,5.8,2.7
			C47.3,122,79.9,85.8,83.3,76.9z"/>
		
			<linearGradient id="SVGID_39_" gradientUnits="userSpaceOnUse" x1="13.6239" y1="167.8191" x2="157.3506" y2="24.0924" gradientTransform="matrix(1 0 0 -1 0 134)">
			<stop  offset="0" style="stop-color:#FF0054"/>
			<stop  offset="1" style="stop-color:#484852"/>
		</linearGradient>
		<path fill="url(#SVGID_39_)" d="M91.6,88c5.5-6.6,17.3-37.3,18.3-40.1c2.8-8.3,4.5-17,5.8-25.7c-1-1.1-2-2.2-3-3.2
			C110.8,29.7,94,74.8,87.4,86.1C88.3,87.9,91.1,86.1,91.6,88z"/>
		
			<linearGradient id="SVGID_40_" gradientUnits="userSpaceOnUse" x1="-45.9354" y1="145.5341" x2="102.8931" y2="-3.2945" gradientTransform="matrix(1 0 0 -1 0 134)">
			<stop  offset="0" style="stop-color:#FF0054"/>
			<stop  offset="1" style="stop-color:#484852"/>
		</linearGradient>
		<path fill="url(#SVGID_40_)" d="M90,81c-5.4,8.2-35.7,42.6-43,48.4c2.3,0.7,4.6,1.3,7,1.7c7.3-6.6,37.9-38,41.3-49.1
			C95.7,80.9,92.2,80.9,90,81z"/>
		
			<linearGradient id="SVGID_41_" gradientUnits="userSpaceOnUse" x1="-46.8509" y1="150.9409" x2="100.2084" y2="3.8814" gradientTransform="matrix(1 0 0 -1 0 134)">
			<stop  offset="0" style="stop-color:#FF0054"/>
			<stop  offset="1" style="stop-color:#484852"/>
		</linearGradient>
		<path fill="url(#SVGID_41_)" d="M98.1,88.8c-7.9,10.1-27.1,34.9-36.8,43.3c1.6,0.1,3.2,0.2,4.9,0.2c1.1,0,2.2,0,3.3-0.1
			c10.8-11,23.6-25.9,31.8-39C98.4,96.5,101.9,86.5,98.1,88.8z"/>
		
			<linearGradient id="SVGID_42_" gradientUnits="userSpaceOnUse" x1="29.2113" y1="151.9639" x2="139.6583" y2="41.5171" gradientTransform="matrix(1 0 0 -1 0 134)">
			<stop  offset="0" style="stop-color:#FF0054"/>
			<stop  offset="1" style="stop-color:#484852"/>
		</linearGradient>
		<path fill="url(#SVGID_42_)" d="M99.9,95.4c2.4-3.3,7.9-13.8,7.9-13.8c5.3-9.4,9.6-19.8,13-29.9c1.8-5.2,3.1-10.5,4.2-15.9
			c-0.9-1.8-2-3.6-3.1-5.4c-3.2,14.1-16.1,44.7-24.8,59.6C96.9,93.3,98.4,97.4,99.9,95.4z"/>
		
			<linearGradient id="SVGID_43_" gradientUnits="userSpaceOnUse" x1="24.1572" y1="125.281" x2="117.6716" y2="31.7667" gradientTransform="matrix(1 0 0 -1 0 134)">
			<stop  offset="0" style="stop-color:#FF0054"/>
			<stop  offset="1" style="stop-color:#484852"/>
		</linearGradient>
		<path fill="url(#SVGID_43_)" d="M131.6,55.7c-0.5-3.1-1.2-6.2-2.1-9.2c-4.6,15.8-10.8,31.1-19.2,45.2C101.6,106.2,91,119.3,79,131
			c3.3-0.6,6.4-1.5,9.5-2.6c9.2-10.9,17.3-22.7,24.5-35C120,81.3,127,69,131.6,55.7z"/>
		
			<linearGradient id="SVGID_44_" gradientUnits="userSpaceOnUse" x1="26.8478" y1="127.9715" x2="120.3621" y2="34.4573" gradientTransform="matrix(1 0 0 -1 0 134)">
			<stop  offset="0" style="stop-color:#FF0054"/>
			<stop  offset="1" style="stop-color:#484852"/>
		</linearGradient>
		<path fill="url(#SVGID_44_)" d="M120,97.4c-4.8,8.1-10.3,15.9-16.2,23.2c5.4-3.8,10.3-8.3,14.4-13.5c3.8-4.7,6.9-10,9.2-15.7
			c2.4-5.7,3.9-11.7,4.6-18.1C128.5,81.7,124.5,89.7,120,97.4z"/>
	</g>
</g>
<g id="_x33_">
	<g>
		
			<linearGradient id="SVGID_45_" gradientUnits="userSpaceOnUse" x1="63.9768" y1="155.9554" x2="154.1075" y2="65.8247" gradientTransform="matrix(1 0 0 -1 0 134)">
			<stop  offset="0" style="stop-color:#FF0054"/>
			<stop  offset="1" style="stop-color:#484852"/>
		</linearGradient>
		<path fill="url(#SVGID_45_)" d="M131,51.5c-0.2-0.9-0.4-1.8-0.7-2.7c-4-3.1-7.7-6.6-10.8-10.7c-4.8-6.6-7.7-14.3-9.8-22.2
			c-1.1-0.9-2.2-1.9-3.3-2.7c2.5,9.3,5.7,18.6,11.6,26.2C121.6,44.1,126.1,48,131,51.5z"/>
		
			<linearGradient id="SVGID_46_" gradientUnits="userSpaceOnUse" x1="58.1501" y1="150.082" x2="148.278" y2="59.9541" gradientTransform="matrix(1 0 0 -1 0 134)">
			<stop  offset="0" style="stop-color:#FF0054"/>
			<stop  offset="1" style="stop-color:#484852"/>
		</linearGradient>
		<path fill="url(#SVGID_46_)" d="M132.7,65.6c-8.7-5.4-17-11.7-23-19.9c-6.6-9-10.3-19.8-13.1-30.7c-0.8-3-1.4-6-2-9
			c-1.1-0.5-2.1-1-3.2-1.4c0.7,3.7,1.5,7.4,2.5,11.1c3,11.1,6.9,22.3,13.9,31.4c6.6,8.6,15.5,15.1,24.8,20.6c0-0.5,0-1,0-1.6
			C132.7,66,132.7,65.8,132.7,65.6z"/>
		
			<linearGradient id="SVGID_47_" gradientUnits="userSpaceOnUse" x1="51.4452" y1="143.3258" x2="141.5728" y2="53.1982" gradientTransform="matrix(1 0 0 -1 0 134)">
			<stop  offset="0" style="stop-color:#FF0054"/>
			<stop  offset="1" style="stop-color:#484852"/>
		</linearGradient>
		<path fill="url(#SVGID_47_)" d="M99.7,53.3C92.1,43,87.6,30.7,84.5,18.2c-1.4-5.5-2.6-11.1-3.3-16.8C80.1,1.2,79,1,77.9,0.8
			C78.7,6.9,80,13,81.6,19c1.4,5.3,3.1,10.7,5.1,15.8c1,2.5,2,4.9,3.2,7.2c2.2,4.5,4.8,8.8,7.8,12.8c8,10.5,18.8,18.3,30.1,24.9
			c1,0.6,2.1,1.2,3.1,1.9c0.2-0.7,0.3-1.4,0.5-2.2c-0.8-0.5-1.7-1-2.5-1.5C117.8,71.4,107.3,63.6,99.7,53.3z"/>
		
			<linearGradient id="SVGID_48_" gradientUnits="userSpaceOnUse" x1="30.546" y1="149.675" x2="228.9247" y2="-48.7039" gradientTransform="matrix(1 0 0 -1 0 134)">
			<stop  offset="0" style="stop-color:#FF0054"/>
			<stop  offset="1" style="stop-color:#484852"/>
		</linearGradient>
		<path fill="url(#SVGID_48_)" d="M80.7,56.8c1.2,0.2,2.1-2,3.8-3.2C79.3,47.3,73.1,24.2,73,23.8c-0.2-0.8-0.4-1.6-0.6-2.4
			c-1.8-7.1-3.2-14.3-3.9-21.5c-0.5,0-1.1,0-1.6,0c-0.6,0-1.2,0-1.8,0c0.8,7.5,2.3,15,4.2,22.3C69.4,22.9,73.7,45.1,80.7,56.8z"/>
		
			<linearGradient id="SVGID_49_" gradientUnits="userSpaceOnUse" x1="-29.6258" y1="193.0821" x2="126.5833" y2="36.873" gradientTransform="matrix(1 0 0 -1 0 134)">
			<stop  offset="0" style="stop-color:#FF0054"/>
			<stop  offset="1" style="stop-color:#484852"/>
		</linearGradient>
		<path fill="url(#SVGID_49_)" d="M84,52.9c1,1.8-4,1.8-3.3,3.9c0.2,0.2,12,14,22.4,21.8c5.9,4.4,11.9,8.7,18.2,12.4
			c1.8,1,3.5,2.1,5.3,3.2c0.3-0.7,0.7-1.5,1-2.3c-1.7-1-3.4-1.9-5.1-2.9c-7.5-4.5-14.5-9.7-21.1-15.3C91.4,65.2,84.5,53.4,84,52.9z"
			/>
		
			<linearGradient id="SVGID_50_" gradientUnits="userSpaceOnUse" x1="25.5714" y1="138.5159" x2="280.2093" y2="-116.122" gradientTransform="matrix(1 0 0 -1 0 134)">
			<stop  offset="0" style="stop-color:#FF0054"/>
			<stop  offset="1" style="stop-color:#484852"/>
		</linearGradient>
		<path fill="url(#SVGID_50_)" d="M73.7,68.7c1.1-0.5,1.9-2.7,3.1-3c0-0.1-16.3-33.7-16.5-41.1c-0.1-0.4-0.2-0.8-0.3-1.2
			c-1.9-7.4-3.3-15-4-22.6c-1.2,0.2-2.4,0.4-3.5,0.7c0.8,7.8,2.3,15.5,4.3,23.1c0.1,0.3,0.2,0.6,0.2,0.9
			C61.9,45.1,73.7,68.5,73.7,68.7z"/>
		
			<linearGradient id="SVGID_51_" gradientUnits="userSpaceOnUse" x1="-165.6388" y1="310.6107" x2="113.7821" y2="31.1899" gradientTransform="matrix(1 0 0 -1 0 134)">
			<stop  offset="0" style="stop-color:#FF0054"/>
			<stop  offset="1" style="stop-color:#484852"/>
		</linearGradient>
		<path fill="url(#SVGID_51_)" d="M104,92.3C86.4,80.8,76.8,65.2,76.8,65.7l-2.5,0.8c0,0.3-0.5,1.9-0.6,2.2
			C74,68.9,83,84.3,106,96.6c3,1.6,5.8,3.7,8.8,5.5c1.8,1,3.5,2.1,5.3,3.2c0.5-0.7,1-1.5,1.5-2.2c-1.9-1-3.7-2.1-5.5-3.2
			c-3.3-2-6.6-4.1-9.8-6.3C106,93.2,105.2,93.2,104,92.3z"/>
		
			<linearGradient id="SVGID_52_" gradientUnits="userSpaceOnUse" x1="-106.0852" y1="233.1066" x2="105.1274" y2="21.894" gradientTransform="matrix(1 0 0 -1 0 134)">
			<stop  offset="0" style="stop-color:#FF0054"/>
			<stop  offset="1" style="stop-color:#484852"/>
		</linearGradient>
		<path fill="url(#SVGID_52_)" d="M69.1,71.8C68.1,72,65,75.7,65,75.7c15.3,21.8,36.8,33.6,43.4,37.5c1,0.6,2.1,1.2,3.1,1.8
			c0.4-0.4,0.8-0.8,1.2-1.2c-1.2-0.7-2.4-1.3-3.6-2C103.4,108.4,79.5,89.9,69.1,71.8z"/>
		
			<linearGradient id="SVGID_53_" gradientUnits="userSpaceOnUse" x1="25.5793" y1="122.6672" x2="262.9173" y2="-114.6708" gradientTransform="matrix(1 0 0 -1 0 134)">
			<stop  offset="0" style="stop-color:#FF0054"/>
			<stop  offset="1" style="stop-color:#484852"/>
		</linearGradient>
		<path fill="url(#SVGID_53_)" d="M65.4,76.2c0.5-0.9,3.4-3.1,4-3.9c0.2,0.8-17.8-25.6-21.4-39.9c-0.4-1.4-0.8-2.8-1.2-4.2
			c-2-7.8-3-15.9-3.3-24c-1.2,0.4-2.3,0.9-3.5,1.4c1,7.8,2.5,15.5,4.5,23.1c0.5,1.8,0.9,3.6,1.5,5.4C55.7,61.6,65.3,75.7,65.4,76.2z
			"/>
		
			<linearGradient id="SVGID_54_" gradientUnits="userSpaceOnUse" x1="-65.5481" y1="175.7613" x2="98.5566" y2="11.6566" gradientTransform="matrix(1 0 0 -1 0 134)">
			<stop  offset="0" style="stop-color:#FF0054"/>
			<stop  offset="1" style="stop-color:#484852"/>
		</linearGradient>
		<path fill="url(#SVGID_54_)" d="M53.6,79.8c0.2,0.2,13.2,17.1,19.8,22.5c8.9,7.3,18.1,14.5,28,20.4c0.6-0.4,1.1-0.7,1.7-1.1
			c-9-5.4-16.7-12.4-24.5-19.5C71.6,95.6,57.5,78.2,57.3,78C55.6,78.1,55.4,79.7,53.6,79.8z"/>
		
			<linearGradient id="SVGID_55_" gradientUnits="userSpaceOnUse" x1="20.6752" y1="111.5261" x2="158.2952" y2="-26.0938" gradientTransform="matrix(1 0 0 -1 0 134)">
			<stop  offset="0" style="stop-color:#FF0054"/>
			<stop  offset="1" style="stop-color:#484852"/>
		</linearGradient>
		<path fill="url(#SVGID_55_)" d="M54.4,80.8c0.6-0.6,3-1.3,3.7-1.8c-0.1-0.4-7.4-8.4-13.3-21.4c-0.8-1.7-1-3.6-1.2-5.4
			c-3.2-6.8-5.8-13.8-7.7-21.1c-1.8-7-2.9-14.2-3.4-21.4c-1.1,0.7-2.2,1.4-3.3,2.2c1,6.7,2.4,13.4,4.1,19.9
			c2.4,9.4,5.1,18.9,9.4,27.6C44.1,62.2,51.9,78,54.4,80.8z"/>
		
			<linearGradient id="SVGID_56_" gradientUnits="userSpaceOnUse" x1="12.3628" y1="103.0424" x2="129.7472" y2="-14.342" gradientTransform="matrix(1 0 0 -1 0 134)">
			<stop  offset="0" style="stop-color:#FF0054"/>
			<stop  offset="1" style="stop-color:#484852"/>
		</linearGradient>
		<path fill="url(#SVGID_56_)" d="M41.6,82.8c0.9-1.4,2.1-2.3,3.1-3.6c-0.2-0.4-7.4-14-7.6-14.3c-5.3-9.8-9.5-20.1-12.3-30.9
			c-1.4-5.3-2.4-10.7-3-16.2c-1,1-2,2-3,3c0.9,4.7,1.9,9.3,3.1,13.9c3,11.6,7,23.1,12.2,34C34.3,69.1,41.4,82.4,41.6,82.8z"/>
		
			<linearGradient id="SVGID_57_" gradientUnits="userSpaceOnUse" x1="-49.4632" y1="143.3932" x2="92.3004" y2="1.6296" gradientTransform="matrix(1 0 0 -1 0 134)">
			<stop  offset="0" style="stop-color:#FF0054"/>
			<stop  offset="1" style="stop-color:#484852"/>
		</linearGradient>
		<path fill="url(#SVGID_57_)" d="M44.7,79.2c-2.3-0.1-3.1,0.7-3.1,3.6c6.5,9.9,15.4,19.7,15.8,20.2c9.3,9.9,20,18.4,31.5,25.7
			c0.9-0.3,1.7-0.6,2.6-1c-10.3-7-19.5-15.5-27.8-24.9C63.4,102.5,54.2,93.4,44.7,79.2z"/>
		
			<linearGradient id="SVGID_58_" gradientUnits="userSpaceOnUse" x1="3.1895" y1="94.6745" x2="93.4287" y2="4.4354" gradientTransform="matrix(1 0 0 -1 0 134)">
			<stop  offset="0" style="stop-color:#FF0054"/>
			<stop  offset="1" style="stop-color:#484852"/>
		</linearGradient>
		<path fill="url(#SVGID_58_)" d="M29.1,84.4c0.5-2.4,1.1-4.8,2-7c-7.5-12.7-13.6-26.2-17.2-40.5c-0.7-2.5-1.2-5.1-1.7-7.7
			c-0.9,1.4-1.8,2.8-2.6,4.2c0.3,1.4,0.7,2.9,1.1,4.3C14.9,54,20.8,69.9,29.1,84.4z"/>
		
			<linearGradient id="SVGID_59_" gradientUnits="userSpaceOnUse" x1="-42.1098" y1="121.6315" x2="87.0901" y2="-7.5684" gradientTransform="matrix(1 0 0 -1 0 134)">
			<stop  offset="0" style="stop-color:#FF0054"/>
			<stop  offset="1" style="stop-color:#484852"/>
		</linearGradient>
		<path fill="url(#SVGID_59_)" d="M31.1,77.4c0,0-2.3,2.7-2.3,6.4c9.7,19.3,30.3,39.6,44.4,48.5c1.4-0.1,2.8-0.3,4.2-0.6
			C63.9,122.7,39.2,94.1,31.1,77.4z"/>
		
			<linearGradient id="SVGID_60_" gradientUnits="userSpaceOnUse" x1="-8.5955" y1="82.8063" x2="81.5348" y2="-7.324" gradientTransform="matrix(1 0 0 -1 0 134)">
			<stop  offset="0" style="stop-color:#FF0054"/>
			<stop  offset="1" style="stop-color:#484852"/>
		</linearGradient>
		<path fill="url(#SVGID_60_)" d="M34.6,103.2c-13.1-17.6-24-37.1-30.3-58.1c-0.7,2.2-1.3,4.4-1.8,6.6c6.2,19.7,15,38.7,27.4,55
			c6.8,8.9,14.5,17,23,24.3c2.5,0.5,5,0.9,7.6,1.2C51,123.5,42.4,113.6,34.6,103.2z"/>
		
			<linearGradient id="SVGID_61_" gradientUnits="userSpaceOnUse" x1="-18.806" y1="72.5079" x2="71.322" y2="-17.62" gradientTransform="matrix(1 0 0 -1 0 134)">
			<stop  offset="0" style="stop-color:#FF0054"/>
			<stop  offset="1" style="stop-color:#484852"/>
		</linearGradient>
		<path fill="url(#SVGID_61_)" d="M1,68.7c0.2,6.8,1.5,13.4,3.7,19.5c4.3,8.5,9.3,16.7,15,24.3c5.4,5.6,11.8,10.3,18.9,13.7
			c-4.6-5.2-8.9-10.5-13-16C16,97.3,7.5,83.4,1,68.7z"/>
	</g>
</g>
</svg>
