<?xml version="1.0" encoding="utf-8"?>
<svg version="1.1" id="图层_1" xmlns="http://www.w3.org/2000/svg" xmlns:xlink="http://www.w3.org/1999/xlink" x="0px" y="0px" viewBox="0 0 336 74" style="enable-background:new 0 0 336 74;" xml:space="preserve">
 <path fill="#fff" d="M70.5,5H6.9C5.8,5,5,5.8,5,6.9v12.5h0.3c0.1,0,3.4,0,3.4-1.9V8.7h59.9v10.3H20.8c-1,0-1.9,0.8-1.9,1.9v9
	c0,1,0.8,1.9,1.9,1.9h44.6v10.3H20.8c-1,0-1.9,0.8-1.9,1.9v9c0,1,0.8,1.9,1.9,1.9h47.8v10.3H8.7v-8.8c0-1.8-3.3-1.9-3.4-1.9H5v12.5
	c0,1,0.8,1.9,1.9,1.9h63.5c1,0,1.9-0.8,1.9-1.9V53.1c0-1-0.8-1.9-1.9-1.9H22.6v-5.3h44.6c1,0,1.8-0.8,1.8-1.9V30
	c0-1-0.8-1.9-1.8-1.9H22.6v-5.3h47.9c1,0,1.9-0.8,1.9-1.9V6.9C72.4,5.8,71.5,5,70.5,5z M257.4,40.8V22.1c0-2.3-0.7-4.2-2.1-5.9
	c-1.4-1.7-3.3-2.5-5.5-2.5H232c-2.2,0-4.1,0.8-5.5,2.5c-1.4,1.6-2.1,3.6-2.1,5.9v18.7h6.3v-8.6h20.5v8.6H257.4z M230.6,25.9v-3.8
	c0-1.4,0.4-2,1.3-2h17.8c0.9,0,1.4,0.7,1.4,2.1v3.8H230.6z M298,20.1h23.3v-6.3h-23.2c-2.2,0-4.1,0.8-5.5,2.5
	c-1.4,1.7-2.1,3.6-2.1,5.9c0,2.3,0.7,4.2,2.1,5.8c1.5,1.7,3.3,2.5,5.5,2.5H315c0.9,0,1.3,0.7,1.3,2c0,1.4-0.4,2-1.3,2h-23.2v6.3
	H315c2.2,0,4.1-0.8,5.5-2.5c1.4-1.6,2-3.6,2-5.8c0-2.3-0.7-4.2-2-5.8c-1.5-1.7-3.3-2.5-5.6-2.5H298c-0.9,0-1.3-0.7-1.3-2
	C296.7,20.7,297.1,20.1,298,20.1z M267.9,20.1h20.8v-6.3h-20.8c-2.4,0-4.5,0.8-6.2,2.4c-1.7,1.6-2.6,3.7-2.6,6.1v9.9
	c0,2.5,0.9,4.5,2.6,6.1c1.7,1.6,3.8,2.4,6.2,2.4h20.8v-6.3h-20.8c-1.7,0-2.5-0.7-2.5-2.3v-9.9C265.4,20.8,266.2,20.1,267.9,20.1z
	 M124.2,20.1v-6.3H95.5v27.1h28.7v-6.3h-22.4v-4.1h21v-6.3h-21v-4.1H124.2z M181.8,40.8c2.4,0,4.5-0.8,6.2-2.4
	c1.7-1.6,2.6-3.7,2.6-6.1v-9.9c0-2.5-0.9-4.5-2.6-6.1c-1.7-1.6-3.8-2.4-6.2-2.4H166c-2.4,0-4.5,0.8-6.2,2.4
	c-1.7,1.6-2.6,3.7-2.6,6.1v9.9c0,2.5,0.9,4.5,2.6,6.1c1.7,1.6,3.8,2.4,6.2,2.4H181.8z M163.5,32.2v-9.9c0-1.5,0.8-2.3,2.5-2.3h15.8
	c1.7,0,2.5,0.8,2.5,2.3v9.9c0,1.5-0.8,2.3-2.5,2.3H166C164.4,34.5,163.5,33.7,163.5,32.2z M134.7,20.1h20.8v-6.3h-20.8
	c-2.4,0-4.5,0.8-6.2,2.4c-1.7,1.6-2.6,3.7-2.6,6.1v9.9c0,2.5,0.9,4.5,2.6,6.1c1.7,1.6,3.8,2.4,6.2,2.4h20.8v-6.3h-20.8
	c-1.7,0-2.5-0.7-2.5-2.3v-9.9C132.2,20.8,133,20.1,134.7,20.1z M223.4,13.7h-7l-9.3,18.5l-9.5-18.5h-7l13.8,27.1h5.3L223.4,13.7z
	 M86.5,50H331v-3.7H86.5V50z M86.5,5v3.7H331V5H86.5z M105.5,67.1c0-0.3-0.1-0.7-0.1-1c0-0.3,0-0.6,0-0.8c0-0.4-0.1-0.8-0.2-1.1
	c-0.1-0.3-0.2-0.6-0.4-0.9c-0.2-0.3-0.4-0.5-0.7-0.6c-0.3-0.2-0.6-0.3-1.1-0.3v0c0.9-0.2,1.5-0.6,1.9-1.2c0.4-0.6,0.6-1.4,0.6-2.2
	c0-0.6-0.1-1.1-0.3-1.6c-0.2-0.4-0.5-0.8-0.9-1.1c-0.4-0.3-0.8-0.5-1.3-0.6c-0.5-0.1-1-0.2-1.5-0.2h-6.1v13.4h1.3v-5.9h4.8
	c0.6,0,1.1,0.1,1.4,0.3c0.3,0.2,0.6,0.5,0.8,0.9c0.2,0.4,0.3,0.8,0.3,1.3c0.1,0.5,0.1,0.9,0.1,1.4c0,0.1,0,0.3,0,0.5
	c0,0.2,0,0.4,0,0.6c0,0.2,0.1,0.4,0.1,0.6c0,0.2,0.1,0.3,0.2,0.5h1.4c-0.1-0.2-0.2-0.4-0.3-0.7C105.6,67.8,105.5,67.4,105.5,67.1z
	 M102.6,61.5c-0.4,0.1-0.7,0.2-1.1,0.2h-4.7v-5.3h4.7c1,0,1.7,0.2,2.2,0.7c0.5,0.5,0.7,1.1,0.7,2c0,0.4-0.1,0.8-0.2,1.1
	c-0.2,0.3-0.4,0.6-0.6,0.8C103.2,61.2,102.9,61.4,102.6,61.5z M137.9,57.2c-0.5-0.6-1.2-1.2-1.9-1.5c-0.8-0.4-1.7-0.6-2.7-0.6
	c-1,0-2,0.2-2.7,0.6c-0.8,0.4-1.4,0.9-2,1.5c-0.5,0.6-0.9,1.4-1.2,2.2c-0.3,0.8-0.4,1.7-0.4,2.6c0,0.9,0.1,1.8,0.4,2.6
	c0.3,0.8,0.7,1.6,1.2,2.2c0.5,0.6,1.2,1.1,2,1.5c0.8,0.4,1.7,0.6,2.7,0.6c1,0,1.9-0.2,2.7-0.6c0.8-0.4,1.4-0.9,1.9-1.5
	c0.5-0.6,0.9-1.4,1.2-2.2c0.3-0.8,0.4-1.7,0.4-2.6c0-0.9-0.1-1.8-0.4-2.6C138.8,58.6,138.4,57.8,137.9,57.2z M137.9,64.2
	c-0.2,0.7-0.5,1.3-0.9,1.9c-0.4,0.6-0.9,1-1.5,1.3c-0.6,0.3-1.4,0.5-2.3,0.5c-0.9,0-1.6-0.2-2.3-0.5c-0.6-0.3-1.2-0.8-1.5-1.3
	c-0.4-0.6-0.7-1.2-0.9-1.9c-0.2-0.7-0.3-1.4-0.3-2.1c0-0.7,0.1-1.5,0.3-2.1c0.2-0.7,0.5-1.3,0.9-1.9c0.4-0.6,0.9-1,1.5-1.3
	c0.6-0.3,1.4-0.5,2.3-0.5c0.9,0,1.6,0.2,2.3,0.5c0.6,0.3,1.1,0.8,1.5,1.3c0.4,0.6,0.7,1.2,0.9,1.9c0.2,0.7,0.3,1.4,0.3,2.1
	C138.2,62.8,138.1,63.5,137.9,64.2z M168.6,61.7L168.6,61.7c0.3-0.1,0.7-0.2,0.9-0.4c0.3-0.2,0.5-0.4,0.7-0.7
	c0.2-0.3,0.4-0.6,0.5-0.9c0.1-0.3,0.2-0.7,0.2-1c0-0.6-0.1-1.2-0.4-1.6c-0.2-0.4-0.5-0.8-0.9-1c-0.4-0.3-0.8-0.4-1.4-0.5
	c-0.5-0.1-1-0.2-1.6-0.2h-5.6v13.4h5.6c0.7,0,1.3-0.1,1.8-0.2c0.5-0.1,0.9-0.3,1.3-0.5c0.3-0.2,0.6-0.4,0.8-0.7
	c0.2-0.3,0.4-0.6,0.5-0.8c0.1-0.3,0.2-0.6,0.2-0.8c0-0.3,0-0.5,0-0.7c0-0.9-0.2-1.6-0.8-2.2C170.2,62.1,169.5,61.8,168.6,61.7z
	 M162.4,56.5h4.3c2,0,3,0.8,3,2.5c0,0.3-0.1,0.6-0.2,0.9c-0.1,0.3-0.3,0.5-0.6,0.7c-0.2,0.2-0.6,0.4-0.9,0.5
	c-0.4,0.1-0.8,0.2-1.3,0.2h-4.3V56.5z M169.9,66.2c-0.2,0.4-0.4,0.6-0.8,0.9c-0.3,0.2-0.7,0.4-1.1,0.4c-0.4,0.1-0.9,0.1-1.3,0.1
	h-4.3v-5.3h4.3c1.1,0,2,0.2,2.6,0.6c0.6,0.4,0.9,1.1,0.9,1.9C170.2,65.4,170.1,65.9,169.9,66.2z M203.4,57.2
	c-0.5-0.6-1.2-1.2-1.9-1.5c-0.8-0.4-1.7-0.6-2.7-0.6c-1,0-2,0.2-2.7,0.6c-0.8,0.4-1.4,0.9-2,1.5c-0.5,0.6-0.9,1.4-1.2,2.2
	c-0.3,0.8-0.4,1.7-0.4,2.6c0,0.9,0.1,1.8,0.4,2.6c0.3,0.8,0.6,1.6,1.2,2.2c0.5,0.6,1.2,1.1,2,1.5c0.8,0.4,1.7,0.6,2.7,0.6
	c1,0,2-0.2,2.7-0.6c0.8-0.4,1.4-0.9,1.9-1.5c0.5-0.6,0.9-1.4,1.2-2.2c0.3-0.8,0.4-1.7,0.4-2.6c0-0.9-0.1-1.8-0.4-2.6
	C204.3,58.6,203.9,57.8,203.4,57.2z M203.4,64.2c-0.2,0.7-0.5,1.3-0.9,1.9c-0.4,0.6-0.9,1-1.5,1.3c-0.6,0.3-1.4,0.5-2.3,0.5
	c-0.9,0-1.6-0.2-2.3-0.5c-0.6-0.3-1.1-0.8-1.5-1.3c-0.4-0.6-0.7-1.2-0.9-1.9c-0.2-0.7-0.3-1.4-0.3-2.1c0-0.7,0.1-1.5,0.3-2.1
	c0.2-0.7,0.5-1.3,0.9-1.9c0.4-0.6,0.9-1,1.5-1.3c0.6-0.3,1.4-0.5,2.3-0.5c0.9,0,1.6,0.2,2.3,0.5c0.6,0.3,1.1,0.8,1.5,1.3
	c0.4,0.6,0.7,1.2,0.9,1.9c0.2,0.7,0.3,1.4,0.3,2.1C203.7,62.8,203.6,63.5,203.4,64.2z M225.2,56.5h4.6v12.3h1.3V56.5h4.6v-1.1
	h-10.5V56.5z M256.6,68.7h1.3V55.4h-1.3V68.7z M289.8,65.3c-0.2,0.5-0.5,1-0.9,1.4c-0.4,0.4-0.8,0.7-1.3,0.9
	c-0.5,0.2-1,0.3-1.7,0.3c-0.9,0-1.6-0.2-2.3-0.5c-0.6-0.3-1.1-0.8-1.5-1.3c-0.4-0.6-0.7-1.2-0.9-1.9c-0.2-0.7-0.3-1.4-0.3-2.1
	c0-0.7,0.1-1.5,0.3-2.1c0.2-0.7,0.5-1.3,0.9-1.9c0.4-0.6,0.9-1,1.5-1.3c0.6-0.3,1.4-0.5,2.3-0.5c0.5,0,0.9,0.1,1.4,0.2
	c0.4,0.1,0.8,0.4,1.2,0.6c0.4,0.3,0.7,0.6,0.9,1c0.3,0.4,0.4,0.9,0.6,1.4h1.3c-0.1-0.7-0.3-1.3-0.6-1.9c-0.3-0.5-0.7-1-1.2-1.4
	c-0.5-0.4-1-0.6-1.6-0.8c-0.6-0.2-1.2-0.3-1.8-0.3c-1,0-2,0.2-2.7,0.6c-0.8,0.4-1.4,0.9-2,1.5c-0.5,0.6-0.9,1.4-1.2,2.2
	c-0.3,0.8-0.4,1.7-0.4,2.6c0,0.9,0.1,1.8,0.4,2.6c0.3,0.8,0.7,1.6,1.2,2.2c0.5,0.6,1.2,1.1,2,1.5c0.8,0.4,1.7,0.6,2.7,0.6
	c0.8,0,1.5-0.1,2.1-0.4c0.6-0.3,1.2-0.6,1.7-1.1c0.5-0.5,0.9-1,1.2-1.7c0.3-0.7,0.5-1.4,0.6-2.2h-1.3
	C290.1,64.2,290,64.8,289.8,65.3z M321.5,62.8c-0.3-0.3-0.7-0.5-1.1-0.7c-0.4-0.2-0.9-0.3-1.3-0.5l-3.2-0.8
	c-0.3-0.1-0.5-0.1-0.8-0.2c-0.2-0.1-0.5-0.2-0.6-0.4c-0.2-0.2-0.3-0.4-0.4-0.6c-0.1-0.2-0.2-0.5-0.2-0.8c0-0.5,0.1-0.9,0.3-1.3
	c0.2-0.3,0.4-0.6,0.7-0.8c0.3-0.2,0.7-0.4,1.1-0.4c0.4-0.1,0.8-0.1,1.3-0.1c0.5,0,0.9,0.1,1.3,0.2c0.4,0.1,0.8,0.3,1.1,0.6
	c0.3,0.3,0.6,0.6,0.8,1c0.2,0.4,0.3,0.8,0.3,1.3h1.3c0-0.7-0.1-1.3-0.4-1.8c-0.3-0.5-0.6-1-1.1-1.3c-0.4-0.3-1-0.6-1.6-0.8
	c-0.6-0.2-1.2-0.3-1.9-0.3c-0.9,0-1.7,0.1-2.3,0.4c-0.6,0.3-1.1,0.6-1.4,1c-0.3,0.4-0.6,0.8-0.7,1.2c-0.1,0.4-0.2,0.8-0.2,1.2
	c0,0.5,0.1,1,0.2,1.3c0.2,0.4,0.4,0.7,0.7,0.9c0.3,0.3,0.6,0.4,1,0.6c0.4,0.1,0.7,0.3,1.1,0.4l2.9,0.7c0.3,0.1,0.6,0.2,0.9,0.3
	c0.3,0.1,0.6,0.3,0.9,0.5c0.3,0.2,0.5,0.4,0.6,0.7c0.2,0.3,0.3,0.6,0.3,1c0,0.5-0.1,0.9-0.4,1.2c-0.2,0.3-0.5,0.6-0.9,0.8
	c-0.4,0.2-0.7,0.4-1.1,0.5c-0.4,0.1-0.8,0.1-1.1,0.1c-0.6,0-1.2-0.1-1.7-0.2c-0.5-0.1-1-0.3-1.4-0.6c-0.4-0.3-0.7-0.6-0.9-1.1
	c-0.2-0.5-0.3-1-0.3-1.7h-1.3c0,0.8,0.1,1.5,0.3,2.1c0.2,0.6,0.6,1.1,1.1,1.4c0.5,0.4,1,0.6,1.7,0.8c0.7,0.2,1.4,0.3,2.2,0.3
	c0.8,0,1.4-0.1,2-0.2c0.6-0.1,1-0.3,1.4-0.6c0.4-0.2,0.7-0.5,0.9-0.8c0.2-0.3,0.4-0.6,0.5-0.9c0.1-0.3,0.2-0.5,0.2-0.8
	c0-0.3,0-0.4,0-0.6c0-0.5-0.1-1-0.3-1.4C322.1,63.4,321.9,63.1,321.5,62.8z" />
</svg>