<?xml version="1.0" encoding="UTF-8" standalone="no"?>
<!-- Created with Inkscape (http://www.inkscape.org/) -->

<svg
   xmlns:dc="http://purl.org/dc/elements/1.1/"
   xmlns:cc="http://creativecommons.org/ns#"
   xmlns:rdf="http://www.w3.org/1999/02/22-rdf-syntax-ns#"
   xmlns:svg="http://www.w3.org/2000/svg"
   xmlns="http://www.w3.org/2000/svg"
   xmlns:sodipodi="http://sodipodi.sourceforge.net/DTD/sodipodi-0.dtd"
   xmlns:inkscape="http://www.inkscape.org/namespaces/inkscape"
   width="210mm"
   height="297mm"
   viewBox="0 0 210 297"
   version="1.1"
   id="svg440"
   inkscape:version="0.92.2 (5c3e80d, 2017-08-06)"
   sodipodi:docname="callback.svg">
  <defs
     id="defs434" />
  <sodipodi:namedview
     id="base"
     pagecolor="#ffffff"
     bordercolor="#666666"
     borderopacity="1.0"
     inkscape:pageopacity="0.0"
     inkscape:pageshadow="2"
     inkscape:zoom="0.35"
     inkscape:cx="400"
     inkscape:cy="560"
     inkscape:document-units="mm"
     inkscape:current-layer="layer1"
     showgrid="false"
     inkscape:window-width="1920"
     inkscape:window-height="1001"
     inkscape:window-x="1591"
     inkscape:window-y="-9"
     inkscape:window-maximized="1" />
  <metadata
     id="metadata437">
    <rdf:RDF>
      <cc:Work
         rdf:about="">
        <dc:format>image/svg+xml</dc:format>
        <dc:type
           rdf:resource="http://purl.org/dc/dcmitype/StillImage" />
        <dc:title></dc:title>
      </cc:Work>
    </rdf:RDF>
  </metadata>
  <g
     inkscape:label="Layer 1"
     inkscape:groupmode="layer"
     id="layer1">
    <g
       id="g352"
       transform="translate(17.426024,88.23015)">
      <path
         style="fill:#feecf1;stroke-width:0.26458335"
         d="m 90.466058,192.04936 c -0.08376,-0.21828 -0.321888,-0.39688 -0.529167,-0.39688 -0.207279,0 -0.445404,-0.17859 -0.529167,-0.39687 -0.08376,-0.21828 -0.289774,-0.39688 -0.457805,-0.39688 -0.412907,0 -8.694961,-8.24727 -8.701642,-8.6651 -0.0029,-0.1819 -0.124352,-0.33073 -0.269873,-0.33073 -0.165009,0 -0.264583,-1.5434 -0.264583,-4.10104 0,-2.55764 0.09957,-4.10104 0.264583,-4.10104 0.145521,0 0.264584,-0.12969 0.264584,-0.28819 0,-0.1585 0.540351,-0.81334 1.20078,-1.4552 1.079144,-1.04881 1.328662,-1.16703 2.463198,-1.16703 1.242309,0 1.303258,0.0406 3.826303,2.55142 2.307868,2.29665 2.563051,2.64672 2.555525,3.50573 -0.0083,0.9469 -0.95916,2.40952 -1.566448,2.40952 -0.152501,0 -0.277275,0.23812 -0.277275,0.52916 0,0.29104 0.128016,0.52917 0.28448,0.52917 0.156464,0 1.108964,0.85954 2.116667,1.9101 1.007703,1.05055 1.832738,1.79469 1.833411,1.65364 6.61e-4,-0.14105 0.363896,-0.6434 0.807161,-1.11634 0.650239,-0.69378 1.011336,-0.8599 1.869148,-0.8599 0.991309,0 1.231958,0.16985 3.558464,2.51153 l 2.495248,2.51153 v 1.40278 c 0,1.26637 -0.1009,1.51099 -1.03764,2.51555 -0.570705,0.61203 -1.166018,1.11278 -1.322917,1.11278 -0.156899,0 -0.285272,0.11906 -0.285272,0.26458 0,0.16493 -1.533966,0.26458 -4.072734,0.26458 -3.376132,0 -4.098783,-0.0679 -4.225029,-0.39687 z m 6.782461,-2.51354 c 0.369999,-0.29105 0.802774,-0.52917 0.961722,-0.52917 0.158949,0 0.288997,-0.29766 0.288997,-0.66146 0,-0.41157 -0.149931,-0.66146 -0.396875,-0.66146 -0.218281,0 -0.396875,-0.18974 -0.396875,-0.42164 0,-0.23191 -0.238125,-0.48392 -0.529167,-0.56003 -0.291041,-0.0761 -0.529166,-0.23814 -0.529166,-0.36008 0,-0.12193 -0.29535,-0.51704 -0.656334,-0.87803 l -0.656333,-0.65633 -0.732729,0.87265 c -0.933498,1.11176 -1.801164,1.56233 -2.615164,1.35803 -0.671827,-0.16862 -6.183562,-5.50247 -6.718122,-6.5013 -0.435105,-0.813 -0.149161,-1.64843 0.952481,-2.78282 l 0.952664,-0.98098 -1.613956,-1.58422 c -1.029333,-1.01037 -1.757452,-1.52916 -2.010106,-1.43221 -0.217884,0.0836 -0.396152,0.29146 -0.396152,0.46189 0,0.17042 -0.206995,0.46122 -0.45999,0.64621 -0.355568,0.26 -0.482338,0.82849 -0.55844,2.50427 -0.08555,1.88377 -0.02526,2.26692 0.45999,2.92325 0.307142,0.41543 0.55844,0.82352 0.55844,0.90686 0,0.28534 7.644672,7.8074 7.934667,7.8074 0.159249,0 0.54514,0.23812 0.857537,0.52917 0.46572,0.43388 0.933714,0.52916 2.599089,0.52916 1.630464,0 2.16379,-0.10437 2.703822,-0.52916 z m 6.538331,-8.7974 c -0.002,-1.05503 -0.0915,-2.04799 -0.19843,-2.20659 -0.10692,-0.1586 -0.69306,-0.64635 -1.30255,-1.0839 -0.95298,-0.68414 -1.36978,-0.80317 -2.97656,-0.85009 l -1.868405,-0.0546 v 1.1763 c 0,1.15267 -0.266603,1.49749 -1.157824,1.49749 -0.671128,0 -4.564778,-4.10751 -4.798727,-5.0623 -0.141435,-0.57722 0.01434,-0.87987 0.908549,-1.76519 0.593588,-0.58768 1.079252,-1.19692 1.079252,-1.35385 0,-0.15693 0.184787,-0.28533 0.410638,-0.28533 0.225851,0 0.535155,-0.35719 0.687342,-0.79375 0.256699,-0.73637 0.370466,-0.79375 1.573736,-0.79375 h 1.297034 v 0.90692 0.90693 l 1.3981,-0.1443 c 1.109281,-0.11449 1.614055,-0.0285 2.443475,0.41599 0.57496,0.30816 1.43783,0.56029 1.9175,0.56029 0.54997,0 0.93124,0.15409 1.03219,0.41715 0.088,0.22943 0.44149,0.52413 0.78545,0.65491 0.34395,0.13077 0.62537,0.4193 0.62537,0.64119 0,0.22188 0.11906,0.40342 0.26458,0.40342 0.16423,0 0.26459,1.45521 0.26459,3.83646 0,2.11005 -0.10518,3.83646 -0.23373,3.83646 -0.12855,0 -0.296,0.23812 -0.3721,0.52916 -0.10077,0.38532 -0.3609,0.52917 -0.9569,0.52917 h -0.81853 z m -7.293541,-6.36486 c 0.972024,-0.32401 6.142651,0.28678 6.640261,0.78439 0.46349,0.46349 0.65733,0.44868 0.65733,-0.0502 0,-0.22285 -0.20835,-0.47907 -0.46302,-0.56938 -0.25466,-0.0903 -0.64642,-0.32057 -0.87058,-0.51168 -0.27179,-0.23172 -1.41517,-0.37257 -3.432316,-0.42281 -2.862075,-0.0713 -3.041162,-0.10829 -3.32975,-0.68818 l -0.304992,-0.61285 -0.562169,0.71468 c -0.703522,0.89438 -0.700842,1.05186 0.03314,1.94752 0.560748,0.68425 0.603417,0.6955 0.734902,0.19375 0.07677,-0.29297 0.48051,-0.64632 0.89719,-0.78521 z"
         id="path384"
         inkscape:connector-curvature="0" />
      <path
         style="fill:#fee4ec;stroke-width:0.26458335"
         d="m 90.782224,192.2478 c -0.04851,-0.10915 -0.588091,-0.53782 -1.199075,-0.95261 -1.771705,-1.20279 -8.7949,-8.31923 -9.166875,-9.28858 -0.08617,-0.22456 -0.279478,-0.40829 -0.429566,-0.40829 -0.174913,0 -0.272887,-1.37733 -0.272887,-3.83628 v -3.83628 l 1.452344,-1.48756 c 1.219272,-1.24885 1.633259,-1.50745 2.579687,-1.61146 1.109337,-0.12192 1.163668,-0.0887 3.401451,2.08269 3.570768,3.46476 3.753834,4.00921 1.966756,5.84931 l -0.93239,0.96005 2.124651,2.1534 2.124651,2.1534 0.851321,-0.8425 c 1.871333,-1.85195 2.7868,-1.58744 5.98723,1.72989 2.042888,2.11751 2.140128,2.27339 2.140128,3.43044 0,1.0931 -0.11625,1.3216 -1.18378,2.32675 -0.651081,0.61303 -1.360431,1.26343 -1.576332,1.44533 -0.434183,0.36581 -7.70916,0.48814 -7.867314,0.1323 z m 7.069684,-2.91042 c 0.501544,-0.40018 0.911901,-0.81972 0.911906,-0.93231 4e-6,-0.11258 -0.761718,-0.97396 -1.692715,-1.91417 l -1.692723,-1.70947 -1.054275,1.05428 c -1.729886,1.72988 -2.186174,1.58537 -5.651804,-1.79 -1.60618,-1.56435 -3.0919,-3.17277 -3.301599,-3.57426 -0.464181,-0.88874 -0.209442,-1.50919 1.143212,-2.78447 l 0.92133,-0.86862 -1.623511,-1.57877 c -0.89293,-0.86833 -1.756426,-1.57877 -1.918879,-1.57877 -0.162453,0 -0.633411,0.37863 -1.046574,0.8414 -0.702968,0.78738 -0.751205,0.98896 -0.751205,3.13932 0,1.89728 0.09226,2.4152 0.529167,2.97064 0.291041,0.37 0.529166,0.73027 0.529166,0.80061 0,0.21138 7.446117,7.59386 7.659315,7.59386 0.10847,0 0.471778,0.23812 0.807352,0.52917 0.51174,0.44383 0.989902,0.52916 2.965037,0.52916 2.17153,0 2.425911,-0.0566 3.2668,-0.7276 z m 6.115382,-6.85712 c -0.097,-0.097 -0.17639,-1.04406 -0.17639,-2.10455 v -1.92815 l -1.22867,-0.93817 c -1.15004,-0.87812 -1.35323,-0.93816 -3.174998,-0.93816 h -1.946327 v 0.77211 c 0,2.35651 -1.020651,2.1985 -3.705804,-0.57367 -2.679174,-2.766 -2.694424,-2.97158 -0.395238,-5.32805 0.945885,-0.96945 1.719792,-1.87875 1.719792,-2.02068 0,-0.14192 0.528594,-0.25804 1.174653,-0.25804 1.16397,0 1.1754,0.009 1.256771,0.98156 l 0.08212,0.98155 1.366577,-0.0739 c 0.85661,-0.0463 1.666264,0.081 2.169674,0.34136 0.4417,0.22841 1.16006,0.41529 1.59635,0.41529 0.44996,0 1.07996,0.25764 1.45574,0.59532 0.36437,0.32742 0.96031,0.83343 1.32432,1.12447 0.64708,0.51738 0.6621,0.61026 0.67406,4.16719 0.007,2.00091 -0.0877,3.63802 -0.20988,3.63802 -0.12216,0 -0.35773,0.29766 -0.52349,0.66146 -0.28278,0.62062 -1.06401,0.88031 -1.45926,0.48507 z m -6.187206,-8.02369 c 2.219486,0.003 4.859726,0.45419 5.637976,0.96412 0.94174,0.61705 0.80909,-0.0454 -0.19222,-0.95997 -0.78307,-0.71523 -1.00641,-0.76831 -3.978413,-0.9457 -2.996215,-0.17883 -3.165447,-0.21977 -3.493038,-0.84499 l -0.34427,-0.65707 -0.572107,0.72732 c -0.730815,0.92908 -0.72417,1.614 0.02319,2.39051 l 0.5953,0.61852 0.339192,-0.64737 c 0.304621,-0.58139 0.506867,-0.64717 1.984386,-0.64537 z"
         id="path382"
         inkscape:connector-curvature="0" />
      <path
         style="fill:#fed8e4;stroke-width:0.26458335"
         d="m 90.826321,192.21763 c 0,-0.12573 -0.506015,-0.57221 -1.124479,-0.99218 -1.121505,-0.76157 -7.883737,-7.37577 -9.261774,-9.05903 -0.71191,-0.86959 -0.726247,-0.9573 -0.726247,-4.44294 0,-2.45534 0.102357,-3.6794 0.330729,-3.95509 1.023957,-1.23611 2.489608,-2.56827 3.067287,-2.7879 1.230575,-0.46786 2.033356,-0.0142 4.515933,2.55201 2.822322,2.9174 2.948822,3.36625 1.444143,5.12413 l -0.960658,1.12231 2.155585,2.14981 2.155586,2.14981 0.999041,-0.97554 c 0.781202,-0.76282 1.20912,-0.97554 1.962498,-0.97554 0.865876,0 1.219818,0.25762 3.494574,2.54349 2.395061,2.40676 2.531111,2.60338 2.531111,3.65766 0,1.13839 -0.12253,1.30596 -2.672316,3.65458 -0.428818,0.39499 -1.046954,0.46302 -4.206846,0.46302 -2.037292,0 -3.704167,-0.10287 -3.704167,-0.2286 z m 7.089247,-2.89323 c 0.479346,-0.36459 0.836534,-0.8135 0.79375,-0.99757 -0.08813,-0.37917 -3.06449,-3.55351 -3.331879,-3.55351 -0.09565,0 -0.623425,0.49176 -1.17283,1.0928 -1.560561,1.70723 -2.107627,1.49217 -5.862281,-2.3045 -3.616495,-3.65696 -3.735037,-3.99985 -1.96497,-5.68367 l 1.107287,-1.05334 -1.7026,-1.70443 c -0.936429,-0.93743 -1.785861,-1.70882 -1.887626,-1.71419 -0.101765,-0.005 -0.547698,0.3772 -0.990963,0.85014 -0.777305,0.82935 -0.80598,0.94642 -0.807161,3.29554 -0.0011,2.14696 0.0753,2.54841 0.644429,3.38707 0.786364,1.15877 7.351869,7.70904 8.534966,8.51516 1.504569,1.02515 5.217016,0.95275 6.639878,-0.1295 z m 6.192832,-6.98525 c -0.18133,-0.18134 -0.31923,-1.06073 -0.32155,-2.05052 -0.004,-1.92076 -0.0246,-1.96812 -1.27302,-2.99405 -0.79478,-0.65315 -1.08363,-0.72335 -2.976559,-0.72335 h -2.096366 v 0.74318 c 0,1.04596 -0.569025,1.74506 -1.24559,1.53032 -0.909449,-0.28864 -4.57103,-4.18163 -4.573262,-4.86228 -0.0013,-0.39358 0.644072,-1.26341 1.850102,-2.49359 1.018646,-1.03904 1.852083,-1.98745 1.852083,-2.10757 0,-0.12011 0.469063,-0.21839 1.042362,-0.21839 1.013519,0 1.044634,0.0274 1.124479,0.99219 0.07948,0.96031 0.111577,0.98927 0.999182,0.90146 0.504386,-0.0499 1.575949,0.0935 2.381249,0.31857 0.8053,0.22511 1.76909,0.47092 2.14174,0.54623 0.37265,0.0753 1.23586,0.66429 1.91823,1.30885 l 1.24068,1.17193 v 3.4658 c 0,2.18995 -0.0998,3.4658 -0.27114,3.4658 -0.14912,0 -0.3843,0.29766 -0.52262,0.66146 -0.27195,0.71529 -0.7651,0.84886 -1.27,0.34396 z m -8.254995,-7.21043 c 0,-0.74316 1.581766,-0.86327 4.950125,-0.3759 1.13374,0.16405 2.27042,0.48082 2.52598,0.70394 0.55375,0.48348 0.75523,0.35744 0.56872,-0.35576 -0.27552,-1.05359 -1.61624,-1.51229 -4.812858,-1.6466 -2.847622,-0.11965 -3.001583,-0.15569 -3.328205,-0.77907 l -0.342465,-0.65362 -0.695637,0.82672 c -0.75409,0.89618 -0.717641,1.3582 0.182447,2.31265 0.560388,0.59423 0.951893,0.58092 0.951893,-0.0324 z"
         id="path380"
         inkscape:connector-curvature="0" />
      <path
         style="fill:#fec8d9;stroke-width:0.26458335"
         d="m 90.958613,192.16362 c -0.145521,-0.14089 -0.740833,-0.61557 -1.322917,-1.05484 -1.673898,-1.26323 -9.128125,-8.73715 -9.128125,-9.15225 0,-0.20615 -0.178594,-0.44335 -0.396875,-0.52712 -0.325677,-0.12497 -0.396875,-0.79352 -0.396875,-3.72669 v -3.5744 l 1.576118,-1.55667 c 1.396272,-1.37904 1.697345,-1.55667 2.638528,-1.55667 0.980037,0 1.246172,0.18047 3.432445,2.32754 2.781301,2.73144 3.030595,3.32175 2.036911,4.82331 -0.382622,0.57818 -0.81305,1.05124 -0.956506,1.05124 -0.658576,0 -0.101794,0.8589 1.770488,2.73118 1.117225,1.11722 2.116664,2.03132 2.220977,2.03132 0.104313,0 0.573337,-0.35841 1.042274,-0.79646 1.745374,-1.63043 2.625902,-1.31614 5.90748,2.10856 2.505084,2.61434 2.609824,3.20479 0.898494,5.06517 -0.616186,0.66985 -1.328693,1.29119 -1.583354,1.38076 -0.254662,0.0896 -0.463021,0.28566 -0.463021,0.43575 0,0.35365 -6.910249,0.34441 -7.276042,-0.01 z m 6.953935,-2.62711 c 0.4682,-0.34616 0.851273,-0.85965 0.851273,-1.14109 0,-0.44795 -2.940618,-3.6221 -3.355608,-3.6221 -0.0864,0 -0.67376,0.47625 -1.305246,1.05833 -0.631485,0.58208 -1.413454,1.05833 -1.737707,1.05833 -0.820358,0 -7.095189,-6.27483 -7.095189,-7.09519 0,-0.32425 0.47625,-1.10622 1.058333,-1.7377 0.582084,-0.63149 1.058334,-1.21571 1.058334,-1.29827 0,-0.25062 -3.194717,-3.22469 -3.553516,-3.30808 -0.184067,-0.0428 -0.680217,0.37393 -1.102555,0.92604 -0.708503,0.9262 -0.767888,1.17775 -0.767888,3.25279 0,1.85526 0.101388,2.41106 0.579172,3.175 0.879099,1.40559 8.305736,8.65062 9.350849,9.12217 1.445126,0.65205 4.914157,0.42717 6.019748,-0.39023 z m 6.038952,-7.56296 c -0.0883,-0.23018 -0.1606,-1.16275 -0.1606,-2.07238 0,-1.59857 -0.0338,-1.68105 -1.01132,-2.4666 -0.90487,-0.72717 -1.23097,-0.82189 -3.097921,-0.8998 l -2.086593,-0.0871 -0.216674,1.04286 c -0.413459,1.98999 -1.073621,1.79455 -3.838712,-1.13643 -1.054267,-1.11751 -1.917471,-2.24098 -1.918229,-2.4966 -7.59e-4,-0.25561 0.832058,-1.3132 1.850704,-2.35019 1.018646,-1.037 1.852083,-1.98872 1.852083,-2.11494 0,-0.12622 0.47625,-0.22949 1.058333,-0.22949 1.054489,0 1.058334,0.004 1.058334,1.03576 v 1.03575 l 1.653646,0.12411 c 3.234629,0.24275 4.858739,0.86909 6.484459,2.50073 0.55109,0.55311 0.59315,0.82982 0.59315,3.90261 0,2.08172 -0.10048,3.30729 -0.27114,3.30729 -0.14912,0 -0.3843,0.29766 -0.52262,0.66146 -0.28343,0.74549 -1.17575,0.89741 -1.4269,0.24294 z m 0.0958,-6.75719 c -0.63065,-1.35689 -1.47817,-1.67752 -4.709839,-1.78184 -2.963573,-0.0957 -3.003492,-0.10542 -3.452953,-0.8445 l -0.454718,-0.74772 -0.714234,0.89512 c -0.862992,1.08155 -0.862353,1.06995 -0.118922,2.16199 0.619887,0.91055 1.256771,1.15913 1.256771,0.49051 0,-0.21316 0.258217,-0.52576 0.573815,-0.69467 0.810124,-0.43356 5.84242,0.17564 6.93391,0.83941 0.95281,0.57944 1.07671,0.52197 0.68617,-0.3183 z"
         id="path378"
         inkscape:connector-curvature="0" />
      <path
         style="fill:#feb1ca;stroke-width:0.26458335"
         d="m 91.090905,192.2265 c 0,-0.12085 -0.565547,-0.62323 -1.256771,-1.11639 -1.772848,-1.26487 -9.326563,-8.85034 -9.326563,-9.36577 0,-0.23497 -0.178594,-0.49575 -0.396875,-0.57951 -0.323236,-0.12404 -0.396875,-0.7607 -0.396875,-3.43128 0,-2.75752 0.07364,-3.35785 0.463021,-3.77493 2.130899,-2.28242 2.601371,-2.70762 3.147677,-2.84473 1.145254,-0.28744 1.844353,0.13896 4.15116,2.5319 2.700659,2.80151 2.823784,3.26762 1.325524,5.018 l -0.966785,1.12947 2.266189,2.26619 2.266189,2.26619 1.129471,-0.96679 c 1.799069,-1.53994 2.253785,-1.40743 5.227775,1.52343 2.262778,2.22996 2.526858,2.58967 2.526858,3.4418 0,0.76875 -0.22409,1.17992 -1.16633,2.13999 -0.64149,0.65363 -1.323883,1.18841 -1.516433,1.18841 -0.192549,0 -0.418623,0.1786 -0.502385,0.39688 -0.124477,0.32438 -0.775402,0.39687 -3.563571,0.39687 -1.876202,0 -3.411276,-0.0989 -3.411276,-0.21973 z m 7.025143,-2.81548 c 0.501797,-0.38273 0.912357,-0.84185 0.912357,-1.02024 0,-0.1784 -0.820836,-1.13891 -1.824081,-2.13447 l -1.82408,-1.8101 -1.182071,1.0896 c -0.711218,0.65557 -1.439161,1.08959 -1.827495,1.08959 -0.475,0 -1.499511,-0.86392 -3.879971,-3.27177 -3.651887,-3.69392 -3.641939,-3.66234 -1.749672,-5.55461 l 0.99539,-0.99539 -1.688555,-1.7037 c -0.928704,-0.93703 -1.878077,-1.7037 -2.109717,-1.7037 -0.231639,0 -0.77086,0.36495 -1.198268,0.81099 -0.712706,0.74377 -0.784835,0.99586 -0.87037,3.04193 -0.07936,1.89825 -0.0063,2.39876 0.49,3.3562 0.578073,1.11524 7.005134,7.7029 8.672127,8.88883 1.721769,1.22489 5.426477,1.18141 7.084406,-0.0832 z m 6.089192,-7.32768 c -0.0633,-0.194 -0.15838,-1.15741 -0.21126,-2.14091 -0.0894,-1.66326 -0.15977,-1.8413 -1.00683,-2.54846 -0.7852,-0.65551 -1.2168,-0.7851 -3.13235,-0.94053 -1.221918,-0.0992 -2.315963,-0.0834 -2.43121,0.0349 -0.115248,0.11835 -0.247795,0.63189 -0.29455,1.14122 -0.148308,1.61556 -0.88543,1.36193 -3.334767,-1.14744 -1.195811,-1.22512 -2.171612,-2.39087 -2.168446,-2.59055 0.0032,-0.19968 0.896134,-1.25584 1.984375,-2.34703 1.088241,-1.09119 1.978619,-2.07345 1.978619,-2.18281 0,-0.10936 0.357188,-0.19884 0.79375,-0.19884 0.718293,0 0.794136,0.0817 0.797802,0.8599 0.0053,1.11561 0.349207,1.64547 0.924764,1.42461 0.611673,-0.23473 4.859823,0.5688 5.685763,1.07545 0.36381,0.22316 1.04842,0.81524 1.52136,1.31574 l 0.8599,0.91 v 3.02798 c 0,1.72576 -0.10758,3.02799 -0.25015,3.02799 -0.13758,0 -0.40547,0.31863 -0.59531,0.70806 -0.3938,0.80783 -0.95146,1.09162 -1.12146,0.57071 z m 0.644,-5.67931 c 0,-0.092 -0.24413,-0.56222 -0.54251,-1.045 -0.93097,-1.50636 -1.88471,-1.89338 -5.184399,-2.10381 -2.846894,-0.18155 -2.959811,-0.21207 -3.267978,-0.88341 l -0.319197,-0.69537 -0.890388,1.02607 c -0.975343,1.12396 -0.949505,1.37364 0.279362,2.69961 l 0.648694,0.69996 0.331881,-0.7284 0.331881,-0.7284 3.02396,0.17271 c 2.446794,0.13974 3.205594,0.28352 3.975594,0.75327 0.5234,0.31931 0.99133,0.67493 1.03983,0.79027 0.1046,0.24871 0.57327,0.28346 0.57327,0.0425 z"
         id="path376"
         inkscape:connector-curvature="0" />
      <path
         style="fill:#fe97b8;stroke-width:0.26458335"
         d="m 91.355488,192.22621 c 0,-0.12101 -0.56571,-0.58659 -1.257134,-1.03462 -1.572652,-1.01904 -9.590783,-9.14159 -9.590783,-9.71568 0,-0.23285 -0.178594,-0.4919 -0.396875,-0.57566 -0.581027,-0.22296 -0.577091,-5.97323 0.0045,-6.64412 0.220783,-0.25466 0.757289,-0.89628 1.192236,-1.42583 0.905789,-1.10278 2.424357,-1.91932 3.144457,-1.69076 0.800426,0.25404 5.316051,5.08191 5.316051,5.68364 0,0.29715 -0.416719,1.00154 -0.926042,1.5653 -0.509323,0.56376 -0.926041,1.15816 -0.926041,1.3209 0,0.29302 4.060467,4.31866 4.531906,4.49305 0.134668,0.0498 0.626119,-0.28219 1.092111,-0.73778 1.681992,-1.64446 2.646034,-1.30453 5.732593,2.02135 2.372263,2.55621 2.443753,3.12307 0.615786,4.88243 -0.691224,0.66528 -1.465131,1.28215 -1.719792,1.37082 -0.254661,0.0887 -0.463021,0.28401 -0.463021,0.4341 0,0.1723 -1.170313,0.27288 -3.175,0.27288 -1.74625,0 -3.175,-0.099 -3.175,-0.22002 z m 6.680729,-2.57372 c 1.41283,-0.93034 1.304573,-1.50704 -0.653815,-3.48299 -0.905301,-0.91342 -1.755189,-1.66077 -1.88864,-1.66077 -0.133451,0 -0.759309,0.47625 -1.390795,1.05834 -0.631485,0.58208 -1.413239,1.05833 -1.737231,1.05833 -0.818487,0 -6.831082,-6.01259 -6.831082,-6.83108 0,-0.32399 0.478069,-1.10772 1.062376,-1.74162 0.644543,-0.69924 0.994662,-1.29527 0.890208,-1.51544 -0.09469,-0.1996 -0.919596,-1.05724 -1.83312,-1.90588 -1.858508,-1.7265 -2.182257,-1.73876 -3.330503,-0.1262 -0.510478,0.7169 -0.603786,1.18964 -0.613712,3.10939 -0.0097,1.87941 0.08623,2.42125 0.564898,3.19 0.881599,1.41586 8.887855,9.20512 9.625605,9.36471 0.355139,0.0768 0.883832,0.19675 1.174874,0.26649 1.247036,0.29885 3.970655,-0.13118 4.960937,-0.78328 z m 6.195663,-7.7014 c -0.097,-0.097 -0.17639,-0.96378 -0.17639,-1.92615 0,-1.67236 -0.043,-1.79028 -0.97088,-2.66553 -0.96013,-0.90561 -0.99751,-0.91578 -3.373441,-0.91811 l -2.402556,-0.002 -0.08144,0.84019 c -0.04479,0.46211 -0.260033,0.98841 -0.478315,1.16957 -0.333416,0.27671 -0.754028,-0.0259 -2.630539,-1.89268 -1.228515,-1.22213 -2.233664,-2.42393 -2.233664,-2.67066 0,-0.24672 0.833437,-1.29201 1.852083,-2.32285 1.018646,-1.03085 1.852083,-1.99247 1.852083,-2.13694 0,-0.14447 0.357188,-0.26267 0.79375,-0.26267 0.745476,0 0.79375,0.0624 0.79375,1.02594 0,1.05942 0.539885,1.80802 1.06837,1.4814 0.16379,-0.10123 1.270334,-0.0375 2.458989,0.14155 2.35391,0.35464 4.17575,1.25643 4.65259,2.30298 0.15145,0.33241 0.39699,0.60438 0.54563,0.60438 0.16757,0 0.27026,1.1058 0.27026,2.91042 0,1.85983 -0.10048,2.91041 -0.27835,2.91041 -0.15309,0 -0.40287,0.35719 -0.55505,0.79375 -0.26222,0.75221 -0.71789,1.00636 -1.10688,0.61736 z m 0.61736,-5.49702 c 0,-0.69294 -1.02106,-2.12797 -1.87156,-2.63038 -0.62572,-0.36962 -1.56463,-0.52854 -3.728609,-0.63111 -2.878285,-0.13643 -2.894244,-0.14086 -3.294786,-0.91542 l -0.402493,-0.77834 -0.896513,1.01485 c -0.493083,0.55817 -0.90147,1.14451 -0.907527,1.30298 -0.01572,0.41136 1.387742,2.20426 1.734492,2.21577 0.159663,0.005 0.409483,-0.25746 0.555155,-0.58392 0.254915,-0.57129 0.373147,-0.59013 3.149005,-0.50173 2.498586,0.0796 3.034506,0.17997 4.008906,0.75101 0.61862,0.36253 1.12476,0.7669 1.12476,0.89859 0,0.1317 0.11906,0.23945 0.26458,0.23945 0.14553,0 0.26459,-0.17179 0.26459,-0.38175 z"
         id="path374"
         inkscape:connector-curvature="0" />
      <path
         style="fill:#fe84ac;stroke-width:0.26458335"
         d="m 91.575974,192.19709 c -0.04851,-0.13702 -0.602151,-0.59331 -1.230321,-1.01396 -1.71361,-1.14751 -9.336224,-8.79646 -9.749573,-9.78325 -0.198107,-0.47294 -0.477658,-0.8599 -0.621226,-0.8599 -0.155081,0 -0.261033,-1.12762 -0.261033,-2.77812 0,-3.06345 -0.100379,-2.82496 2.181935,-5.18411 1.877335,-1.94055 2.309538,-1.85477 5.240354,1.04 2.719018,2.68557 2.909648,3.265 1.584297,4.81556 -0.430648,0.50383 -0.787836,1.09744 -0.79375,1.31913 -0.0138,0.51709 3.975024,4.4952 4.493018,4.48096 0.215062,-0.006 0.803243,-0.3631 1.307069,-0.79375 1.575707,-1.34685 2.148714,-1.15035 4.964823,1.70259 1.829853,1.85379 2.453503,2.66064 2.453503,3.17424 0,0.85897 -1.656558,2.7505 -2.844269,3.24771 -0.472943,0.19799 -0.859896,0.47744 -0.859896,0.62101 0,0.33782 -5.74543,0.34947 -5.864931,0.0119 z m 4.624264,-1.70837 c 1.67027,-0.393 2.828167,-1.25948 2.828167,-2.11638 0,-0.64098 -3.095149,-3.86361 -3.710767,-3.86361 -0.230319,0 -0.822662,0.41672 -1.316317,0.92604 -1.471654,1.51837 -1.842649,1.36592 -5.371887,-2.20733 -1.702129,-1.72335 -3.09478,-3.27382 -3.09478,-3.44549 0,-0.17167 0.47625,-0.82879 1.058334,-1.46028 0.582083,-0.63149 1.058333,-1.31023 1.058333,-1.50832 0,-0.52712 -3.212469,-3.6817 -3.749258,-3.6817 -0.25149,0 -0.811628,0.37918 -1.244753,0.84262 -1.068011,1.14277 -1.456691,3.28134 -0.973871,5.35836 0.40666,1.7494 0.35352,1.67993 4.633339,6.05652 3.769336,3.85457 4.956498,4.77602 6.63467,5.14969 1.602342,0.35678 1.513601,0.35815 3.24879,-0.0501 z m 8.262592,-8.69197 c -0.0579,-0.1819 -0.18006,-1.11011 -0.27155,-2.06269 -0.1531,-1.59405 -0.24413,-1.79419 -1.14326,-2.51354 -0.84342,-0.67478 -1.26614,-0.80178 -3.093573,-0.92945 -2.522583,-0.17623 -2.778126,-0.11334 -2.778126,0.68371 0,0.9456 -0.275877,1.44854 -0.794571,1.44854 -0.575177,0 -4.554323,-4.16349 -4.443544,-4.6494 0.142141,-0.62347 4.227407,-4.61102 4.72402,-4.61102 0.391011,0 0.500743,0.24376 0.565744,1.25677 l 0.08064,1.25677 2.625839,0.21433 c 2.882941,0.23532 4.694531,0.99714 5.245211,2.20576 0.15603,0.34244 0.44317,0.62262 0.63809,0.62262 0.27365,0 0.35441,0.63303 0.35441,2.77812 0,1.76562 -0.10136,2.77813 -0.27809,2.77813 -0.15295,0 -0.4522,0.41672 -0.66501,0.92604 -0.41156,0.98502 -0.59653,1.12873 -0.76623,0.59531 z m 0.55273,-5.08651 c 0.20307,-0.52918 -0.73773,-1.99178 -1.77401,-2.75793 -0.70817,-0.52358 -1.24447,-0.64516 -3.258033,-0.73865 -3.192169,-0.14822 -3.566065,-0.24514 -3.916997,-1.01535 -0.271887,-0.59673 -1.005174,-0.92822 -1.00809,-0.45572 -6.61e-4,0.10914 -0.362722,0.58413 -0.804552,1.05554 -0.901657,0.96202 -0.850199,1.23403 0.516521,2.73039 l 0.766326,0.83902 0.453353,-0.6919 c 0.427713,-0.65278 0.575081,-0.69174 2.605736,-0.68899 3.130596,0.004 3.967766,0.20338 4.973826,1.18318 1.0212,0.99455 1.24024,1.07642 1.44592,0.54041 z"
         id="path372"
         inkscape:connector-curvature="0" />
      <path
         style="fill:#fe78a3;stroke-width:0.26458335"
         d="m 91.884655,192.18703 c 0,-0.14257 -0.506016,-0.51633 -1.12448,-0.83059 -1.406764,-0.71481 -9.328084,-8.48316 -10.017726,-9.82427 -0.280619,-0.5457 -0.626859,-0.99219 -0.769422,-0.99219 -0.152762,0 -0.259206,-1.14085 -0.259206,-2.77812 0,-1.52797 0.109257,-2.77813 0.242793,-2.77813 0.133536,0 0.460958,-0.44411 0.727604,-0.98691 0.563833,-1.14778 2.50863,-2.71725 3.367055,-2.71725 0.771914,0 5.452132,4.7216 5.452132,5.50034 0,0.2995 -0.42881,1.10631 -0.952911,1.79292 l -0.95291,1.24838 2.370629,2.37063 2.37063,2.37063 1.24838,-0.95291 c 0.686609,-0.5241 1.459522,-0.95291 1.717584,-0.95291 0.636441,0 2.276659,1.23105 3.744582,2.81047 1.658911,1.7849 2.170561,2.62221 1.976321,3.23422 -0.13817,0.43534 -1.324732,1.61035 -3.386368,3.35342 -0.541036,0.45743 -5.754687,0.57727 -5.754687,0.13227 z m 4.297175,-1.62452 c 1.504046,-0.30206 3.111158,-1.41617 3.111158,-2.15679 0,-0.29101 -3.595636,-4.16157 -3.865984,-4.16157 -0.03882,0 -0.620846,0.47625 -1.293391,1.05833 -0.672545,0.58209 -1.477758,1.05834 -1.789363,1.05834 -0.820603,0 -6.545012,-5.77046 -6.545012,-6.59766 0,-0.35762 0.460307,-1.11858 1.089594,-1.80128 l 1.089595,-1.18207 -1.810103,-1.82408 c -2.084186,-2.10028 -2.662608,-2.25068 -3.654515,-0.95022 -0.99373,1.30285 -1.34812,3.31763 -0.934186,5.31105 0.335789,1.61709 0.3454,1.62929 4.857722,6.163 3.981119,3.99998 4.679315,4.59046 5.844185,4.9425 1.641308,0.49604 2.055426,0.51095 3.9003,0.14045 z m 8.07469,-10.58159 c -0.12587,-1.75918 -0.19755,-1.93794 -1.09847,-2.73945 -0.87791,-0.78103 -1.16688,-0.87307 -3.242212,-1.03259 -2.470437,-0.18989 -3.086189,0.0184 -2.959366,1.00106 0.07974,0.61785 -0.21058,1.21338 -0.591521,1.21338 -0.295286,0 -4.479388,-4.26963 -4.479928,-4.5715 -2.03e-4,-0.11323 0.8926,-1.11934 1.984007,-2.23581 1.091406,-1.11647 1.984375,-2.12515 1.984375,-2.24152 0,-0.11638 0.238125,-0.21159 0.529166,-0.21159 0.483215,0 0.659964,0.28618 0.550189,0.89083 -0.02291,0.12615 0.08718,0.6197 0.244629,1.09678 l 0.286272,0.86741 2.357671,0.0317 c 1.296718,0.0174 2.571518,0.12308 2.832888,0.23476 1.13192,0.48363 2.18049,1.28039 2.58398,1.96345 0.23909,0.40474 0.54704,0.73589 0.68433,0.73589 0.13795,0 0.24963,1.06527 0.24963,2.38125 0,2.02848 -0.0784,2.45965 -0.52917,2.91042 -0.29104,0.29104 -0.52917,0.76729 -0.52917,1.05833 0,0.29104 -0.16259,0.52917 -0.36132,0.52917 -0.25889,0 -0.3995,-0.53353 -0.49598,-1.88198 z m 0.80795,-3.61655 c 0.0538,-0.36474 -0.29393,-0.97113 -0.98978,-1.72604 -0.97363,-1.05626 -1.2426,-1.19181 -2.91203,-1.46751 -1.01162,-0.16706 -2.50354,-0.30375 -3.315373,-0.30375 -1.317707,0 -1.508393,-0.071 -1.777441,-0.66146 -0.165759,-0.3638 -0.399729,-0.66146 -0.519933,-0.66146 -0.305921,0 -2.061886,1.9229 -2.070599,2.26745 -0.0039,0.15569 0.345602,0.67819 0.776754,1.16112 0.431152,0.48292 0.840619,1.01038 0.909926,1.17213 0.07189,0.16779 0.401317,-0.029 0.76705,-0.45818 l 0.641037,-0.75227 2.942571,0.19071 c 1.973748,0.12793 3.041798,0.31027 3.243938,0.55384 0.16575,0.19971 0.46436,0.36312 0.66359,0.36312 0.19923,0 0.51115,0.23843 0.69314,0.52985 0.40338,0.64592 0.83522,0.55129 0.94715,-0.20755 z"
         id="path370"
         inkscape:connector-curvature="0" />
      <path
         style="fill:#fe6798;stroke-width:0.26458335"
         d="m 92.016946,192.16572 c -0.145521,-0.13973 -0.978958,-0.71959 -1.852083,-1.28857 -2.061861,-1.34363 -8.942124,-8.3215 -9.484107,-9.61865 -0.225922,-0.5407 -0.535905,-0.9831 -0.688851,-0.9831 -0.364736,0 -0.372654,-4.67267 -0.0087,-5.1044 0.148189,-0.17576 0.601099,-0.8285 1.006468,-1.45053 0.778146,-1.19406 2.36477,-2.4409 3.10607,-2.4409 0.534379,0 4.511241,3.80825 5.042429,4.82864 0.327863,0.62981 0.328157,0.82548 0.0022,1.45584 -0.207119,0.40052 -0.626896,0.95476 -0.932836,1.23163 -0.305946,0.27687 -0.556261,0.69594 -0.556261,0.93126 0,0.54958 4.242273,4.78179 4.793166,4.78179 0.229068,0 0.643018,-0.25031 0.91989,-0.55625 0.546939,-0.60436 1.745932,-1.29583 2.246945,-1.29583 0.172349,0 1.428418,1.0935 2.791264,2.42999 3.0718,3.01241 3.17052,3.46432 1.166321,5.33901 -0.72137,0.67476 -1.499014,1.22683 -1.728096,1.22683 -0.229083,0 -0.485047,0.1786 -0.568809,0.39688 -0.120551,0.31415 -0.656529,0.39412 -2.571384,0.38364 -1.330499,-0.007 -2.538151,-0.12755 -2.683672,-0.26728 z m 6.085417,-2.31353 c 1.628907,-1.13178 1.550102,-1.66063 -0.565073,-3.79214 -0.991092,-0.99875 -1.937243,-1.8159 -2.102559,-1.8159 -0.165316,0 -0.841623,0.47625 -1.502905,1.05833 -0.661282,0.58209 -1.360866,1.05834 -1.554631,1.05834 -0.523378,0 -6.577957,-6.13479 -6.577957,-6.6651 0,-0.25061 0.474766,-0.96685 1.055035,-1.59164 0.580269,-0.62478 1.056519,-1.21295 1.058333,-1.30704 0.0051,-0.26359 -3.723554,-3.92997 -3.996708,-3.92997 -0.132604,0 -0.659548,0.38695 -1.170987,0.85989 -1.235243,1.14227 -1.703822,3.36626 -1.196169,5.67732 0.329776,1.50129 0.43198,1.6278 5.005552,6.19617 5.221934,5.21599 5.411591,5.32823 8.637652,5.11151 1.468284,-0.0986 2.071398,-0.27681 2.910417,-0.85977 z m 6.178027,-9.92049 c -0.0918,-1.81886 -0.15125,-1.97933 -1.02111,-2.75864 -0.82543,-0.73951 -1.16054,-0.84731 -3.15331,-1.01442 -2.558124,-0.21452 -3.004645,-0.045 -3.194232,1.21271 -0.07276,0.48269 -0.257878,0.91902 -0.411372,0.96962 -0.153494,0.0506 -1.272362,-0.92562 -2.486373,-2.16938 l -2.207292,-2.2614 0.634289,-0.69191 c 0.34886,-0.38054 1.259368,-1.30909 2.023352,-2.06342 0.763985,-0.75434 1.389063,-1.51112 1.389063,-1.68174 0,-0.17062 0.238125,-0.31022 0.529166,-0.31022 0.408966,0 0.529167,0.17639 0.529167,0.77653 0,0.42708 0.116116,1.08193 0.258035,1.4552 0.251533,0.66159 0.320229,0.67869 2.726324,0.67869 2.277393,0 2.563253,0.0602 3.696123,0.77866 0.67531,0.42827 1.41605,1.14265 1.64609,1.5875 0.23005,0.44486 0.53427,0.80884 0.67606,0.80884 0.14823,0 0.25779,1.01198 0.25779,2.38125 0,1.48818 -0.1043,2.38125 -0.27809,2.38125 -0.15295,0 -0.4522,0.41672 -0.66501,0.92604 -0.21281,0.50932 -0.49137,0.92604 -0.61904,0.92604 -0.12766,0 -0.276,-0.86904 -0.32963,-1.9312 z m 0.78504,-3.44886 c 0.0963,-0.8138 -0.61166,-1.83455 -1.91609,-2.76266 -0.74791,-0.53215 -1.30024,-0.644 -3.842186,-0.7781 -2.764298,-0.14583 -2.98428,-0.19758 -3.194907,-0.75157 -0.124411,-0.32723 -0.336381,-0.66305 -0.471044,-0.74628 -0.220381,-0.1362 -2.179349,1.94859 -2.216646,2.35902 -0.033,0.36319 1.7535,2.5034 2.089673,2.5034 0.195925,0 0.454702,-0.2662 0.57506,-0.59156 0.211521,-0.5718 0.317993,-0.58863 3.18655,-0.50366 2.4888,0.0737 3.11236,0.17986 3.86401,0.65771 0.49296,0.31339 0.97028,0.78471 1.06071,1.04739 0.23267,0.67582 0.76518,0.4088 0.86487,-0.43369 z"
         id="path368"
         inkscape:connector-curvature="0" />
      <path
         style="fill:#fe548c;stroke-width:0.26458335"
         d="m 92.413821,192.22183 c 0,-0.12342 -0.506015,-0.44602 -1.124479,-0.71689 -1.589122,-0.69598 -9.876496,-8.85109 -10.537833,-10.36964 -0.269344,-0.61847 -0.61301,-1.12448 -0.763702,-1.12448 -0.167437,0 -0.273986,-0.87459 -0.273986,-2.24896 0,-1.23693 0.104618,-2.24896 0.232484,-2.24896 0.127866,0 0.384979,-0.38695 0.571362,-0.8599 0.412308,-1.04622 1.413787,-2.16902 2.576543,-2.88868 0.834179,-0.51629 0.893578,-0.51899 1.576177,-0.0717 0.390133,0.25562 1.57763,1.33307 2.638883,2.39432 2.222224,2.22222 2.368363,2.78017 1.135801,4.33641 -0.436562,0.5512 -0.79375,1.16628 -0.79375,1.36683 0,0.49665 4.278641,4.72128 4.768027,4.70783 0.215241,-0.006 0.80357,-0.3631 1.307396,-0.79375 1.540277,-1.31656 2.116409,-1.12934 4.808249,1.5625 1.748277,1.74828 2.345497,2.52068 2.345497,3.0335 0,0.96047 -1.362209,2.41358 -2.924485,3.11964 -0.719868,0.32534 -1.30885,0.68936 -1.30885,0.80894 0,0.11958 -0.9525,0.21742 -2.116667,0.21742 -1.164167,0 -2.116667,-0.10098 -2.116667,-0.2244 z m 3.805643,-1.48916 c 1.700955,-0.40626 3.073524,-1.46205 3.073524,-2.36419 0,-0.61248 -3.348139,-4.12433 -3.932065,-4.12433 -0.205911,0 -0.891053,0.47625 -1.522539,1.05833 -0.631486,0.58209 -1.294177,1.05834 -1.472648,1.05834 -0.423564,0 -6.566498,-6.14294 -6.566498,-6.5665 0,-0.17847 0.47625,-0.84116 1.058333,-1.47265 0.582084,-0.63149 1.058334,-1.31663 1.058334,-1.52254 0,-0.20591 -0.822447,-1.19053 -1.82766,-2.18803 -2.111305,-2.09513 -2.665994,-2.16716 -3.78946,-0.49209 -1.317591,1.96451 -1.474966,4.70876 -0.390984,6.81785 0.339924,0.66138 6.837113,7.30472 8.223152,8.40812 0.959178,0.76359 3.241729,1.72981 4.134952,1.75036 0.218281,0.005 1.097383,-0.15818 1.953559,-0.36267 z m 8.236016,-10.95539 c -0.15788,-1.57208 -0.11649,-1.99466 0.2332,-2.38106 0.23383,-0.25838 0.42514,-0.83809 0.42514,-1.28825 0,-0.64886 -0.26046,-1.04173 -1.25677,-1.89569 -0.83173,-0.7129 -1.52522,-1.08467 -2.05052,-1.09926 -0.43656,-0.0121 -1.27,-0.179 -1.852083,-0.37084 l -1.058334,-0.3488 1.190627,-0.0558 c 0.65484,-0.0307 1.52164,-0.0338 1.92622,-0.007 1.0289,0.0683 2.74092,1.25496 3.11563,2.15958 0.17271,0.41695 0.47816,0.7581 0.67879,0.7581 0.56259,0 0.52146,4.38117 -0.0432,4.59784 -0.22436,0.0861 -0.56743,0.53586 -0.76236,0.99947 -0.35228,0.83782 -0.35559,0.83134 -0.54637,-1.06835 z M 94.128194,176.178 c -1.014331,-1.0894 -1.886707,-2.10814 -1.938614,-2.26387 -0.05191,-0.15572 0.751218,-1.13208 1.784723,-2.16969 1.033506,-1.03761 1.879102,-2.04293 1.879102,-2.23405 0,-0.19112 0.222977,-0.34749 0.495504,-0.34749 0.395943,0 0.522412,0.25252 0.629422,1.25677 0.07366,0.69122 0.214708,1.44977 0.313451,1.68565 0.114116,0.2726 0.02428,0.48845 -0.246537,0.59238 -0.292766,0.11234 -0.566559,-0.0834 -0.875101,-0.62565 -0.410632,-0.72165 -1.110489,-1.08801 -1.110489,-0.58131 0,0.11615 -0.412939,0.62216 -0.917641,1.12448 -0.504702,0.50232 -0.919741,1.03237 -0.922307,1.17789 -0.0066,0.37688 1.965127,2.51354 2.319574,2.51354 0.162528,0 0.422946,-0.23813 0.578707,-0.52917 0.256594,-0.47945 0.553991,-0.52916 3.16541,-0.52916 2.058442,0 2.983702,0.10148 3.237302,0.35508 0.19529,0.1953 0.62052,0.49715 0.94494,0.67077 0.6491,0.34739 0.80261,1.09081 0.22525,1.09081 -0.20054,0 -0.52796,-0.23813 -0.72761,-0.52919 -0.2976,-0.43385 -0.80381,-0.56689 -2.8098,-0.73845 -1.345742,-0.1151 -2.625664,-0.10917 -2.844272,0.0132 -0.233793,0.13084 -0.39747,0.59836 -0.39747,1.13533 0,1.43112 -0.710625,1.1585 -2.783544,-1.06784 z"
         id="path366"
         inkscape:connector-curvature="0" />
      <path
         style="fill:#fe4884;stroke-width:0.26458335"
         d="m 92.678405,192.22881 c 0,-0.11958 -0.625078,-0.49299 -1.389063,-0.8298 -1.902342,-0.83868 -10.351977,-9.21282 -10.641241,-10.54618 -0.104735,-0.48277 -0.357795,-0.94199 -0.562354,-1.02049 -0.273104,-0.1048 -0.371926,-0.66246 -0.371926,-2.09879 0,-1.07584 0.103188,-1.95607 0.229308,-1.95607 0.126119,0 0.473422,-0.5874 0.771785,-1.30534 0.588153,-1.41526 2.322197,-2.92799 3.356349,-2.92799 0.747209,0 5.167558,4.47595 5.167558,5.23256 0,0.29602 -0.416719,1.03699 -0.926041,1.64661 -0.509323,0.60962 -0.926042,1.20688 -0.926042,1.32726 0,0.24018 4.647201,4.83982 5.024549,4.97313 0.128725,0.0455 0.47165,-0.15493 0.762057,-0.44533 0.962456,-0.96246 1.864089,-1.42009 2.488911,-1.26327 0.819364,0.20565 5.218235,4.73423 5.218235,5.3721 0,0.72022 -2.326411,2.88056 -3.505731,3.25547 -0.545703,0.17348 -0.992188,0.42525 -0.992188,0.55949 0,0.13423 -0.833437,0.24406 -1.852083,0.24406 -1.018646,0 -1.852083,-0.0978 -1.852083,-0.21742 z m 3.656628,-1.4092 c 1.372508,-0.31682 3.222538,-1.71613 3.222538,-2.43744 0,-0.53509 -3.700228,-4.13802 -4.249763,-4.13802 -0.245423,0 -0.901175,0.41672 -1.457226,0.92604 -0.556051,0.50932 -1.217923,0.92604 -1.470826,0.92604 -0.702976,0 -6.315935,-5.73035 -6.315935,-6.44802 0,-0.32913 0.411133,-0.99041 0.926042,-1.48948 0.509323,-0.49365 0.923924,-1.08256 0.921337,-1.30867 -0.0079,-0.69072 -3.407816,-3.98299 -4.113215,-3.98299 -1.1734,0 -2.745725,2.75139 -2.757231,4.82485 -0.0022,0.39809 0.140682,1.29106 0.317536,1.98437 0.286494,1.12313 0.827369,1.77028 4.960937,5.93568 4.100139,4.1317 4.793152,4.72156 5.962303,5.0748 1.638721,0.4951 2.378977,0.51936 4.053503,0.13284 z m 8.111437,-11.44754 c -0.16419,-1.29608 -0.12406,-1.61902 0.23365,-1.88058 0.23753,-0.17369 0.5067,-0.68993 0.59815,-1.14719 0.0915,-0.45727 0.32999,-0.8314 0.53008,-0.8314 0.27837,0 0.36381,0.4971 0.36381,2.11667 0,1.62182 -0.0852,2.11666 -0.36461,2.11666 -0.20053,0 -0.54421,0.26789 -0.76373,0.59532 -0.38362,0.57218 -0.40683,0.53451 -0.59735,-0.96948 z m -8.941864,-1.83855 c -0.233978,-0.3571 -1.084653,-1.27275 -1.890391,-2.03478 -0.805737,-0.76203 -1.464977,-1.48274 -1.464977,-1.60156 0,-0.11883 0.535043,-0.76657 1.188985,-1.43943 1.467053,-1.50948 2.210742,-1.45673 0.840789,0.0596 -0.534293,0.5914 -0.971441,1.19708 -0.971441,1.34595 0,0.14888 0.343769,0.63869 0.76393,1.08847 0.420162,0.44979 0.833144,0.99816 0.917738,1.21861 0.215436,0.56141 0.60073,0.49911 1.071709,-0.17331 0.362489,-0.51753 0.674033,-0.58123 3.160279,-0.64622 2.003663,-0.0524 2.892823,0.0264 3.250473,0.28791 0.80478,0.58847 0.3341,0.66766 -2.25212,0.37892 -2.771179,-0.30939 -3.127679,-0.18179 -3.258694,1.16636 -0.102409,1.0538 -0.780322,1.22846 -1.35628,0.34944 z m 7.823274,-0.34377 c -0.1819,-0.0734 -0.33073,-0.31085 -0.33073,-0.52767 0,-0.54816 0.89785,-0.3319 1.00855,0.24292 0.0892,0.46337 -0.0697,0.53014 -0.67782,0.28475 z m 0.46302,-3.13206 c -0.64722,-0.66776 -1.12725,-0.92604 -1.72112,-0.92604 -0.45296,0 -1.05468,-0.17481 -1.33716,-0.38846 -0.47576,-0.35985 -0.42589,-0.38779 0.67703,-0.37931 0.91626,0.007 1.465,0.20836 2.38125,0.87361 0.65485,0.47545 1.22913,1.06286 1.27618,1.30535 0.13347,0.68789 -0.29832,0.52374 -1.27618,-0.48515 z m -7.408329,-1.73242 c 0,-0.15247 -0.310329,-0.56482 -0.68962,-0.91634 l -0.689621,-0.63912 0.623475,-0.78881 c 0.837556,-1.05968 1.284933,-1.03361 1.284933,0.0749 0,0.49113 0.07441,1.26504 0.165365,1.71979 0.130935,0.65467 0.07585,0.82682 -0.264584,0.82682 -0.236471,0 -0.429948,-0.12474 -0.429948,-0.27721 z"
         id="path364"
         inkscape:connector-curvature="0" />
      <path
         style="fill:#fe407e;stroke-width:0.26458335"
         d="m 92.678405,192.2127 c 0,-0.12845 -0.68461,-0.56381 -1.521355,-0.96748 -2.192619,-1.05778 -9.81838,-8.69491 -10.491168,-10.5068 -0.256663,-0.69122 -0.575876,-1.25677 -0.709361,-1.25677 -0.133485,0 -0.2427,-0.77391 -0.2427,-1.71979 0,-0.94589 0.114283,-1.71979 0.253963,-1.71979 0.139679,0 0.399074,-0.48434 0.576433,-1.07631 0.360371,-1.20282 2.585099,-3.42161 3.430755,-3.42161 0.596916,0 4.346867,3.49214 4.901337,4.56437 0.356319,0.68904 0.342976,0.82874 -0.156321,1.63662 -0.300241,0.4858 -0.723048,1.0303 -0.939572,1.21 -0.216523,0.17969 -0.393678,0.52872 -0.393678,0.77561 0,0.48848 4.507261,5.04257 4.990724,5.04257 0.163,0 0.847041,-0.42034 1.520091,-0.9341 0.864989,-0.66026 1.389211,-0.88751 1.788227,-0.77519 0.737502,0.20759 5.19471,4.732 5.19471,5.27303 0,0.73979 -2.112247,2.76369 -3.235572,3.10025 -0.579065,0.17349 -1.112722,0.47147 -1.185904,0.66218 -0.15261,0.3977 -3.780609,0.50633 -3.780609,0.11321 z m 3.676821,-1.39776 c 1.59729,-0.36869 3.202345,-1.59381 3.202345,-2.4443 0,-0.39573 -0.665376,-1.24266 -1.970554,-2.50822 -1.950808,-1.89159 -1.977983,-1.90687 -2.711979,-1.52506 -0.407784,0.21212 -1.03007,0.69465 -1.382858,1.07228 -0.352788,0.37762 -0.827175,0.68659 -1.054193,0.68659 -0.53858,0 -6.374166,-5.8192 -6.374166,-6.35627 0,-0.22648 0.47625,-0.93803 1.058334,-1.58123 0.582083,-0.64319 1.058333,-1.25721 1.058333,-1.36447 0,-0.10727 -0.882283,-1.08595 -1.960629,-2.17485 -2.149304,-2.17033 -2.48112,-2.25997 -3.691034,-0.99709 -1.341513,1.40024 -1.77883,3.65339 -1.175022,6.05397 0.284485,1.13104 0.807845,1.75199 5.093229,6.04296 3.911854,3.91695 4.967684,4.83259 5.834498,5.05979 1.471234,0.38563 2.518593,0.39486 4.073696,0.0359 z m 8.097854,-11.59363 c -0.14278,-0.84511 -0.0687,-1.19315 0.37362,-1.75548 0.30344,-0.38575 0.5517,-0.97924 0.5517,-1.31885 0,-0.44016 0.11397,-0.57374 0.39688,-0.46518 0.2963,0.1137 0.39688,0.58695 0.39688,1.86752 0,1.45521 -0.0903,1.7905 -0.59532,2.21185 -0.83254,0.69453 -0.92251,0.6513 -1.12376,-0.53986 z m -8.685134,-1.53999 c -0.496646,-0.54879 -0.584349,-1.11009 -0.173452,-1.11009 0.14864,0 0.405877,-0.29765 0.571636,-0.66146 0.312107,-0.68499 0.852487,-0.86609 1.149646,-0.38528 0.09388,0.1519 0.05191,0.41979 -0.09327,0.59531 -0.145172,0.17553 -0.30425,0.66715 -0.353507,1.09249 -0.10975,0.94771 -0.512569,1.1193 -1.101058,0.46903 z m 7.546704,-0.63384 c -0.17462,-0.17462 -0.3175,-0.41275 -0.3175,-0.52916 0,-0.31529 0.73519,-0.25589 0.94029,0.076 0.27244,0.4408 -0.2529,0.82308 -0.62279,0.45319 z m -10.090226,-1.93339 -1.173773,-1.18194 0.546013,-0.59869 c 0.300307,-0.32927 0.842157,-0.92611 1.204112,-1.32629 0.361955,-0.40018 0.733744,-0.7276 0.826198,-0.7276 0.430591,0 0.08106,0.64678 -0.797111,1.47501 -0.907468,0.85585 -0.939123,0.93913 -0.529166,1.39212 0.239822,0.26501 0.436041,0.59264 0.436041,0.72808 0,0.13543 0.238125,0.39496 0.529167,0.57672 0.51679,0.32274 0.72604,0.86042 0.330729,0.84983 -0.109141,-0.003 -0.726635,-0.53718 -1.37221,-1.18724 z m 5.671689,0.68199 c -0.647691,-0.14963 -0.477289,-0.20893 0.926042,-0.32226 1.831045,-0.14787 2.645835,-0.0448 2.645835,0.33452 0,0.26847 -2.39228,0.26026 -3.571877,-0.0123 z m 5.027087,-1.74517 c -0.47438,-0.52709 -1.0599,-0.89091 -1.45521,-0.90422 -1.71402,-0.0577 -2.44895,-0.80879 -0.7914,-0.80879 0.62225,0 3.17265,1.38016 3.17265,1.7169 0,0.0505 0.0723,0.28024 0.1606,0.51042 0.25676,0.66912 -0.22809,0.43964 -1.08664,-0.51431 z m -7.540629,-1.72504 c 0,-0.15213 -0.283741,-0.56035 -0.630537,-0.90714 l -0.630537,-0.63054 0.564392,-0.80807 c 0.803368,-1.15023 1.225118,-1.04483 1.229462,0.30726 0.002,0.61846 0.07541,1.39237 0.16315,1.71979 0.117288,0.43766 0.04626,0.59531 -0.268196,0.59531 -0.235253,0 -0.427734,-0.12447 -0.427734,-0.27661 z"
         id="path362"
         inkscape:connector-curvature="0" />
      <path
         style="fill:#fe3778;stroke-width:0.26458335"
         d="m 92.942988,192.22183 c 0,-0.12342 -0.506016,-0.44544 -1.124479,-0.71561 -1.619149,-0.7073 -2.007667,-1.03635 -6.562177,-5.55771 -3.413696,-3.38885 -4.195859,-4.3103 -4.590635,-5.40814 -0.26172,-0.72782 -0.582959,-1.3233 -0.713865,-1.3233 -0.130906,0 -0.238011,-0.65485 -0.238011,-1.45521 0,-0.80037 0.109494,-1.45521 0.24332,-1.45521 0.133825,0 0.440547,-0.5938 0.681604,-1.31955 0.315838,-0.9509 0.783766,-1.61569 1.674909,-2.37954 0.680144,-0.583 1.44091,-1.06076 1.690592,-1.0617 0.249682,-9.4e-4 1.470072,0.98955 2.711979,2.20108 2.603,2.53934 2.793328,3.14405 1.475016,4.68637 -0.430649,0.50383 -0.787836,1.09229 -0.79375,1.30769 -0.01422,0.51802 4.493473,5.03539 5.010814,5.02156 0.221315,-0.006 0.814613,-0.3631 1.318439,-0.79375 1.398088,-1.19502 2.138541,-1.05958 4.036592,0.73836 1.595564,1.51141 3.117154,3.37409 3.117154,3.81592 0,0.64813 -2.250805,2.60225 -3.459903,3.00385 -0.716429,0.23796 -1.302599,0.54215 -1.302599,0.67597 0,0.13383 -0.714375,0.24332 -1.5875,0.24332 -0.873125,0 -1.5875,-0.10098 -1.5875,-0.2244 z m 3.267397,-1.33326 c 1.942292,-0.53858 3.347186,-1.5965 3.347186,-2.52051 0,-0.59448 -3.602072,-4.38849 -4.166477,-4.38849 -0.188794,0 -0.859933,0.47625 -1.491419,1.05833 -0.631486,0.58208 -1.311572,1.05833 -1.511302,1.05833 -0.479705,0 -6.324552,-5.83703 -6.324552,-6.31609 0,-0.20438 0.47625,-0.88827 1.058334,-1.51976 0.582083,-0.63149 1.058333,-1.28257 1.058333,-1.44685 0,-0.16428 -0.859687,-1.18529 -1.910415,-2.26891 -1.64185,-1.69325 -2.004499,-1.94714 -2.579687,-1.806 -1.386612,0.34023 -2.599977,2.54149 -2.633519,4.77767 -0.04092,2.72802 0.418528,3.44297 5.362174,8.34413 4.210496,4.17431 4.635815,4.52124 6.119775,4.99192 1.975109,0.62646 1.557849,0.62235 3.671569,0.0362 z m 8.552595,-11.08617 c -0.44669,-0.80051 -0.41609,-1.72659 0.0778,-2.35446 0.2957,-0.37592 0.53763,-0.90555 0.53763,-1.17697 0,-0.27142 0.1786,-0.49349 0.39688,-0.49349 0.31409,0 0.39688,0.37746 0.39688,1.80962 0,1.6665 -0.0516,1.8331 -0.65201,2.10669 -0.35861,0.16339 -0.69934,0.21226 -0.75717,0.10861 z m -8.995034,-2.12108 c -0.244039,-0.26966 -0.443708,-0.56287 -0.443708,-0.65157 0,-0.4117 1.568532,-1.82439 1.839623,-1.65684 0.226597,0.14004 0.225199,0.28053 -0.0056,0.55858 -0.169565,0.20431 -0.327356,0.7504 -0.350648,1.21352 -0.05067,1.00758 -0.434186,1.2054 -1.039707,0.53631 z m 7.372804,-0.82722 c -0.2651,-0.42894 0.31096,-0.55928 0.65257,-0.14766 0.26585,0.32032 0.24964,0.39396 -0.0867,0.39396 -0.22752,0 -0.48216,-0.11084 -0.56588,-0.2463 z m -9.018016,-0.82964 c -0.09592,-0.1552 -0.110869,-0.34572 -0.03322,-0.42337 0.189524,-0.18952 0.705555,0.14442 0.705555,0.45659 0,0.33813 -0.456779,0.31556 -0.672337,-0.0332 z m 5.434837,-0.24698 c -0.480221,-0.15379 -0.172119,-0.21906 1.124479,-0.23821 1.03182,-0.0152 1.78594,0.0854 1.78594,0.23821 0,0.30852 -1.94709,0.30852 -2.910419,0 z m -6.705945,-1.22147 c -0.609081,-0.65687 -0.706777,-1.16252 -0.223752,-1.1581 0.236455,0.002 1.161321,1.62156 1.011606,1.77128 -0.06258,0.0626 -0.417114,-0.21335 -0.787854,-0.61318 z m 11.232524,-0.38144 c -0.34803,-0.28984 -0.56659,-0.59319 -0.48568,-0.6741 0.24771,-0.24771 1.25077,0.41881 1.25077,0.83111 0,0.48195 0.003,0.48254 -0.76509,-0.15701 z m -10.318426,-1.96184 c 0.493381,-0.5054 0.932615,-0.81544 0.976076,-0.68898 0.10943,0.31843 -1.122049,1.6079 -1.535582,1.6079 -0.185652,0 0.06613,-0.41351 0.559506,-0.91892 z m 7.577786,0.73654 c -0.68617,-0.17932 -0.56122,-0.61137 0.1768,-0.61137 0.86639,0 1.50581,0.26825 1.32742,0.55689 -0.1513,0.2448 -0.69988,0.26467 -1.50422,0.0545 z m -5.327136,-1.25613 c -0.677585,-0.88836 -0.681573,-0.91838 -0.227874,-1.71554 0.66897,-1.17539 0.889439,-1.11665 0.99229,0.26441 0.02795,0.37523 0.128808,0.99301 0.224141,1.37285 0.263687,1.05061 -0.217841,1.08874 -0.988557,0.0783 z"
         id="path360"
         inkscape:connector-curvature="0" />
      <path
         style="fill:#fe246b;stroke-width:0.26458335"
         d="m 93.472155,192.24645 c 0,-0.10988 -0.744141,-0.48317 -1.653646,-0.82953 -1.493361,-0.56871 -2.091411,-1.06867 -6.170018,-5.15803 -4.109566,-4.1204 -4.56135,-4.66532 -5.015729,-6.04964 -0.274646,-0.83674 -0.593763,-1.52135 -0.709149,-1.52135 -0.115386,0 -0.209792,-0.41672 -0.209792,-0.92604 0,-0.50932 0.09732,-0.92604 0.216265,-0.92604 0.118945,0 0.428707,-0.68461 0.688359,-1.52136 0.446781,-1.43977 1.531314,-2.97656 2.100606,-2.97656 0.143217,0 0.468225,-0.18808 0.722239,-0.41796 0.62932,-0.56953 1.014155,-0.32469 3.482427,2.2156 1.224054,1.25976 2.050521,2.33216 2.050521,2.66069 0,0.30269 -0.357188,0.95715 -0.79375,1.45437 -0.436563,0.49722 -0.79375,1.1702 -0.79375,1.49551 0,0.68783 4.346422,5.02721 5.035374,5.02721 0.234636,0 0.894305,-0.35388 1.465931,-0.78639 0.571626,-0.43252 1.28634,-0.7897 1.588254,-0.79375 0.726428,-0.01 5.138853,4.4231 5.139293,5.16307 4.8e-4,0.82718 -2.062554,2.63102 -3.637706,3.18065 -0.763984,0.26659 -1.389063,0.58024 -1.389063,0.69702 0,0.11677 -0.47625,0.21231 -1.058333,0.21231 -0.582083,0 -1.058333,-0.0899 -1.058333,-0.19978 z m 2.820553,-1.22836 c 1.809006,-0.48166 3.264845,-1.64333 3.264856,-2.60517 6e-6,-0.5552 -0.451309,-1.16017 -1.918222,-2.57128 -1.055026,-1.01489 -2.116873,-1.84904 -2.35966,-1.85367 -0.242787,-0.005 -0.937112,0.46785 -1.542944,1.04993 -0.605832,0.58208 -1.196927,1.05833 -1.313545,1.05833 -0.276561,0 -6.359372,-6.08224 -6.359372,-6.35877 0,-0.11629 0.47625,-0.72217 1.058334,-1.3464 0.582083,-0.62423 1.05455,-1.31882 1.049926,-1.54354 -0.0046,-0.22472 -0.838774,-1.27178 -1.853667,-2.32681 -1.293831,-1.34499 -2.036696,-1.91823 -2.485872,-1.91823 -1.230071,0 -3.060388,3.04455 -3.060388,5.09065 0,0.41968 0.195312,1.38073 0.434026,2.13568 0.384532,1.2161 0.965341,1.90212 5.09323,6.01585 4.031231,4.01739 4.837507,4.70045 5.98212,5.06793 1.677586,0.53858 2.32105,0.5555 4.011178,0.1055 z m 8.468332,-11.44825 c -0.33146,-0.33146 -0.17712,-1.87487 0.22049,-2.20486 0.21828,-0.18115 0.39687,-0.55292 0.39687,-0.82614 0,-0.27323 0.1786,-0.49677 0.39688,-0.49677 0.61304,0 0.55627,2.86337 -0.0661,3.33585 -0.53186,0.40374 -0.70186,0.43815 -0.94809,0.19192 z m -9.132684,-2.12481 c -0.186874,-0.33393 -0.07801,-0.67638 0.42444,-1.33513 0.726861,-0.95296 1.411632,-0.83596 0.883453,0.15095 -0.159002,0.2971 -0.289094,0.78613 -0.289094,1.08674 0,0.65964 -0.668397,0.72357 -1.018799,0.0974 z m 7.633384,-0.60921 c 0,-0.14552 0.11906,-0.26459 0.26458,-0.26459 0.14552,0 0.26458,0.11907 0.26458,0.26459 0,0.14552 -0.11906,0.26458 -0.26458,0.26458 -0.14552,0 -0.26458,-0.11906 -0.26458,-0.26458 z m -9.128127,-1.05834 c -0.08994,-0.14552 -0.03743,-0.26458 0.116677,-0.26458 0.154109,0 0.280198,0.11906 0.280198,0.26458 0,0.14552 -0.0525,0.26459 -0.116677,0.26459 -0.06417,0 -0.190261,-0.11907 -0.280198,-0.26459 z m 6.085417,0 c -0.398152,-0.17109 -0.21801,-0.23199 0.7276,-0.24598 0.69123,-0.0102 1.25677,0.10046 1.25677,0.24598 0,0.31783 -1.24475,0.31783 -1.98437,0 z m -7.39301,-1.30598 c -0.256577,-0.28351 -0.419099,-0.65769 -0.361162,-0.8315 0.0594,-0.1782 0.311251,-0.002 0.57746,0.40452 0.570317,0.87041 0.432038,1.14338 -0.216298,0.42698 z m 11.22947,-0.5461 c -0.23847,-0.15411 -0.2711,-0.2581 -0.0818,-0.26053 0.17331,-0.002 0.3887,0.11501 0.47863,0.26053 0.20302,0.32849 0.11143,0.32849 -0.39687,0 z m -10.847919,-1.0271 c 0,-0.14552 0.119063,-0.33817 0.264584,-0.42811 0.145521,-0.0899 0.264583,-0.0445 0.264583,0.10106 0,0.14552 -0.119062,0.33817 -0.264583,0.42811 -0.145521,0.0899 -0.264584,0.0445 -0.264584,-0.10106 z m 7.937499,-0.29582 c 0,-0.14552 0.29063,-0.26458 0.64584,-0.26458 0.35522,0 0.71943,0.11906 0.80937,0.26458 0.0954,0.15437 -0.17364,0.26459 -0.64584,0.26459 -0.44515,0 -0.80937,-0.11907 -0.80937,-0.26459 z m -4.762499,-0.51886 c 0,-0.13985 -0.258406,-0.49502 -0.574237,-0.78926 -0.539182,-0.50232 -0.547258,-0.56479 -0.132292,-1.02332 0.24307,-0.26859 0.441946,-0.6278 0.441946,-0.79824 0,-0.17045 0.119063,-0.3099 0.264583,-0.3099 0.145521,0 0.264584,0.3423 0.264584,0.76068 0,0.41837 0.07441,1.13274 0.165364,1.5875 0.106814,0.53406 0.05997,0.82682 -0.132291,0.82682 -0.163711,0 -0.297657,-0.11442 -0.297657,-0.25428 z m -2.116666,-0.27489 c 0,-0.14552 0.126089,-0.26458 0.280198,-0.26458 0.154109,0 0.206614,0.11906 0.116677,0.26458 -0.08994,0.14552 -0.216026,0.26459 -0.280199,0.26459 -0.06417,0 -0.116676,-0.11907 -0.116676,-0.26459 z"
         id="path358"
         inkscape:connector-curvature="0" />
      <path
         style="fill:#fe1964;stroke-width:0.26458335"
         d="m 93.654122,192.0834 c -0.07658,-0.19955 -0.476268,-0.44141 -0.888203,-0.53746 -1.708556,-0.39838 -3.109398,-1.45526 -7.155929,-5.39886 -4.258919,-4.1506 -4.260425,-4.15249 -4.839394,-6.07012 -0.318532,-1.05502 -0.686615,-1.91823 -0.817962,-1.91823 -0.362305,0 -0.285714,-0.52006 0.139163,-0.94494 0.569751,-0.56975 0.679997,-0.47078 0.684208,0.61421 0.0089,2.30569 0.555605,3.10869 5.483811,8.05536 3.935883,3.95063 4.860858,4.74616 5.921959,5.09323 2.457882,0.80393 4.814454,0.40771 6.584051,-1.107 1.516564,-1.29812 1.413964,-1.77464 -0.8619,-4.00297 -2.297847,-2.24986 -2.964929,-2.39955 -4.282582,-0.96101 -0.466522,0.50932 -0.996533,0.92604 -1.177802,0.92604 -0.472807,0 -6.115138,-5.70685 -6.115138,-6.18507 0,-0.21973 0.214342,-0.55509 0.476315,-0.74524 0.707896,-0.51382 1.376369,-1.58163 1.371328,-2.19054 -0.0025,-0.30349 -0.804874,-1.35388 -1.847673,-2.41882 -1.530583,-1.5631 -1.956822,-1.86067 -2.512912,-1.75437 -0.534949,0.10226 -0.636604,0.0418 -0.50527,-0.30043 0.319859,-0.83354 1.186355,-0.40485 3.280724,1.62309 2.380033,2.30454 2.640185,3.05954 1.476151,4.28399 -1.321153,1.38971 -1.200981,1.78802 1.27871,4.23824 1.238308,1.22359 2.446313,2.33376 2.684454,2.46703 0.319378,0.17873 0.798809,-0.01 1.827227,-0.71794 1.154668,-0.79525 1.505132,-0.91809 2.039588,-0.7149 0.770277,0.29286 4.718854,4.42102 4.718854,4.93347 0,0.19686 -0.47759,0.88271 -1.061311,1.52411 -0.859212,0.9441 -1.337877,1.22807 -2.51364,1.49119 -0.798778,0.17876 -1.622369,0.49506 -1.830202,0.70289 -0.480193,0.4802 -1.374813,0.48885 -1.556625,0.0151 z m 11.106918,-12.77814 c -0.32519,-0.32519 -0.1809,-1.10862 0.37892,-2.05744 0.30541,-0.51765 0.6626,-0.94117 0.79375,-0.94117 0.13114,0 0.23845,0.55242 0.23845,1.2276 0,0.85886 -0.13909,1.33318 -0.46303,1.57909 -0.53186,0.40374 -0.70186,0.43815 -0.94809,0.19192 z m -9.038305,-1.93517 c -0.183646,-0.57861 0.579511,-1.83522 1.122857,-1.84888 0.395416,-0.01 0.439218,0.42258 0.06615,0.65315 -0.145521,0.0899 -0.264583,0.51368 -0.264583,0.94165 0,0.89921 -0.661921,1.08114 -0.92442,0.25408 z m 7.671295,-0.53427 c -0.0899,-0.14552 -0.0374,-0.26459 0.11668,-0.26459 0.15411,0 0.28019,0.11907 0.28019,0.26459 0,0.14552 -0.0525,0.26458 -0.11667,0.26458 -0.0642,0 -0.19026,-0.11906 -0.2802,-0.26458 z m -22.557611,-1.64543 c 0.173525,-0.7583 0.579,-1.52879 1.033894,-1.9646 1.042682,-0.99896 1.225679,-0.61309 0.24107,0.50832 -0.445534,0.50743 -0.810062,1.09249 -0.810062,1.30013 0,0.20764 -0.168838,0.60842 -0.375196,0.89063 -0.330657,0.4522 -0.341306,0.36501 -0.08971,-0.73448 z m 20.044071,0.58709 c -0.30927,-0.19986 -0.23626,-0.25737 0.33073,-0.26053 0.40018,-0.002 0.7276,0.11501 0.7276,0.26053 0,0.33454 -0.54067,0.33454 -1.05833,0 z m 0.7276,-3.08564 c 0.1819,-0.0734 0.47956,-0.0734 0.66146,0 0.1819,0.0734 0.0331,0.13345 -0.33073,0.13345 -0.3638,0 -0.51263,-0.06 -0.33073,-0.13345 z m -5.6723,-1.35743 -0.546295,-0.7389 0.62883,-0.73106 0.62883,-0.73106 v 1.05145 c 0,0.5783 0.07227,1.23978 0.160599,1.46996 0.260172,0.678 -0.280776,0.47924 -0.871964,-0.32039 z"
         id="path356"
         inkscape:connector-curvature="0" />
      <path
         style="fill:#fe0959;stroke-width:0.26458335"
         d="m 94.216295,191.73633 c 0.190996,-0.0764 0.4192,-0.067 0.507118,0.0209 0.08792,0.0879 -0.06835,0.15046 -0.347265,0.13897 -0.308225,-0.0127 -0.37092,-0.0754 -0.159853,-0.15985 z m 3.753776,-0.99187 c 0,-0.0628 0.386954,-0.38165 0.859896,-0.70844 l 0.859896,-0.59417 -0.641433,0.70844 c -0.571996,0.63175 -1.078359,0.91075 -1.078359,0.59417 z m -12.556112,-4.92603 c -2.295913,-2.33561 -4.100963,-4.31998 -4.011221,-4.40972 0.08974,-0.0898 0.192932,-0.10932 0.229312,-0.0435 0.03638,0.0658 1.96975,2.0502 4.296378,4.40973 2.326628,2.35952 4.101912,4.29004 3.945075,4.29004 -0.156836,0 -2.163631,-1.91095 -4.459544,-4.24655 z m 14.408196,2.65905 c 0,-0.34102 0.133987,-0.5286 0.330725,-0.46302 0.18191,0.0606 0.33073,0.269 0.33073,0.46302 0,0.19403 -0.14882,0.40239 -0.33073,0.46302 -0.196738,0.0656 -0.330725,-0.122 -0.330725,-0.46302 z m -2.163074,-3.03052 c -0.971409,-0.9295 -2.042972,-1.74276 -2.38125,-1.80725 l -0.615051,-0.11725 0.626633,-0.036 c 0.445504,-0.0256 1.172048,0.49803 2.513542,1.81161 1.037799,1.0162 1.827377,1.84568 1.754616,1.84329 -0.07276,-0.002 -0.92708,-0.76486 -1.89849,-1.69437 z m -5.774426,-0.0122 c -0.281271,-0.33891 -0.203985,-0.39687 0.529166,-0.39687 0.733151,0 0.810438,0.058 0.529167,0.39687 -0.181157,0.21829 -0.419282,0.39688 -0.529167,0.39688 -0.109884,0 -0.348009,-0.17859 -0.529166,-0.39688 z m -5.263835,-5.25813 c -0.318226,-0.38344 -0.136191,-1.22416 0.265059,-1.22416 0.129951,0 0.236276,0.35719 0.236276,0.79375 0,0.89138 -0.06935,0.95092 -0.501335,0.43041 z m 18.09713,-1.221 c -0.19303,-0.60817 0.60163,-2.11982 1.11438,-2.11982 0.53929,0 0.40294,1.52438 -0.18934,2.11666 -0.65571,0.65571 -0.71786,0.65592 -0.92504,0.003 z m -8.849676,-1.56287 c -0.199231,-0.37227 -0.16756,-0.58502 0.122982,-0.82615 0.215224,-0.17862 0.391315,-0.48878 0.391315,-0.68924 0,-0.20046 0.131801,-0.36448 0.292891,-0.36448 0.16109,0 0.220621,0.18833 0.132292,0.41851 -0.08833,0.23019 -0.160599,0.76597 -0.160599,1.19063 0,0.87952 -0.382005,1.0123 -0.778881,0.27073 z m -7.538484,-0.10534 c 0.09936,-0.26094 0.247304,-0.40778 0.328766,-0.32632 0.08146,0.0815 1.68e-4,0.29495 -0.180653,0.47443 -0.261307,0.25936 -0.291698,0.22897 -0.148113,-0.14811 z m -1.406073,-2.44392 c -2.051205,-2.13545 -2.182845,-2.60961 -0.178926,-0.64449 1.252481,1.22824 2.180271,2.38024 1.908027,2.36914 -0.0415,-0.002 -0.819596,-0.77779 -1.729101,-1.72465 z m -5.622396,-0.7397 c 0,-0.25637 1.081296,-1.30198 1.21163,-1.17164 0.06006,0.0601 -0.187987,0.38839 -0.551215,0.72963 -0.363228,0.34123 -0.660415,0.54014 -0.660415,0.44201 z m 2.38125,-2.03049 c 0,-0.14552 0.119063,-0.26459 0.264583,-0.26459 0.145521,0 0.264584,0.11907 0.264584,0.26459 0,0.14552 -0.119063,0.26458 -0.264584,0.26458 -0.14552,0 -0.264583,-0.11906 -0.264583,-0.26458 z m 12.369271,-0.71736 c -0.567639,-0.63128 -0.574359,-0.7966 -0.05355,-1.31742 0.54758,-0.54758 0.700659,-0.33114 0.600267,0.84869 -0.08153,0.95816 -0.09571,0.97032 -0.546721,0.46873 z"
         id="path354"
         inkscape:connector-curvature="0" />
    </g>
  </g>
</svg>
