<?xml version="1.0" encoding="utf-8"?>
<!-- Generator: Adobe Illustrator 17.1.0, SVG Export Plug-In . SVG Version: 6.00 Build 0)  -->
<!DOCTYPE svg PUBLIC "-//W3C//DTD SVG 1.1//EN" "http://www.w3.org/Graphics/SVG/1.1/DTD/svg11.dtd">
<svg version="1.1" id="Layer_1" xmlns="http://www.w3.org/2000/svg" xmlns:xlink="http://www.w3.org/1999/xlink" x="0px" y="0px"
	 viewBox="0 0 612 792" enable-background="new 0 0 612 792" xml:space="preserve">
<g>
	
		<linearGradient id="SVGID_1_" gradientUnits="userSpaceOnUse" x1="63.9785" y1="155.9571" x2="154.1092" y2="65.8264" gradientTransform="matrix(4.6259 0 0 -4.6259 0 709.9033)">
		<stop  offset="0" style="stop-color:#FF0054"/>
		<stop  offset="1" style="stop-color:#484852"/>
	</linearGradient>
	<path fill="url(#SVGID_1_)" d="M606,328.2c-0.9-4.2-1.9-8.3-3.2-12.5c-18.5-14.3-35.6-30.5-50-49.5
		c-22.2-30.5-35.6-66.1-45.3-102.7c-5.1-4.2-10.2-8.8-15.3-12.5c11.6,43,26.4,86,53.7,121.2C562.5,294,583.3,312,606,328.2z"/>
	
		<linearGradient id="SVGID_2_" gradientUnits="userSpaceOnUse" x1="58.1781" y1="150.11" x2="148.306" y2="59.9821" gradientTransform="matrix(4.6259 0 0 -4.6259 0 709.9033)">
		<stop  offset="0" style="stop-color:#FF0054"/>
		<stop  offset="1" style="stop-color:#484852"/>
	</linearGradient>
	<path fill="url(#SVGID_2_)" d="M613.9,393.5c-40.2-25-78.6-54.1-106.4-92.1c-30.5-41.6-47.6-91.6-60.6-142
		c-3.7-13.9-6.5-27.8-9.3-41.6c-5.1-2.3-9.7-4.6-14.8-6.5c3.2,17.1,6.9,34.2,11.6,51.3c13.9,51.3,31.9,103.2,64.3,145.3
		c30.5,39.8,71.7,69.9,114.7,95.3c0-2.3,0-4.6,0-7.4C613.9,395.3,613.9,394.4,613.9,393.5z"/>
	
		<linearGradient id="SVGID_3_" gradientUnits="userSpaceOnUse" x1="52.6571" y1="144.5377" x2="142.7847" y2="54.4101" gradientTransform="matrix(4.6259 0 0 -4.6259 0 709.9033)">
		<stop  offset="0" style="stop-color:#FF0054"/>
		<stop  offset="1" style="stop-color:#484852"/>
	</linearGradient>
	<path fill="url(#SVGID_3_)" d="M390.9,174.2c-6.5-25.4-12-51.3-15.3-77.7c-5.1-0.9-10.2-1.9-15.3-2.8c3.7,28.2,9.7,56.4,17.1,84.2
		c6.5,24.5,14.3,49.5,23.6,73.1c4.6,11.6,9.3,22.7,14.8,33.3c1.9,4.2,4.2,7.9,6,12c5.1,2.8,12.5,9.3,29.6,25.9
		C421.9,277.8,403.8,226.5,390.9,174.2z"/>
	
		<linearGradient id="SVGID_4_" gradientUnits="userSpaceOnUse" x1="44.5776" y1="136.4582" x2="134.7052" y2="46.3306" gradientTransform="matrix(4.6259 0 0 -4.6259 0 709.9033)">
		<stop  offset="0" style="stop-color:#FF0054"/>
		<stop  offset="1" style="stop-color:#484852"/>
	</linearGradient>
	<path fill="url(#SVGID_4_)" d="M508.8,388.4c0,1.4,0,2.8,0,4.6c0,3.7,0,6.5-0.9,9.3c25.9,21.7,54.1,40.2,83.3,57.4
		c4.6,2.8,9.7,5.6,14.3,8.8c0.9-3.2,1.4-6.5,2.3-10.2c-3.7-2.3-7.9-4.6-11.6-6.9C565.3,432.8,535.2,412,508.8,388.4z"/>
	
		<linearGradient id="SVGID_5_" gradientUnits="userSpaceOnUse" x1="36.3686" y1="155.4976" x2="234.7473" y2="-42.8813" gradientTransform="matrix(4.6259 0 0 -4.6259 0 709.9033)">
		<stop  offset="0" style="stop-color:#FF0054"/>
		<stop  offset="1" style="stop-color:#484852"/>
	</linearGradient>
	<path fill="url(#SVGID_5_)" d="M337.7,200.1c-0.9-3.7-1.9-7.4-2.8-11.1c-8.3-32.8-14.8-66.1-18-99.5c-2.3,0-5.1,0-7.4,0
		c-2.8,0-5.6,0-8.3,0c3.7,34.7,10.6,69.4,19.4,103.2l21.3,20.4C339.1,205.6,337.7,200.6,337.7,200.1z"/>
	
		<linearGradient id="SVGID_6_" gradientUnits="userSpaceOnUse" x1="-29.4452" y1="193.2627" x2="126.7639" y2="37.0536" gradientTransform="matrix(4.6259 0 0 -4.6259 0 709.9033)">
		<stop  offset="0" style="stop-color:#FF0054"/>
		<stop  offset="1" style="stop-color:#484852"/>
	</linearGradient>
	<path fill="url(#SVGID_6_)" d="M476.9,453.6c27.3,20.4,55,40.2,84.2,57.4c8.3,4.6,16.2,9.7,24.5,14.8c1.4-3.2,3.2-6.9,4.6-10.6
		c-7.9-4.6-15.7-8.8-23.6-13.4c-31-18.5-60.6-40.2-88.8-63.4c-2.8,2.8-6,6-9.3,9.3C471.4,449.4,474.1,451.3,476.9,453.6z"/>
	
		<linearGradient id="SVGID_7_" gradientUnits="userSpaceOnUse" x1="32.2298" y1="145.1743" x2="286.8677" y2="-109.4635" gradientTransform="matrix(4.6259 0 0 -4.6259 0 709.9033)">
		<stop  offset="0" style="stop-color:#FF0054"/>
		<stop  offset="1" style="stop-color:#484852"/>
	</linearGradient>
	<path fill="url(#SVGID_7_)" d="M258.6,93.7c-5.6,0.9-11.1,1.9-16.2,3.2c3.7,36.1,10.6,71.7,19.9,106.9c0.5,0.9,0.5,1.9,0.9,2.8
		l13.4-13C267.8,160.8,261.8,127.5,258.6,93.7z"/>
	
		<linearGradient id="SVGID_8_" gradientUnits="userSpaceOnUse" x1="-165.5008" y1="310.7488" x2="113.9202" y2="31.3279" gradientTransform="matrix(4.6259 0 0 -4.6259 0 709.9033)">
		<stop  offset="0" style="stop-color:#FF0054"/>
		<stop  offset="1" style="stop-color:#484852"/>
	</linearGradient>
	<path fill="url(#SVGID_8_)" d="M490.3,536.9c13.9,7.4,26.8,17.1,40.7,25.4c8.3,4.6,16.2,9.7,24.5,14.8c2.3-3.2,4.6-6.9,6.9-10.2
		c-8.8-4.6-17.1-9.7-25.4-14.8c-15.3-9.3-30.5-19-45.3-29.1c-1.4-0.9-5.6-1.4-11.1-5.6c-17.6-11.6-33.3-23.6-47.2-36.1
		c-6.5,6-10.6,8.8-13.9,9.7C439.5,506.3,462.6,522.1,490.3,536.9z"/>
	
		<linearGradient id="SVGID_9_" gradientUnits="userSpaceOnUse" x1="-106.0079" y1="233.1839" x2="105.2047" y2="21.9713" gradientTransform="matrix(4.6259 0 0 -4.6259 0 709.9033)">
		<stop  offset="0" style="stop-color:#FF0054"/>
		<stop  offset="1" style="stop-color:#484852"/>
	</linearGradient>
	<path fill="url(#SVGID_9_)" d="M383,530.8c50.9,44.4,98.5,71.2,118,82.8c4.6,2.8,9.7,5.6,14.3,8.3c1.9-1.9,3.7-3.7,5.6-5.6
		c-5.6-3.2-11.1-6-16.7-9.3c-16.2-9.7-64.3-45.8-109.6-91.1c-2.8,4.6-6.5,8.8-10.6,13.4C384.4,529.9,383.5,530.4,383,530.8z"/>
	
		<linearGradient id="SVGID_10_" gradientUnits="userSpaceOnUse" x1="31.0302" y1="128.118" x2="268.3681" y2="-109.2199" gradientTransform="matrix(4.6259 0 0 -4.6259 0 709.9033)">
		<stop  offset="0" style="stop-color:#FF0054"/>
		<stop  offset="1" style="stop-color:#484852"/>
	</linearGradient>
	<path fill="url(#SVGID_10_)" d="M223.4,245c-0.5-1.9-0.9-3.2-1.4-5.1c-1.9-6.5-3.7-13-5.6-19.4c-9.3-36.1-13.9-73.6-15.3-111
		c-5.6,1.9-10.6,4.2-16.2,6.5c4.6,36.1,11.6,71.7,20.8,106.9c2.3,8.3,4.2,16.7,6.9,25c0.5,1.9,1.4,3.7,1.9,5.6
		C217.4,251,220.2,248.2,223.4,245z"/>
	
		<linearGradient id="SVGID_11_" gradientUnits="userSpaceOnUse" x1="-65.4274" y1="175.8821" x2="98.6774" y2="11.7775" gradientTransform="matrix(4.6259 0 0 -4.6259 0 709.9033)">
		<stop  offset="0" style="stop-color:#FF0054"/>
		<stop  offset="1" style="stop-color:#484852"/>
	</linearGradient>
	<path fill="url(#SVGID_11_)" d="M346,568.3c39.3,31.9,79.6,63.4,123,89.3c2.8-1.9,5.1-3.2,7.9-5.1c-41.6-25-77.3-57.4-113.3-90.2
		c-1.9-1.9-4.2-3.7-6-6c-0.5,0.5-0.9,0.9-1.9,1.9C352.5,561.8,349.3,565.5,346,568.3z"/>
	
		<linearGradient id="SVGID_12_" gradientUnits="userSpaceOnUse" x1="25.2314" y1="116.0823" x2="162.8515" y2="-21.5376" gradientTransform="matrix(4.6259 0 0 -4.6259 0 709.9033)">
		<stop  offset="0" style="stop-color:#FF0054"/>
		<stop  offset="1" style="stop-color:#484852"/>
	</linearGradient>
	<path fill="url(#SVGID_12_)" d="M165.6,233.4c-8.3-32.4-13.4-65.7-15.7-99c-5.1,3.2-10.2,6.5-15.3,10.2c4.6,31,11.1,62,19,92.1
		c5.6,20.8,11.1,42.1,17.6,62.4c5.1-3.7,9.3-5.1,13.9-5.6C177.6,274.1,171.2,254.2,165.6,233.4z"/>
	
		<linearGradient id="SVGID_13_" gradientUnits="userSpaceOnUse" x1="16.1837" y1="106.8633" x2="133.5681" y2="-10.5211" gradientTransform="matrix(4.6259 0 0 -4.6259 0 709.9033)">
		<stop  offset="0" style="stop-color:#FF0054"/>
		<stop  offset="1" style="stop-color:#484852"/>
	</linearGradient>
	<path fill="url(#SVGID_13_)" d="M141.6,326.4c-10.6-25.9-19.9-52.3-26.8-79.1c-6.5-24.5-11.1-49.5-13.9-74.9
		c-4.6,4.6-9.3,9.3-13.9,13.9c4.2,21.7,8.8,43,14.3,64.3c7.9,29.6,16.7,59.2,27.3,87.9c0.9-0.9,1.9-1.9,2.8-2.8
		C135.5,332.4,138.8,329.2,141.6,326.4z"/>
	
		<linearGradient id="SVGID_14_" gradientUnits="userSpaceOnUse" x1="-49.8855" y1="142.9709" x2="91.8782" y2="1.2071" gradientTransform="matrix(4.6259 0 0 -4.6259 0 709.9033)">
		<stop  offset="0" style="stop-color:#FF0054"/>
		<stop  offset="1" style="stop-color:#484852"/>
	</linearGradient>
	<path fill="url(#SVGID_14_)" d="M411.2,685.8c4.2-1.4,7.9-2.8,12-4.6c-37.5-25.4-71.7-55.5-103.2-87.9c-8.3,6.9-12.5,8.3-19,8.3
		C335.4,632.6,372.4,660.8,411.2,685.8z"/>
	
		<linearGradient id="SVGID_15_" gradientUnits="userSpaceOnUse" x1="5.8586" y1="97.3437" x2="96.0977" y2="7.1044" gradientTransform="matrix(4.6259 0 0 -4.6259 0 709.9033)">
		<stop  offset="0" style="stop-color:#FF0054"/>
		<stop  offset="1" style="stop-color:#484852"/>
	</linearGradient>
	<path fill="url(#SVGID_15_)" d="M64.3,260.7c-3.2-11.6-5.6-23.6-7.9-35.6c-4.2,6.5-8.3,13-12,19.4c1.4,6.5,3.2,13.4,5.1,19.9
		c10.6,41.2,24.1,81.9,39.8,121.2c0.9-5.6,3.7-10.2,12.5-19.4C86,331.9,73.6,296.8,64.3,260.7z"/>
	
		<linearGradient id="SVGID_16_" gradientUnits="userSpaceOnUse" x1="-4.8145" y1="86.6705" x2="85.4246" y2="-3.5686" gradientTransform="matrix(4.6259 0 0 -4.6259 0 709.9033)">
		<stop  offset="0" style="stop-color:#FF0054"/>
		<stop  offset="1" style="stop-color:#484852"/>
	</linearGradient>
	<path fill="url(#SVGID_16_)" d="M131.8,449.9c-11.6-11.6-19.9-19.9-26.4-26.4c8.8,18.5,17.6,36.5,27.8,54.1
		c0-8.3,2.3-15.7,5.1-20.8C136.5,454.5,134.1,452.2,131.8,449.9z"/>
	
		<linearGradient id="SVGID_17_" gradientUnits="userSpaceOnUse" x1="-42.8391" y1="120.9024" x2="86.3608" y2="-8.2976" gradientTransform="matrix(4.6259 0 0 -4.6259 0 709.9033)">
		<stop  offset="0" style="stop-color:#FF0054"/>
		<stop  offset="1" style="stop-color:#484852"/>
	</linearGradient>
	<path fill="url(#SVGID_17_)" d="M134.6,480.4c-0.5-0.9-0.9-1.9-1.4-2.8l0,0c44.9,89.3,140.2,183.2,205.4,224.4
		c6.5-0.5,13-1.4,19.4-2.8c-55-36.5-149.9-143.4-197.5-221.1c-5.6-5.1-12-11.6-20.4-19.9C138.3,465.6,136.5,472.6,134.6,480.4z"/>
	
		<linearGradient id="SVGID_18_" gradientUnits="userSpaceOnUse" x1="-4.9121" y1="86.5726" x2="85.3269" y2="-3.6663" gradientTransform="matrix(4.6259 0 0 -4.6259 0 709.9033)">
		<stop  offset="0" style="stop-color:#FF0054"/>
		<stop  offset="1" style="stop-color:#484852"/>
	</linearGradient>
	<path fill="url(#SVGID_18_)" d="M140.2,458.7c-0.5-0.5-1.4-1.4-1.9-1.9c-2.8,5.1-5.1,12.5-5.1,20.8c0.5,0.9,0.9,1.9,1.4,2.8
		C136.5,472.6,138.3,465.6,140.2,458.7z"/>
	
		<linearGradient id="SVGID_19_" gradientUnits="userSpaceOnUse" x1="-41.0404" y1="122.7009" x2="88.1595" y2="-6.499" gradientTransform="matrix(4.6259 0 0 -4.6259 0 709.9033)">
		<stop  offset="0" style="stop-color:#FF0054"/>
		<stop  offset="1" style="stop-color:#484852"/>
	</linearGradient>
	<path fill="url(#SVGID_19_)" d="M140.2,458.7c-0.5-0.5-1.4-1.4-1.9-1.9c-2.8,5.1-5.1,12.5-5.1,20.8c0.5,0.9,0.9,1.9,1.4,2.8
		C136.5,472.6,138.3,465.6,140.2,458.7z"/>
	
		<linearGradient id="SVGID_20_" gradientUnits="userSpaceOnUse" x1="-8.5822" y1="82.8197" x2="81.5481" y2="-7.3106" gradientTransform="matrix(4.6259 0 0 -4.6259 0 709.9033)">
		<stop  offset="0" style="stop-color:#FF0054"/>
		<stop  offset="1" style="stop-color:#484852"/>
	</linearGradient>
	<path fill="url(#SVGID_20_)" d="M160.1,567.4C99.5,486,49,395.8,19.9,298.6c-3.2,10.2-6,20.4-8.3,30.5
		c28.7,91.1,69.4,179,126.7,254.4c31.5,41.2,67.1,78.6,106.4,112.4c11.6,2.3,23.1,4.2,35.2,5.6C235.9,661.3,196.1,615.5,160.1,567.4
		z"/>
	
		<linearGradient id="SVGID_21_" gradientUnits="userSpaceOnUse" x1="-18.7845" y1="72.5294" x2="71.3435" y2="-17.5985" gradientTransform="matrix(4.6259 0 0 -4.6259 0 709.9033)">
		<stop  offset="0" style="stop-color:#FF0054"/>
		<stop  offset="1" style="stop-color:#484852"/>
	</linearGradient>
	<path fill="url(#SVGID_21_)" d="M4.6,407.8c0.9,31.5,6.9,62,17.1,90.2c19.9,39.3,43,77.3,69.4,112.4c25,25.9,54.6,47.6,87.4,63.4
		c-21.3-24.1-41.2-48.6-60.1-74C74,540.1,34.7,475.8,4.6,407.8z"/>
</g>
<g transform="translate(0.000000,313.000000) scale(0.100000,-0.100000)">
	<linearGradient id="SVGID_22_" gradientUnits="userSpaceOnUse" x1="2204.8196" y1="305.6" x2="2361.2319" y2="305.6">
		<stop  offset="0" style="stop-color:#FF0054"/>
		<stop  offset="1" style="stop-color:#484852"/>
	</linearGradient>
	<path fill="url(#SVGID_22_)" d="M2623.8,736.8c-390-377-423.3-412.6-418.6-446.9c3.7-25,8.3-25.9,174.4-28.2
		c94.4-2.3,182.7-6,197.1-9.3c60.1-14.3,62.4-23.6,62.4-311.3c0-277.1,6.9-333.5,47.2-354.8c13-6.9,144.8-11.6,309.9-11.6
		c272.5,0,290,1.4,318.3,23.6l30.5,25l3.7,293.3c3.7,262.7,6,296.1,25,314.6c17.6,17.6,49.5,22.2,206.3,27.3
		c181.3,6,185,6,188.7,32.8c4.6,31.9-53.2,93-447.8,475.1l-278,270.1h-55.5h-55.5L2623.8,736.8z"/>
	<linearGradient id="SVGID_23_" gradientUnits="userSpaceOnUse" x1="1119" y1="-803.0247" x2="1197.9675" y2="-803.0247">
		<stop  offset="0" style="stop-color:#FF0054"/>
		<stop  offset="1" style="stop-color:#484852"/>
	</linearGradient>
	<path fill="url(#SVGID_23_)" d="M1480.7-393.8C1124.5-744,1119-750.9,1119-796.7s8.3-55.5,363.1-410.3
		c359.4-358.5,400.6-392.7,419.6-342.8c9.3,23.6,9.3,1471,0,1494.6C1882.7-7.1,1838.8-42.7,1480.7-393.8z"/>
	<linearGradient id="SVGID_24_" gradientUnits="userSpaceOnUse" x1="4089.4658" y1="-802.7989" x2="4166.0723" y2="-802.7989">
		<stop  offset="0" style="stop-color:#FF0054"/>
		<stop  offset="1" style="stop-color:#484852"/>
	</linearGradient>
	<path fill="url(#SVGID_24_)" d="M4097.6-56.6c-10.6-9.3-10.6-1456.7-1.4-1481.7c3.7-10.6,15.3-19,25.9-19s180.4,160.5,376.1,356.2
		c342.8,342.8,357.1,358.5,357.1,402c0,53.2,23.6,27.3-405.7,443.2c-173.5,169.8-322.9,307.6-329.8,307.6
		C4111.5-48.2,4100.8-51.9,4097.6-56.6z"/>
	<linearGradient id="SVGID_25_" gradientUnits="userSpaceOnUse" x1="2218.0476" y1="-1904.3" x2="2371.7383" y2="-1904.3">
		<stop  offset="0" style="stop-color:#FF0054"/>
		<stop  offset="1" style="stop-color:#484852"/>
	</linearGradient>
	<path fill="url(#SVGID_25_)" d="M2679.3-1184.8l-34.2-28.2l-3.7-313.6l-3.7-312.2l-30.5-25c-27.3-21.3-47.2-23.6-206.3-23.6
		c-149.9,0-176.7-2.3-182.7-19c-4.6-14.3,94.4-120.3,357.1-383c357.1-357.1,365.4-364.1,411.2-364.1s54.1,6.9,411.2,364.1
		c262.7,262.7,361.7,369.1,357.1,383c-6,16.7-31.9,19-166.1,19c-170.7,0-208.6,9.3-229.9,55.5c-8.3,17.6-13,131.8-13,320.6
		c0,271.1-1.4,296.1-22.2,320.6c-22.2,28.2-23.6,28.2-316.9,31.9l-294.7,3.7L2679.3-1184.8z"/>
</g>
</svg>
