<?xml version="1.0" encoding="UTF-8" standalone="no"?>
<!-- Created with Inkscape (http://www.inkscape.org/) -->

<svg
   xmlns:dc="http://purl.org/dc/elements/1.1/"
   xmlns:cc="http://creativecommons.org/ns#"
   xmlns:rdf="http://www.w3.org/1999/02/22-rdf-syntax-ns#"
   xmlns:svg="http://www.w3.org/2000/svg"
   xmlns="http://www.w3.org/2000/svg"
   xmlns:sodipodi="http://sodipodi.sourceforge.net/DTD/sodipodi-0.dtd"
   xmlns:inkscape="http://www.inkscape.org/namespaces/inkscape"
   version="1.1"
   id="svg10"
   width="132"
   height="133"
   viewBox="0 0 132 133"
   sodipodi:docname="novaposhta.png"
   inkscape:version="0.92.2 (5c3e80d, 2017-08-06)">
  <metadata
     id="metadata16">
    <rdf:RDF>
      <cc:Work
         rdf:about="">
        <dc:format>image/svg+xml</dc:format>
        <dc:type
           rdf:resource="http://purl.org/dc/dcmitype/StillImage" />
        <dc:title></dc:title>
      </cc:Work>
    </rdf:RDF>
  </metadata>
  <defs
     id="defs14" />
  <sodipodi:namedview
     pagecolor="#ffffff"
     bordercolor="#666666"
     borderopacity="1"
     objecttolerance="10"
     gridtolerance="10"
     guidetolerance="10"
     inkscape:pageopacity="0"
     inkscape:pageshadow="2"
     inkscape:window-width="1192"
     inkscape:window-height="819"
     id="namedview12"
     showgrid="false"
     inkscape:zoom="4.8120301"
     inkscape:cx="66"
     inkscape:cy="66.5"
     inkscape:window-x="2093"
     inkscape:window-y="106"
     inkscape:window-maximized="0"
     inkscape:current-layer="svg10" />
  <path
     style="fill:#b5305f"
     d="M 53.845191,132.11814 C 50.451319,131.51131 33.914235,114.40626 26.166794,103.48912 18.777494,93.076656 10.432774,76.999226 5.4013736,63.481212 c -3.39053,-9.109417 -4.30717,-15.421536 -2.17061,-14.947037 0.48707,0.108171 2.55723,4.446631 4.60035,9.641024 8.7777604,22.316397 25.7581374,48.120241 44.3610564,67.412301 3.845061,3.9875 6.352469,7.18872 5.572019,7.11382 -0.780448,-0.0749 -2.543998,-0.33734 -3.918998,-0.58318 z m 12.029273,-3.838 C 58.632989,122.94927 45.159261,109.56748 39.105726,101.69406 34.087389,95.167046 24.846954,79.869866 24.845914,78.087506 c -0.002,-3.81296 5.84957,2.32237 16.999277,17.82298 4.18019,5.811424 13.336829,16.291774 20.686364,23.676864 13.781958,13.84863 15.138538,17.37624 3.342909,8.69279 z m 14.377555,-4.32879 c -11.096237,-7.84991 -15.12025,-11.72567 -13.695453,-13.19087 0.96156,-0.98882 2.027216,-0.54221 5.167464,2.16566 2.17585,1.87625 6.805731,5.83731 10.288625,8.80235 3.482895,2.96505 6.482533,5.77755 6.665873,6.25 0.72244,1.86178 -1.81935,0.64702 -8.426509,-4.02714 z M 28.234734,121.2381 c -6.24359,-4.17262 -10.18752,-8.396 -15.31541,-16.40059 C 5.8645536,93.825086 2.8620736,87.406896 1.2854436,79.968576 c -2.24649006,-10.59865 -1.66989006,-11.16167 2.69457,-2.63107 6.4635204,12.63333 13.3322304,23.604484 21.9181004,35.009034 4.37089,5.80582 7.947077,10.7664 7.947077,11.0235 0,1.05823 -1.940017,0.32104 -5.610457,-2.13194 z m 66.110454,-2.11932 c -7.00313,-4.5539 -19.499997,-14.33811 -19.499997,-15.26719 0,-2.61923 2.584593,-1.35454 9.675834,4.73457 4.324353,3.71324 9.653843,8.19876 11.843313,9.96782 4.775482,3.85852 3.566232,4.19678 -2.01915,0.5648 z M 99.84519,108.67833 C 92.029908,104.21594 82.845191,96.976606 82.845191,95.279056 c 0,-2.89135 3.298137,-1.30185 10.320907,4.974044 3.9485,3.52858 8.529092,7.56436 10.179092,8.9684 3.96816,3.37665 3.13991,3.24811 -3.5,-0.54317 z m -44.927418,-10.507854 -7.572581,-7.66702 4,-1.1682 c 3.908047,-1.14134 4.006007,-1.28118 4.261313,-6.08298 0.50387,-9.47678 0.452573,-9.41477 7.789124,-9.41477 7.319994,0 7.126466,-0.19849 8.207265,8.41749 0.680915,5.42817 0.990376,5.99767 3.742298,6.88691 1.65,0.53317 3.200663,1.14596 3.445917,1.36175 0.622104,0.54737 -14.178323,15.333854 -15.348309,15.333854 -0.523846,0 -4.360108,-3.45016 -8.525027,-7.667034 z m 51.723628,-0.15885 c -14.755942,-9.20076 -16.753712,-10.79476 -14.611712,-11.65854 1.12075,-0.45196 3.46339,0.63569 7,3.24998 2.923522,2.16109 8.803002,6.0695 13.065502,8.68535 7.2347,4.439864 9.45667,6.652684 6.5,6.473224 -0.6875,-0.0417 -6.06671,-3.07923 -11.95379,-6.750014 z m 7.65566,-10.75162 c -5.47353,-3.61762 -10.60008,-7.2069 -11.39235,-7.97619 -1.71667,-1.66688 -0.54619,-3.29607 1.3729,-1.91094 0.73508,0.53054 5.88699,4.04753 11.44869,7.81553 5.56171,3.768 9.86215,7.2555 9.55653,7.75 -0.74997,1.21348 0.12977,1.6682 -10.98577,-5.6784 z m -83.728686,-13.1976 c -3.69775,-3.7263 -6.72318,-7.45087 -6.72318,-8.27682 0,-1.786513 13.009253,-14.948084 14.775092,-14.948084 0.912098,0 1.224904,3.830573 1.224904,15.000004 0,11.50137 -0.297808,15 -1.27682,15 -0.70225,0 -4.30225,-3.0488 -7.999996,-6.7751 z m 57.276814,-8.2249 c 0,-10.803926 0.32797,-15.000004 1.17242,-15.000004 1.56575,0 14.827582,13.317563 14.827582,14.889904 0,1.61199 -13.210442,15.1101 -14.788082,15.1101 -0.89536,0 -1.21192,-3.91806 -1.21192,-15 z m 31.143982,9.0411 c -5.02919,-3.30234 -9.14398,-6.46255 -9.14398,-7.02268 0,-1.63325 0.63222,-1.31646 9.28212,4.65098 9.73611,6.71681 10.24621,7.1356 9.5452,7.83661 -0.29664,0.29664 -4.65414,-2.16257 -9.68334,-5.46491 z m 6.35602,-11.137557 C 112.23148,54.907188 102.94057,43.574487 97.549968,29.837502 94.506078,22.080707 90.510428,6.8389272 91.310998,6.0383612 c 1.23686,-1.236858 2.58272,1.766963 5.05499,11.2821918 3.13425,12.063094 8.731432,24.207356 14.398612,31.240809 2.315,2.873123 7.89268,7.990865 12.39484,11.372759 6.95138,5.221673 9.94926,7.993275 8.51908,7.876065 -0.18333,-0.015 -3.03333,-1.84614 -6.33333,-4.069137 z M 13.424514,50.94642 C 8.9218236,37.01822 8.0252836,31.837502 10.117644,31.837502 c 1.01938,0 1.94053,1.747703 2.76709,5.25 0.68146,2.8875 2.52634,8.768199 4.09974,13.068219 3.19583,8.734077 3.55183,11.681781 1.4108,11.681781 -0.96228,0 -2.63404,-3.662875 -4.97076,-10.891082 z m 44.149595,5.641082 c -1.144791,-0.865513 -1.741862,-3.095535 -1.94113,-7.25 l -0.287788,-6 -3.75,-0.310365 c -2.202975,-0.182327 -3.75,-0.834554 -3.75,-1.581001 0,-1.432476 14.275332,-15.608634 15.717829,-15.608634 0.512044,0 4.491446,3.358557 8.843119,7.463461 8.225846,7.759388 8.628479,9.089544 2.939052,9.709592 -2.918069,0.318018 -3.013671,0.498643 -3.500563,6.613769 -0.323179,4.058976 -1.031914,6.622715 -2,7.234687 -2.171406,1.372648 -10.334751,1.192018 -12.270519,-0.271509 z m -32.334025,-7.32295 c -3.15197,-7.497197 -7.70149,-27.520452 -6.52116,-28.700781 1.60657,-1.606571 2.11168,-0.65137 3.66139,6.92399 0.77069,3.767358 2.60277,10.59005 4.07127,15.161538 1.96396,6.11384 2.3751,8.606713 1.55476,9.427051 -0.82034,0.820337 -1.55184,0.07679 -2.76626,-2.811798 z m 95.935156,-5.67705 c -5.90631,-6.251572 -9.60085,-12.317452 -12.32539,-20.236457 -2.25636,-6.558236 -2.39432,-7.513543 -1.08503,-7.513543 0.5058,0 1.69343,2.3625 2.63918,5.25 2.86552,8.748805 7.05284,16.16391 12.48282,22.105168 2.83748,3.104658 4.72918,5.644832 4.20377,5.644832 -0.52541,0 -3.18731,-2.3625 -5.91535,-5.25 z m -32.674552,-2.5 C 82.22179,28.546582 75.321602,0.83750225 78.477526,0.83750225 c 0.731259,0 1.5277,1.01249995 1.76987,2.24999995 2.078457,10.6210238 6.257392,25.6506458 9.124782,32.8174628 3.81763,9.541838 3.91556,9.932537 2.48986,9.932537 -0.54074,0 -2.05334,-2.1375 -3.36135,-4.75 z m -53.556532,0.5 c -2.930412,-7.743017 -7.085792,-28.153286 -6.067302,-29.801235 1.40188,-2.2682898 2.70497,0.0068 3.36984,5.883383 0.36569,3.232296 1.774954,10.024839 3.131695,15.09454 1.356741,5.069701 2.466802,9.635165 2.466802,10.145475 0,1.826355 -2.065762,0.884872 -2.901035,-1.322163 z m 8.821846,-12 c -2.387011,-8.773677 -4.777057,-21.9610428 -4.2358,-23.3715358 1.333385,-3.474744 2.834176,-0.05218 3.980849,9.0783378 0.677761,5.396754 1.705208,11.168887 2.283216,12.826962 1.308228,3.752784 1.338959,5.716236 0.08947,5.716236 -0.528801,0 -1.48178,-1.9125 -2.117733,-4.25 z M 55.360884,22.862895 C 54.474525,21.428735 51.845191,7.1341412 51.845191,3.7495342 c 0,-1.826726 0.520785,-2.91203195 1.397345,-2.91203195 0.942161,0 1.780894,2.19880895 2.574781,6.74999995 2.048212,11.7419838 2.388375,16.2499998 1.226182,16.2499998 -0.594151,0 -1.351327,-0.438573 -1.682615,-0.974607 z M 68.93687,22.447968 c -1.033372,-1.245136 -2.708699,-8.20759 -4.538266,-18.8604658 -0.570352,-3.32094995 -0.410028,-3.74999995 1.401274,-3.74999995 1.524046,0 2.045313,0.647893 2.045313,2.54215795 0,2.366582 2.46072,15.7612658 3.620502,19.7078418 0.614825,2.092164 -0.911122,2.309677 -2.528823,0.360466 z"
     id="path26"
     inkscape:connector-curvature="0" />
</svg>
