<?xml version="1.0" encoding="utf-8"?>
<!-- Generator: Adobe Illustrator 22.0.0, SVG Export Plug-In . SVG Version: 6.00 Build 0)  -->
<svg version="1.1" id="图层_1" xmlns="http://www.w3.org/2000/svg" xmlns:xlink="http://www.w3.org/1999/xlink" x="0px" y="0px"
	 viewBox="0 0 82 64" style="enable-background:new 0 0 82 64;" xml:space="preserve">
<style type="text/css">
	.st0{clip-path:url(#SVGID_2_);fill:#BBBBBB;}
	.st1{clip-path:url(#SVGID_2_);fill:#BCBCBB;}
	.st2{clip-path:url(#SVGID_2_);fill:#BCBCBC;}
	.st3{clip-path:url(#SVGID_2_);fill:#BDBCBC;}
	.st4{clip-path:url(#SVGID_2_);fill:#BDBDBD;}
	.st5{clip-path:url(#SVGID_2_);fill:#BEBEBD;}
	.st6{clip-path:url(#SVGID_2_);fill:#BEBEBE;}
	.st7{clip-path:url(#SVGID_2_);fill:#BFBFBE;}
	.st8{clip-path:url(#SVGID_2_);fill:#C0BFBF;}
	.st9{clip-path:url(#SVGID_2_);fill:#C0C0C0;}
	.st10{clip-path:url(#SVGID_2_);fill:#C1C1C0;}
	.st11{clip-path:url(#SVGID_2_);fill:#C2C1C1;}
	.st12{clip-path:url(#SVGID_2_);fill:#C2C2C2;}
	.st13{clip-path:url(#SVGID_2_);fill:#C3C3C3;}
	.st14{clip-path:url(#SVGID_2_);fill:#C4C4C3;}
	.st15{clip-path:url(#SVGID_2_);fill:#C5C4C4;}
	.st16{clip-path:url(#SVGID_2_);fill:#C5C5C5;}
	.st17{clip-path:url(#SVGID_2_);fill:#C6C6C6;}
	.st18{clip-path:url(#SVGID_2_);fill:#C7C7C7;}
	.st19{clip-path:url(#SVGID_2_);fill:#C8C8C7;}
	.st20{clip-path:url(#SVGID_2_);fill:#C9C9C8;}
	.st21{clip-path:url(#SVGID_2_);fill:#CAC9C9;}
	.st22{clip-path:url(#SVGID_2_);fill:#CBCACA;}
	.st23{clip-path:url(#SVGID_2_);fill:#CCCBCB;}
	.st24{clip-path:url(#SVGID_2_);fill:#CCCCCC;}
	.st25{clip-path:url(#SVGID_2_);fill:#CDCDCD;}
	.st26{clip-path:url(#SVGID_2_);fill:#CECECE;}
	.st27{clip-path:url(#SVGID_2_);fill:#CFCFCF;}
	.st28{clip-path:url(#SVGID_2_);fill:#D0D0D0;}
	.st29{clip-path:url(#SVGID_2_);fill:#D1D1D1;}
	.st30{clip-path:url(#SVGID_2_);fill:#D2D2D2;}
	.st31{clip-path:url(#SVGID_2_);fill:#D3D3D3;}
	.st32{clip-path:url(#SVGID_2_);fill:#D4D4D4;}
	.st33{clip-path:url(#SVGID_2_);fill:#D6D5D5;}
	.st34{clip-path:url(#SVGID_2_);fill:#D7D6D6;}
	.st35{clip-path:url(#SVGID_2_);fill:#D8D7D7;}
	.st36{clip-path:url(#SVGID_2_);fill:#D9D9D9;}
	.st37{clip-path:url(#SVGID_2_);fill:#DADADA;}
	.st38{clip-path:url(#SVGID_2_);fill:#DBDBDB;}
	.st39{clip-path:url(#SVGID_2_);fill:#DCDCDC;}
	.st40{clip-path:url(#SVGID_2_);fill:#DDDDDD;}
	.st41{clip-path:url(#SVGID_2_);fill:#DFDEDE;}
	.st42{clip-path:url(#SVGID_2_);fill:#E0DFE0;}
	.st43{clip-path:url(#SVGID_2_);fill:#E1E1E1;}
	.st44{clip-path:url(#SVGID_2_);fill:#E2E2E2;}
	.st45{clip-path:url(#SVGID_2_);fill:#E3E3E3;}
	.st46{clip-path:url(#SVGID_2_);fill:#E5E4E4;}
	.st47{clip-path:url(#SVGID_2_);fill:#E6E6E6;}
	.st48{clip-path:url(#SVGID_2_);fill:#E7E7E7;}
	.st49{clip-path:url(#SVGID_2_);fill:#E8E8E8;}
	.st50{fill:#F0F0F1;}
	.st51{fill:#BBBBBB;}
	.st52{fill:none;stroke:#BBBBBB;stroke-width:2;stroke-linecap:round;stroke-linejoin:round;stroke-miterlimit:10;}
</style>
<g>
	<g>
		<g>
			<defs>
				<polygon id="SVGID_1_" points="38,56 41,61 43,58 12,9 12,11 				"/>
			</defs>
			<clipPath id="SVGID_2_">
				<use xlink:href="#SVGID_1_"  style="overflow:visible;"/>
			</clipPath>
			<polygon class="st0" points="14.4,9 12,10.2 12,9 			"/>
			<polygon class="st0" points="16.4,9 12,11.3 12,10.2 14.4,9 			"/>
			<polygon class="st0" points="18.5,9 12,12.4 12,11.3 16.4,9 			"/>
			<polygon class="st0" points="19.6,9 19.8,9.4 12,13.5 12,12.4 18.5,9 			"/>
			<polygon class="st1" points="19.8,9.4 20.2,10.3 12,14.6 12,13.5 			"/>
			<polygon class="st2" points="20.2,10.3 20.7,11.1 12.2,15.6 12,15.3 12,14.6 			"/>
			<rect x="11.8" y="13.3" transform="matrix(0.8857 -0.4642 0.4642 0.8857 -4.4981 9.3019)" class="st3" width="9.6" height="1"/>
			<rect x="12.3" y="14.2" transform="matrix(0.8857 -0.4642 0.4642 0.8857 -4.8435 9.6073)" class="st4" width="9.6" height="1"/>
			<rect x="12.7" y="15" transform="matrix(0.8857 -0.4642 0.4642 0.8857 -5.1888 9.9127)" class="st5" width="9.6" height="1"/>
			<rect x="13.2" y="15.9" transform="matrix(0.8857 -0.4642 0.4642 0.8857 -5.5342 10.2181)" class="st6" width="9.6" height="1"/>
			<rect x="13.6" y="16.7" transform="matrix(0.8857 -0.4642 0.4642 0.8857 -5.8796 10.5236)" class="st7" width="9.6" height="1"/>
			<rect x="14.1" y="17.6" transform="matrix(0.8857 -0.4642 0.4642 0.8857 -6.225 10.829)" class="st8" width="9.6" height="1"/>
			<rect x="14.5" y="18.4" transform="matrix(0.8857 -0.4642 0.4642 0.8857 -6.5704 11.1344)" class="st9" width="9.6" height="1"/>
			<rect x="15" y="19.3" transform="matrix(0.8857 -0.4642 0.4642 0.8857 -6.9157 11.4398)" class="st10" width="9.6" height="1"/>
			
				<rect x="15.4" y="20.1" transform="matrix(0.8857 -0.4642 0.4642 0.8857 -7.2611 11.7452)" class="st11" width="9.6" height="1"/>
			<rect x="15.9" y="21" transform="matrix(0.8857 -0.4642 0.4642 0.8857 -7.6065 12.0506)" class="st12" width="9.6" height="1"/>
			
				<rect x="16.3" y="21.8" transform="matrix(0.8857 -0.4642 0.4642 0.8857 -7.9519 12.3561)" class="st13" width="9.6" height="1"/>
			
				<rect x="16.7" y="22.7" transform="matrix(0.8857 -0.4642 0.4642 0.8857 -8.2973 12.6615)" class="st14" width="9.6" height="1"/>
			
				<rect x="17.2" y="23.6" transform="matrix(0.8857 -0.4642 0.4642 0.8857 -8.6426 12.9669)" class="st15" width="9.6" height="1"/>
			<rect x="17.6" y="24.4" transform="matrix(0.8857 -0.4642 0.4642 0.8857 -8.988 13.2723)" class="st16" width="9.6" height="1"/>
			
				<rect x="18.1" y="25.3" transform="matrix(0.8857 -0.4642 0.4642 0.8857 -9.3334 13.5777)" class="st17" width="9.6" height="1"/>
			
				<rect x="18.5" y="26.1" transform="matrix(0.8857 -0.4642 0.4642 0.8857 -9.6788 13.8831)" class="st18" width="9.6" height="1"/>
			<rect x="19" y="27" transform="matrix(0.8857 -0.4642 0.4642 0.8857 -10.0241 14.1886)" class="st19" width="9.6" height="1"/>
			
				<rect x="19.4" y="27.8" transform="matrix(0.8857 -0.4642 0.4642 0.8857 -10.3695 14.494)" class="st20" width="9.6" height="1"/>
			
				<rect x="19.9" y="28.7" transform="matrix(0.8857 -0.4642 0.4642 0.8857 -10.7149 14.7994)" class="st21" width="9.6" height="1"/>
			
				<rect x="20.3" y="29.5" transform="matrix(0.8857 -0.4642 0.4642 0.8857 -11.0603 15.1048)" class="st22" width="9.6" height="1"/>
			
				<rect x="20.8" y="30.4" transform="matrix(0.8857 -0.4642 0.4642 0.8857 -11.4057 15.4102)" class="st23" width="9.6" height="1"/>
			
				<rect x="21.2" y="31.2" transform="matrix(0.8857 -0.4642 0.4642 0.8857 -11.751 15.7156)" class="st24" width="9.6" height="1"/>
			
				<rect x="21.7" y="32.1" transform="matrix(0.8857 -0.4642 0.4642 0.8857 -12.0964 16.0211)" class="st25" width="9.6" height="1"/>
			<rect x="22.1" y="33" transform="matrix(0.8857 -0.4642 0.4642 0.8857 -12.4418 16.3265)" class="st26" width="9.6" height="1"/>
			
				<rect x="22.6" y="33.8" transform="matrix(0.8857 -0.4642 0.4642 0.8857 -12.7872 16.6319)" class="st27" width="9.6" height="1"/>
			<rect x="23" y="34.7" transform="matrix(0.8857 -0.4642 0.4642 0.8857 -13.1326 16.9373)" class="st28" width="9.6" height="1"/>
			
				<rect x="23.5" y="35.5" transform="matrix(0.8857 -0.4642 0.4642 0.8857 -13.4779 17.2427)" class="st29" width="9.6" height="1"/>
			
				<rect x="23.9" y="36.4" transform="matrix(0.8857 -0.4642 0.4642 0.8857 -13.8233 17.5481)" class="st30" width="9.6" height="1"/>
			
				<rect x="24.4" y="37.2" transform="matrix(0.8857 -0.4642 0.4642 0.8857 -14.1687 17.8536)" class="st31" width="9.6" height="1"/>
			
				<rect x="24.8" y="38.1" transform="matrix(0.8857 -0.4642 0.4642 0.8857 -14.5141 18.159)" class="st32" width="9.6" height="1"/>
			
				<rect x="25.3" y="38.9" transform="matrix(0.8857 -0.4642 0.4642 0.8857 -14.8594 18.4644)" class="st33" width="9.6" height="1"/>
			
				<rect x="25.7" y="39.8" transform="matrix(0.8857 -0.4642 0.4642 0.8857 -15.2048 18.7698)" class="st34" width="9.6" height="1"/>
			
				<rect x="26.2" y="40.6" transform="matrix(0.8857 -0.4642 0.4642 0.8857 -15.5502 19.0752)" class="st35" width="9.6" height="1"/>
			
				<rect x="26.6" y="41.5" transform="matrix(0.8857 -0.4642 0.4642 0.8857 -15.8956 19.3806)" class="st36" width="9.6" height="1"/>
			<rect x="27" y="42.4" transform="matrix(0.8857 -0.4642 0.4642 0.8857 -16.241 19.686)" class="st37" width="9.6" height="1"/>
			
				<rect x="27.5" y="43.2" transform="matrix(0.8857 -0.4642 0.4642 0.8857 -16.5863 19.9915)" class="st38" width="9.6" height="1"/>
			
				<rect x="27.9" y="44.1" transform="matrix(0.8857 -0.4642 0.4642 0.8857 -16.9317 20.2969)" class="st39" width="9.6" height="1"/>
			
				<rect x="28.4" y="44.9" transform="matrix(0.8857 -0.4642 0.4642 0.8857 -17.2771 20.6023)" class="st40" width="9.6" height="1"/>
			
				<rect x="28.8" y="45.8" transform="matrix(0.8857 -0.4642 0.4642 0.8857 -17.6225 20.9077)" class="st41" width="9.6" height="1"/>
			
				<rect x="29.3" y="46.6" transform="matrix(0.8857 -0.4642 0.4642 0.8857 -17.9679 21.2131)" class="st42" width="9.6" height="1"/>
			
				<rect x="29.7" y="47.5" transform="matrix(0.8857 -0.4642 0.4642 0.8857 -18.3132 21.5185)" class="st43" width="9.6" height="1"/>
			
				<rect x="30.2" y="48.3" transform="matrix(0.8857 -0.4642 0.4642 0.8857 -18.6586 21.824)" class="st44" width="9.6" height="1"/>
			
				<rect x="30.6" y="49.2" transform="matrix(0.8857 -0.4642 0.4642 0.8857 -19.004 22.1294)" class="st45" width="9.6" height="1"/>
			<rect x="31.1" y="50" transform="matrix(0.8857 -0.4642 0.4642 0.8857 -19.3494 22.4348)" class="st46" width="9.6" height="1"/>
			
				<rect x="31.5" y="50.9" transform="matrix(0.8857 -0.4642 0.4642 0.8857 -19.6948 22.7402)" class="st47" width="9.6" height="1"/>
			<rect x="32" y="51.7" transform="matrix(0.8857 -0.4642 0.4642 0.8857 -20.0401 23.0456)" class="st48" width="9.6" height="1"/>
			
				<rect x="32.4" y="52.6" transform="matrix(0.8857 -0.4642 0.4642 0.8857 -20.3855 23.351)" class="st49" width="9.6" height="1"/>
			<polygon class="st49" points="41.7,51.3 43,53.7 43,61 35.9,61 33.2,55.7 			"/>
		</g>
	</g>
	<g>
		<path class="st50" d="M11,54V10L8,4v54C8,58,10,55,11,54z"/>
	</g>
	<g>
		<path class="st51" d="M11,37H3c-0.4,0-0.7-0.2-0.9-0.6c-0.2-0.3-0.1-0.8,0.1-1.1l4-5c0.4-0.5,1.2-0.5,1.6,0l4,5
			c0.2,0.3,0.3,0.7,0.1,1.1C11.7,36.8,11.4,37,11,37z M5.1,35h3.8L7,32.6L5.1,35z"/>
	</g>
	<g>
		<path class="st51" d="M36.4,54.2c-0.1,0-0.2,0-0.4-0.1l-6-2.3c-0.4-0.1-0.6-0.5-0.6-0.9c0-0.4,0.2-0.7,0.5-0.9l6.9-4
			c0.3-0.2,0.7-0.2,1.1,0c0.3,0.2,0.5,0.6,0.4,1l-1,6.3c0,0.3-0.2,0.6-0.5,0.7C36.7,54.2,36.5,54.2,36.4,54.2z M32.7,50.7l2.9,1.1
			l0.5-3L32.7,50.7z"/>
	</g>
	<g>
		<path class="st51" d="M21.1,28.1c-0.1,0-0.3,0-0.4-0.1l-5.9-2.4c-0.4-0.1-0.6-0.5-0.6-0.9c0-0.4,0.2-0.7,0.5-0.9l7-3.9
			c0.3-0.2,0.7-0.2,1.1,0.1c0.3,0.2,0.5,0.6,0.4,1l-1,6.3c0,0.3-0.2,0.6-0.5,0.7C21.4,28.1,21.2,28.1,21.1,28.1z M17.4,24.6l2.8,1.1
			l0.5-3L17.4,24.6z"/>
	</g>
	<g>
		<path class="st51" d="M7,62c-0.1,0-0.2,0-0.3,0C6.3,61.8,6,61.5,6,61V36c0-0.6,0.4-1,1-1s1,0.4,1,1v21.3L40.1,2.5
			C40.4,2,41,1.9,41.5,2.1C42,2.4,42.1,3,41.9,3.5l-34,58C7.7,61.8,7.3,62,7,62z"/>
	</g>
	<g>
		<path class="st52" d="M21.2,22"/>
	</g>
	<g>
		<path class="st51" d="M41,62c-0.3,0-0.7-0.2-0.9-0.5l-3-5c-0.3-0.5-0.1-1.1,0.3-1.4c0.5-0.3,1.1-0.1,1.4,0.3l3,5
			c0.3,0.5,0.1,1.1-0.3,1.4C41.4,62,41.2,62,41,62z"/>
	</g>
	<g>
		<path class="st51" d="M33.9,49.8c-0.3,0-0.7-0.2-0.9-0.5l-9.7-16.5c-0.3-0.5-0.1-1.1,0.4-1.4c0.5-0.3,1.1-0.1,1.4,0.4l9.7,16.5
			c0.3,0.5,0.1,1.1-0.4,1.4C34.2,49.8,34,49.8,33.9,49.8z"/>
	</g>
	<g>
		<path class="st51" d="M7,27c-0.6,0-1-0.4-1-1V2c0-0.5,0.3-0.9,0.7-1c0.4-0.1,0.9,0.1,1.1,0.5l11.6,20.7c0.3,0.5,0.1,1.1-0.4,1.4
			c-0.5,0.3-1.1,0.1-1.4-0.4L8,5.8V26C8,26.6,7.6,27,7,27z"/>
	</g>
	<g>
		<path class="st50" d="M71,10.3v45l3,5v-53C74,7.3,71.3,10.5,71,10.3z"/>
	</g>
	<g>
		<path class="st51" d="M75,35.3c-0.3,0-0.6-0.1-0.8-0.4l-4-5c-0.2-0.3-0.3-0.7-0.1-1.1c0.2-0.3,0.5-0.6,0.9-0.6h8
			c0.4,0,0.7,0.2,0.9,0.6c0.2,0.3,0.1,0.8-0.1,1.1l-4,5C75.6,35.1,75.3,35.3,75,35.3z M73.1,30.3l1.9,2.4l1.9-2.4H73.1z"/>
	</g>
	<g>
		<path class="st51" d="M44.7,19.4c-0.2,0-0.4-0.1-0.6-0.2c-0.3-0.2-0.5-0.6-0.4-1l1-6.3c0-0.3,0.2-0.6,0.5-0.7
			c0.3-0.2,0.6-0.2,0.9-0.1l6,2.3c0.4,0.1,0.6,0.5,0.6,0.9s-0.2,0.7-0.5,0.9l-6.9,4C45,19.3,44.8,19.4,44.7,19.4z M46.4,13.4l-0.5,3
			l3.3-1.9L46.4,13.4z"/>
	</g>
	<g>
		<path class="st51" d="M59.9,45.4c-0.2,0-0.4-0.1-0.6-0.2c-0.3-0.2-0.5-0.6-0.4-1l1-6.3c0-0.3,0.2-0.6,0.5-0.7
			c0.3-0.2,0.6-0.2,0.9-0.1l5.9,2.4c0.4,0.1,0.6,0.5,0.6,0.9c0,0.4-0.2,0.7-0.5,0.9l-7,3.9C60.2,45.4,60.1,45.4,59.9,45.4z
			 M61.7,39.5l-0.5,3l3.3-1.9L61.7,39.5z"/>
	</g>
	<g>
		<path class="st51" d="M41,62c-0.2,0-0.3,0-0.5-0.1c-0.5-0.3-0.6-0.9-0.4-1.4l34-57.7c0.2-0.4,0.7-0.6,1.1-0.5
			c0.4,0.1,0.7,0.5,0.7,1v26c0,0.6-0.4,1-1,1s-1-0.4-1-1V6.9L41.9,61.5C41.7,61.8,41.3,62,41,62z"/>
	</g>
	<g>
		<path class="st52" d="M60.8,43.2"/>
	</g>
	<g>
		<path class="st51" d="M44,10c-0.4,0-0.7-0.2-0.9-0.6l-3-6c-0.2-0.5,0-1.1,0.4-1.3c0.5-0.2,1.1,0,1.3,0.4l3,6
			c0.2,0.5,0,1.1-0.4,1.3C44.3,10,44.2,10,44,10z"/>
	</g>
	<g>
		<path class="st51" d="M57.8,33.9c-0.3,0-0.7-0.2-0.9-0.5l-9.7-16.5c-0.3-0.5-0.1-1.1,0.4-1.4c0.5-0.3,1.1-0.1,1.4,0.4l9.7,16.5
			c0.3,0.5,0.1,1.1-0.4,1.4C58.2,33.9,58,33.9,57.8,33.9z"/>
	</g>
	<g>
		<path class="st51" d="M75,63c-0.3,0-0.7-0.2-0.9-0.5L62.6,43c-0.3-0.5-0.1-1.1,0.3-1.4c0.5-0.3,1.1-0.1,1.4,0.3L74,58.4V39.3
			c0-0.6,0.4-1,1-1s1,0.4,1,1V62c0,0.5-0.3,0.8-0.7,1C75.2,63,75.1,63,75,63z"/>
	</g>
</g>
</svg>
