<?xml version="1.0" encoding="utf-8"?>
<!-- Generator: Adobe Illustrator 22.0.0, SVG Export Plug-In . SVG Version: 6.00 Build 0)  -->
<svg version="1.1" id="图层_1" xmlns="http://www.w3.org/2000/svg" xmlns:xlink="http://www.w3.org/1999/xlink" x="0px" y="0px"
	 viewBox="0 0 84 64" style="enable-background:new 0 0 84 64;" xml:space="preserve">
<style type="text/css">
	.st0{opacity:0.2;fill:#ADADAD;}
	.st1{opacity:0.8;fill:#F0F0F1;}
	.st2{fill:none;stroke:#BBBBBB;stroke-width:2;stroke-linecap:round;stroke-linejoin:round;stroke-miterlimit:10;}
	.st3{fill:#BBBBBB;}
	.st4{fill:none;stroke:#BBBBBB;stroke-linecap:round;stroke-linejoin:round;stroke-miterlimit:10;}
</style>
<g>
	<path class="st0" d="M68,6c0,1.7-1.3,3-3,3c-1.7,0,0.8-1.3,0.8-3S63.4,3,65,3C66.7,3,68,4.3,68,6z"/>
	<path class="st1" d="M20,15v-3c0,0,0.4-4,6-4c0,0-3.2,1.5-3,3s0,4,0,4H20z"/>
	<path class="st1" d="M7,23c0.1-0.7,0-8,0-8s-3.8-1.8-4,3c-0.2,4.8,0,5,0,5H7z"/>
	<path class="st0" d="M77,23v-8c0,0,3.8-1.5,3.9,3.3c0.2,4.8,0,5,0,5L77,23z"/>
	<path class="st1" d="M14,41c0-0.8,0-18,0-18h-4v18H14z"/>
	<path class="st0" d="M75,41c0-0.8,0-18,0-18h-4v18H75z"/>
	<path class="st2" d="M73,41H12c-1.1,0-2-0.9-2-2V23h65v16C75,40.1,74.1,41,73,41z"/>
	<path class="st2" d="M18,15h59c2.2,0,4,1.8,4,4v4H3v-4c0-2.2,1.8-4,4-4h5"/>
	<path class="st2" d="M23,15v-2c0-2.2,1.8-4,4-4h38c1.7,0,3-1.3,3-3v0c0-1.7-1.3-3-3-3H23h-4c-3.9,0-7,3.1-7,7v5"/>
	<g>
		<path class="st3" d="M73,18c0.6,0,1,0.4,1,1s-0.4,1-1,1s-1-0.4-1-1S72.5,18,73,18 M73,17c-1.1,0-2,0.9-2,2s0.9,2,2,2
			c1.1,0,2-0.9,2-2S74.1,17,73,17L73,17z"/>
	</g>
	<g>
		<path class="st3" d="M67,18c0.6,0,1,0.4,1,1s-0.4,1-1,1s-1-0.4-1-1S66.5,18,67,18 M67,17c-1.1,0-2,0.9-2,2s0.9,2,2,2
			c1.1,0,2-0.9,2-2S68.1,17,67,17L67,17z"/>
	</g>
	<line class="st2" x1="19" y1="31" x2="19" y2="41"/>
	<line class="st2" x1="28" y1="31" x2="28" y2="41"/>
	<line class="st2" x1="37" y1="31" x2="37" y2="41"/>
	<line class="st2" x1="65" y1="31" x2="65" y2="41"/>
	<line class="st2" x1="57" y1="31" x2="57" y2="41"/>
	<path class="st2" d="M18.5,41c2.5,0,4.5,2,4.5,4.5v0c0,2.5-2,4.5-4.5,4.5H8"/>
	<path class="st2" d="M60,41L60,41c0,2.2,1.8,4,4,4h12c2.2,0,4,1.8,4,4v0c0,2.2-1.8,4-4,4H42.5c-1.4,0-2.5,1.1-2.5,2.5v0
		c0,1.4,1.1,2.5,2.5,2.5H55c1.1,0,2,0.9,2,2v1"/>
	<g>
		<circle class="st3" cx="46.5" cy="47.5" r="2.3"/>
	</g>
	<g>
		<circle class="st3" cx="31.5" cy="58.5" r="2.3"/>
	</g>
	<g>
		<circle class="st3" cx="63.5" cy="57.5" r="2.3"/>
	</g>
	<g>
		<circle class="st4" cx="19.9" cy="56.1" r="4"/>
	</g>
	<g>
		<circle class="st4" cx="30.9" cy="50.4" r="2.4"/>
	</g>
</g>
</svg>
