<?xml version="1.0" encoding="utf-8"?>
<!-- Generator: Adobe Illustrator 22.0.0, SVG Export Plug-In . SVG Version: 6.00 Build 0)  -->
<svg version="1.1" id="图层_1" xmlns="http://www.w3.org/2000/svg" xmlns:xlink="http://www.w3.org/1999/xlink" x="0px" y="0px"
	 viewBox="0 0 50 64" style="enable-background:new 0 0 50 64;" xml:space="preserve">
<style type="text/css">
	.st0{opacity:0.8;}
	.st1{fill:#F0F0F1;}
	.st2{opacity:0.2;}
	.st3{fill:#ADADAD;}
	.st4{fill:#BBBBBB;}
</style>
<g>
	<g class="st0">
		<path class="st1" d="M10,3C7.8,3,6,4.8,6,7v50c0,2.2,1.8,4,4,4H7c-2.2,0-4-1.8-4-4V7c0-2.2,1.8-4,4-4H10z"/>
	</g>
	<g class="st2">
		<path class="st3" d="M40,3c2.2,0,4,1.8,4,4v50c0,2.2-1.8,4-4,4h3c2.2,0,4-1.8,4-4V7c0-2.2-1.8-4-4-4H40z"/>
	</g>
	<g>
		<path class="st4" d="M43,62H7c-2.8,0-5-2.2-5-5V7c0-2.8,2.2-5,5-5h36c2.8,0,5,2.2,5,5v50C48,59.8,45.8,62,43,62z M7,4
			C5.3,4,4,5.3,4,7v50c0,1.7,1.3,3,3,3h36c1.7,0,3-1.3,3-3V7c0-1.7-1.3-3-3-3H7z"/>
	</g>
	<g>
		<path class="st4" d="M25,40c-9.4,0-17-7.6-17-17S15.6,6,25,6s17,7.6,17,17S34.4,40,25,40z M25,8c-8.3,0-15,6.7-15,15s6.7,15,15,15
			c8.3,0,15-6.7,15-15S33.3,8,25,8z"/>
	</g>
	<g>
		<path class="st4" d="M25,32c-5,0-9-4-9-9s4-9,9-9c5,0,9,4,9,9S30,32,25,32z M25,16c-3.9,0-7,3.1-7,7s3.1,7,7,7c3.9,0,7-3.1,7-7
			S28.9,16,25,16z"/>
	</g>
	<g>
		<circle class="st4" cx="37" cy="22" r="1"/>
	</g>
	<g>
		<circle class="st4" cx="25" cy="11" r="1"/>
	</g>
	<g>
		<circle class="st4" cx="13" cy="22" r="1"/>
	</g>
	<g>
		<circle class="st4" cx="25" cy="35" r="1"/>
	</g>
	<g>
		<path class="st4" d="M23,21.3v3.4c0,1,1.1,1.6,1.9,1l2.6-1.7c0.7-0.5,0.7-1.6,0-2l-2.6-1.7C24.1,19.7,23,20.3,23,21.3z"/>
	</g>
	<g>
		<path class="st4" d="M25,56c-2.2,0-4-1.8-4-4s1.8-4,4-4c2.2,0,4,1.8,4,4S27.2,56,25,56z M25,50c-1.1,0-2,0.9-2,2s0.9,2,2,2
			s2-0.9,2-2S26.1,50,25,50z"/>
	</g>
	<g>
		<path class="st4" d="M39.9,48.9L39.3,47c0.4-0.1,0.7-0.5,0.7-1l2,0v0C42,47.3,41.2,48.4,39.9,48.9z M37.5,48.6
			C36.6,48.1,36,47.1,36,46c0-0.2,0-0.4,0.1-0.6l2,0.4c0,0.1,0,0.1,0,0.2c0,0.4,0.2,0.7,0.5,0.9L37.5,48.6z M39.7,45.2
			C39.5,45.1,39.3,45,39,45c-0.2,0-0.4,0-0.5,0.1l-1-1.7c1.1-0.6,2.6-0.5,3.5,0.3L39.7,45.2z"/>
	</g>
	<g>
		<path class="st4" d="M11.9,47.9L11.3,46c0.4-0.1,0.7-0.5,0.7-1l2,0v0C14,46.3,13.2,47.4,11.9,47.9z M9.5,47.6
			C8.6,47.1,8,46.1,8,45c0-0.2,0-0.4,0.1-0.6l2,0.4c0,0.1,0,0.1,0,0.2c0,0.4,0.2,0.7,0.5,0.9L9.5,47.6z M11.7,44.2
			c-0.3-0.3-0.8-0.3-1.2-0.1l-1-1.7c1.1-0.6,2.6-0.5,3.5,0.3L11.7,44.2z"/>
	</g>
</g>
</svg>
