<?xml version="1.0" encoding="utf-8"?>
<!-- Generator: Adobe Illustrator 22.0.0, SVG Export Plug-In . SVG Version: 6.00 Build 0)  -->
<svg version="1.1" id="图层_1" xmlns="http://www.w3.org/2000/svg" xmlns:xlink="http://www.w3.org/1999/xlink" x="0px" y="0px"
	 viewBox="0 0 64 64" style="enable-background:new 0 0 64 64;" xml:space="preserve">
<style type="text/css">
	.st0{opacity:0.8;}
	.st1{fill:#F0F0F1;}
	.st2{fill:#BBBBBB;}
</style>
<g>
	<g class="st0">
		<path class="st1" d="M14.2,6c0,0,5.1,3.7,6.7,9.7c1.6,5.9,3.7,15.8,12.6,19.3s16.1,9,14.9,23.8c2.9-4.7,3.2-7.9,0.7-15.6
			c-2.4-7.7-13.4-11.9-13.4-11.9s-8.1-1.5-9.7-12.6C24.5,7.5,14.2,3,14.2,3V6z"/>
	</g>
	<g>
		<g>
			<path class="st2" d="M41.5,62l-19.9,0c-0.2,0-0.4-0.1-0.5-0.1c-1.2-0.3-2-1.2-2-2.4c0-2,1.9-3.4,4.9-3.4c0.7,0,1.3,0,1.8,0
				c-1.6-1.6-3.7-4.2-3.8-7.5c-1,3.1-3.1,9.3-3.2,9.6c0,0.1-1.2,3.7-4.7,3.7H8.2c-0.5,0-1.1-0.4-1.5-1c-0.5-0.8-0.6-1.8-0.2-2.7
				c0.8-1.7,1.9-2,2.8-2.2c0.8-0.2,1.5-0.4,2.5-1.7c1.9-2.4,0.9-4.1,0.8-4.2c-4.2-6.8-3.2-11.5-2.4-15.7c0.3-1.7,0.7-3.2,0.6-4.8
				C10.8,26.6,9,25.2,8.7,25c-0.4-0.2-0.7-0.3-1-0.5c-2-0.9-3.4-1.5-4.8-4C1.8,18.8,2,16.4,2,16.3c0-0.4,0.3-0.8,0.8-0.9
				c0.9-0.2,2-0.5,2.3-0.6c1-0.5,1.4-1.1,2-2.1c0.2-0.3,0.4-0.6,0.6-0.9c1.2-1.7,4-2.6,5.5-2.9V3c0-0.4,0.2-0.7,0.5-0.9
				c0.3-0.2,0.7-0.1,1,0.1c0.3,0.2,6.8,4.9,9.6,9c2,3.3,2.6,6.2,3.1,8.6c0.1,0.6,0.2,1.1,0.3,1.6c0.4,1.8,1.3,4.1,4.3,6.9
				c0.9,0.8,2.4,1.5,4.2,2.4c5.5,2.5,13.6,6.3,15.3,18.3c0.7-0.2,1.4-0.6,1.8-1.2c1-1.3,0.7-4-0.7-7.6c-4.5-11.1-4.9-18.1-1.3-21.5
				c1.6-1.5,4.5-2.9,8.5-0.9c0.8,0.4,1.5,1.2,1.8,2.1c0.4,1.1,0.3,2.2-0.1,3.1c-0.9,1.9-3,2.6-4.8,1.8c-0.4-0.2-0.7-0.3-0.9-0.3
				c-0.1,0.9-0.1,4.2,3.4,13c2.5,6.2,2.4,11.1-0.2,14.6c-2.1,2.8-5.3,3.9-7.8,4.3C49.8,60.5,45.2,62,41.5,62z M21.6,60h19.9
				c2.5,0,7.1-1,8.1-4.9c0.1-0.4,0.4-0.7,0.8-0.7c2.2-0.3,5.2-1.1,7.1-3.6c2.2-2.9,2.2-7.2,0-12.7c-3.4-8.4-4.5-14.1-2.9-15.5
				c0.4-0.3,1.1-0.7,3,0.3c0.9,0.4,1.7-0.1,2.1-0.9c0.2-0.4,0.2-1,0-1.5c-0.2-0.5-0.5-0.8-0.8-1c-2.5-1.2-4.6-1-6.3,0.6
				c-2.9,2.6-2.2,9.3,1.8,19.2c1.8,4.4,1.9,7.6,0.4,9.5c-0.8,1.1-2.2,1.8-4.1,2.2c-0.3,0.1-0.6,0-0.8-0.2c-0.2-0.2-0.4-0.4-0.4-0.7
				C48.6,38.5,41,35,35.5,32.4c-2-0.9-3.7-1.7-4.7-2.7c-3.4-3.2-4.4-5.7-4.9-7.9c-0.1-0.5-0.2-1.1-0.4-1.7c-0.5-2.2-1-5-2.8-7.9
				c-1.8-2.6-5.4-5.6-7.5-7.2v4.7c0,0.5-0.3,0.9-0.8,1c-1.5,0.3-4.2,1.1-5,2.3c-0.2,0.3-0.4,0.6-0.5,0.8c-0.7,1.1-1.4,2.1-2.8,2.8
				C5.5,16.8,4.7,17,4,17.2c0,0.7,0.2,1.6,0.6,2.4c1.1,1.9,1.9,2.2,3.9,3.1c0.3,0.2,0.7,0.3,1.1,0.5c0,0,0.1,0,0.1,0.1
				c0.1,0.1,3,1.9,3.2,6.4c0.1,1.8-0.3,3.5-0.6,5.3c-0.8,4-1.7,8.1,2.1,14.2c0.1,0.1,1.9,2.9-1,6.5c-1.4,1.8-2.7,2.1-3.6,2.4
				c-0.8,0.2-1.1,0.3-1.5,1.2c-0.2,0.4,0,0.7,0.1,0.8h5.7c2,0,2.8-2.3,2.8-2.3c0-0.1,3.3-10,3.7-11.2c0.9-2.7,2.9-4.9,5.4-6
				c2.1-0.9,5.5-1.4,10.1,1c0.5,0.2,0.7,0.8,0.4,1.3s-0.8,0.7-1.3,0.5c0,0-4.9-2.1-8.3-0.3c-1.6,0.8-2.6,2.4-3,4.8
				c-0.4,3.9,3,6.8,4.4,8c0.7,0.6,1.1,1,0.9,1.7c-0.2,0.4-0.6,0.6-1,0.7l-1.1,0c-0.8,0-1.6,0-3.1,0c-1.4,0-3,0.4-3,1.4
				C21.1,59.9,21.5,60,21.6,60z"/>
		</g>
	</g>
	<g>
		<path class="st2" d="M14.2,15.9c-0.6,0-1-0.4-1-1c0-0.3-0.2-0.5-0.5-0.5s-0.5,0.2-0.5,0.5c0,0.6-0.4,1-1,1s-1-0.4-1-1
			c0-1.4,1.1-2.5,2.5-2.5s2.5,1.1,2.5,2.5C15.2,15.4,14.7,15.9,14.2,15.9z"/>
	</g>
</g>
</svg>
