<?xml version="1.0" encoding="utf-8"?>
<!-- Generator: Adobe Illustrator 22.0.0, SVG Export Plug-In . SVG Version: 6.00 Build 0)  -->
<svg version="1.1" id="Layer_1" xmlns="http://www.w3.org/2000/svg" xmlns:xlink="http://www.w3.org/1999/xlink" x="0px" y="0px"
	 viewBox="0 0 64 64" style="enable-background:new 0 0 64 64;" xml:space="preserve">
<style type="text/css">
	.st0{clip-path:url(#SVGID_2_);fill:#E8E7E9;}
	.st1{clip-path:url(#SVGID_2_);fill:#E7E6E7;}
	.st2{clip-path:url(#SVGID_2_);fill:#E6E5E6;}
	.st3{clip-path:url(#SVGID_2_);fill:#E4E3E5;}
	.st4{clip-path:url(#SVGID_2_);fill:#E3E2E4;}
	.st5{clip-path:url(#SVGID_2_);fill:#E2E1E2;}
	.st6{clip-path:url(#SVGID_2_);fill:#E1E0E1;}
	.st7{clip-path:url(#SVGID_2_);fill:#E0DFE0;}
	.st8{clip-path:url(#SVGID_2_);fill:#DFDEDF;}
	.st9{clip-path:url(#SVGID_2_);fill:#DEDCDE;}
	.st10{clip-path:url(#SVGID_2_);fill:#DCDBDD;}
	.st11{clip-path:url(#SVGID_2_);fill:#DBDADC;}
	.st12{clip-path:url(#SVGID_2_);fill:#DAD9DB;}
	.st13{clip-path:url(#SVGID_2_);fill:#D9D8D9;}
	.st14{clip-path:url(#SVGID_2_);fill:#D8D7D8;}
	.st15{clip-path:url(#SVGID_2_);fill:#D7D6D7;}
	.st16{clip-path:url(#SVGID_2_);fill:#D6D5D6;}
	.st17{clip-path:url(#SVGID_2_);fill:#D5D4D5;}
	.st18{clip-path:url(#SVGID_2_);fill:#D4D3D4;}
	.st19{clip-path:url(#SVGID_2_);fill:#D3D2D3;}
	.st20{clip-path:url(#SVGID_2_);fill:#D2D1D2;}
	.st21{clip-path:url(#SVGID_2_);fill:#D1D0D1;}
	.st22{clip-path:url(#SVGID_2_);fill:#D0CFD0;}
	.st23{clip-path:url(#SVGID_2_);fill:#CFCED0;}
	.st24{clip-path:url(#SVGID_2_);fill:#CECDCF;}
	.st25{clip-path:url(#SVGID_2_);fill:#CECCCE;}
	.st26{clip-path:url(#SVGID_2_);fill:#CDCBCD;}
	.st27{clip-path:url(#SVGID_2_);fill:#CCCACC;}
	.st28{clip-path:url(#SVGID_2_);fill:#CBC9CB;}
	.st29{clip-path:url(#SVGID_2_);fill:#CAC8CA;}
	.st30{clip-path:url(#SVGID_2_);fill:#C9C8C9;}
	.st31{clip-path:url(#SVGID_2_);fill:#C8C7C9;}
	.st32{clip-path:url(#SVGID_2_);fill:#C8C6C8;}
	.st33{clip-path:url(#SVGID_2_);fill:#C7C5C7;}
	.st34{clip-path:url(#SVGID_2_);fill:#C6C4C6;}
	.st35{clip-path:url(#SVGID_2_);fill:#C5C3C5;}
	.st36{clip-path:url(#SVGID_2_);fill:#C4C3C5;}
	.st37{clip-path:url(#SVGID_2_);fill:#C4C2C4;}
	.st38{clip-path:url(#SVGID_2_);fill:#C3C1C3;}
	.st39{clip-path:url(#SVGID_2_);fill:#C2C1C3;}
	.st40{clip-path:url(#SVGID_2_);fill:#C2C0C2;}
	.st41{clip-path:url(#SVGID_2_);fill:#C1BFC1;}
	.st42{clip-path:url(#SVGID_2_);fill:#C0BFC1;}
	.st43{clip-path:url(#SVGID_2_);fill:#C0BEC0;}
	.st44{clip-path:url(#SVGID_2_);fill:#BFBDBF;}
	.st45{clip-path:url(#SVGID_2_);fill:#BEBDBF;}
	.st46{clip-path:url(#SVGID_2_);fill:#BEBCBE;}
	.st47{clip-path:url(#SVGID_2_);fill:#BDBCBE;}
	.st48{clip-path:url(#SVGID_2_);fill:#BDBBBE;}
	.st49{clip-path:url(#SVGID_2_);fill:#BDBBBD;}
	.st50{clip-path:url(#SVGID_2_);fill:#BCBBBD;}
	.st51{fill:#BCBBBD;}
	.st52{opacity:0.5;}
	.st53{fill:#D9DAD9;}
	.st54{fill:#FFFFFF;}
</style>
<g>
	<g id="XMLID_107_">
		<g>
			<defs>
				<path id="SVGID_1_" d="M17,37h-4C7.5,37,3,32.5,3,27V13C3,7.5,7.5,3,13,3h4C11.5,3,7,7.5,7,13v14C7,32.5,11.5,37,17,37z"/>
			</defs>
			<clipPath id="SVGID_2_">
				<use xlink:href="#SVGID_1_"  style="overflow:visible;"/>
			</clipPath>
			<path class="st0" d="M3,3v34V3z"/>
			<rect x="3" y="3" class="st0" width="0.3" height="34"/>
			<rect x="3.3" y="3" class="st1" width="0.3" height="34"/>
			<rect x="3.5" y="3" class="st2" width="0.3" height="34"/>
			<rect x="3.8" y="3" class="st3" width="0.3" height="34"/>
			<rect x="4.1" y="3" class="st4" width="0.3" height="34"/>
			<rect x="4.3" y="3" class="st5" width="0.3" height="34"/>
			<rect x="4.6" y="3" class="st6" width="0.3" height="34"/>
			<rect x="4.9" y="3" class="st7" width="0.3" height="34"/>
			<rect x="5.2" y="3" class="st8" width="0.3" height="34"/>
			<rect x="5.4" y="3" class="st9" width="0.3" height="34"/>
			<rect x="5.7" y="3" class="st10" width="0.3" height="34"/>
			<rect x="6" y="3" class="st11" width="0.3" height="34"/>
			<rect x="6.2" y="3" class="st12" width="0.3" height="34"/>
			<rect x="6.5" y="3" class="st13" width="0.3" height="34"/>
			<rect x="6.8" y="3" class="st14" width="0.3" height="34"/>
			<rect x="7" y="3" class="st15" width="0.3" height="34"/>
			<rect x="7.3" y="3" class="st16" width="0.3" height="34"/>
			<rect x="7.6" y="3" class="st17" width="0.3" height="34"/>
			<rect x="7.8" y="3" class="st18" width="0.3" height="34"/>
			<rect x="8.1" y="3" class="st19" width="0.3" height="34"/>
			<rect x="8.4" y="3" class="st20" width="0.3" height="34"/>
			<rect x="8.7" y="3" class="st21" width="0.3" height="34"/>
			<rect x="8.9" y="3" class="st22" width="0.3" height="34"/>
			<rect x="9.2" y="3" class="st23" width="0.3" height="34"/>
			<rect x="9.5" y="3" class="st24" width="0.3" height="34"/>
			<rect x="9.7" y="3" class="st25" width="0.3" height="34"/>
			<rect x="10" y="3" class="st26" width="0.3" height="34"/>
			<rect x="10.3" y="3" class="st27" width="0.3" height="34"/>
			<rect x="10.5" y="3" class="st28" width="0.3" height="34"/>
			<rect x="10.8" y="3" class="st29" width="0.3" height="34"/>
			<rect x="11.1" y="3" class="st30" width="0.3" height="34"/>
			<rect x="11.3" y="3" class="st31" width="0.3" height="34"/>
			<rect x="11.6" y="3" class="st32" width="0.3" height="34"/>
			<rect x="11.9" y="3" class="st33" width="0.3" height="34"/>
			<rect x="12.2" y="3" class="st34" width="0.3" height="34"/>
			<rect x="12.4" y="3" class="st35" width="0.3" height="34"/>
			<rect x="12.7" y="3" class="st36" width="0.3" height="34"/>
			<rect x="13" y="3" class="st37" width="0.3" height="34"/>
			<rect x="13.2" y="3" class="st38" width="0.3" height="34"/>
			<rect x="13.5" y="3" class="st39" width="0.3" height="34"/>
			<rect x="13.8" y="3" class="st40" width="0.3" height="34"/>
			<rect x="14" y="3" class="st41" width="0.3" height="34"/>
			<rect x="14.3" y="3" class="st42" width="0.3" height="34"/>
			<rect x="14.6" y="3" class="st43" width="0.3" height="34"/>
			<rect x="14.8" y="3" class="st44" width="0.3" height="34"/>
			<rect x="15.1" y="3" class="st45" width="0.3" height="34"/>
			<rect x="15.4" y="3" class="st46" width="0.3" height="34"/>
			<rect x="15.7" y="3" class="st47" width="0.3" height="34"/>
			<rect x="15.9" y="3" class="st48" width="0.3" height="34"/>
			<rect x="16.2" y="3" class="st49" width="0.3" height="34"/>
			<rect x="16.5" y="3" class="st50" width="0.3" height="34"/>
			<rect x="16.7" y="3" class="st50" width="0.3" height="34"/>
			<path class="st50" d="M17,37V3V37z"/>
		</g>
	</g>
	<g id="XMLID_86_">
		<path class="st51" d="M3,28c-0.6,0-1-0.4-1-1V13C2,6.9,6.9,2,13,2h1c2.8,0,5.5,0.7,8,2l4,2.2C28.1,7.4,30.6,8,33,8
			c0.6,0,1,0.4,1,1s-0.4,1-1,1c-2.8,0-5.5-0.7-8-2l-4-2.2C18.9,4.6,16.4,4,14,4h-1c-5,0-9,4-9,9v14C4,27.6,3.6,28,3,28z"/>
	</g>
	<g id="XMLID_98_" class="st52">
		<path class="st51" d="M47,37h4c5.5,0,10-4.5,10-10V13c0-5.5-4.5-10-10-10h-4c5.5,0,10,4.5,10,10v14C57,32.5,52.5,37,47,37z"/>
	</g>
	<g id="XMLID_85_">
		<path class="st51" d="M61,28c-0.6,0-1-0.4-1-1V13c0-5-4-9-9-9h-1c-2.4,0-4.9,0.6-7,1.8L39,8c-2.5,1.4-4.2,2-7,2c-0.6,0-1-0.4-1-1
			s0.4-1,1-1c2.3,0,3.8-0.6,6-1.8L42,4c2.4-1.3,5.2-2,8-2h1c6.1,0,11,4.9,11,11v14C62,27.6,61.6,28,61,28z"/>
	</g>
	<g id="XMLID_91_">
		<path class="st53" d="M61,27c0,2.9-4.5,10-10,10h0c-2.6,0-5.2-0.7-7.4-2.1L42,34c-3.3-2-6.2-3-10-3s-6.7,1-10,3l-1.6,0.9
			C18.2,36.3,15.6,37,13,37h0C7.5,37,3,32.5,3,27v9c0,5.5,4.5,10,10,10h0c2.6,0,5.2-0.7,7.4-2.1L22,43c3.3-2,6.2-3,10-3l0,0
			c3.8,0,6.7,1,10,3l1.6,0.9c2.2,1.3,4.8,2.1,7.4,2.1h0c5.5,0,10-4.5,10-10V27z"/>
		<path class="st51" d="M51,47c-2.8,0-5.5-0.8-7.9-2.2l-1.6-0.9c-3.4-2-6.1-2.9-9.5-2.9c-3.4,0-6.1,0.8-9.5,2.9l-1.6,0.9
			C18.5,46.2,15.8,47,13,47C6.9,47,2,42.1,2,36v-9h2c0,5,4,9,9,9c2.4,0,4.8-0.7,6.9-1.9l1.6-0.9C25.2,30.9,28.3,30,32,30
			c3.7,0,6.8,0.9,10.5,3.1l1.6,0.9c2.1,1.3,4.5,1.9,6.9,1.9c5,0,9-6.8,9-9h2v9C62,42.1,57.1,47,51,47z M32,39
			c3.7,0,6.8,0.9,10.5,3.1l1.6,0.9c2.1,1.3,4.5,1.9,6.9,1.9c5,0,9-4,9-9v-3.9c-2,3-5.2,5.9-9,5.9c-2.8,0-5.5-0.8-7.9-2.2l-1.6-0.9
			c-3.4-2-6.1-2.9-9.5-2.9c-3.4,0-6.1,0.8-9.5,2.9l-1.6,0.9C18.5,37.2,15.8,38,13,38c-3.7,0-7-1.9-9-4.7V36c0,5,4,9,9,9
			c2.4,0,4.8-0.7,6.9-1.9l1.6-0.9C25.2,39.9,28.3,39,32,39z"/>
	</g>
	<g id="XMLID_102_" class="st52">
		<path class="st51" d="M61,34v-7c0,2.9-4.5,10-10,10h0c-2.6,0-5.2-0.7-7.4-2.1L42,34c-3.3-2-6.2-3-10-3s-6.7,1-10,3l-1.6,0.9
			C18.2,36.3,15.6,37,13,37h0C7.5,37,3,32.5,3,27v7c0,0,3.3,6,10,6c6.7,0,13-5,13-5s1.1-1.1,6-1c4.9,0.1,10,3,10,3s3.8,3,9,3
			S61,34,61,34z"/>
	</g>
	<g id="XMLID_89_">
		<path class="st51" d="M11,60H7c-2.8,0-5-2.2-5-5s2.2-5,5-5h10c0.8,0,1.5-0.7,1.5-1.5S17.8,47,17,47h-4c-0.6,0-1-0.4-1-1s0.4-1,1-1
			h4c1.9,0,3.5,1.6,3.5,3.5S18.9,52,17,52H7c-1.7,0-3,1.3-3,3s1.3,3,3,3h4c0.6,0,1,0.4,1,1S11.6,60,11,60z"/>
	</g>
	<g id="XMLID_90_">
		<path class="st51" d="M34,60c-0.6,0-1-0.4-1-1v-8.4c0-2,1.6-3.6,3.6-3.6c2,0,3.6,1.6,3.6,3.6v0.5c0,1.6,1.3,2.9,2.9,2.9
			c1.6,0,2.9-1.3,2.9-2.9V46c0-0.6,0.4-1,1-1s1,0.4,1,1v5.1c0,2.7-2.2,4.9-4.9,4.9s-4.9-2.2-4.9-4.9v-0.5c0-0.9-0.7-1.6-1.6-1.6
			S35,49.7,35,50.6V59C35,59.6,34.6,60,34,60z"/>
	</g>
	<g id="XMLID_84_">
		<path class="st54" d="M58,58c0,1.7-1.3,3-3,3s-3-1.3-3-3c0-2.9,3-5,3-5S58,55.1,58,58z"/>
		<path class="st51" d="M55,62c-2.2,0-4-1.8-4-4c0-3.4,3.3-5.7,3.4-5.8c0.3-0.2,0.8-0.2,1.2,0c0.1,0.1,3.4,2.5,3.4,5.8
			C59,60.2,57.2,62,55,62z M55,54.3c-0.8,0.7-2,2.1-2,3.7c0,1.1,0.9,2,2,2s2-0.9,2-2C57,56.4,55.8,55,55,54.3z"/>
	</g>
	<g id="XMLID_92_">
		<path class="st54" d="M29,52c0,1.7-1.3,3-3,3s-3-1.3-3-3c0-2.9,3-5,3-5S29,49.1,29,52z"/>
		<path class="st51" d="M26,56c-2.2,0-4-1.8-4-4c0-3.4,3.3-5.7,3.4-5.8c0.3-0.2,0.8-0.2,1.2,0c0.1,0.1,3.4,2.5,3.4,5.8
			C30,54.2,28.2,56,26,56z M26,48.3c-0.8,0.7-2,2.1-2,3.7c0,1.1,0.9,2,2,2s2-0.9,2-2C28,50.4,26.8,49,26,48.3z"/>
	</g>
	<g id="XMLID_87_">
		<circle class="st54" cx="22" cy="22" r="4"/>
		<path class="st51" d="M22,27c-2.8,0-5-2.2-5-5s2.2-5,5-5s5,2.2,5,5S24.8,27,22,27z M22,19c-1.7,0-3,1.3-3,3s1.3,3,3,3s3-1.3,3-3
			S23.7,19,22,19z"/>
	</g>
	<g id="XMLID_88_">
		<circle class="st54" cx="48" cy="13" r="4"/>
		<path class="st51" d="M48,18c-2.8,0-5-2.2-5-5s2.2-5,5-5s5,2.2,5,5S50.8,18,48,18z M48,10c-1.7,0-3,1.3-3,3s1.3,3,3,3s3-1.3,3-3
			S49.7,10,48,10z"/>
	</g>
	<g id="XMLID_93_">
		<circle class="st54" cx="54" cy="27" r="2"/>
		<path class="st51" d="M54,30c-1.7,0-3-1.3-3-3s1.3-3,3-3s3,1.3,3,3S55.7,30,54,30z M54,26c-0.6,0-1,0.4-1,1s0.4,1,1,1s1-0.4,1-1
			S54.6,26,54,26z"/>
	</g>
	<g id="XMLID_94_">
		<circle class="st54" cx="39" cy="23" r="3"/>
		<path class="st51" d="M39,27c-2.2,0-4-1.8-4-4s1.8-4,4-4s4,1.8,4,4S41.2,27,39,27z M39,21c-1.1,0-2,0.9-2,2s0.9,2,2,2s2-0.9,2-2
			S40.1,21,39,21z"/>
	</g>
	<g id="XMLID_95_">
		<circle class="st54" cx="12" cy="11" r="3"/>
		<path class="st51" d="M12,15c-2.2,0-4-1.8-4-4s1.8-4,4-4s4,1.8,4,4S14.2,15,12,15z M12,9c-1.1,0-2,0.9-2,2s0.9,2,2,2s2-0.9,2-2
			S13.1,9,12,9z"/>
	</g>
	<g id="XMLID_96_">
		<circle class="st54" cx="10" cy="25" r="2"/>
		<path class="st51" d="M10,28c-1.7,0-3-1.3-3-3s1.3-3,3-3s3,1.3,3,3S11.7,28,10,28z M10,24c-0.6,0-1,0.4-1,1s0.4,1,1,1s1-0.4,1-1
			S10.6,24,10,24z"/>
	</g>
	<g id="XMLID_97_" class="st52">
		<path class="st51" d="M55,53c0,0,2.2,5.2,0,8C57.1,60,59.9,59,55,53z"/>
	</g>
	<g id="XMLID_100_" class="st52">
		<path class="st51" d="M26,47c0,0,2.2,5.2,0,8C28.1,54,30.9,53,26,47z"/>
	</g>
	<g id="XMLID_99_" class="st52">
		<path class="st51" d="M42,23c0,1.7-1.3,3-3,3c0.7-1.1,1-1.3,1-3s-0.5-2.3-1-3C40.7,20,42,21.3,42,23z"/>
	</g>
	<g id="XMLID_104_" class="st52">
		<path class="st51" d="M56,27c0,1.1-0.9,2-2,2c0.5-0.7,0.7-0.9,0.7-2s-0.3-1.5-0.7-2C55.1,25,56,25.9,56,27z"/>
	</g>
	<g id="XMLID_105_" class="st52">
		<path class="st51" d="M14,11c0,1.1-0.9,2-2,2c0.5-0.7,0.7-0.9,0.7-2S12.3,9.5,12,9C13.1,9,14,9.9,14,11z"/>
	</g>
	<g id="XMLID_106_" class="st52">
		<path class="st51" d="M12,25c0,1.1-0.9,2-2,2c0.5-0.7,0.7-0.9,0.7-2s-0.3-1.5-0.7-2C11.1,23,12,23.9,12,25z"/>
	</g>
	<g id="XMLID_103_" class="st52">
		<path class="st51" d="M51,13c0,2.2-1.8,4-4,4c0.9-1.5,2-1.8,2-4s-1.3-3.1-2-4C49.2,9,51,10.8,51,13z"/>
	</g>
	<g id="XMLID_108_" class="st52">
		<path class="st51" d="M25,22c0,2.2-1.8,4-4,4c0.9-1.5,2-1.8,2-4s-1.3-3.1-2-4C23.2,18,25,19.8,25,22z"/>
	</g>
</g>
</svg>
