<?xml version="1.0" encoding="utf-8"?>
<!-- Generator: Adobe Illustrator 22.0.0, SVG Export Plug-In . SVG Version: 6.00 Build 0)  -->
<svg version="1.1" id="Layer_1" xmlns="http://www.w3.org/2000/svg" xmlns:xlink="http://www.w3.org/1999/xlink" x="0px" y="0px"
	 viewBox="0 0 34 34" style="enable-background:new 0 0 34 34;" xml:space="preserve">
<style type="text/css">
	.st0{fill:url(#XMLID_3_);}
	.st1{fill:url(#XMLID_4_);}
	.st2{fill:#BCBBBD;}
</style>
<linearGradient id="XMLID_3_" gradientUnits="userSpaceOnUse" x1="6.5758" y1="4.6879" x2="7.1183" y2="29.7623">
	<stop  offset="0" style="stop-color:#FFFFFF"/>
	<stop  offset="0.3263" style="stop-color:#FDFDFD;stop-opacity:0.6737"/>
	<stop  offset="0.5248" style="stop-color:#F6F5F6;stop-opacity:0.4752"/>
	<stop  offset="0.6893" style="stop-color:#EAE9EA;stop-opacity:0.3107"/>
	<stop  offset="0.8349" style="stop-color:#D8D7D8;stop-opacity:0.1651"/>
	<stop  offset="0.967" style="stop-color:#C3C1C3;stop-opacity:3.298360e-02"/>
	<stop  offset="1" style="stop-color:#BCBBBD;stop-opacity:0"/>
</linearGradient>
<linearGradient id="XMLID_4_" gradientUnits="userSpaceOnUse" x1="22.5859" y1="4.6879" x2="23.1284" y2="29.7623">
	<stop  offset="0" style="stop-color:#FFFFFF"/>
	<stop  offset="0.3263" style="stop-color:#FDFDFD;stop-opacity:0.6737"/>
	<stop  offset="0.5248" style="stop-color:#F6F5F6;stop-opacity:0.4752"/>
	<stop  offset="0.6893" style="stop-color:#EAE9EA;stop-opacity:0.3107"/>
	<stop  offset="0.8349" style="stop-color:#D8D7D8;stop-opacity:0.1651"/>
	<stop  offset="0.967" style="stop-color:#C3C1C3;stop-opacity:3.298360e-02"/>
	<stop  offset="1" style="stop-color:#BCBBBD;stop-opacity:0"/>
</linearGradient>
<g id="XMLID_151_">
	<path class="st2" d="M17,31c-2.5,0-4.5-2-4.5-4.5c0-0.3,0.2-0.5,0.5-0.5s0.5,0.2,0.5,0.5c0,1.9,1.6,3.5,3.5,3.5
		c0.3,0,0.5,0.2,0.5,0.5S17.3,31,17,31z"/>
</g>
<g id="XMLID_148_">
	<path class="st2" d="M13,21c-0.3,0-0.5-0.2-0.5-0.5v-3c0-0.3,0.2-0.5,0.5-0.5s0.5,0.2,0.5,0.5v3C13.5,20.8,13.3,21,13,21z"/>
</g>
<g id="XMLID_147_">
	<path class="st2" d="M13,12c-0.3,0-0.5-0.2-0.5-0.5v-4C12.5,5.6,10.9,4,9,4S5.5,5.6,5.5,7.5v3C5.5,10.8,5.3,11,5,11
		s-0.5-0.2-0.5-0.5v-3C4.5,5,6.5,3,9,3s4.5,2,4.5,4.5v4C13.5,11.8,13.3,12,13,12z"/>
</g>
<g id="XMLID_144_">
	<path class="st2" d="M5,31c-0.3,0-0.5-0.2-0.5-0.5v-12C4.5,18.2,4.7,18,5,18s0.5,0.2,0.5,0.5v12C5.5,30.8,5.3,31,5,31z"/>
</g>
<g id="XMLID_143_">
	<path class="st2" d="M29,31c-0.2,0-0.3-0.1-0.4-0.2l-2-3c-0.1-0.2-0.1-0.4,0-0.5c0.1-0.2,0.3-0.3,0.4-0.3h4c0.2,0,0.4,0.1,0.4,0.3
		s0.1,0.4,0,0.5C29.3,31,29.3,31,29,31z M27.9,28l1.1,1.6c0.3-0.4,0.7-1,1.1-1.6H27.9z"/>
</g>
<g id="XMLID_146_">
	<path class="st2" d="M7,19H3c-0.2,0-0.4-0.1-0.4-0.3c-0.1-0.2-0.1-0.4,0-0.5l2-3C4.7,15.1,4.8,15,5,15c0.3,0,0.3,0,2.4,3.2
		c0.1,0.2,0.1,0.4,0,0.5C7.4,18.9,7.2,19,7,19z M3.9,18h2.1c-0.4-0.6-0.8-1.2-1.1-1.6L3.9,18z"/>
</g>
<g id="XMLID_149_">
	<path class="st2" d="M13,15c-0.3,0-0.3,0-2.4-3.2c-0.1-0.2-0.1-0.4,0-0.5c0.1-0.2,0.3-0.3,0.4-0.3h4c0.2,0,0.4,0.1,0.4,0.3
		s0.1,0.4,0,0.5l-2,3C13.3,14.9,13.2,15,13,15z M11.9,12c0.4,0.6,0.8,1.2,1.1,1.6l1.1-1.6H11.9z"/>
</g>
<g id="XMLID_150_">
	<path class="st2" d="M13,24c-0.3,0-0.3,0-2.4-3.2c-0.1-0.2-0.1-0.4,0-0.5c0.1-0.2,0.3-0.3,0.4-0.3h4c0.2,0,0.4,0.1,0.4,0.3
		c0.1,0.2,0.1,0.4,0,0.5l-2,3C13.3,23.9,13.2,24,13,24z M11.9,21c0.4,0.6,0.8,1.2,1.1,1.6l1.1-1.6H11.9z"/>
</g>
<g id="XMLID_158_">
	<path class="st2" d="M17,31c-0.3,0-0.5-0.2-0.5-0.5S16.7,30,17,30c1.9,0,3.5-1.6,3.5-3.5c0-0.3,0.2-0.5,0.5-0.5s0.5,0.2,0.5,0.5
		C21.5,29,19.5,31,17,31z"/>
</g>
<g id="XMLID_157_">
	<path class="st2" d="M21,17c-0.3,0-0.5-0.2-0.5-0.5v-3c0-0.3,0.2-0.5,0.5-0.5s0.5,0.2,0.5,0.5v3C21.5,16.8,21.3,17,21,17z"/>
</g>
<g id="XMLID_159_">
	<path class="st2" d="M21,27c-0.3,0-0.5-0.2-0.5-0.5v-4c0-0.3,0.2-0.5,0.5-0.5s0.5,0.2,0.5,0.5v4C21.5,26.8,21.3,27,21,27z"/>
</g>
<g id="XMLID_156_">
	<path class="st2" d="M29,11c-0.3,0-0.5-0.2-0.5-0.5v-3C28.5,5.6,26.9,4,25,4s-3.5,1.6-3.5,3.5C21.5,7.8,21.3,8,21,8
		s-0.5-0.2-0.5-0.5C20.5,5,22.5,3,25,3s4.5,2,4.5,4.5v3C29.5,10.8,29.3,11,29,11z"/>
</g>
<g id="XMLID_155_">
	<path class="st2" d="M29,28c-0.3,0-0.5-0.2-0.5-0.5v-9c0-0.3,0.2-0.5,0.5-0.5s0.5,0.2,0.5,0.5v9C29.5,27.8,29.3,28,29,28z"/>
</g>
<g id="XMLID_154_">
	<path class="st2" d="M29,14c-0.3,0-0.3,0-2.4-3.2c-0.1-0.2-0.1-0.4,0-0.5c0.1-0.2,0.3-0.3,0.4-0.3h4c0.2,0,0.4,0.1,0.4,0.3
		c0.1,0.2,0.1,0.4,0,0.5l-2,3C29.3,13.9,29.2,14,29,14z M27.9,11c0.4,0.6,0.8,1.2,1.1,1.6l1.1-1.6H27.9z"/>
</g>
<g id="XMLID_153_">
	<path class="st2" d="M23,23h-4c-0.2,0-0.4-0.1-0.4-0.3c-0.1-0.2-0.1-0.4,0-0.5l2-3c0.1-0.1,0.2-0.2,0.4-0.2c0.3,0,0.3,0,2.4,3.2
		c0.1,0.2,0.1,0.4,0,0.5S23.2,23,23,23z M19.9,22h2.1c-0.4-0.6-0.8-1.2-1.1-1.6L19.9,22z"/>
</g>
<g id="XMLID_152_">
	<path class="st2" d="M23,14h-4c-0.2,0-0.4-0.1-0.4-0.3c-0.1-0.2-0.1-0.4,0-0.5l2-3c0.1-0.1,0.2-0.2,0.4-0.2c0.3,0,0.3,0,2.4,3.2
		c0.1,0.2,0.1,0.4,0,0.5C23.4,13.9,23.2,14,23,14z M19.9,13h2.1c-0.4-0.6-0.8-1.2-1.1-1.6L19.9,13z"/>
</g>
</svg>
