<svg version="1.1" id="图层_1" xmlns="http://www.w3.org/2000/svg" xmlns:xlink="http://www.w3.org/1999/xlink" x="0px" y="0px"
	 viewBox="0 0 66 76" style="enable-background:new 0 0 66 76;" xml:space="preserve">
<style type="text/css">
	.st0{fill:#30313e;}
</style>
<g>
	<path class="st0" d="M42.5,73.8c-1.3,0-2.6-0.5-3.5-1.5L13.6,46.8c-0.9-0.9-1.5-2.2-1.5-3.5c0-1.3,0.5-2.6,1.5-3.5l15.6-15.6
		c0.9-0.9,2.2-1.5,3.5-1.5s2.6,0.5,3.5,1.5l11.3,11.3l-1.4,1.4L34.8,25.6c-1.1-1.1-3.1-1.1-4.2,0L15,41.2c-1.2,1.2-1.2,3.1,0,4.2
		l25.5,25.5c1.2,1.2,3.1,1.2,4.2,0l15.6-15.6c1.2-1.2,1.2-3.1,0-4.2l-9.9-9.9l1.4-1.4l9.9,9.9c0.9,0.9,1.5,2.2,1.5,3.5
		c0,1.3-0.5,2.6-1.5,3.5L46.1,72.3C45.1,73.2,43.9,73.8,42.5,73.8z"/>
</g>
<g>
	<path class="st0" d="M33.4,53.3c-1.3,0-2.6-0.5-3.5-1.5L18.5,40.5l1.4-1.4l11.3,11.3c1.1,1.1,3.1,1.1,4.2,0L51,34.8
		c0.6-0.6,0.9-1.3,0.9-2.1s-0.3-1.6-0.9-2.1L25.6,5.1c-1.1-1.1-3.1-1.1-4.2,0L5.8,20.7c-0.6,0.6-0.9,1.3-0.9,2.1
		c0,0.8,0.3,1.6,0.9,2.1l9.9,9.9l-1.4,1.4l-9.9-9.9c-0.9-0.9-1.5-2.2-1.5-3.5c0-1.3,0.5-2.6,1.5-3.5L19.9,3.7
		c0.9-0.9,2.2-1.5,3.5-1.5S26,2.8,27,3.7l25.5,25.5c0.9,0.9,1.5,2.2,1.5,3.5c0,1.3-0.5,2.6-1.5,3.5L36.9,51.8
		C35.9,52.7,34.7,53.3,33.4,53.3z"/>
</g>
<g>
	<circle class="st0" cx="33.2" cy="44.7" r="1.3"/>
</g>
<g>
	<path class="st0" d="M35.2,42.7c-1.1-1.1-2.9-1.1-4,0l-1.4-1.4c1.9-1.9,5-1.9,6.9,0L35.2,42.7z"/>
</g>
<g>
	<path class="st0" d="M37.5,40.4c-2.4-2.4-6.2-2.4-8.6,0L27.5,39c3.1-3.1,8.3-3.2,11.4,0L37.5,40.4z"/>
</g>
<g>
	<path class="st0" d="M39.8,38.1c-3.6-3.6-9.5-3.6-13.2,0l-1.4-1.4c4.4-4.4,11.6-4.4,16,0L39.8,38.1z"/>
</g>
</svg>
