<?xml version="1.0" encoding="utf-8"?>
<!-- Generator: Adobe Illustrator 22.0.0, SVG Export Plug-In . SVG Version: 6.00 Build 0)  -->
<svg version="1.1" id="图层_1" xmlns="http://www.w3.org/2000/svg" xmlns:xlink="http://www.w3.org/1999/xlink" x="0px" y="0px"
	 viewBox="0 0 76 58" style="enable-background:new 0 0 76 58;" xml:space="preserve">
<style type="text/css">
	.st0{fill:#30313e;}
</style>
<g>
	<g>
		<path class="st0" d="M29.2,38.7h8c0.5,0,1,0.4,1,1v0c0,0.5-0.4,1-1,1h-8v13.2c0,0.5-0.4,1-1,1h0c-0.5,0-1-0.4-1-1V40.7H2.1l0,0
			c0-0.7,0.2-1.4,0.6-2L26.4,3.5c0.3-0.4,0.7-0.7,1.3-0.7h0c0.8,0,1.5,0.7,1.5,1.5V38.7z M5.1,38.7h22.1V5.2l-3,4.9L5.1,38.7z"/>
	</g>
	<g>
		<path class="st0" d="M36.9,53.2c0-0.6,0.2-1,0.6-1.4c0.4-0.4,0.9-0.6,1.4-0.6c0.6,0,1,0.2,1.4,0.6c0.4,0.4,0.6,0.9,0.6,1.4
			s-0.2,1-0.6,1.4c-0.4,0.4-0.9,0.6-1.4,0.6c-0.6,0-1-0.2-1.4-0.6C37.1,54.2,36.9,53.7,36.9,53.2z"/>
	</g>
</g>
<g>
	<path class="st0" d="M56.4,55c-0.1,0-0.3,0-0.4-0.1c-0.4-0.2-0.6-0.5-0.6-0.9V31.9l-11.9,9.9c-0.4,0.4-1.1,0.3-1.4-0.1
		c-0.4-0.4-0.3-1.1,0.1-1.4l13.2-11v-0.8l-13.1-9.7c-0.4-0.3-0.5-1-0.2-1.4c0.3-0.4,1-0.5,1.4-0.2l12,8.9V4c0-0.4,0.2-0.7,0.5-0.9
		c0.3-0.2,0.7-0.1,1,0.1l16.5,12c0.2,0.2,0.4,0.5,0.4,0.8c0,0.3-0.1,0.6-0.4,0.8L59.2,28.7l14.3,10.6c0.2,0.2,0.4,0.5,0.4,0.8
		c0,0.3-0.1,0.6-0.4,0.8L57.1,54.8C56.9,54.9,56.6,55,56.4,55z M57.4,30.2v21.6l13.8-11.7L57.6,30.1L57.4,30.2z M57.4,27.4l0.1,0.1
		l13.7-11.4L57.4,6V27.4z"/>
</g>
</svg>
