<?xml version="1.0" encoding="utf-8"?>
<!-- Generator: Adobe Illustrator 22.0.0, SVG Export Plug-In . SVG Version: 6.00 Build 0)  -->
<svg version="1.1" id="图层_1" xmlns="http://www.w3.org/2000/svg" xmlns:xlink="http://www.w3.org/1999/xlink" x="0px" y="0px"
	 viewBox="0 0 74 74" style="enable-background:new 0 0 74 74;" xml:space="preserve">
<style type="text/css">
	.st0{fill:#30313e;}
	.st1{fill:none;stroke:#BBBBBB;stroke-width:2;stroke-linecap:round;stroke-linejoin:round;stroke-miterlimit:10;}
</style>
<g>
	<path class="st0" d="M36.9,51.6c-5.5,0-10-4.5-10-10v-14c0-5.5,4.5-10,10-10s10,4.5,10,10v14C46.9,47.2,42.5,51.6,36.9,51.6z
		 M36.9,19.6c-4.4,0-8,3.6-8,8v14c0,4.4,3.6,8,8,8c4.4,0,8-3.6,8-8v-14C44.9,23.2,41.4,19.6,36.9,19.6z"/>
</g>
<g>
	<path class="st0" d="M36.9,57.6c-8.8,0-16-7.2-16-16v-7c0-0.6,0.4-1,1-1s1,0.4,1,1v7c0,7.7,6.3,14,14,14c7.7,0,14-6.3,14-14v-7
		c0-0.6,0.4-1,1-1s1,0.4,1,1v7C52.9,50.5,45.8,57.6,36.9,57.6z"/>
</g>
<g>
	<path class="st0" d="M33.4,33.6c-0.3,0-0.5-0.1-0.7-0.3c-0.4-0.4-0.4-1,0-1.4l6.5-6.5c0.4-0.4,1-0.4,1.4,0s0.4,1,0,1.4l-6.5,6.5
		C34,33.5,33.7,33.6,33.4,33.6z"/>
</g>
<g>
	<path class="st0" d="M33.4,39.1c-0.3,0-0.5-0.1-0.7-0.3c-0.4-0.4-0.4-1,0-1.4l6.5-6.5c0.4-0.4,1-0.4,1.4,0s0.4,1,0,1.4l-6.5,6.5
		C34,39,33.7,39.1,33.4,39.1z"/>
</g>
<g>
	<path class="st0" d="M33.4,44.6c-0.3,0-0.5-0.1-0.7-0.3c-0.4-0.4-0.4-1,0-1.4l6.5-6.5c0.4-0.4,1-0.4,1.4,0c0.4,0.4,0.4,1,0,1.4
		l-6.5,6.5C34,44.5,33.7,44.6,33.4,44.6z"/>
</g>
<g>
	<path class="st0" d="M36.9,69.6c-0.6,0-1-0.4-1-1v-12c0-0.6,0.4-1,1-1s1,0.4,1,1v12C37.9,69.2,37.5,69.6,36.9,69.6z"/>
</g>
<g>
	<path class="st1" d="M43.9,69"/>
</g>
<g>
	<path class="st0" d="M70,37c-0.6,0-1-0.4-1-1c0-4.7-1-9.3-3-13.6c-0.2-0.5,0-1.1,0.5-1.3c0.5-0.2,1.1,0,1.3,0.5
		C69.9,26.1,71,31,71,36C71,36.6,70.6,37,70,37z"/>
</g>
<g>
	<path class="st0" d="M24,6.7c-0.4,0-0.8-0.2-0.9-0.6c-0.2-0.5,0-1.1,0.5-1.3c0.6-0.2,1.1-0.5,1.7-0.7c0.5-0.2,1.1,0.1,1.3,0.6
		c0.2,0.5-0.1,1.1-0.6,1.3c-0.5,0.2-1.1,0.4-1.6,0.6C24.3,6.6,24.1,6.7,24,6.7z"/>
</g>
<g>
	<path class="st0" d="M15,12.4c-0.3,0-0.5-0.1-0.7-0.3c-0.4-0.4-0.3-1,0.1-1.4c1-0.9,2-1.7,3.1-2.5c0.5-0.3,1.1-0.2,1.4,0.2
		c0.3,0.5,0.2,1.1-0.2,1.4c-1,0.7-2,1.5-2.9,2.3C15.5,12.3,15.2,12.4,15,12.4z"/>
</g>
<g>
	<path class="st0" d="M4.5,31c-0.1,0-0.1,0-0.2,0c-0.5-0.1-0.9-0.6-0.8-1.2c1-5.7,3.5-11,7.2-15.5c0.4-0.4,1-0.5,1.4-0.1
		c0.4,0.4,0.5,1,0.1,1.4c-3.5,4.2-5.8,9.2-6.8,14.5C5.4,30.7,5,31,4.5,31z"/>
</g>
<g>
	<path class="st0" d="M5.5,47c-0.4,0-0.8-0.3-1-0.7C3.5,43,3,39.5,3,36c0-0.6,0.4-1,1-1s1,0.4,1,1c0,3.3,0.5,6.6,1.5,9.7
		c0.2,0.5-0.1,1.1-0.7,1.3C5.7,47,5.6,47,5.5,47z"/>
</g>
<g>
	<path class="st0" d="M58.6,61c-0.3,0-0.5-0.1-0.7-0.3c-0.4-0.4-0.4-1,0-1.4c0.7-0.6,1.3-1.3,1.9-1.9c0.4-0.4,1-0.4,1.4-0.1
		c0.4,0.4,0.4,1,0.1,1.4c-0.6,0.7-1.3,1.4-2,2.1C59.1,60.9,58.9,61,58.6,61z"/>
</g>
<g>
	<path class="st0" d="M49,67.3c-0.4,0-0.8-0.2-0.9-0.6c-0.2-0.5,0-1.1,0.5-1.3c2.4-1,4.7-2.4,6.8-4c0.4-0.3,1.1-0.2,1.4,0.2
		c0.3,0.4,0.3,1.1-0.2,1.4c-2.2,1.7-4.7,3.1-7.2,4.2C49.3,67.3,49.1,67.3,49,67.3z"/>
</g>
<g>
	<path class="st0" d="M37,70c-2.4,0-4.9-0.3-7.2-0.8c-0.5-0.1-0.9-0.6-0.8-1.2s0.6-0.9,1.2-0.8c4.4,1,9.1,1,13.6,0
		c0.5-0.1,1.1,0.2,1.2,0.8c0.1,0.5-0.2,1.1-0.8,1.2C41.9,69.7,39.4,70,37,70z"/>
</g>
<g>
	<path class="st0" d="M63.5,21C61,21,59,19,59,16.5s2-4.5,4.5-4.5s4.5,2,4.5,4.5S66,21,63.5,21z M63.5,14c-1.4,0-2.5,1.1-2.5,2.5
		s1.1,2.5,2.5,2.5s2.5-1.1,2.5-2.5S64.9,14,63.5,14z"/>
</g>
<g>
	<path class="st0" d="M8.5,57C6,57,4,55,4,52.5S6,48,8.5,48s4.5,2,4.5,4.5S11,57,8.5,57z M8.5,50C7.1,50,6,51.1,6,52.5
		S7.1,55,8.5,55s2.5-1.1,2.5-2.5S9.9,50,8.5,50z"/>
</g>
</svg>
