<?xml version="1.0" encoding="utf-8"?>
<!-- Generator: Adobe Illustrator 22.0.0, SVG Export Plug-In . SVG Version: 6.00 Build 0)  -->
<svg version="1.1" id="Layer_1" xmlns="http://www.w3.org/2000/svg" xmlns:xlink="http://www.w3.org/1999/xlink" x="0px" y="0px"
	 viewBox="0 0 187.1 103.8" style="enable-background:new 0 0 187.1 103.8;" xml:space="preserve">
<style type="text/css">
	.st0{fill-rule:evenodd;clip-rule:evenodd; fill: red;}
</style>
<g>
	<path class="st0" d="M10.1,58c0.9,0.6,1.8,1.1,2.8,1.4c1,0.3,2,0.5,3.1,0.5c1,0,2.1-0.2,3.1-0.5c1-0.3,2-0.8,2.9-1.4
		c0.9-0.6,1.7-1.4,2.3-2.3c0.6-0.9,1.1-1.8,1.4-2.8c0.3-1,0.5-2,0.5-3.1c0-1-0.2-2.1-0.5-3.1c-0.3-1-0.8-2-1.4-2.9
		c-0.6-0.9-1.4-1.7-2.3-2.3c-0.9-0.6-1.8-1.1-2.9-1.4c-1-0.3-2.1-0.5-3.1-0.5c-1,0-2.1,0.2-3.1,0.5c-1,0.3-2,0.8-2.8,1.4
		c-0.9,0.6-1.7,1.4-2.3,2.3c-0.6,0.9-1.1,1.9-1.4,2.9c-0.3,1-0.5,2.1-0.5,3.1c0,1,0.2,2.1,0.5,3.1c0.3,1,0.8,2,1.4,2.8
		C8.5,56.6,9.3,57.4,10.1,58L10.1,58L10.1,58L10.1,58z"/>
	<polygon class="st0" points="32.1,0 0,0 16.1,36.5 32.1,0 32.1,0 	"/>
	<path class="st0" d="M42.3,88c0,1-0.2,2-0.6,2.9c-0.4,0.9-0.9,1.7-1.6,2.4c-0.7,0.7-1.5,1.3-2.4,1.6c-0.9,0.4-1.9,0.6-2.9,0.6l0,0
		h-1.5l0,0c-1,0-2-0.2-2.9-0.6c-0.9-0.4-1.7-0.9-2.4-1.6c-0.7-0.7-1.3-1.5-1.6-2.4c-0.4-0.9-0.6-1.9-0.6-2.9l0,0l0-17.1l-17.4,0
		v12.9l0,0c0,2.6,0.5,5.3,1.5,7.7c1,2.4,2.5,4.7,4.3,6.5c1.9,1.9,4.1,3.3,6.5,4.3c2.4,1,5.1,1.5,7.7,1.5l0,0h10.8l0,0
		c2.6,0,5.3-0.5,7.7-1.5c2.4-1,4.7-2.5,6.5-4.3c1.9-1.9,3.3-4.1,4.3-6.5c1-2.4,1.5-5.1,1.5-7.7l0,0V0.1l-16.9,0L42.3,88L42.3,88
		L42.3,88z"/>
	<path class="st0" d="M170.8,70.9l0,15.2l0,0c0,1-0.2,2-0.6,2.9c-0.4,0.9-0.9,1.7-1.6,2.4c-0.7,0.7-1.5,1.3-2.4,1.6
		c-0.9,0.4-1.9,0.6-2.9,0.6l0,0h-1.5l0,0c-1,0-2-0.2-2.9-0.6c-0.9-0.4-1.7-0.9-2.4-1.6c-0.7-0.7-1.3-1.5-1.6-2.4
		c-0.4-0.9-0.6-1.9-0.6-2.9l0,0l0-85.9l-16.9,0l0,101.5h49.7l0-30.8L170.8,70.9L170.8,70.9L170.8,70.9z"/>
	<path class="st0" d="M123.3,55.6c-0.8-2-2.1-3.8-3.6-5.3c-1.5-1.4-3.2-2.5-5-3.2c1.5-0.7,3-1.7,4.2-2.9c1.3-1.2,2.4-2.6,3.2-4.3
		c0.8-1.6,1.2-3.4,1.2-5.2l0,0l0-18.5l0,0c0-2.1-0.4-4.3-1.2-6.2c-0.8-2-2-3.8-3.5-5.3c-1.5-1.5-3.3-2.7-5.3-3.5
		c-2-0.8-4.1-1.2-6.2-1.2l0,0H73.5v101.7h34.8l0,0c2.1,0,4.3-0.4,6.2-1.2c2-0.8,3.8-2,5.3-3.5c1.5-1.5,2.7-3.3,3.5-5.3
		c0.8-2,1.2-4.1,1.2-6.2c0-7.8,0-15.6,0-23.4C124.6,59.8,124.2,57.6,123.3,55.6L123.3,55.6L123.3,55.6L123.3,55.6z M89.8,8.8l8.8,0
		l0,0c1,0,2,0.2,2.9,0.6c0.9,0.4,1.7,0.9,2.4,1.6c0.7,0.7,1.3,1.5,1.6,2.4c0.4,0.9,0.6,1.9,0.6,2.9l0,0l0,20.4l0,0
		c0,0.8-0.2,1.6-0.5,2.4c-0.3,0.8-0.8,1.5-1.4,2c-0.6,0.6-1.3,1-2,1.4c-0.8,0.3-1.6,0.5-2.4,0.5l0,0l-10.2,0V8.8L89.8,8.8L89.8,8.8z
		 M106.4,88.5c-0.3,0.8-0.8,1.5-1.4,2c-0.6,0.6-1.3,1-2,1.4c-0.8,0.3-1.6,0.5-2.4,0.5l0,0l-10.8,0V52.1l9.5,0l0,0c1,0,2,0.2,2.9,0.6
		c0.9,0.4,1.7,0.9,2.4,1.6c0.7,0.7,1.3,1.5,1.6,2.4c0.4,0.9,0.6,1.9,0.6,2.9l0,0l0,26.5l0,0C106.9,86.9,106.7,87.7,106.4,88.5
		L106.4,88.5L106.4,88.5L106.4,88.5z"/>
</g>
</svg>
