<?xml version="1.0" encoding="utf-8"?>
<!-- Generator: Adobe Illustrator 22.0.0, SVG Export Plug-In . SVG Version: 6.00 Build 0)  -->
<svg version="1.1" id="图层_1" xmlns="http://www.w3.org/2000/svg" xmlns:xlink="http://www.w3.org/1999/xlink" x="0px" y="0px"
	 viewBox="0 0 68 56" style="enable-background:new 0 0 68 56;" xml:space="preserve">
<style type="text/css">
	.st0{fill:#EA5616;}
</style>
<g>
	<path class="st0" d="M28,18.5c-0.2,0-0.5-0.1-0.7-0.2l-24-13c-0.7-0.4-1-1.3-0.6-2c0.4-0.7,1.3-1,2-0.6l24,13c0.7,0.4,1,1.3,0.6,2
		C29,18.2,28.5,18.5,28,18.5z"/>
</g>
<g>
	<path class="st0" d="M4,53.5c-0.8,0-1.5-0.7-1.5-1.5V4c0-0.8,0.7-1.5,1.5-1.5S5.5,3.2,5.5,4v48C5.5,52.8,4.8,53.5,4,53.5z"/>
</g>
<g>
	<path class="st0" d="M4,53.5c-0.4,0-0.9-0.2-1.2-0.6c-0.5-0.6-0.4-1.6,0.2-2.1l60-48c0.6-0.5,1.6-0.4,2.1,0.2
		c0.5,0.6,0.4,1.6-0.2,2.1l-60,48C4.7,53.4,4.3,53.5,4,53.5z"/>
</g>
<g>
	<path class="st0" d="M64,53.5c-0.8,0-1.5-0.7-1.5-1.5V4c0-0.8,0.7-1.5,1.5-1.5s1.5,0.7,1.5,1.5v48C65.5,52.8,64.8,53.5,64,53.5z"/>
</g>
<g>
	<path class="st0" d="M64,53.5c-0.2,0-0.5-0.1-0.7-0.2l-24-13c-0.7-0.4-1-1.3-0.6-2s1.3-1,2-0.6l24,13c0.7,0.4,1,1.3,0.6,2
		C65,53.2,64.5,53.5,64,53.5z"/>
</g>
</svg>
