<svg xmlns="http://www.w3.org/2000/svg" xmlns:xlink="http://www.w3.org/1999/xlink" x="0px" y="0px"
	 width="72px" height="69px" viewBox="0 0 72 68.922">
<path fill="#FF4E00" class="st0" d="M72,34.461c0,3.668-4.483,6.582-5.558,9.892c-1.114,3.43,0.761,8.416-1.317,11.271
	c-2.099,2.884-7.434,2.631-10.317,4.729c-2.855,2.078-4.251,7.241-7.681,8.355c-3.31,1.075-7.459-2.247-11.127-2.247
	c-3.668,0-7.818,3.321-11.127,2.247c-3.43-1.114-4.827-6.277-7.682-8.355c-2.884-2.099-8.219-1.846-10.317-4.729
	c-2.078-2.855-0.203-7.84-1.316-11.27C4.483,41.043,0,38.129,0,34.461c0-3.668,4.483-6.582,5.558-9.892
	c1.114-3.43-0.761-8.416,1.317-11.271c2.099-2.884,7.434-2.631,10.317-4.729c2.855-2.078,4.251-7.241,7.681-8.355
	C28.182-0.861,32.332,2.461,36,2.461c3.668,0,7.818-3.321,11.127-2.247c3.43,1.114,4.827,6.277,7.682,8.355
	c2.884,2.099,8.219,1.846,10.317,4.729c2.078,2.855,0.203,7.84,1.316,11.27C67.517,27.878,72,30.793,72,34.461z"/>
</svg>
