<?xml version="1.0" encoding="utf-8"?>
<!-- Generator: Adobe Illustrator 17.1.0, SVG Export Plug-In . SVG Version: 6.00 Build 0)  -->
<!DOCTYPE svg PUBLIC "-//W3C//DTD SVG 1.1//EN" "http://www.w3.org/Graphics/SVG/1.1/DTD/svg11.dtd">
<svg version="1.1" id="Layer_1" xmlns="http://www.w3.org/2000/svg" xmlns:xlink="http://www.w3.org/1999/xlink" x="0px" y="0px"
	 viewBox="0 0 612 792" enable-background="new 0 0 612 792" xml:space="preserve">
<g>
	<path fill="none" d="M408,467c3.2,4.2,5.6,8.3,7.4,13c4.6-4.2,8.8-7.9,13-11.1h-0.5C421.4,469.3,414.5,468.4,408,467z"/>
	
		<linearGradient id="SVGID_1_" gradientUnits="userSpaceOnUse" x1="20.1967" y1="676.4467" x2="114.6219" y2="770.8719" gradientTransform="matrix(4.6259 0 0 4.6259 0 -2953.8093)">
		<stop  offset="0" style="stop-color:#FF0054"/>
		<stop  offset="1" style="stop-color:#484852"/>
	</linearGradient>
	<path fill="url(#SVGID_1_)" d="M558.3,550.3c-8.3,2.8-14.8,11.1-22.2,15.3c-15.3,8.8-32.4,17.6-43,31.5
		c-10.6,14.3-19,31.5-23.6,48.6c-0.9,3.2-1.4,6.5-1.9,9.7c6.5-4.2,12.5-8.3,19-12.5c-0.5-1.9-0.9-3.7,0-5.6c1.4-3.7,7.4-5.6,9.3-9.3
		c1.9-3.7-0.5-9.3,1.4-13c0.9-1.4,9.7-6,10.6-7.4c9.7-13,21.3-23.1,35.2-31.5c6.9-4.2,12-12,19.9-14.8h0.5c2.8-4.6,5.6-8.8,8.3-13.4
		C566.7,548.9,562.5,548.9,558.3,550.3z"/>
	
		<linearGradient id="SVGID_2_" gradientUnits="userSpaceOnUse" x1="20.1468" y1="676.4966" x2="114.572" y2="770.9219" gradientTransform="matrix(4.6259 0 0 4.6259 0 -2953.8093)">
		<stop  offset="0" style="stop-color:#FF0054"/>
		<stop  offset="1" style="stop-color:#484852"/>
	</linearGradient>
	<path fill="url(#SVGID_2_)" d="M543.1,507.3c-11.1,3.7-20.4,13.4-30.5,19.4c-20.4,12-42.1,24.5-56.4,43.5
		c-14.3,19-25.4,41.6-31,64.8c-3.7,14.3-3.7,29.6-2.3,44.4c3.7-1.4,7.4-3.2,11.1-5.1c1.9-12,5.1-23.6,8.3-35.2
		c1.4-5.1-1.4-12,0.5-17.1c1.9-5.1,8.8-8.3,11.1-13.4s0.9-12,3.7-16.7c1.9-3.2,11.1-8.3,13.4-11.1c13.4-17.6,29.6-31.9,48.6-43
		c9.7-5.6,17.6-14.8,28.2-18.5c10.2-3.7,22.2-1.9,33.3-3.2c2.3-0.5,5.1-0.9,7.4-0.9c1.9-4.2,3.7-8.8,5.1-13.4
		c-5.1,0.5-9.7,1.4-14.8,1.9C567.1,504.9,554.2,503.1,543.1,507.3z"/>
	
		<linearGradient id="SVGID_3_" gradientUnits="userSpaceOnUse" x1="3.3217" y1="693.3218" x2="97.747" y2="787.7469" gradientTransform="matrix(4.6259 0 0 4.6259 0 -2953.8093)">
		<stop  offset="0" style="stop-color:#FF0054"/>
		<stop  offset="1" style="stop-color:#484852"/>
	</linearGradient>
	<path fill="url(#SVGID_3_)" d="M391.3,592.4c-4.2,10.2-7.4,20.4-10.2,30.5c-6,22.7-5.1,46.7-2.3,70.3c2.3-0.5,5.1-1.4,7.4-1.9
		c0.5-21.7,5.6-43,11.1-64.3c1.9-6.9-0.5-14.8,1.9-21.7c2.8-6.5,9.7-11.1,13-17.6c1.9-3.2,2.3-7.4,2.8-11.1h-16.7
		C397.4,583.1,395,588.2,391.3,592.4z"/>
	
		<linearGradient id="SVGID_4_" gradientUnits="userSpaceOnUse" x1="29.5718" y1="667.0717" x2="123.997" y2="761.4969" gradientTransform="matrix(4.6259 0 0 4.6259 0 -2953.8093)">
		<stop  offset="0" style="stop-color:#FF0054"/>
		<stop  offset="1" style="stop-color:#484852"/>
	</linearGradient>
	<path fill="url(#SVGID_4_)" d="M433.9,553c17.1-22.2,37.9-40.7,62-55c12-6.9,23.1-17.6,36.1-22.2c13.4-4.6,28.2-3.2,42.1-5.6
		c9.7-1.4,19.9-2.8,29.6-3.7c0.9-4.2,1.9-8.3,2.8-12.5c-11.6,0.5-22.7,1.9-34.2,3.7c-14.8,1.9-30.5,0.9-44.4,5.6
		c-13.9,5.1-25.9,15.7-38.4,23.1c-25,14.8-50.4,31-68,54.1v23.6C425.6,560.4,431.6,556.3,433.9,553z"/>
	
		<linearGradient id="SVGID_5_" gradientUnits="userSpaceOnUse" x1="-4.4283" y1="701.0717" x2="89.9969" y2="795.4969" gradientTransform="matrix(4.6259 0 0 4.6259 0 -2953.8093)">
		<stop  offset="0" style="stop-color:#FF0054"/>
		<stop  offset="1" style="stop-color:#484852"/>
	</linearGradient>
	<path fill="url(#SVGID_5_)" d="M339.5,604.9h-0.9c-0.5,2.3-1.4,4.6-1.9,6.9c-7.4,29.1-6.5,59.2-3.2,89.3c1.9,0,4.2-0.5,6-0.5
		c-0.9-28.7,5.6-56.9,12.5-84.7c0.9-3.2,0.9-6.9,1.4-10.6h-3.7C346.5,608.6,340.9,608.1,339.5,604.9z"/>
	
		<linearGradient id="SVGID_6_" gradientUnits="userSpaceOnUse" x1="25.7486" y1="635.4485" x2="140.457" y2="750.157" gradientTransform="matrix(4.6259 0 0 4.6259 0 -2953.8093)">
		<stop  offset="0" style="stop-color:#FF0054"/>
		<stop  offset="1" style="stop-color:#484852"/>
	</linearGradient>
	<path fill="url(#SVGID_6_)" d="M502.4,439.3c4.6-2.8,9.7-5.1,14.8-6.9c16.2-5.6,33.8-5.1,50.9-7.4c14.3-1.9,28.7-3.7,43-4.2
		c0.5-4.2,0.5-8.3,0.9-12.5c-15.3,0.5-30.5,2.3-45.8,4.2c-15.3,2.3-31.5,1.9-46.7,5.6C514.9,425.8,508.8,433.2,502.4,439.3z"/>
	
		<linearGradient id="SVGID_7_" gradientUnits="userSpaceOnUse" x1="6.9485" y1="654.2485" x2="121.657" y2="768.957" gradientTransform="matrix(4.6259 0 0 4.6259 0 -2953.8093)">
		<stop  offset="0" style="stop-color:#FF0054"/>
		<stop  offset="1" style="stop-color:#484852"/>
	</linearGradient>
	<path fill="url(#SVGID_7_)" d="M461.2,464.2c-10.2,3.2-20.8,5.1-31.9,5.1c-4.2,3.2-8.8,6.9-13,11.1c2.8,6,4.2,12.5,5.1,19
		C437.1,481.3,451,470.7,461.2,464.2z"/>
	
		<linearGradient id="SVGID_8_" gradientUnits="userSpaceOnUse" x1="0.9413" y1="695.7021" x2="95.3665" y2="790.1274" gradientTransform="matrix(4.6259 0 0 4.6259 0 -2953.8093)">
		<stop  offset="0" style="stop-color:#FF0054"/>
		<stop  offset="1" style="stop-color:#484852"/>
	</linearGradient>
	<path fill="url(#SVGID_8_)" d="M350.2,604.9H340C340.9,608.1,346.5,608.6,350.2,604.9z"/>
	
		<linearGradient id="SVGID_9_" gradientUnits="userSpaceOnUse" x1="-16.7819" y1="677.979" x2="97.9266" y2="792.6875" gradientTransform="matrix(4.6259 0 0 4.6259 0 -2953.8093)">
		<stop  offset="0" style="stop-color:#FF0054"/>
		<stop  offset="1" style="stop-color:#484852"/>
	</linearGradient>
	<path fill="url(#SVGID_9_)" d="M350.2,604.9H340C340.9,608.1,346.5,608.6,350.2,604.9z"/>
	
		<linearGradient id="SVGID_10_" gradientUnits="userSpaceOnUse" x1="27.2408" y1="622.5908" x2="150.1542" y2="745.5043" gradientTransform="matrix(4.6259 0 0 4.6259 0 -2953.8093)">
		<stop  offset="0" style="stop-color:#FF0054"/>
		<stop  offset="1" style="stop-color:#484852"/>
	</linearGradient>
	<path fill="url(#SVGID_10_)" d="M561.6,379.6c16.7-2.3,33.3-4.2,50-4.6c-0.5-4.2-0.5-8.8-0.9-13c-16.7,0.5-33.8,2.3-50.4,4.6
		c-7.9,0.9-16.2,1.9-24.5,2.8c-0.5,4.6-0.9,8.8-1.9,13.4C543.1,381.4,552.3,381,561.6,379.6z"/>
	
		<linearGradient id="SVGID_11_" gradientUnits="userSpaceOnUse" x1="-29.5731" y1="679.4046" x2="93.3403" y2="802.3181" gradientTransform="matrix(4.6259 0 0 4.6259 0 -2953.8093)">
		<stop  offset="0" style="stop-color:#FF0054"/>
		<stop  offset="1" style="stop-color:#484852"/>
	</linearGradient>
	<path fill="url(#SVGID_11_)" d="M289.6,615.5L289.6,615.5C289.6,615.5,289.6,615,289.6,615.5C289.6,615,289.6,615.5,289.6,615.5z"
		/>
	
		<linearGradient id="SVGID_12_" gradientUnits="userSpaceOnUse" x1="-27.8342" y1="677.6657" x2="95.0792" y2="800.5792" gradientTransform="matrix(4.6259 0 0 4.6259 0 -2953.8093)">
		<stop  offset="0" style="stop-color:#FF0054"/>
		<stop  offset="1" style="stop-color:#484852"/>
	</linearGradient>
	<path fill="url(#SVGID_12_)" d="M289.6,614.6c5.6,4.2,10.2,7.4,13,9.3v0.5c2.3-6.9,5.1-13.4,7.4-19.9h-18.5
		C291,608.1,290,611.3,289.6,614.6z"/>
	
		<linearGradient id="SVGID_13_" gradientUnits="userSpaceOnUse" x1="-10.7283" y1="707.3716" x2="83.6969" y2="801.797" gradientTransform="matrix(4.6259 0 0 4.6259 0 -2953.8093)">
		<stop  offset="0" style="stop-color:#FF0054"/>
		<stop  offset="1" style="stop-color:#484852"/>
	</linearGradient>
	<path fill="url(#SVGID_13_)" d="M289.6,615.5c-5.1,28.2-4.6,57.4-1.4,86.5c1.9,0,3.7,0,5.6,0.5c-0.5-25.9,3.2-51.8,9.3-77.3l0,0
		L289.6,615.5z"/>
	
		<linearGradient id="SVGID_14_" gradientUnits="userSpaceOnUse" x1="-6.097" y1="702.7404" x2="88.3282" y2="797.1657" gradientTransform="matrix(4.6259 0 0 4.6259 0 -2953.8093)">
		<stop  offset="0" style="stop-color:#FF0054"/>
		<stop  offset="1" style="stop-color:#484852"/>
	</linearGradient>
	<path fill="url(#SVGID_14_)" d="M289.6,614.6C289.6,615,289.6,615,289.6,614.6C289.6,615,289.6,615,289.6,614.6L289.6,614.6z"/>
	
		<linearGradient id="SVGID_15_" gradientUnits="userSpaceOnUse" x1="-29.3092" y1="679.1407" x2="93.6042" y2="802.0542" gradientTransform="matrix(4.6259 0 0 4.6259 0 -2953.8093)">
		<stop  offset="0" style="stop-color:#FF0054"/>
		<stop  offset="1" style="stop-color:#484852"/>
	</linearGradient>
	<path fill="url(#SVGID_15_)" d="M289.6,614.6C289.6,615,289.6,615,289.6,614.6c0,0.5,0,0.5,0,0.5l13,9.3l0,0v-0.5
		C299.8,622,295.6,619.2,289.6,614.6z"/>
	
		<linearGradient id="SVGID_16_" gradientUnits="userSpaceOnUse" x1="-5.9033" y1="702.5467" x2="88.5219" y2="796.972" gradientTransform="matrix(4.6259 0 0 4.6259 0 -2953.8093)">
		<stop  offset="0" style="stop-color:#FF0054"/>
		<stop  offset="1" style="stop-color:#484852"/>
	</linearGradient>
	<path fill="url(#SVGID_16_)" d="M289.6,614.6C289.6,615,289.6,615,289.6,614.6c0,0.5,0,0.5,0,0.5l13,9.3l0,0v-0.5
		C299.8,622,295.6,619.2,289.6,614.6z"/>
	
		<linearGradient id="SVGID_17_" gradientUnits="userSpaceOnUse" x1="28.2337" y1="614.7835" x2="157.8546" y2="744.4046" gradientTransform="matrix(4.6259 0 0 4.6259 0 -2953.8093)">
		<stop  offset="0" style="stop-color:#FF0054"/>
		<stop  offset="1" style="stop-color:#484852"/>
	</linearGradient>
	<path fill="url(#SVGID_17_)" d="M555.6,334.2c16.2-2.3,32.8-4.2,49.5-4.6c-0.9-4.2-1.9-8.8-3.2-13c-16.2,0.9-32.4,2.3-48.1,4.6
		c-8.3,0.9-16.2,1.9-24.5,2.8c1.4,4.2,2.8,8.3,3.7,13C540.3,336.1,548.2,335.2,555.6,334.2z"/>
	
		<linearGradient id="SVGID_18_" gradientUnits="userSpaceOnUse" x1="-14.1283" y1="710.7717" x2="80.2969" y2="805.197" gradientTransform="matrix(4.6259 0 0 4.6259 0 -2953.8093)">
		<stop  offset="0" style="stop-color:#FF0054"/>
		<stop  offset="1" style="stop-color:#484852"/>
	</linearGradient>
	<path fill="url(#SVGID_18_)" d="M241.9,695.5c1.9,0.5,3.2,0.9,5.1,0.9c0-30.5,5.1-61.5,12.5-91.6h-14.3
		C239.6,634.9,239.2,665.5,241.9,695.5z"/>
	
		<linearGradient id="SVGID_19_" gradientUnits="userSpaceOnUse" x1="17.1601" y1="598.2101" x2="170.1121" y2="751.1622" gradientTransform="matrix(4.6259 0 0 4.6259 0 -2953.8093)">
		<stop  offset="0" style="stop-color:#FF0054"/>
		<stop  offset="1" style="stop-color:#484852"/>
	</linearGradient>
	<path fill="url(#SVGID_19_)" d="M510.7,292.6c12.5-2.3,25.9-2.3,38.4-3.7c13.9-1.9,27.8-3.2,42.1-4.2c-1.9-4.2-3.7-8.8-5.6-13
		c-13,0.9-25.9,2.3-38.4,4.2c-15.7,2.3-31.9,1.9-47.2,6C503.8,284.7,507.5,288.4,510.7,292.6z"/>
	
		<linearGradient id="SVGID_20_" gradientUnits="userSpaceOnUse" x1="-18.5032" y1="715.1467" x2="75.922" y2="809.572" gradientTransform="matrix(4.6259 0 0 4.6259 0 -2953.8093)">
		<stop  offset="0" style="stop-color:#FF0054"/>
		<stop  offset="1" style="stop-color:#484852"/>
	</linearGradient>
	<path fill="url(#SVGID_20_)" d="M195.2,681.6c1.9,0.9,3.7,1.4,5.6,2.3c0.9-26.4,5.1-52.7,11.1-78.6h-13
		C194.7,630.3,194.3,655.7,195.2,681.6z"/>
	
		<linearGradient id="SVGID_21_" gradientUnits="userSpaceOnUse" x1="-22.2782" y1="718.9218" x2="72.1469" y2="813.3469" gradientTransform="matrix(4.6259 0 0 4.6259 0 -2953.8093)">
		<stop  offset="0" style="stop-color:#FF0054"/>
		<stop  offset="1" style="stop-color:#484852"/>
	</linearGradient>
	<path fill="url(#SVGID_21_)" d="M149.4,659c2.3,1.4,4.2,2.8,6.5,3.7c1.9-19.4,4.6-38.9,8.8-57.8h-12
		C150.3,622.9,149.4,640.9,149.4,659z"/>
	
		<linearGradient id="SVGID_22_" gradientUnits="userSpaceOnUse" x1="19.3338" y1="601.8339" x2="174.7457" y2="757.2457" gradientTransform="matrix(4.6259 0 0 4.6259 0 -2953.8093)">
		<stop  offset="0" style="stop-color:#FF0054"/>
		<stop  offset="1" style="stop-color:#484852"/>
	</linearGradient>
	<path fill="url(#SVGID_22_)" d="M498.7,248.7c14.3-3.2,29.6-3.7,43.9-6c8.8-1.4,17.6-2.3,26.8-3.2c-2.8-4.2-5.1-8.3-7.9-12.5
		c-6.9,0.9-13.9,1.4-20.4,2.8c-19.9,2.8-40.7,2.8-60.1,8.8c-15.3,4.6-29.6,10.2-43,15.7c8.8,0.9,17.1,2.3,25,5.1
		C474.1,255.1,486.2,251.4,498.7,248.7z"/>
	
		<linearGradient id="SVGID_23_" gradientUnits="userSpaceOnUse" x1="-24.7783" y1="721.4218" x2="69.6469" y2="815.8469" gradientTransform="matrix(4.6259 0 0 4.6259 0 -2953.8093)">
		<stop  offset="0" style="stop-color:#FF0054"/>
		<stop  offset="1" style="stop-color:#484852"/>
	</linearGradient>
	<path fill="url(#SVGID_23_)" d="M106.4,628c1.9,1.9,4.2,3.2,6,5.1c1.9-13,4.2-25.4,6.5-38.4c-2.3-2.3-4.2-4.6-6-7.4
		C110.6,601.2,108.2,614.6,106.4,628z"/>
	
		<linearGradient id="SVGID_24_" gradientUnits="userSpaceOnUse" x1="35.304" y1="627.154" x2="162.2568" y2="754.1069" gradientTransform="matrix(4.6259 0 0 4.6259 0 -2953.8093)">
		<stop  offset="0" style="stop-color:#FF0054"/>
		<stop  offset="1" style="stop-color:#484852"/>
	</linearGradient>
	<path fill="url(#SVGID_24_)" d="M443.2,219.5c30.1-10.2,60.1-22.2,91.6-26.8c-2.3-2.8-4.6-5.1-6.9-7.9
		c-30.5,4.2-61.5,7.4-90.7,17.6c-5.1,1.9-39.3,15.7-85.1,46.3c1.4,5.6,2.3,11.1,2.8,17.1C404.3,234.8,440.4,220.4,443.2,219.5z"/>
	
		<linearGradient id="SVGID_25_" gradientUnits="userSpaceOnUse" x1="40.5684" y1="629.4183" x2="165.0047" y2="753.8549" gradientTransform="matrix(4.6259 0 0 4.6259 0 -2953.8093)">
		<stop  offset="0" style="stop-color:#FF0054"/>
		<stop  offset="1" style="stop-color:#484852"/>
	</linearGradient>
	<path fill="url(#SVGID_25_)" d="M429.7,180.7c22.7-7.9,45.8-16.7,68.9-22.7c-4.2-3.2-8.8-6.9-13-10.2c-21.3,3.2-42.1,7.4-62.4,14.3
		c-7.9,2.8-46.7,19.9-91.6,46.7c3.7,4.2,6.9,8.8,9.7,13.4C385.3,197.8,422.8,183,429.7,180.7z"/>
	
		<linearGradient id="SVGID_26_" gradientUnits="userSpaceOnUse" x1="-16.6878" y1="686.6746" x2="60.7048" y2="764.0674" gradientTransform="matrix(4.6259 0 0 4.6259 0 -2953.8093)">
		<stop  offset="0" style="stop-color:#FF0054"/>
		<stop  offset="1" style="stop-color:#484852"/>
	</linearGradient>
	<path fill="url(#SVGID_26_)" d="M123,423.1L123,423.1C123,422.6,123,422.6,123,423.1C123,422.6,123,423.1,123,423.1z"/>
	
		<linearGradient id="SVGID_27_" gradientUnits="userSpaceOnUse" x1="-10.2816" y1="680.2684" x2="114.1547" y2="804.7048" gradientTransform="matrix(4.6259 0 0 4.6259 0 -2953.8093)">
		<stop  offset="0" style="stop-color:#FF0054"/>
		<stop  offset="1" style="stop-color:#484852"/>
	</linearGradient>
	<path fill="url(#SVGID_27_)" d="M126.7,434.2c3.7-5.6,22.7-35.2,52.7-71.2c-1.4-5.1-3.2-9.7-5.1-14.8c-29.1,37.5-48.1,68.9-50.9,74
		C124.4,425.8,125.8,430,126.7,434.2C127.2,434.2,127.2,434.2,126.7,434.2z"/>
	
		<linearGradient id="SVGID_28_" gradientUnits="userSpaceOnUse" x1="-22.4033" y1="719.0467" x2="72.0219" y2="813.472" gradientTransform="matrix(4.6259 0 0 4.6259 0 -2953.8093)">
		<stop  offset="0" style="stop-color:#FF0054"/>
		<stop  offset="1" style="stop-color:#484852"/>
	</linearGradient>
	<path fill="url(#SVGID_28_)" d="M79.6,544.7c-3.7,14.8-6.9,30.1-10.2,45.3c2.3,2.3,4.2,5.1,6.5,7.4c3.2-16.2,6.9-32.4,11.1-48.1
		v-31.9C84.2,526.7,81.9,535.9,79.6,544.7z"/>
	
		<linearGradient id="SVGID_29_" gradientUnits="userSpaceOnUse" x1="-3.2783" y1="699.9217" x2="91.1469" y2="794.347" gradientTransform="matrix(4.6259 0 0 4.6259 0 -2953.8093)">
		<stop  offset="0" style="stop-color:#FF0054"/>
		<stop  offset="1" style="stop-color:#484852"/>
	</linearGradient>
	<path fill="url(#SVGID_29_)" d="M123.5,422.1c0,0,0,0.5-0.5,0.5C123.5,422.6,123.5,422.6,123.5,422.1L123.5,422.1z"/>
	
		<linearGradient id="SVGID_30_" gradientUnits="userSpaceOnUse" x1="-6.2033" y1="702.8467" x2="88.2219" y2="797.272" gradientTransform="matrix(4.6259 0 0 4.6259 0 -2953.8093)">
		<stop  offset="0" style="stop-color:#FF0054"/>
		<stop  offset="1" style="stop-color:#484852"/>
	</linearGradient>
	<path fill="url(#SVGID_30_)" d="M119.8,447.1c2.3-4.6,4.6-8.8,6.9-13l0,0l-3.7-11.1c-6,12-11.1,24.1-16.2,36.1
		c3.2-3.2,7.4-6,11.6-8.8C118.9,449.4,119.3,448,119.8,447.1z"/>
	
		<linearGradient id="SVGID_31_" gradientUnits="userSpaceOnUse" x1="-17.0316" y1="687.0184" x2="107.4047" y2="811.4548" gradientTransform="matrix(4.6259 0 0 4.6259 0 -2953.8093)">
		<stop  offset="0" style="stop-color:#FF0054"/>
		<stop  offset="1" style="stop-color:#484852"/>
	</linearGradient>
	<path fill="url(#SVGID_31_)" d="M126.7,434.2C127.2,434.2,127.2,434.2,126.7,434.2c-1.4-4.2-2.3-7.9-3.2-12c0,0.5-0.5,0.5-0.5,0.5
		l0,0L126.7,434.2L126.7,434.2z"/>
	
		<linearGradient id="SVGID_32_" gradientUnits="userSpaceOnUse" x1="-3.7033" y1="700.3467" x2="90.7219" y2="794.772" gradientTransform="matrix(4.6259 0 0 4.6259 0 -2953.8093)">
		<stop  offset="0" style="stop-color:#FF0054"/>
		<stop  offset="1" style="stop-color:#484852"/>
	</linearGradient>
	<path fill="url(#SVGID_32_)" d="M126.7,434.2C127.2,434.2,127.2,434.2,126.7,434.2c-1.4-4.2-2.3-7.9-3.2-12c0,0.5-0.5,0.5-0.5,0.5
		l0,0L126.7,434.2L126.7,434.2z"/>
	
		<linearGradient id="SVGID_33_" gradientUnits="userSpaceOnUse" x1="-10.4782" y1="707.1218" x2="83.947" y2="801.5469" gradientTransform="matrix(4.6259 0 0 4.6259 0 -2953.8093)">
		<stop  offset="0" style="stop-color:#FF0054"/>
		<stop  offset="1" style="stop-color:#484852"/>
	</linearGradient>
	<path fill="url(#SVGID_33_)" d="M120.7,342.6c-39.3,57.8-65.2,124-82.3,192c-0.5,2.3-0.9,4.6-1.9,6.9c1.9,3.7,4.2,7.4,6.5,11.1
		c1.4-5.1,2.8-10.6,4.2-15.7c9.7-36.5,18.5-73.6,35.2-107.3c10.6-21.3,24.1-41.2,38.4-60.1C116.1,368.5,115.2,350,120.7,342.6z"/>
	
		<linearGradient id="SVGID_34_" gradientUnits="userSpaceOnUse" x1="2.3589" y1="683.2589" x2="112.1242" y2="793.0242" gradientTransform="matrix(4.6259 0 0 4.6259 0 -2953.8093)">
		<stop  offset="0" style="stop-color:#FF0054"/>
		<stop  offset="1" style="stop-color:#484852"/>
	</linearGradient>
	<path fill="url(#SVGID_34_)" d="M120.7,342.6v26.4c12.5-20.4,25.4-39.3,39.3-56c-1.9-4.6-3.2-8.8-4.2-13.4
		C143.9,312.5,131.8,326.8,120.7,342.6z"/>
	
		<linearGradient id="SVGID_35_" gradientUnits="userSpaceOnUse" x1="47.2839" y1="638.3339" x2="157.0492" y2="748.0993" gradientTransform="matrix(4.6259 0 0 4.6259 0 -2953.8093)">
		<stop  offset="0" style="stop-color:#FF0054"/>
		<stop  offset="1" style="stop-color:#484852"/>
	</linearGradient>
	<path fill="url(#SVGID_35_)" d="M311.3,183.9c32.4-19,68.9-30.1,104.5-42.1c13-4.6,25.9-8.8,38.9-13.4c-7.9-4.2-16.2-8.3-24.5-12
		c-6.9,1.9-13.9,4.2-20.8,6.5c-36.5,13-69.4,33.8-102.7,53.2c-3.7,2.3-7.4,4.6-11.1,6.5c3.2,1.4,6.5,3.2,9.3,5.1
		C309,184.8,311.3,183.9,311.3,183.9z"/>
	
		<linearGradient id="SVGID_36_" gradientUnits="userSpaceOnUse" x1="3.6131" y1="693.0305" x2="98.0383" y2="787.4556" gradientTransform="matrix(4.6259 0 0 4.6259 0 -2953.8093)">
		<stop  offset="0" style="stop-color:#FF0054"/>
		<stop  offset="1" style="stop-color:#484852"/>
	</linearGradient>
	<path fill="url(#SVGID_36_)" d="M120.7,368.9v-26.4C115.2,350,116.1,368.5,120.7,368.9z"/>
	
		<linearGradient id="SVGID_37_" gradientUnits="userSpaceOnUse" x1="-1.8998" y1="687.5176" x2="107.8655" y2="797.283" gradientTransform="matrix(4.6259 0 0 4.6259 0 -2953.8093)">
		<stop  offset="0" style="stop-color:#FF0054"/>
		<stop  offset="1" style="stop-color:#484852"/>
	</linearGradient>
	<path fill="url(#SVGID_37_)" d="M120.7,368.9v-26.4C115.2,350,116.1,368.5,120.7,368.9z"/>
	
		<linearGradient id="SVGID_38_" gradientUnits="userSpaceOnUse" x1="15.71" y1="680.46" x2="111.0231" y2="775.7731" gradientTransform="matrix(4.6259 0 0 4.6259 0 -2953.8093)">
		<stop  offset="0" style="stop-color:#FF0054"/>
		<stop  offset="1" style="stop-color:#484852"/>
	</linearGradient>
	<path fill="url(#SVGID_38_)" d="M164.2,227.4c-19.4,17.1-36.1,34.2-47.2,49.5l0,0c1.4-1.4,2.3-2.8,3.7-4.6V300
		c7.4-10.6,19-23.6,32.4-37.5c1.4-11.6,4.6-22.7,10.2-33.3C163.8,228.8,163.8,228.3,164.2,227.4z"/>
	
		<linearGradient id="SVGID_39_" gradientUnits="userSpaceOnUse" x1="47.435" y1="648.735" x2="142.7481" y2="744.0482" gradientTransform="matrix(4.6259 0 0 4.6259 0 -2953.8093)">
		<stop  offset="0" style="stop-color:#FF0054"/>
		<stop  offset="1" style="stop-color:#484852"/>
	</linearGradient>
	<path fill="url(#SVGID_39_)" d="M290,148.3c33.8-19.9,70.8-31.9,107.8-44.4c-11.1-3.7-22.7-6.5-34.2-8.3
		c-27.3,13-52.7,28.2-78.6,43.9c-15.7,9.3-36.1,22.7-56.9,37.9c8.3-2.3,17.1-3.7,26.4-3.7C268.3,162.2,281.3,153.4,290,148.3z"/>
	
		<linearGradient id="SVGID_40_" gradientUnits="userSpaceOnUse" x1="-5.3783" y1="702.0217" x2="89.047" y2="796.447" gradientTransform="matrix(4.6259 0 0 4.6259 0 -2953.8093)">
		<stop  offset="0" style="stop-color:#FF0054"/>
		<stop  offset="1" style="stop-color:#484852"/>
	</linearGradient>
	<path fill="url(#SVGID_40_)" d="M98.5,300c-39.8,52.7-68,113.3-87.9,176.2c1.4,5.6,3.2,10.6,4.6,16.2c7.9-27.8,16.7-55.5,29.1-81.4
		c18-36.1,43.5-68.5,68-100.4c2.8-3.7,5.6-6.9,8.3-10.6l-3.7-23.1C110.6,284.7,104.5,292.1,98.5,300z"/>
	
		<linearGradient id="SVGID_41_" gradientUnits="userSpaceOnUse" x1="10.8849" y1="685.2849" x2="106.1981" y2="780.5982" gradientTransform="matrix(4.6259 0 0 4.6259 0 -2953.8093)">
		<stop  offset="0" style="stop-color:#FF0054"/>
		<stop  offset="1" style="stop-color:#484852"/>
	</linearGradient>
	<path fill="url(#SVGID_41_)" d="M117,277.3l3.7,23.1v-27.8C119.3,274.1,118.4,275.5,117,277.3z"/>
	
		<linearGradient id="SVGID_42_" gradientUnits="userSpaceOnUse" x1="11.1217" y1="685.5217" x2="105.5469" y2="779.947" gradientTransform="matrix(4.6259 0 0 4.6259 0 -2953.8093)">
		<stop  offset="0" style="stop-color:#FF0054"/>
		<stop  offset="1" style="stop-color:#484852"/>
	</linearGradient>
	<path fill="url(#SVGID_42_)" d="M117,277.3l3.7,23.1v-27.8C119.3,274.1,118.4,275.5,117,277.3z"/>
	
		<linearGradient id="SVGID_43_" gradientUnits="userSpaceOnUse" x1="19.1717" y1="677.4717" x2="113.5969" y2="771.897" gradientTransform="matrix(4.6259 0 0 4.6259 0 -2953.8093)">
		<stop  offset="0" style="stop-color:#FF0054"/>
		<stop  offset="1" style="stop-color:#484852"/>
	</linearGradient>
	<path fill="url(#SVGID_43_)" d="M268.8,112.2c14.8-8.3,30.1-15.7,45.8-22.2c-2.8,0-5.6,0-8.3,0c-7.9,0-15.7,0.5-23.1,0.9
		c-6.5,3.7-13,7.9-19.9,11.6c-75.9,44.9-145.7,101.8-198.4,172.1c-25.9,34.2-47.2,71.2-64.3,110.1C0,388.4,0,392.1,0,396.2
		c0,3.7,0,7.4,0,11.1c2.3-4.6,4.2-9.7,6.5-14.3c19-38.9,46.3-73.1,72.2-107.3C131.8,217.2,194.3,155.7,268.8,112.2z"/>
	
		<linearGradient id="SVGID_44_" gradientUnits="userSpaceOnUse" x1="18.1967" y1="678.4467" x2="112.622" y2="772.8719" gradientTransform="matrix(4.6259 0 0 4.6259 0 -2953.8093)">
		<stop  offset="0" style="stop-color:#FF0054"/>
		<stop  offset="1" style="stop-color:#484852"/>
	</linearGradient>
	<path fill="url(#SVGID_44_)" d="M196.6,110.4c-27.3,10.6-52.3,24.5-74.9,41.6c-20.4,15.7-38.9,33.3-55,53.7
		c-22.7,28.2-40.2,61.1-51.8,96.2c10.2-13.9,20.8-27.8,31-41.2C89.3,204.3,139.2,152,196.6,110.4z"/>
</g>
<g id="_x32__copy_2">
	<g id="основа_2_copy_7">
	</g>
	<g>
		<g>
			<g>
				
					<linearGradient id="SVGID_45_" gradientUnits="userSpaceOnUse" x1="27.9" y1="729.35" x2="85.5" y2="729.35" gradientTransform="matrix(4.6259 0 0 -4.6259 0 3753.6733)">
					<stop  offset="0" style="stop-color:#FF0054"/>
					<stop  offset="1" style="stop-color:#484852"/>
				</linearGradient>
				<path fill="url(#SVGID_45_)" d="M395.5,545.2H129.1v-43.9c0-21.7,17.6-39.3,39.3-39.3h59.7c-10.6-3.7-18.5-13.9-18.5-26.4
					c0-11.1,6.5-20.4,15.7-25c-1.9-12.5-4.6-25-8.3-37.5c-2.8-10.6-6.5-21.3-10.6-31.9c-1.9-5.1-4.2-10.2-6.5-15.7
					c-4.2-8.3-6.9-15.7-8.3-23.1c-3.7-16.2-1.9-33.3,6-48.1c12.5-24.1,37.9-39.8,64.8-39.8s52.7,15.7,64.8,39.8
					c7.4,14.8,9.7,31.9,6,48.1c-1.9,7.4-4.2,14.8-8.3,23.1c-2.8,5.6-4.6,10.2-6.5,15.7c-4.2,10.6-7.4,21.3-10.6,31.9
					c-3.7,12.5-6.5,25-8.3,37.5c9.3,4.6,15.7,13.9,15.7,25c0,12-7.9,22.2-18.5,26.4h59.7c21.7,0,39.3,17.6,39.3,39.3V545.2z
					 M150.3,523.9h224.4v-22.7c0-10.2-8.3-18.5-18.5-18.5h-81l-0.5-10.2c0-3.7-0.5-15.7-0.5-17.1c0-0.5,0-1.4,0-1.9V442h12.5
					c3.7,0,6.5-2.8,6.5-6.5c0-3.7-2.8-6.5-6.5-6.5h-12l1.4-11.6c2.3-16.2,5.6-32.8,10.2-49.5c3.2-11.1,6.9-22.7,11.1-33.8
					c2.3-6,4.6-11.6,7.4-17.1c3.2-6.9,5.6-13,6.9-19c2.8-11.1,0.9-23.1-4.2-33.8c-8.8-17.1-26.8-28.2-46.3-28.2
					s-37.5,11.1-46.3,28.2c-5.1,10.6-6.9,22.2-4.2,33.8c1.4,5.6,3.7,11.6,6.9,19c2.8,6,5.1,11.6,7.4,17.1
					c4.2,11.1,7.9,22.2,11.1,33.8c4.6,16.7,8.3,33.3,10.2,49.5l1.4,11.6h-12c-3.7,0-6.5,2.8-6.5,6.5c0,3.7,2.8,6.5,6.5,6.5h12.5
					v11.6c0,0.5,0,1.4,0,1.9c0,1.4-0.5,13-0.5,17.1l-0.5,10.2h-79.1c-10.2,0-18.5,8.3-18.5,18.5v22.7H150.3z"/>
			</g>
			<g>
				
					<linearGradient id="SVGID_46_" gradientUnits="userSpaceOnUse" x1="32.3" y1="690.3" x2="81.1" y2="690.3" gradientTransform="matrix(4.6259 0 0 -4.6259 0 3753.6733)">
					<stop  offset="0" style="stop-color:#FF0054"/>
					<stop  offset="1" style="stop-color:#484852"/>
				</linearGradient>
				<path fill="url(#SVGID_46_)" d="M364.5,571.1H160.1c-6,0-10.6-4.6-10.6-10.6c0-6,4.6-10.6,10.6-10.6h204.5
					c6,0,10.6,4.6,10.6,10.6C375.2,566.5,370.5,571.1,364.5,571.1z"/>
			</g>
			<g>
				
					<linearGradient id="SVGID_47_" gradientUnits="userSpaceOnUse" x1="46.8" y1="751.85" x2="60.2599" y2="751.85" gradientTransform="matrix(4.6259 0 0 -4.6259 0 3753.6733)">
					<stop  offset="0" style="stop-color:#FF0054"/>
					<stop  offset="1" style="stop-color:#484852"/>
				</linearGradient>
				<path fill="url(#SVGID_47_)" d="M227.1,307c-6,0-10.6-4.6-10.6-10.6c0-28.7,23.1-51.8,51.8-51.8c6,0,10.6,4.6,10.6,10.6
					c0,6-5.1,10.6-10.6,10.6c-16.7,0-30.5,13.9-30.5,30.5C237.8,302.3,232.7,307,227.1,307z"/>
			</g>
		</g>
		<g>
			<g>
				
					<linearGradient id="SVGID_48_" gradientUnits="userSpaceOnUse" x1="74.6345" y1="732.1" x2="108.3479" y2="732.1" gradientTransform="matrix(4.6259 0 0 -4.6259 0 3753.6733)">
					<stop  offset="0" style="stop-color:#FF0054"/>
					<stop  offset="1" style="stop-color:#484852"/>
				</linearGradient>
				<path fill="url(#SVGID_48_)" d="M423.3,445.3c-43,0-78.2-35.2-78.2-78.2s35.2-78.2,78.2-78.2s78.2,35.2,78.2,78.2
					C501,410.1,466.3,445.3,423.3,445.3z M423.3,310.7c-31.5,0-56.9,25.4-56.9,56.9s25.4,56.9,56.9,56.9s56.9-25.4,56.9-56.9
					S454.7,310.7,423.3,310.7z"/>
			</g>
			<g>
				
					<linearGradient id="SVGID_49_" gradientUnits="userSpaceOnUse" x1="83.5889" y1="732.0875" x2="99.3935" y2="732.0875" gradientTransform="matrix(4.6259 0 0 -4.6259 0 3753.6733)">
					<stop  offset="0" style="stop-color:#FF0054"/>
					<stop  offset="1" style="stop-color:#484852"/>
				</linearGradient>
				<path fill="url(#SVGID_49_)" d="M397.4,403.6c-2.8,0-5.6-0.9-7.4-3.2c-4.2-4.2-4.2-10.6,0-14.8l51.8-51.8
					c4.2-4.2,10.6-4.2,14.8,0c4.2,4.2,4.2,10.6,0,14.8l-51.8,52.3C402.4,402.7,400.1,403.6,397.4,403.6z"/>
			</g>
			<g>
				
					<linearGradient id="SVGID_50_" gradientUnits="userSpaceOnUse" x1="89.625" y1="728.2375" x2="101.075" y2="728.2375" gradientTransform="matrix(4.6259 0 0 -4.6259 0 3753.6733)">
					<stop  offset="0" style="stop-color:#FF0054"/>
					<stop  offset="1" style="stop-color:#484852"/>
				</linearGradient>
				<path fill="url(#SVGID_50_)" d="M425.1,411.5c-2.8,0-5.6-0.9-7.4-3.2c-4.2-4.2-4.2-10.6,0-14.8l31.9-31.9
					c4.2-4.2,10.6-4.2,14.8,0c4.2,4.2,4.2,10.6,0,14.8l-31.9,31.9C430.7,410.6,427.9,411.5,425.1,411.5z"/>
			</g>
			<g>
				
					<linearGradient id="SVGID_51_" gradientUnits="userSpaceOnUse" x1="81.894" y1="735.9375" x2="93.344" y2="735.9375" gradientTransform="matrix(4.6259 0 0 -4.6259 0 3753.6733)">
					<stop  offset="0" style="stop-color:#FF0054"/>
					<stop  offset="1" style="stop-color:#484852"/>
				</linearGradient>
				<path fill="url(#SVGID_51_)" d="M389.5,375.9c-2.8,0-5.6-0.9-7.4-3.2c-4.2-4.2-4.2-10.6,0-14.8l31.9-31.9
					c4.2-4.2,10.6-4.2,14.8,0c4.2,4.2,4.2,10.6,0,14.8l-31.9,31.9C394.6,375,392.3,375.9,389.5,375.9z"/>
			</g>
		</g>
	</g>
</g>
</svg>
