<?xml version="1.0" encoding="utf-8"?>
<!-- Generator: Adobe Illustrator 17.1.0, SVG Export Plug-In . SVG Version: 6.00 Build 0)  -->
<!DOCTYPE svg PUBLIC "-//W3C//DTD SVG 1.1//EN" "http://www.w3.org/Graphics/SVG/1.1/DTD/svg11.dtd">
<svg version="1.1" id="Layer_1" xmlns="http://www.w3.org/2000/svg" xmlns:xlink="http://www.w3.org/1999/xlink" x="0px" y="0px"
	 viewBox="0 0 612 792" enable-background="new 0 0 612 792" xml:space="preserve">
<g id="Layer_20">
	<g>
		
			<linearGradient id="SVGID_1_" gradientUnits="userSpaceOnUse" x1="5.4381" y1="685.4382" x2="98.9524" y2="778.9523" gradientTransform="matrix(4.6259 0 0 4.6259 0 -2953.8093)">
			<stop  offset="0" style="stop-color:#FF0054"/>
			<stop  offset="1" style="stop-color:#484852"/>
		</linearGradient>
		<path fill="url(#SVGID_1_)" d="M86,183c-14.3,14.8-26.8,31-37.9,48.1c-4.2,6-7.9,12.5-11.1,19c-9.3,16.7-16.2,33.8-22.2,51.3
			c12.5-17.6,24.1-35.6,34.7-54.1C62,226,75.9,205.2,86,183z"/>
		
			<linearGradient id="SVGID_2_" gradientUnits="userSpaceOnUse" x1="5.9632" y1="684.9131" x2="99.4773" y2="778.4274" gradientTransform="matrix(4.6259 0 0 4.6259 0 -2953.8093)">
			<stop  offset="0" style="stop-color:#FF0054"/>
			<stop  offset="1" style="stop-color:#484852"/>
		</linearGradient>
		<path fill="url(#SVGID_2_)" d="M99.9,276.4c16.7-29.1,36.1-57.4,47.2-88.8c6.5-19.4,9.7-39.8,12.5-60.6c-2.3,1.4-4.2,2.3-6.5,3.7
			c-13.4,49.5-36.1,96.2-62,140.2c-25.9,43-55.5,84.2-91.1,118.9c0,1.9,0,4.2,0,6c0,3.7,0,7.4,0.5,11.1
			C40.2,369.4,72.2,324.1,99.9,276.4z"/>
		
			<linearGradient id="SVGID_3_" gradientUnits="userSpaceOnUse" x1="-16.6265" y1="695.8235" x2="97.0703" y2="809.5202" gradientTransform="matrix(4.6259 0 0 4.6259 0 -2953.8093)">
			<stop  offset="0" style="stop-color:#FF0054"/>
			<stop  offset="1" style="stop-color:#484852"/>
		</linearGradient>
		<path fill="url(#SVGID_3_)" d="M9.3,459.6c0.9,5.1,2.3,10.2,3.7,15.3c26.8-21.3,71.2-65.7,105-104.1v-31
			C85.1,383.7,43,432.8,9.3,459.6z"/>
		
			<linearGradient id="SVGID_4_" gradientUnits="userSpaceOnUse" x1="3.1985" y1="675.9985" x2="116.8953" y2="789.6952" gradientTransform="matrix(4.6259 0 0 4.6259 0 -2953.8093)">
			<stop  offset="0" style="stop-color:#FF0054"/>
			<stop  offset="1" style="stop-color:#484852"/>
		</linearGradient>
		<path fill="url(#SVGID_4_)" d="M144.8,301.4L144.8,301.4c-0.5,0.5-0.9,1.4-1.4,2.3c0.5,0,0.9,0,0.9-0.5S144.8,302.3,144.8,301.4z"
			/>
		
			<linearGradient id="SVGID_5_" gradientUnits="userSpaceOnUse" x1="20.7659" y1="663.1658" x2="151.7772" y2="794.1772" gradientTransform="matrix(4.6259 0 0 4.6259 0 -2953.8093)">
			<stop  offset="0" style="stop-color:#FF0054"/>
			<stop  offset="1" style="stop-color:#484852"/>
		</linearGradient>
		<path fill="url(#SVGID_5_)" d="M147.6,302.8c1.4,0,3.2,0,5.1,0h11.6c14.3-32.8,36.1-84.7,39.8-95.8c11.6-33.8,14.3-69.9,19-105
			c-1.4,0.5-2.3,0.5-3.7,0.9c-10.2,63.4-43,142.5-74.5,198.4c1.4-1.9,2.8-4.2,4.2-6C147.6,298.2,147.6,300.5,147.6,302.8z"/>
		
			<linearGradient id="SVGID_6_" gradientUnits="userSpaceOnUse" x1="3.7985" y1="675.3985" x2="117.4953" y2="789.0952" gradientTransform="matrix(4.6259 0 0 4.6259 0 -2953.8093)">
			<stop  offset="0" style="stop-color:#FF0054"/>
			<stop  offset="1" style="stop-color:#484852"/>
		</linearGradient>
		<path fill="url(#SVGID_6_)" d="M144.3,303.7c0.9-0.5,2.3-0.5,3.2-0.5c0-2.3,0-4.6,1.4-7.9c-1.4,1.9-2.8,4.2-4.2,6l0,0
			C144.8,302.3,144.3,302.8,144.3,303.7z"/>
		
			<linearGradient id="SVGID_7_" gradientUnits="userSpaceOnUse" x1="6.1658" y1="677.7659" x2="137.1772" y2="808.7772" gradientTransform="matrix(4.6259 0 0 4.6259 0 -2953.8093)">
			<stop  offset="0" style="stop-color:#FF0054"/>
			<stop  offset="1" style="stop-color:#484852"/>
		</linearGradient>
		<path fill="url(#SVGID_7_)" d="M144.3,303.7c0.9-0.5,2.3-0.5,3.2-0.5c0-2.3,0-4.6,1.4-7.9c-1.4,1.9-2.8,4.2-4.2,6l0,0
			C144.8,302.3,144.3,302.8,144.3,303.7z"/>
		
			<linearGradient id="SVGID_8_" gradientUnits="userSpaceOnUse" x1="-16.6829" y1="709.067" x2="74.5963" y2="800.3463" gradientTransform="matrix(4.6259 0 0 4.6259 0 -2953.8093)">
			<stop  offset="0" style="stop-color:#FF0054"/>
			<stop  offset="1" style="stop-color:#484852"/>
		</linearGradient>
		<path fill="url(#SVGID_8_)" d="M29.1,506.3c-2.3,1.9-4.2,3.2-6.5,4.6c2.8,6.9,6,13.4,9.3,19.9c3.7-2.3,6.9-5.1,10.6-7.9
			c13.4-10.2,44.9-40.2,75.4-70.8v-26.4C83.7,459.1,45.8,494.3,29.1,506.3z"/>
		
			<linearGradient id="SVGID_9_" gradientUnits="userSpaceOnUse" x1="20.4348" y1="648.5848" x2="192.9108" y2="821.0607" gradientTransform="matrix(4.6259 0 0 4.6259 0 -2953.8093)">
			<stop  offset="0" style="stop-color:#FF0054"/>
			<stop  offset="1" style="stop-color:#484852"/>
		</linearGradient>
		<path fill="url(#SVGID_9_)" d="M278.9,104.8c0.5-4.6,1.4-9.3,1.9-13.9c-3.7,0.5-6.9,0.5-10.6,0.9c-0.5,3.7-0.9,7.4-1.4,11.6
			c0.9,24.1-29.1,124.4-59.7,199.4h19.4C260,222.3,275.2,131.2,278.9,104.8z"/>
		
			<linearGradient id="SVGID_10_" gradientUnits="userSpaceOnUse" x1="-28.0973" y1="707.3526" x2="78.9384" y2="814.3884" gradientTransform="matrix(4.6259 0 0 4.6259 0 -2953.8093)">
			<stop  offset="0" style="stop-color:#FF0054"/>
			<stop  offset="1" style="stop-color:#484852"/>
		</linearGradient>
		<path fill="url(#SVGID_10_)" d="M60.6,547.5c-4.6,3.7-9.3,6.9-14.3,10.2c4.2,6.5,8.3,13,13,19c5.1-3.7,10.2-7.4,15.3-11.1
			c6.5-5.1,23.1-18.5,43.5-36.1v-32.4C91.6,522.1,68.9,541.5,60.6,547.5z"/>
		
			<linearGradient id="SVGID_11_" gradientUnits="userSpaceOnUse" x1="24.8856" y1="628.4355" x2="213.3859" y2="816.9361" gradientTransform="matrix(4.6259 0 0 4.6259 0 -2953.8093)">
			<stop  offset="0" style="stop-color:#FF0054"/>
			<stop  offset="1" style="stop-color:#484852"/>
		</linearGradient>
		<path fill="url(#SVGID_11_)" d="M314.1,208c8.8-35.6,15.3-69.9,17.1-96.2c0.9-6.9,1.9-13.9,2.3-20.8c-3.2-0.5-6.9-0.9-10.6-0.9
			c-0.9,6.5-1.9,13.4-2.8,19.9c-5.1,32.4-13.9,68.9-25,104.1c4.6-2.3,9.7-4.6,14.8-5.6C311.8,208.4,313.2,208,314.1,208z"/>
		
			<linearGradient id="SVGID_12_" gradientUnits="userSpaceOnUse" x1="25.8048" y1="618.8048" x2="206.2467" y2="799.2467" gradientTransform="matrix(4.6259 0 0 4.6259 0 -2953.8093)">
			<stop  offset="0" style="stop-color:#FF0054"/>
			<stop  offset="1" style="stop-color:#484852"/>
		</linearGradient>
		<path fill="url(#SVGID_12_)" d="M384.4,118.7c0.9-6,1.4-12,2.3-18.5c-3.7-0.9-7.9-1.9-11.6-2.8c-0.9,6.5-1.9,13-2.8,19.4
			c-0.9,12.5-10.6,51.8-23.6,97.1c4.2,2.3,7.9,5.1,11.1,8.3C372.4,174.7,382.6,132.6,384.4,118.7z"/>
		
			<linearGradient id="SVGID_13_" gradientUnits="userSpaceOnUse" x1="-27.8083" y1="714.4124" x2="68.8141" y2="811.0347" gradientTransform="matrix(4.6259 0 0 4.6259 0 -2953.8093)">
			<stop  offset="0" style="stop-color:#FF0054"/>
			<stop  offset="1" style="stop-color:#484852"/>
		</linearGradient>
		<path fill="url(#SVGID_13_)" d="M122.6,562.3c-14.8,13.4-25.9,23.1-30.5,26.8c-4.6,3.7-9.7,6.9-14.3,10.6c5.6,6,11.1,12,17.1,17.6
			c4.2-2.8,7.9-6,12-8.8c5.1-4.2,17.6-15.3,34.2-31C133.2,574.3,126.7,569.2,122.6,562.3z"/>
		
			<linearGradient id="SVGID_14_" gradientUnits="userSpaceOnUse" x1="-50.191" y1="684.709" x2="86.098" y2="820.998" gradientTransform="matrix(4.6259 0 0 4.6259 0 -2953.8093)">
			<stop  offset="0" style="stop-color:#FF0054"/>
			<stop  offset="1" style="stop-color:#484852"/>
		</linearGradient>
		<path fill="url(#SVGID_14_)" d="M123.5,630.3c-2.3,1.9-5.1,3.7-7.4,5.6c6.9,5.6,14.3,10.6,21.7,15.7c0.5-0.5,0.9-0.5,1.4-0.9
			c9.7-7.4,37-36.1,68.5-71.2h-31.5C151.7,604.9,131.4,624.3,123.5,630.3z"/>
		
			<linearGradient id="SVGID_15_" gradientUnits="userSpaceOnUse" x1="25.0297" y1="621.0797" x2="183.7052" y2="779.7551" gradientTransform="matrix(4.6259 0 0 4.6259 0 -2953.8093)">
			<stop  offset="0" style="stop-color:#FF0054"/>
			<stop  offset="1" style="stop-color:#484852"/>
		</linearGradient>
		<path fill="url(#SVGID_15_)" d="M387.6,313.4L387.6,313.4c28.7-71.2,53.2-159.6,49.5-187.8c0.5-2.3,0.5-4.2,0.9-6.5
			c-4.2-1.9-8.3-3.7-12.5-5.6c-0.5,3.2-0.9,6.9-1.4,10.2c-3.2,22.7-18,76.3-42.1,142C386.7,281.5,388.6,297.2,387.6,313.4z"/>
		
			<linearGradient id="SVGID_16_" gradientUnits="userSpaceOnUse" x1="22.4865" y1="613.3364" x2="179.9108" y2="770.7609" gradientTransform="matrix(4.6259 0 0 4.6259 0 -2953.8093)">
			<stop  offset="0" style="stop-color:#FF0054"/>
			<stop  offset="1" style="stop-color:#484852"/>
		</linearGradient>
		<path fill="url(#SVGID_16_)" d="M487.6,149.2c-4.2-3.2-8.8-6-13-9.3c-3.7,24.1-31.9,102.2-58.3,173.5h21.7
			C462.6,244.5,484.3,172.8,487.6,149.2z"/>
		
			<linearGradient id="SVGID_17_" gradientUnits="userSpaceOnUse" x1="-42.3073" y1="681.0427" x2="86.4054" y2="809.7553" gradientTransform="matrix(4.6259 0 0 4.6259 0 -2953.8093)">
			<stop  offset="0" style="stop-color:#FF0054"/>
			<stop  offset="1" style="stop-color:#484852"/>
		</linearGradient>
		<path fill="url(#SVGID_17_)" d="M162.4,665.9c8.8,4.6,17.6,8.8,26.8,12.5c14.8-12,58.3-58.3,100.8-107.3
			c-11.1-1.4-20.8-2.3-28.7-3.7C218.3,613.6,176.2,655.3,162.4,665.9z"/>
		
			<linearGradient id="SVGID_18_" gradientUnits="userSpaceOnUse" x1="26.7774" y1="611.0274" x2="170.5041" y2="754.7541" gradientTransform="matrix(4.6259 0 0 4.6259 0 -2953.8093)">
			<stop  offset="0" style="stop-color:#FF0054"/>
			<stop  offset="1" style="stop-color:#484852"/>
		</linearGradient>
		<path fill="url(#SVGID_18_)" d="M499.6,335.6c4.6-12.5,8.3-21.3,9.3-24.1c13-38.4,20.8-78.6,26.8-118.9
			c-4.6-5.1-9.3-10.2-13.9-14.8c-4.2,23.1-23.1,80-45.3,140.2c7.9,3.2,15.3,7.9,20.8,14.3C497.7,333.3,498.7,334.7,499.6,335.6z"/>
		
			<linearGradient id="SVGID_19_" gradientUnits="userSpaceOnUse" x1="-55.9847" y1="656.5152" x2="92.8438" y2="805.3438" gradientTransform="matrix(4.6259 0 0 4.6259 0 -2953.8093)">
			<stop  offset="0" style="stop-color:#FF0054"/>
			<stop  offset="1" style="stop-color:#484852"/>
		</linearGradient>
		<path fill="url(#SVGID_19_)" d="M217.4,688.6c10.6,3.2,21.3,6,32.4,7.9c18.5-16.7,69.4-68,114.3-119.3
			c-13.4-0.5-26.4-1.4-38.4-2.8C281.7,624.7,235,674.7,217.4,688.6z"/>
		
			<linearGradient id="SVGID_20_" gradientUnits="userSpaceOnUse" x1="-52.7958" y1="647.004" x2="94.2635" y2="794.0635" gradientTransform="matrix(4.6259 0 0 4.6259 0 -2953.8093)">
			<stop  offset="0" style="stop-color:#FF0054"/>
			<stop  offset="1" style="stop-color:#484852"/>
		</linearGradient>
		<path fill="url(#SVGID_20_)" d="M417.7,579c-8.8,0-17.1,0-25.4-0.5c-37.9,47.2-81.4,99-108.7,122.6c7.4,0.5,14.8,0.9,22.7,0.9
			c5.1,0,10.2,0,15.3-0.5c34.7-35.6,74-79.6,107.3-123.5C425.6,578.5,421.4,579,417.7,579z"/>
		
			<linearGradient id="SVGID_21_" gradientUnits="userSpaceOnUse" x1="33.4486" y1="635.7988" x2="143.8956" y2="746.2455" gradientTransform="matrix(4.6259 0 0 4.6259 0 -2953.8093)">
			<stop  offset="0" style="stop-color:#FF0054"/>
			<stop  offset="1" style="stop-color:#484852"/>
		</linearGradient>
		<path fill="url(#SVGID_21_)" d="M500.1,410.6c1.4,5.6,1.9,11.1,1.4,17.1c-0.9,12-5.6,23.6-13,32.8c1.4,5.6,1.9,11.1,1.4,17.1
			c0,3.2-0.5,6.5-1.4,9.3c6-11.1,10.2-19.4,10.2-19.4c24.5-43.5,44.4-91.6,60.1-138.3c8.3-24.1,14.3-48.6,19.4-73.6
			c-4.2-8.3-9.3-16.7-14.3-25C556,264.9,536.1,320.4,513,375c0,0.9,0,1.4,0,2.3C512.1,389.3,507.5,400.9,500.1,410.6z"/>
		
			<linearGradient id="SVGID_22_" gradientUnits="userSpaceOnUse" x1="24.1881" y1="666.6882" x2="117.7025" y2="760.2025" gradientTransform="matrix(4.6259 0 0 4.6259 0 -2953.8093)">
			<stop  offset="0" style="stop-color:#FF0054"/>
			<stop  offset="1" style="stop-color:#484852"/>
		</linearGradient>
		<path fill="url(#SVGID_22_)" d="M608.8,347.7c-2.3-14.3-5.6-28.7-9.7-42.6c-21.3,73.1-50,143.9-88.8,209.1
			C470,581.3,421,641.9,365.4,696c15.3-2.8,29.6-6.9,43.9-12c42.6-50.4,80-105,113.3-161.9C555.1,466.1,587.5,409.2,608.8,347.7z"/>
		
			<linearGradient id="SVGID_23_" gradientUnits="userSpaceOnUse" x1="26.9131" y1="663.9632" x2="120.4274" y2="757.4774" gradientTransform="matrix(4.6259 0 0 4.6259 0 -2953.8093)">
			<stop  offset="0" style="stop-color:#FF0054"/>
			<stop  offset="1" style="stop-color:#484852"/>
		</linearGradient>
		<path fill="url(#SVGID_23_)" d="M555.1,540.6c-22.2,37.5-47.6,73.6-74.9,107.3c25-17.6,47.6-38.4,66.6-62.4
			c17.6-21.7,31.9-46.3,42.6-72.6c11.1-26.4,18-54.1,21.3-83.7C594.4,467.9,575.9,504.9,555.1,540.6z"/>
	</g>
	
		<linearGradient id="SVGID_24_" gradientUnits="userSpaceOnUse" x1="30.5" y1="726.4818" x2="105.9094" y2="726.4818" gradientTransform="matrix(4.6259 0 0 -4.6259 0 3753.6733)">
		<stop  offset="0" style="stop-color:#FF0054"/>
		<stop  offset="1" style="stop-color:#484852"/>
	</linearGradient>
	<path fill="url(#SVGID_24_)" d="M480.2,348.6c-6.9-7.4-16.7-11.6-26.8-11.6h-91.1l-0.5-0.5c6.5-30.1,3.2-59.7-10.6-87.9
		c-6.5-13.4-20.8-20.8-35.6-17.6s-25,15.3-25,30.5c-0.9,44.4-26.8,66.1-42.6,74.9c-3.7-6.5-11.1-11.1-19.4-11.1h-75.9
		c-6.5,0-11.6,5.1-11.6,11.6v207.2c0,6.5,5.1,11.6,11.6,11.6H229c9.3,0,17.1-5.6,20.4-13.4c26.4,4.2,93.9,13,168.4,13
		c22.2,0,37.5-14.3,37.5-34.2c0-6.5-1.9-12.5-5.1-17.6c9.3-6,15.7-16.2,16.7-27.8c0.5-7.9-1.4-15.3-5.6-21.7
		c9.7-6,16.2-16.2,17.1-28.2c0.5-7.9-1.4-15.3-5.6-21.7c9.7-6,16.2-16.2,17.1-28.2C490.3,365.7,487.1,356,480.2,348.6z M184.6,511
		c0-6,4.6-10.6,10.6-10.6c6,0,10.6,4.6,10.6,10.6c0,2.3-0.5,4.2-1.9,5.6c-0.9-0.9-1.4-1.4-2.3-1.9c0.5-0.9,0.9-2.3,0.9-3.7
		c0-4.2-3.7-7.9-7.9-7.9c-4.2,0-7.9,3.7-7.9,7.9c0,1.9,0.5,3.2,1.4,4.6c-0.9,0.5-1.4,1.4-2.3,2.3C185.5,516,184.6,513.7,184.6,511z
		 M191.5,511c0-2.3,1.9-3.7,3.7-3.7c2.3,0,3.7,1.9,3.7,3.7c0,0.9-0.5,1.9-0.9,2.3c-0.5,0-1.4,0-1.9,0c-1.4,0-2.3,0-3.2,0.5
		C192,513.3,191.5,512.3,191.5,511z M228.1,532.7h-20.4v-3.2c6-4.2,9.7-10.6,9.7-18.5c0-12.5-10.2-22.2-22.2-22.2S173,498.9,173,511
		c0,8.3,4.6,15.7,11.6,19.4v2.3h-7.9c-6.5-5.6-10.6-13.9-10.6-22.7c0-16.7,13.4-30.1,30.1-30.1V349h31.9V532.7z M452.4,387h-10.6
		c-0.5,0-0.5,0-0.9,0c0,0,0,0-0.5,0h-34.2c-6.5,0-11.6,5.1-11.6,11.6s5.1,11.6,11.6,11.6h34.2c0.5,0,0.5,0,0.9,0c0,0,0,0,0.5,0
		c3.7,0,7.4,1.4,9.7,4.2c2.8,2.8,3.7,6.5,3.7,10.2c-0.5,6.9-6.9,12.5-14.3,12.5h-10.6c-0.5,0-0.9,0-0.9,0h-25.9
		c-6.5,0-11.6,5.1-11.6,11.6s5.1,11.6,11.6,11.6h28.2c3.2,0.5,6.5,1.9,8.8,4.2c2.8,2.8,3.7,6.5,3.7,10.2
		c-0.5,6.9-6.9,12.5-14.3,12.5h-10.6h-19.4c-6.5,0-11.6,5.1-11.6,11.6s5.1,11.6,11.6,11.6h19.4c7.9,0,13.4,4.6,13.4,11.1
		c0,9.7-8.8,11.1-14.3,11.1c-74.9,0-142.5-9.3-166.5-13V361.5c25-11.1,61.5-42.1,62.4-99.5c0-6.5,5.1-7.9,6.9-8.3
		c1.4-0.5,6.9-0.9,9.7,4.6c11.1,23.1,13.9,47.6,8.8,72.6c-1.4,6.9,0,14.3,4.6,19.9s11.1,8.8,18.5,8.8h90.7c3.7,0,7.4,1.4,9.7,4.2
		c2.8,2.8,3.7,6.5,3.7,10.2C466.3,381.4,459.8,387,452.4,387z"/>
</g>
</svg>
