<?xml version="1.0" encoding="utf-8"?>
<!-- Generator: Adobe Illustrator 17.1.0, SVG Export Plug-In . SVG Version: 6.00 Build 0)  -->
<!DOCTYPE svg PUBLIC "-//W3C//DTD SVG 1.1//EN" "http://www.w3.org/Graphics/SVG/1.1/DTD/svg11.dtd">
<svg version="1.1" id="Layer_1" xmlns="http://www.w3.org/2000/svg" xmlns:xlink="http://www.w3.org/1999/xlink" x="0px" y="0px"
	 viewBox="0 0 612 792" enable-background="new 0 0 612 792" xml:space="preserve">
<g id="_x33__copy">
	<g>
		
			<linearGradient id="SVGID_1_" gradientUnits="userSpaceOnUse" x1="63.9684" y1="636.053" x2="154.0991" y2="726.1837" gradientTransform="matrix(4.6259 0 0 4.6259 0 -2953.8093)">
			<stop  offset="0" style="stop-color:#FF0054"/>
			<stop  offset="1" style="stop-color:#484852"/>
		</linearGradient>
		<path fill="url(#SVGID_1_)" d="M606,328.2c-0.9-4.2-1.9-8.3-3.2-12.5c-18.5-14.3-35.6-30.5-50-49.5
			c-22.2-30.5-35.6-66.1-45.3-102.7c-5.1-4.2-10.2-8.8-15.3-12.5c11.6,43,26.4,86,53.7,121.2C562.5,294,583.3,312,606,328.2z"/>
		
			<linearGradient id="SVGID_2_" gradientUnits="userSpaceOnUse" x1="58.1786" y1="641.8895" x2="148.3065" y2="732.0174" gradientTransform="matrix(4.6259 0 0 4.6259 0 -2953.8093)">
			<stop  offset="0" style="stop-color:#FF0054"/>
			<stop  offset="1" style="stop-color:#484852"/>
		</linearGradient>
		<path fill="url(#SVGID_2_)" d="M613.9,393.5c-40.2-25-78.6-54.1-106.4-92.1c-30.5-41.6-47.6-91.6-60.6-142
			c-3.7-13.9-6.5-27.8-9.3-41.6c-5.1-2.3-9.7-4.6-14.8-6.5c3.2,17.1,6.9,34.2,11.6,51.3c13.9,51.3,31.9,103.2,64.3,145.3
			c30.5,39.8,71.7,69.9,114.7,95.3c0-2.3,0-4.6,0-7.4C613.9,395.3,613.9,394.4,613.9,393.5z"/>
		
			<linearGradient id="SVGID_3_" gradientUnits="userSpaceOnUse" x1="55.8847" y1="644.2347" x2="146.0123" y2="734.3623" gradientTransform="matrix(4.6259 0 0 4.6259 0 -2953.8093)">
			<stop  offset="0" style="stop-color:#FF0054"/>
			<stop  offset="1" style="stop-color:#484852"/>
		</linearGradient>
		<path fill="url(#SVGID_3_)" d="M390.9,174.2c-6.5-25.4-12-51.3-15.3-77.7c-5.1-0.9-10.2-1.9-15.3-2.8c3.7,28.2,9.7,56.4,17.1,84.2
			c1.9,6.5,3.7,13,5.6,19.9c6.5,4.2,12.5,8.8,18.5,13.9C397.4,199.2,393.7,186.7,390.9,174.2z"/>
		
			<linearGradient id="SVGID_4_" gradientUnits="userSpaceOnUse" x1="44.4871" y1="655.6323" x2="134.6148" y2="745.7599" gradientTransform="matrix(4.6259 0 0 4.6259 0 -2953.8093)">
			<stop  offset="0" style="stop-color:#FF0054"/>
			<stop  offset="1" style="stop-color:#484852"/>
		</linearGradient>
		<path fill="url(#SVGID_4_)" d="M461.2,336.6c-2.3-2.8-4.2-6-6.5-8.8c0,0.5,0,0.5,0,0.9c0,6-0.5,12-0.9,18
			c36.5,47.2,86,82.8,137.4,112.4c4.6,2.8,9.7,5.6,14.3,8.8c0.9-3.2,1.4-6.5,2.3-10.2c-3.7-2.3-7.9-4.6-11.6-6.9
			C544.9,420.3,496.4,384.2,461.2,336.6z"/>
		
			<linearGradient id="SVGID_5_" gradientUnits="userSpaceOnUse" x1="37.0605" y1="635.8105" x2="235.4392" y2="834.1895" gradientTransform="matrix(4.6259 0 0 4.6259 0 -2953.8093)">
			<stop  offset="0" style="stop-color:#FF0054"/>
			<stop  offset="1" style="stop-color:#484852"/>
		</linearGradient>
		<path fill="url(#SVGID_5_)" d="M316.4,89.5c-2.3,0-5.1,0-7.4,0c-2.8,0-5.6,0-8.3,0c2.8,28.2,7.9,56.4,14.8,84.7
			c5.6,0.5,10.6,1.4,16.2,2.8C324.7,147.8,319.2,118.7,316.4,89.5z"/>
		
			<linearGradient id="SVGID_6_" gradientUnits="userSpaceOnUse" x1="-29.6539" y1="598.946" x2="126.5552" y2="755.1552" gradientTransform="matrix(4.6259 0 0 4.6259 0 -2953.8093)">
			<stop  offset="0" style="stop-color:#FF0054"/>
			<stop  offset="1" style="stop-color:#484852"/>
		</linearGradient>
		<path fill="url(#SVGID_6_)" d="M476.9,453.6c27.3,20.4,55,40.2,84.2,57.4c8.3,4.6,16.2,9.7,24.5,14.8c1.4-3.2,3.2-6.9,4.6-10.6
			c-7.9-4.6-15.7-8.8-23.6-13.4c-34.7-20.8-67.1-44.9-97.6-70.8c-11.6-9.7-21.7-19.9-31.5-30.5c-2.3,4.2-4.6,8.8-7.4,13
			C445,427.2,461.2,442,476.9,453.6z"/>
		
			<linearGradient id="SVGID_7_" gradientUnits="userSpaceOnUse" x1="33.3278" y1="645.7278" x2="287.9657" y2="900.3657" gradientTransform="matrix(4.6259 0 0 4.6259 0 -2953.8093)">
			<stop  offset="0" style="stop-color:#FF0054"/>
			<stop  offset="1" style="stop-color:#484852"/>
		</linearGradient>
		<path fill="url(#SVGID_7_)" d="M258.6,93.7c-5.6,0.9-11.1,1.9-16.2,3.2c2.8,27.8,7.9,55.5,13.9,82.3c5.1-1.4,10.6-2.8,15.7-3.7
			C266,148.7,261.4,121,258.6,93.7z"/>
		
			<linearGradient id="SVGID_8_" gradientUnits="userSpaceOnUse" x1="-165.7249" y1="481.4753" x2="113.6962" y2="760.8962" gradientTransform="matrix(4.6259 0 0 4.6259 0 -2953.8093)">
			<stop  offset="0" style="stop-color:#FF0054"/>
			<stop  offset="1" style="stop-color:#484852"/>
		</linearGradient>
		<path fill="url(#SVGID_8_)" d="M490.3,536.9c13.9,7.4,26.8,17.1,40.7,25.4c8.3,4.6,16.2,9.7,24.5,14.8c2.3-3.2,4.6-6.9,6.9-10.2
			c-8.8-4.6-17.1-9.7-25.4-14.8c-15.3-9.3-30.5-19-45.3-29.1c-1.4-0.9-5.6-1.4-11.1-5.6c-31.9-21.3-58.3-44.9-78.6-66.1
			c-3.7,5.1-6.9,10.6-10.6,15.7C415.4,488.7,447.8,513.7,490.3,536.9z"/>
		
			<linearGradient id="SVGID_9_" gradientUnits="userSpaceOnUse" x1="-107.9709" y1="560.7792" x2="103.2418" y2="771.9918" gradientTransform="matrix(4.6259 0 0 4.6259 0 -2953.8093)">
			<stop  offset="0" style="stop-color:#FF0054"/>
			<stop  offset="1" style="stop-color:#484852"/>
		</linearGradient>
		<path fill="url(#SVGID_9_)" d="M300.7,440.2c0.5,0.9,1.4,1.9,1.9,2.3C302.5,442,302.1,441.6,300.7,440.2L300.7,440.2z"/>
		
			<linearGradient id="SVGID_10_" gradientUnits="userSpaceOnUse" x1="-105.8959" y1="558.7041" x2="105.3167" y2="769.9167" gradientTransform="matrix(4.6259 0 0 4.6259 0 -2953.8093)">
			<stop  offset="0" style="stop-color:#FF0054"/>
			<stop  offset="1" style="stop-color:#484852"/>
		</linearGradient>
		<path fill="url(#SVGID_10_)" d="M390.9,537.3c47.6,40.2,92.1,65.2,110.6,75.9c4.6,2.8,9.7,5.6,14.3,8.3c1.9-1.9,3.7-3.7,5.6-5.6
			c-5.6-3.2-11.1-6-16.7-9.3c-17.1-10.2-68.9-49-116.1-97.6v15.7C390,529,390.9,533.2,390.9,537.3z"/>
		
			<linearGradient id="SVGID_11_" gradientUnits="userSpaceOnUse" x1="65.4" y1="734.2" x2="65.4" y2="734.2" gradientTransform="matrix(4.6259 0 0 4.6259 0 -2953.8093)">
			<stop  offset="0" style="stop-color:#FF0054"/>
			<stop  offset="1" style="stop-color:#484852"/>
		</linearGradient>
		<path fill="url(#SVGID_11_)" d="M302.5,442.5L302.5,442.5L302.5,442.5L302.5,442.5z"/>
		
			<linearGradient id="SVGID_12_" gradientUnits="userSpaceOnUse" x1="32.856" y1="662.056" x2="270.1941" y2="899.3941" gradientTransform="matrix(4.6259 0 0 4.6259 0 -2953.8093)">
			<stop  offset="0" style="stop-color:#FF0054"/>
			<stop  offset="1" style="stop-color:#484852"/>
		</linearGradient>
		<path fill="url(#SVGID_12_)" d="M201.2,109.4c-5.6,1.9-10.6,4.2-16.2,6.5c3.7,31,9.7,61.5,17.1,91.6c3.2-2.8,6.5-5.1,9.7-7.4
			C205.9,170,202.1,140,201.2,109.4z"/>
		
			<linearGradient id="SVGID_13_" gradientUnits="userSpaceOnUse" x1="-65.0797" y1="615.7703" x2="99.025" y2="779.875" gradientTransform="matrix(4.6259 0 0 4.6259 0 -2953.8093)">
			<stop  offset="0" style="stop-color:#FF0054"/>
			<stop  offset="1" style="stop-color:#484852"/>
		</linearGradient>
		<path fill="url(#SVGID_13_)" d="M469.1,657.6c2.8-1.9,5.1-3.2,7.9-5.1c-33.8-20.4-63.8-45.3-93-71.7c-0.5,5.6-1.4,10.6-3.2,15.7
			C409.4,618.3,438.5,639.1,469.1,657.6z"/>
		
			<linearGradient id="SVGID_14_" gradientUnits="userSpaceOnUse" x1="-64.386" y1="615.0765" x2="99.7187" y2="779.1812" gradientTransform="matrix(4.6259 0 0 4.6259 0 -2953.8093)">
			<stop  offset="0" style="stop-color:#FF0054"/>
			<stop  offset="1" style="stop-color:#484852"/>
		</linearGradient>
		<path fill="url(#SVGID_14_)" d="M277.1,467.5h1.9c-0.5-0.9-0.9-1.4-1.9-1.9V467.5z"/>
		
			<linearGradient id="SVGID_15_" gradientUnits="userSpaceOnUse" x1="26.7245" y1="674.4246" x2="164.3445" y2="812.0444" gradientTransform="matrix(4.6259 0 0 4.6259 0 -2953.8093)">
			<stop  offset="0" style="stop-color:#FF0054"/>
			<stop  offset="1" style="stop-color:#484852"/>
		</linearGradient>
		<path fill="url(#SVGID_15_)" d="M165.6,233.4c-8.3-32.4-13.4-65.7-15.7-99c-5.1,3.2-10.2,6.5-15.3,10.2c4.6,31,11.1,62,19,92.1
			c1.9,7.4,4.2,15.3,6,23.1c2.8-5.1,5.6-10.6,8.8-15.3C167.9,240.8,166.5,237.1,165.6,233.4z"/>
		
			<linearGradient id="SVGID_16_" gradientUnits="userSpaceOnUse" x1="12.4352" y1="688.8852" x2="129.8196" y2="806.2696" gradientTransform="matrix(4.6259 0 0 4.6259 0 -2953.8093)">
			<stop  offset="0" style="stop-color:#FF0054"/>
			<stop  offset="1" style="stop-color:#484852"/>
		</linearGradient>
		<path fill="url(#SVGID_16_)" d="M200.3,456.8c-7.4-11.1-15.3-22.2-23.1-32.4c-21.3-26.8-32.8-59.2-33.3-93.4
			c-11.6-27.3-21.3-55.5-28.7-84.2c-6.5-24.5-11.1-49.5-13.9-74.9c-4.6,4.6-9.3,9.3-13.9,13.9c4.2,21.7,8.8,43,14.3,64.3
			c13.9,53.7,32.4,106.9,56.4,157.3c0.9,2.3,33.8,63.4,34.7,65.7C192.4,463.3,194.7,458.7,200.3,456.8z"/>
		
			<linearGradient id="SVGID_17_" gradientUnits="userSpaceOnUse" x1="-49.4782" y1="648.6218" x2="92.2854" y2="790.3854" gradientTransform="matrix(4.6259 0 0 4.6259 0 -2953.8093)">
			<stop  offset="0" style="stop-color:#FF0054"/>
			<stop  offset="1" style="stop-color:#484852"/>
		</linearGradient>
		<path fill="url(#SVGID_17_)" d="M344.2,637.7c21.7,17.1,43.9,32.8,67.1,47.6c4.2-1.4,7.9-2.8,12-4.6
			c-23.6-16.2-45.8-33.8-66.6-52.7c-2.8,1.9-6,3.7-9.3,5.1C346.5,634.9,345.1,636.3,344.2,637.7z"/>
		
			<linearGradient id="SVGID_18_" gradientUnits="userSpaceOnUse" x1="-49.1782" y1="648.3218" x2="92.5854" y2="790.0854" gradientTransform="matrix(4.6259 0 0 4.6259 0 -2953.8093)">
			<stop  offset="0" style="stop-color:#FF0054"/>
			<stop  offset="1" style="stop-color:#484852"/>
		</linearGradient>
		<path fill="url(#SVGID_18_)" d="M203.1,461c-3.7,3.7-7.4,7.4-10.2,12c5.1,7.9,11.1,16.2,16.7,24.1v-26.4
			C207.2,467.5,204.9,464.2,203.1,461z"/>
		
			<linearGradient id="SVGID_19_" gradientUnits="userSpaceOnUse" x1="2.3602" y1="698.9602" x2="119.7446" y2="816.3446" gradientTransform="matrix(4.6259 0 0 4.6259 0 -2953.8093)">
			<stop  offset="0" style="stop-color:#FF0054"/>
			<stop  offset="1" style="stop-color:#484852"/>
		</linearGradient>
		<path fill="url(#SVGID_19_)" d="M200.3,456.8c-5.6,1.4-7.9,6-7.9,16.2c3.2-4.6,6.5-8.3,10.2-12
			C202.1,459.6,201.2,458.2,200.3,456.8z"/>
		
			<linearGradient id="SVGID_20_" gradientUnits="userSpaceOnUse" x1="-48.7281" y1="647.8718" x2="93.0354" y2="789.6354" gradientTransform="matrix(4.6259 0 0 4.6259 0 -2953.8093)">
			<stop  offset="0" style="stop-color:#FF0054"/>
			<stop  offset="1" style="stop-color:#484852"/>
		</linearGradient>
		<path fill="url(#SVGID_20_)" d="M200.3,456.8c-5.6,1.4-7.9,6-7.9,16.2c3.2-4.6,6.5-8.3,10.2-12
			C202.1,459.6,201.2,458.2,200.3,456.8z"/>
		
			<linearGradient id="SVGID_21_" gradientUnits="userSpaceOnUse" x1="3.2825" y1="697.2325" x2="93.5216" y2="787.4716" gradientTransform="matrix(4.6259 0 0 4.6259 0 -2953.8093)">
			<stop  offset="0" style="stop-color:#FF0054"/>
			<stop  offset="1" style="stop-color:#484852"/>
		</linearGradient>
		<path fill="url(#SVGID_21_)" d="M64.3,260.7c-3.2-11.6-5.6-23.6-7.9-35.6c-4.2,6.5-8.3,13-12,19.4c1.4,6.5,3.2,13.4,5.1,19.9
			c19.4,74,46.3,146.6,84.2,213.3c0-17.1,10.6-29.6,10.6-29.6C109.2,389.3,81,326.8,64.3,260.7z"/>
		
			<linearGradient id="SVGID_22_" gradientUnits="userSpaceOnUse" x1="-42.0457" y1="670.3044" x2="87.1543" y2="799.5043" gradientTransform="matrix(4.6259 0 0 4.6259 0 -2953.8093)">
			<stop  offset="0" style="stop-color:#FF0054"/>
			<stop  offset="1" style="stop-color:#484852"/>
		</linearGradient>
		<path fill="url(#SVGID_22_)" d="M214.2,562.8c-3.2-5.1-5.1-11.1-6-17.1c-27.3-35.2-50.9-69.9-64.3-97.6
			c-3.7,10.2-6.9,20.8-9.3,32.4c-0.5-0.9-0.9-1.9-1.4-2.8l0,0c20.4,40.2,50.9,81.4,84.2,118.4c-2.3-6.5-3.2-13.4-3.2-20.4V562.8z"/>
		
			<linearGradient id="SVGID_23_" gradientUnits="userSpaceOnUse" x1="-44.0206" y1="672.2794" x2="85.1792" y2="801.4792" gradientTransform="matrix(4.6259 0 0 4.6259 0 -2953.8093)">
			<stop  offset="0" style="stop-color:#FF0054"/>
			<stop  offset="1" style="stop-color:#484852"/>
		</linearGradient>
		<path fill="url(#SVGID_23_)" d="M276.6,654.8c21.7,19.4,43,35.6,62,47.2c6.5-0.5,13-1.4,19.4-2.8c-14.3-9.7-31.5-23.6-49.5-41.2
			c-3.2,0.5-6.5,0.9-9.7,0.9C291.4,659.4,283.6,657.6,276.6,654.8z"/>
		
			<linearGradient id="SVGID_24_" gradientUnits="userSpaceOnUse" x1="-4.1425" y1="704.6575" x2="86.0966" y2="794.8966" gradientTransform="matrix(4.6259 0 0 4.6259 0 -2953.8093)">
			<stop  offset="0" style="stop-color:#FF0054"/>
			<stop  offset="1" style="stop-color:#484852"/>
		</linearGradient>
		<path fill="url(#SVGID_24_)" d="M143.9,448c0,0-10.6,12.5-10.6,29.6c0.5,0.9,0.9,1.9,1.4,2.8C136.9,468.9,140.2,458.2,143.9,448z"
			/>
		
			<linearGradient id="SVGID_25_" gradientUnits="userSpaceOnUse" x1="-40.2706" y1="668.5294" x2="88.9293" y2="797.7293" gradientTransform="matrix(4.6259 0 0 4.6259 0 -2953.8093)">
			<stop  offset="0" style="stop-color:#FF0054"/>
			<stop  offset="1" style="stop-color:#484852"/>
		</linearGradient>
		<path fill="url(#SVGID_25_)" d="M143.9,448c0,0-10.6,12.5-10.6,29.6c0.5,0.9,0.9,1.9,1.4,2.8C136.9,468.9,140.2,458.2,143.9,448z"
			/>
		
			<linearGradient id="SVGID_26_" gradientUnits="userSpaceOnUse" x1="-8.5934" y1="709.1915" x2="81.5369" y2="799.3218" gradientTransform="matrix(4.6259 0 0 4.6259 0 -2953.8093)">
			<stop  offset="0" style="stop-color:#FF0054"/>
			<stop  offset="1" style="stop-color:#484852"/>
		</linearGradient>
		<path fill="url(#SVGID_26_)" d="M160.1,567.4C99.5,486,49,395.8,19.9,298.6c-3.2,10.2-6,20.4-8.3,30.5
			c28.7,91.1,69.4,179,126.7,254.4c31.5,41.2,67.1,78.6,106.4,112.4c11.6,2.3,23.1,4.2,35.2,5.6
			C235.9,661.3,196.1,615.5,160.1,567.4z"/>
		
			<linearGradient id="SVGID_27_" gradientUnits="userSpaceOnUse" x1="-18.7859" y1="719.472" x2="71.3421" y2="809.5999" gradientTransform="matrix(4.6259 0 0 4.6259 0 -2953.8093)">
			<stop  offset="0" style="stop-color:#FF0054"/>
			<stop  offset="1" style="stop-color:#484852"/>
		</linearGradient>
		<path fill="url(#SVGID_27_)" d="M4.6,407.8c0.9,31.5,6.9,62,17.1,90.2c19.9,39.3,43,77.3,69.4,112.4c25,25.9,54.6,47.6,87.4,63.4
			c-21.3-24.1-41.2-48.6-60.1-74C74,540.1,34.7,475.8,4.6,407.8z"/>
	</g>
	<g>
		
			<linearGradient id="SVGID_28_" gradientUnits="userSpaceOnUse" x1="49.8672" y1="694.9" x2="79.5013" y2="694.9" gradientTransform="matrix(4.6259 0 0 -4.6259 0 3753.6733)">
			<stop  offset="0" style="stop-color:#FF0054"/>
			<stop  offset="1" style="stop-color:#484852"/>
		</linearGradient>
		<path fill="url(#SVGID_28_)" d="M344.2,515.6h-89.7c-13,0-23.6,10.6-23.6,23.6c0,13,10.6,23.6,23.6,23.6h89.7
			c13,0,23.6-10.6,23.6-23.6C367.8,525.8,357.1,515.6,344.2,515.6z M254.4,537.3h89.7c0.9,0,1.9,0.9,1.9,1.9s-0.9,1.9-1.9,1.9h-89.7
			c-0.9,0-1.9-0.9-1.9-1.9S253.5,537.3,254.4,537.3z"/>
		
			<linearGradient id="SVGID_29_" gradientUnits="userSpaceOnUse" x1="51.3" y1="681.7" x2="78.0576" y2="681.7" gradientTransform="matrix(4.6259 0 0 -4.6259 0 3753.6733)">
			<stop  offset="0" style="stop-color:#FF0054"/>
			<stop  offset="1" style="stop-color:#484852"/>
		</linearGradient>
		<path fill="url(#SVGID_29_)" d="M237.3,575.7c0,18.5,12.5,34.2,30.1,38.9c5.1,13,17.6,21.3,31.9,21.3c13.9,0,26.4-8.8,31.9-21.3
			c17.6-4.6,30.1-20.8,30.1-38.9v-11.1h-124V575.7z M311.8,603.5c-0.9,6-6,10.6-12.5,10.6c-6,0-11.6-4.6-12.5-10.6l-1.4-8.8
			l-8.8-0.5c-5.6-0.5-10.6-3.2-13.9-7.4h72.6c-3.2,4.2-8.3,6.9-13.9,7.4l-8.8,0.5L311.8,603.5z"/>
		
			<linearGradient id="SVGID_30_" gradientUnits="userSpaceOnUse" x1="36" y1="734.8" x2="93.3" y2="734.8" gradientTransform="matrix(4.6259 0 0 -4.6259 0 3753.6733)">
			<stop  offset="0" style="stop-color:#FF0054"/>
			<stop  offset="1" style="stop-color:#484852"/>
		</linearGradient>
		<path fill="url(#SVGID_30_)" d="M299.3,196.4c-73.1,0-132.8,59.2-132.8,132.3c0,30.1,9.7,58.3,28.2,81.9
			c13.4,16.7,25.9,35.6,37,54.1v48.1h133.7v-47.2c11.6-19.4,25.9-39.8,37.9-55c18.5-23.6,28.2-51.8,28.2-81.9
			C431.6,255.6,372.4,196.4,299.3,196.4z M345.1,456.8l-1.4,2.8v31.5H254v-32.4l-1.4-2.8c-12-20.4-25.9-40.7-40.2-58.7
			c-15.3-19.4-23.6-43-23.6-68c0-61.1,49.5-110.6,110.6-110.6s110.6,49.5,110.6,110.6c0,25-8.3,48.6-23.6,68
			C373.3,413.3,357.6,436,345.1,456.8z"/>
	</g>
</g>
</svg>
